<svg width="600" height="423" viewBox="0 0 600 423" fill="none" xmlns="http://www.w3.org/2000/svg">
<g clip-path="url(#clip0_83_5079)">
<path d="M97.7202 405.278C117.341 389.225 119.879 362.223 117.101 338.369C116.638 334.386 116.737 330.139 114.526 326.796C112.314 323.451 107.629 321.427 104.144 323.408C101.254 325.052 100.226 328.609 98.7781 331.601C96.8524 335.58 93.7782 338.998 90.0219 341.329C87.5532 342.862 84.4321 343.931 81.7748 342.755C78.1291 341.143 77.3294 336.42 77.0288 332.444C76.4701 325.039 75.9114 317.633 75.3527 310.228C75.0535 306.255 74.7344 302.199 73.1732 298.532C71.6134 294.867 68.5633 291.592 64.6482 290.849C60.7331 290.108 56.1771 292.676 55.6879 296.629C55.4837 298.276 55.9559 299.926 55.9786 301.584C56.0012 303.241 55.3717 305.13 53.8232 305.721C52.2563 306.318 50.5533 305.324 49.2544 304.262C44.7735 300.594 41.532 295.661 38.479 290.74C35.4246 285.821 32.4383 280.773 28.312 276.709C24.1856 272.645 18.688 269.609 12.8997 269.762C7.11003 269.916 1.25794 273.933 0.258249 279.637C-0.744277 285.356 3.03044 290.764 7.00368 295C12.8955 301.285 19.7033 306.71 27.1435 311.053C28.485 311.837 29.9384 312.684 30.5439 314.115C31.6329 316.69 29.306 319.53 26.7309 320.619C23.8112 321.851 20.5314 321.811 17.4246 322.435C14.3163 323.059 11.028 324.704 10.0807 327.729C8.76625 331.926 12.5537 335.896 16.1654 338.404C23.3986 343.425 31.4996 347.197 39.9991 349.501C43.0464 350.327 46.2383 351.008 48.7921 352.863C51.3474 354.72 53.0802 358.169 51.8678 361.084C50.654 364.006 47.0253 365.205 43.8788 364.893C40.7322 364.583 37.8211 363.149 34.7752 362.293C29.0763 360.689 21.9664 361.653 18.8114 366.663C16.7368 369.955 16.8857 374.29 18.3647 377.889C19.8437 381.488 22.4911 384.474 25.2675 387.201C34.9695 396.734 46.9927 404.061 60.1787 407.393C73.3661 410.722 85.3482 410.93 97.7202 405.278Z" fill="#EBEBEB"/>
<path d="M99.4413 422.996C97.7822 413.596 94.7576 402.582 90.1775 390.82C85.62 379.046 79.5397 366.551 72.729 353.694C71.0132 350.486 69.3187 347.319 67.6483 344.195C65.9751 341.079 64.316 337.994 62.5024 335.073C58.9021 329.216 54.9898 323.856 51.1144 318.882C47.2376 313.905 43.3764 309.322 39.7322 305.061C36.0794 300.807 32.5996 296.904 29.273 293.483C22.641 286.611 16.6386 281.705 12.3804 278.5C10.2519 276.891 8.56168 275.694 7.40601 274.897C6.84306 274.514 6.40632 274.216 6.08585 273.998C5.78665 273.798 5.625 273.709 5.625 273.709C5.625 273.709 5.76254 273.832 6.0504 274.048C6.36094 274.276 6.78776 274.591 7.33653 274.993C8.46809 275.823 10.1357 277.048 12.2386 278.685C16.4486 281.943 22.3914 286.886 28.9667 293.778C32.2664 297.211 35.7206 301.122 39.3521 305.385C42.9751 309.658 46.8179 314.248 50.6749 319.224C54.5318 324.195 58.4242 329.547 61.999 335.382C63.7999 338.292 65.4447 341.356 67.1194 344.48C68.7898 347.602 70.4815 350.77 72.1958 353.976C79.0037 366.825 85.0855 379.289 89.6599 391.023C94.2557 402.745 97.3143 413.711 99.023 423.072" fill="#E0E0E0"/>
<path d="M62.3474 335.026C62.3885 335.029 62.468 334.413 62.5743 333.297C62.6863 332.181 62.8012 330.563 62.916 328.562C63.1486 324.561 63.289 319.025 63.4279 312.921C63.5669 306.812 63.8037 301.291 64.1228 297.305C64.2759 295.312 64.4205 293.698 64.5368 292.586C64.646 291.473 64.6885 290.854 64.646 290.846C64.6049 290.841 64.4858 291.449 64.3043 292.557C64.1157 293.663 63.9072 295.273 63.6988 297.267C63.2677 301.256 62.9643 306.793 62.8253 312.906C62.6962 318.958 62.5786 324.435 62.4906 328.545C62.4297 330.461 62.3786 332.054 62.3389 333.283C62.3063 334.4 62.3063 335.021 62.3474 335.026Z" fill="#E0E0E0"/>
<path d="M9.83302 329.747C9.83443 329.768 10.0202 329.781 10.3719 329.789C10.7958 329.791 11.3035 329.792 11.9146 329.794C13.2532 329.791 15.1874 329.784 17.5781 329.854C22.3582 329.955 28.9576 330.334 36.2177 331.074C43.4779 331.828 50.0177 332.793 54.7255 333.633C57.0822 334.038 58.9809 334.418 60.294 334.674C60.8938 334.789 61.3929 334.884 61.8084 334.964C62.1558 335.023 62.3416 335.044 62.3472 335.025C62.3515 335.005 62.1756 334.944 61.8367 334.846C61.4284 334.737 60.9363 334.605 60.3464 334.447C59.0475 334.12 57.1588 333.675 54.8049 333.215C50.1071 332.266 43.5573 331.231 36.2787 330.476C29.003 329.734 22.3795 329.421 17.5838 329.429C15.1874 329.415 13.2476 329.484 11.909 329.56C11.2978 329.602 10.7916 329.638 10.369 329.667C10.0174 329.7 9.8316 329.727 9.83302 329.747Z" fill="#E0E0E0"/>
<path d="M89.5241 389.91C89.544 389.917 89.6432 389.69 89.8134 389.253C90.002 388.752 90.2402 388.114 90.5366 387.329C91.1577 385.656 91.9985 383.214 92.9982 380.184C95.0033 374.126 97.516 365.673 100.169 356.311C102.825 346.947 105.27 338.486 107.168 332.401C108.113 329.418 108.885 326.976 109.446 325.202C109.697 324.401 109.901 323.751 110.06 323.244C110.194 322.793 110.255 322.553 110.235 322.546C110.216 322.539 110.116 322.766 109.945 323.203C109.758 323.702 109.519 324.34 109.223 325.127C108.602 326.8 107.762 329.242 106.763 332.271C104.756 338.328 102.244 346.781 99.5891 356.146C96.9346 365.507 94.49 373.967 92.5913 380.053C91.6469 383.037 90.8741 385.478 90.3139 387.252C90.063 388.053 89.8588 388.703 89.7 389.212C89.5667 389.663 89.5043 389.903 89.5241 389.91Z" fill="#E0E0E0"/>
<path d="M18.9883 373.709C18.9841 373.729 19.228 373.8 19.6959 373.917C20.2277 374.042 20.9083 374.202 21.7492 374.399C23.6082 374.825 26.1733 375.411 29.31 376.125C35.6895 377.59 44.4797 379.721 54.1831 382.101C63.8907 384.48 72.7022 386.549 79.1115 387.909C82.3162 388.591 84.914 389.117 86.7148 389.447C87.5671 389.6 88.2548 389.724 88.7908 389.82C89.2673 389.898 89.5182 389.929 89.5239 389.91C89.5282 389.888 89.2843 389.819 88.8149 389.701C88.2846 389.576 87.6039 389.416 86.7631 389.219C84.9041 388.794 82.3403 388.209 79.2037 387.493C72.8227 386.029 64.0325 383.894 54.3249 381.516C44.6201 379.138 35.8086 377.07 29.4007 375.71C26.196 375.029 23.5983 374.502 21.796 374.17C20.9452 374.017 20.2574 373.893 19.7186 373.797C19.245 373.719 18.9926 373.688 18.9883 373.709Z" fill="#E0E0E0"/>
<path d="M284.018 0.0756549L181.496 30.9202L202.286 100.024L304.809 69.1794L284.018 0.0756549Z" fill="white"/>
<path d="M304.81 69.175C304.81 69.175 304.656 68.7383 304.397 67.9116C304.133 67.0622 303.756 65.8455 303.264 64.2616C302.279 61.0456 300.841 56.3577 299.004 50.3666C295.354 38.3633 290.116 21.1388 283.735 0.156688L284.103 0.35379C255.812 8.88731 220.2 19.6272 181.61 31.2676L181.601 31.2704L181.848 30.811C189.248 55.4459 196.283 78.8656 202.609 99.9229L202.188 99.696C232.365 90.6875 257.969 83.0445 276.053 77.6461C285.099 74.9647 292.265 72.8419 297.194 71.38C299.64 70.6625 301.527 70.1095 302.832 69.7266C303.46 69.5465 303.943 69.4075 304.295 69.3069C304.63 69.2161 304.81 69.175 304.81 69.175C304.81 69.175 304.662 69.2331 304.347 69.3352C304.007 69.443 303.539 69.5905 302.932 69.7819C301.647 70.1775 299.791 70.7518 297.382 71.4948C292.482 72.9908 285.36 75.166 276.367 77.9127C258.254 83.4046 232.611 91.1809 202.386 100.345L202.063 100.443L201.965 100.119C195.621 79.067 188.566 55.6529 181.144 31.0237L181.038 30.6706L181.393 30.5643L181.401 30.5614C220.008 18.975 255.635 8.28324 283.937 -0.210578L284.22 -0.295654L284.304 -0.0120586C290.583 21.0807 295.736 38.3959 299.328 50.4631C301.093 56.4456 302.476 61.1264 303.423 64.3382C303.879 65.9079 304.231 67.1132 304.476 67.9555C304.71 68.768 304.81 69.175 304.81 69.175Z" fill="#E0E0E0"/>
<path d="M284.019 0.0715357C284.029 0.0772077 283.981 0.183559 283.877 0.383497C283.748 0.618885 283.591 0.908161 283.397 1.26266C282.932 2.07943 282.295 3.19681 281.489 4.61339C279.772 7.56283 277.339 11.7445 274.336 16.9046C268.196 27.3156 259.737 41.6629 250.309 57.6508L250.15 57.9203L249.858 57.8068C248.864 57.4211 247.795 57.0071 246.72 56.5916C228.71 49.5654 212.409 43.2071 200.543 38.5787C194.689 36.2575 189.935 34.3715 186.58 33.0415C184.98 32.3892 183.717 31.8759 182.797 31.5015C182.401 31.3328 182.079 31.1952 181.82 31.0832C181.601 30.9854 181.491 30.9286 181.496 30.9173C181.501 30.9059 181.62 30.9371 181.848 31.0123C182.115 31.1059 182.445 31.2208 182.852 31.3626C183.784 31.7057 185.064 32.1765 186.685 32.7735C190.06 34.0511 194.844 35.8633 200.733 38.0924C212.619 42.6697 228.947 48.9571 246.988 55.9039C248.063 56.3208 249.132 56.7348 250.126 57.1205L249.675 57.2765C259.18 41.3339 267.708 27.0277 273.897 16.6451C276.984 11.5347 279.486 7.39268 281.25 4.4716C282.105 3.08479 282.781 1.98867 283.273 1.19034C283.492 0.85002 283.669 0.573507 283.815 0.348045C283.94 0.158033 284.009 0.0658637 284.019 0.0715357Z" fill="#E0E0E0"/>
<path d="M582.293 276.088C582.293 276.088 575.65 269.506 562.678 285.946C549.705 302.388 544.068 312.237 544.068 312.237C544.068 312.237 540.84 315.581 538.705 312.549C536.571 309.519 534.381 301.69 529.649 302.079C524.741 302.481 522.18 307.358 521.548 315.148C520.915 322.939 518.904 339.956 518.717 341.493C518.533 343.004 517.244 345.026 515.46 343.194C513.676 341.362 504.42 325.745 497.272 330.579C490.123 335.415 491.93 357.406 492.08 359.814C492.232 362.222 491.59 363.109 490.39 363.46C489.19 363.809 486.574 358.267 483.761 353.932C480.946 349.599 476.923 345.065 473.034 348.202C469.144 351.337 465.028 366.748 474.832 395.067L480.234 407.891L494.072 409.86C523.943 412.266 537.833 404.424 539.897 399.874C541.958 395.324 536.564 392.561 531.664 390.922C526.763 389.283 520.742 388.136 520.78 386.888C520.819 385.64 521.518 384.796 523.887 384.34C526.257 383.883 548 380.128 550.893 371.999C553.786 363.868 536.349 358.816 534.13 357.545C531.909 356.276 533.544 354.522 534.96 353.966C536.403 353.399 552.375 347.194 559.76 344.633C567.145 342.072 571.224 338.371 570.386 333.52C569.578 328.842 561.45 328.68 557.982 327.372C554.513 326.064 556.942 322.101 556.942 322.101C556.942 322.101 565.067 314.179 577.74 297.506C590.413 280.831 582.15 275.968 582.15 275.968" fill="#EBEBEB"/>
<path d="M570.65 290.793C570.66 290.8 570.583 290.922 570.425 291.153C570.237 291.414 569.999 291.747 569.701 292.164C569.021 293.086 568.071 294.373 566.863 296.01C564.388 299.343 560.767 304.135 556.263 310.037C547.26 321.84 534.665 338.025 520.677 355.836C506.724 373.656 494.095 389.785 484.918 401.507C480.389 407.337 476.713 412.069 474.134 415.388C472.879 416.989 471.892 418.248 471.186 419.15C470.864 419.549 470.606 419.868 470.404 420.117C470.224 420.333 470.128 420.439 470.118 420.432C470.108 420.424 470.185 420.303 470.345 420.072C470.532 419.811 470.77 419.478 471.068 419.061C471.747 418.139 472.699 416.853 473.907 415.215C476.381 411.881 480.003 407.09 484.506 401.19C493.509 389.386 506.105 373.2 520.098 355.381C534.046 337.567 546.673 321.44 555.852 309.717C560.381 303.888 564.056 299.156 566.636 295.835C567.891 294.234 568.879 292.974 569.585 292.073C569.907 291.675 570.165 291.356 570.366 291.106C570.542 290.892 570.64 290.786 570.65 290.793Z" fill="#E0E0E0"/>
<path d="M532.272 313.153C532.37 313.145 532.586 314.563 532.797 316.867C533.008 319.171 533.197 322.363 533.324 325.887C533.417 329.277 533.5 332.343 533.57 334.908C533.621 337.215 533.67 338.642 533.566 338.652C533.468 338.662 533.234 337.244 533.048 334.935C532.859 332.628 532.712 329.436 532.586 325.914C532.469 322.528 532.364 319.463 532.275 316.9C532.199 314.593 532.167 313.162 532.272 313.153Z" fill="#E0E0E0"/>
<path d="M534.769 339.145C534.752 338.942 541.307 338.229 549.409 337.553C557.513 336.876 564.096 336.494 564.113 336.696C564.13 336.899 557.576 337.612 549.47 338.289C541.369 338.964 534.786 339.348 534.769 339.145Z" fill="#E0E0E0"/>
<path d="M511.241 366.494C511.266 366.391 512.702 366.655 515.017 367.098C517.332 367.537 520.526 368.148 524.072 368.712C527.618 369.285 530.843 369.709 533.18 370.012C535.517 370.316 536.963 370.514 536.956 370.619C536.949 370.717 535.485 370.703 533.127 370.531C530.771 370.36 527.519 370.017 523.956 369.441C520.392 368.874 517.199 368.178 514.905 367.607C512.612 367.032 511.218 366.589 511.241 366.494Z" fill="#E0E0E0"/>
<path d="M503.805 343.482C503.902 343.449 504.421 344.697 505.181 346.742C505.941 348.785 506.942 351.625 508.004 354.776C509.067 357.928 509.99 360.795 510.623 362.881C511.255 364.967 511.6 366.274 511.502 366.307C511.406 366.34 510.887 365.092 510.128 363.049C509.368 361.005 508.367 358.165 507.303 355.013C506.241 351.862 505.318 348.996 504.684 346.909C504.052 344.822 503.709 343.514 503.805 343.482Z" fill="#E0E0E0"/>
<path d="M479.965 364.988C480.062 364.954 480.717 366.557 481.698 369.173C482.679 371.789 483.987 375.421 485.386 379.446C486.787 383.473 488.017 387.132 488.872 389.792C489.727 392.452 490.208 394.114 490.111 394.148C490.015 394.181 489.36 392.58 488.38 389.964C487.398 387.347 486.091 383.716 484.69 379.689C483.289 375.663 482.061 372.005 481.206 369.344C480.35 366.683 479.869 365.021 479.965 364.988Z" fill="#E0E0E0"/>
<path d="M490.065 393.382C490.084 393.278 491.917 393.555 494.872 394.018C497.827 394.476 501.906 395.114 506.425 395.708C510.946 396.311 515.05 396.764 518.023 397.088C520.995 397.412 522.836 397.622 522.829 397.727C522.822 397.825 520.969 397.8 517.978 397.608C514.989 397.417 510.862 397.044 506.329 396.44C501.796 395.843 497.716 395.121 494.779 394.531C491.843 393.936 490.045 393.477 490.065 393.382Z" fill="#E0E0E0"/>
<path d="M519.718 136.662L516.362 246.626L596.72 249.078L600.075 139.115L519.718 136.662Z" fill="#F5F5F5"/>
<path d="M504.915 151.27L501.56 261.234L581.917 263.686L585.273 153.722L504.915 151.27Z" fill="white"/>
<path d="M581.941 263.675C581.941 263.675 581.933 263.486 581.938 263.135C581.945 262.762 581.953 262.248 581.966 261.579C581.999 260.192 582.047 258.18 582.109 255.571C582.25 250.312 582.452 242.662 582.709 232.982C583.259 213.629 584.041 186.18 584.964 153.696L585.288 154.041C561.089 153.312 533.76 152.49 504.936 151.622H504.928L505.308 151.264C504.029 192.34 502.843 230.368 501.882 261.229L501.59 260.918C525.9 261.727 545.949 262.392 559.947 262.857C566.944 263.104 572.421 263.296 576.181 263.43C578.038 263.502 579.466 263.556 580.456 263.594C581.424 263.637 581.941 263.675 581.941 263.675C581.941 263.675 581.467 263.682 580.517 263.664C579.538 263.641 578.129 263.61 576.296 263.569C572.552 263.472 567.094 263.332 560.126 263.152C546.081 262.76 525.964 262.2 501.571 261.521L501.271 261.513L501.279 261.21C502.202 230.348 503.339 192.318 504.569 151.242L504.58 150.873L504.949 150.884H504.957C533.781 151.776 561.107 152.623 585.307 153.373L585.642 153.383L585.63 153.718C584.568 186.286 583.671 213.807 583.037 233.211C582.703 242.854 582.441 250.478 582.26 255.717C582.163 258.298 582.089 260.286 582.038 261.657C582.01 262.309 581.989 262.811 581.973 263.174C581.958 263.512 581.941 263.675 581.941 263.675Z" fill="#E0E0E0"/>
<path d="M553.914 176.706C553.908 176.91 545.161 176.808 534.378 176.479C523.593 176.15 514.857 175.718 514.862 175.514C514.868 175.309 523.614 175.412 534.401 175.741C545.182 176.071 553.92 176.502 553.914 176.706Z" fill="#E0E0E0"/>
<path d="M574.742 186.906C574.736 187.11 561.26 186.863 544.647 186.356C528.028 185.848 514.564 185.272 514.569 185.068C514.575 184.864 528.049 185.111 544.669 185.618C561.282 186.126 574.748 186.703 574.742 186.906Z" fill="#E0E0E0"/>
<path d="M574.437 196.874C574.432 197.079 560.955 196.832 544.342 196.326C527.723 195.818 514.259 195.242 514.265 195.038C514.27 194.834 527.744 195.081 544.363 195.588C560.978 196.094 574.445 196.672 574.437 196.874Z" fill="#E0E0E0"/>
<path d="M574.135 206.844C574.129 207.048 560.652 206.802 544.039 206.296C527.42 205.788 513.956 205.212 513.962 205.008C513.968 204.804 527.441 205.051 544.062 205.558C560.674 206.063 574.14 206.64 574.135 206.844Z" fill="#E0E0E0"/>
<path d="M573.829 216.813C573.823 217.017 560.347 216.77 543.733 216.263C527.114 215.755 513.651 215.179 513.656 214.975C513.662 214.771 527.136 215.018 543.755 215.525C560.369 216.031 573.835 216.609 573.829 216.813Z" fill="#E0E0E0"/>
<path d="M573.524 226.782C573.519 226.986 560.042 226.739 543.427 226.231C526.808 225.724 513.344 225.148 513.352 224.944C513.357 224.74 526.831 224.986 543.45 225.494C560.065 226.002 573.531 226.577 573.524 226.782Z" fill="#E0E0E0"/>
<path d="M573.222 236.75C573.216 236.954 559.739 236.708 543.126 236.201C526.507 235.694 513.043 235.118 513.049 234.914C513.055 234.71 526.528 234.956 543.149 235.464C559.761 235.97 573.227 236.546 573.222 236.75Z" fill="#E0E0E0"/>
<path d="M545.086 245.869C545.081 246.073 537.835 246.017 528.904 245.744C519.971 245.472 512.736 245.085 512.743 244.881C512.749 244.677 519.993 244.733 528.927 245.006C537.857 245.279 545.093 245.665 545.086 245.869Z" fill="#E0E0E0"/>
<path d="M346.562 78.1483L321.419 141.302L400.414 172.752L425.557 109.598L346.562 78.1483Z" fill="white"/>
<path d="M425.551 109.615C425.551 109.615 425.419 109.568 425.169 109.472C424.917 109.373 424.548 109.229 424.063 109.039C423.086 108.654 421.648 108.086 419.774 107.348C416.026 105.864 410.547 103.695 403.599 100.944C389.719 95.435 369.978 87.5991 346.51 78.2829L346.677 78.2106C339.199 97.0076 330.623 118.558 321.55 141.361L321.548 141.368L321.467 141.181C350.709 152.833 377.885 163.662 400.451 172.655L400.296 172.722C407.898 153.701 414.198 137.934 418.6 126.917C420.808 121.407 422.54 117.085 423.722 114.137C424.314 112.665 424.768 111.538 425.076 110.772C425.383 110.011 425.551 109.615 425.551 109.615C425.551 109.615 425.406 110.002 425.11 110.759C424.809 111.522 424.367 112.647 423.79 114.113C422.623 117.061 420.914 121.382 418.734 126.892C414.353 137.935 408.082 153.742 400.517 172.812L400.473 172.923L400.363 172.879C377.793 163.9 350.609 153.087 321.362 141.45L321.229 141.398L321.282 141.265L321.285 141.258C330.369 118.458 338.954 96.9111 346.441 78.1184L346.489 77.9993L346.608 78.0475C370.089 87.4247 389.84 95.313 403.726 100.859C410.652 103.632 416.114 105.819 419.849 107.315C421.707 108.062 423.135 108.637 424.103 109.025C424.579 109.218 424.942 109.365 425.191 109.466C425.433 109.561 425.551 109.615 425.551 109.615Z" fill="#E0E0E0"/>
<path d="M347.654 83.2603L325.676 138.463L399.122 167.704L421.1 112.501L347.654 83.2603Z" fill="#EBEBEB"/>
<path d="M325.965 138.65L365.279 114.55L372.621 142.344L387.968 135.159L399.409 167.89L325.965 138.65Z" fill="#E0E0E0"/>
<path d="M389.588 119.359C388.316 122.553 384.697 124.111 381.502 122.839C378.309 121.567 376.75 117.948 378.022 114.754C379.294 111.56 382.913 110.002 386.108 111.274C389.301 112.546 390.86 116.165 389.588 119.359Z" fill="#E0E0E0"/>
<path d="M140.564 179.537C140.576 179.473 141.112 179.912 142.248 179.815C142.798 179.747 143.49 179.501 144.057 178.911C144.599 178.324 144.989 177.391 145.554 176.467C147.751 172.632 150.886 167.16 154.75 160.416C155.726 158.723 156.747 156.952 157.81 155.106C158.343 154.183 158.886 153.241 159.439 152.281C159.705 151.795 160.039 151.323 160.188 150.856C160.344 150.373 160.363 149.842 160.231 149.345C160.096 148.848 159.815 148.39 159.415 148.058C159.034 147.751 158.45 147.483 157.951 147.186C156.915 146.608 155.863 146.019 154.795 145.422C152.661 144.227 150.465 142.998 148.212 141.738C139.203 136.682 129.307 131.129 118.917 125.298C117.774 124.627 116.189 125.064 115.473 126.159C114.734 127.421 114.001 128.674 113.274 129.918C111.813 132.426 110.375 134.897 108.961 137.326C106.131 142.179 103.4 146.86 100.798 151.323C100.473 151.88 100.149 152.434 99.8281 152.985C99.502 153.495 99.3545 154.038 99.3715 154.604C99.3971 155.161 99.5942 155.709 99.9487 156.127C100.275 156.562 100.807 156.792 101.352 157.112C103.481 158.316 105.547 159.486 107.546 160.616C111.538 162.879 115.257 164.989 118.658 166.916C125.407 170.769 130.885 173.894 134.722 176.085C136.577 177.163 138.035 178.008 139.071 178.611C139.536 178.89 139.906 179.111 140.193 179.284C140.445 179.44 140.57 179.525 140.564 179.537C140.559 179.548 140.42 179.484 140.157 179.351C139.861 179.195 139.48 178.994 139 178.741C137.947 178.168 136.468 177.361 134.583 176.336C130.719 174.195 125.202 171.138 118.404 167.372C114.989 165.467 111.254 163.384 107.247 161.149C105.242 160.029 103.17 158.871 101.035 157.677C100.536 157.383 99.8877 157.11 99.4439 156.545C98.9944 156.015 98.7419 155.327 98.7079 154.629C98.6725 153.937 98.8866 153.207 99.2468 152.643C99.5658 152.091 99.8877 151.537 100.211 150.978C102.802 146.51 105.519 141.821 108.336 136.96C109.747 134.529 111.182 132.056 112.64 129.546C113.377 128.286 114.12 127.017 114.867 125.738C115.774 124.352 117.79 123.781 119.282 124.652C129.66 130.501 139.548 136.072 148.548 141.143C150.795 142.412 152.986 143.651 155.116 144.854C156.181 145.455 157.229 146.049 158.262 146.633C158.779 146.947 159.285 147.159 159.818 147.581C160.316 147.999 160.663 148.573 160.825 149.187C160.984 149.803 160.957 150.452 160.762 151.04C160.554 151.649 160.215 152.093 159.953 152.576C159.393 153.532 158.844 154.469 158.305 155.39C157.227 157.227 156.192 158.991 155.204 160.676C151.255 167.37 148.05 172.803 145.805 176.608C145.213 177.529 144.833 178.419 144.216 179.063C143.589 179.678 142.846 179.912 142.265 179.959C141.673 179.996 141.231 179.867 140.959 179.752C140.681 179.64 140.564 179.537 140.564 179.537Z" fill="#E0E0E0"/>
<path d="M133.071 150.466L136.644 156.812L129.272 156.946L121.898 157.082L125.697 150.601L129.496 144.119L133.071 150.466Z" fill="#E0E0E0"/>
<path d="M613.96 420.823C613.96 421.04 478.333 421.215 311.067 421.215C143.743 421.215 8.14551 421.039 8.14551 420.823C8.14551 420.608 143.743 420.432 311.067 420.432C478.333 420.432 613.96 420.608 613.96 420.823Z" fill="#263238"/>
<path d="M158.091 330.735L115.273 287.733L136.802 248.193C158.33 220.637 203.897 222.413 203.897 222.413C203.897 222.413 234.907 219.426 271.102 226.47C307.296 233.513 304.382 257.467 304.382 257.467L309.232 346.194L314.43 418.44L180.928 421.131L158.091 330.735Z" fill="#407BFF"/>
<path d="M230.006 416.972L110.433 418.437C81.6988 418.789 62.5303 388.917 74.823 362.942L125.95 268.125L172.52 299.607L140.754 365.536L237.554 367.263L230.006 416.972Z" fill="#407BFF"/>
<path d="M300.106 243.064L396.064 391.214L340.083 394.876C340.083 394.876 306.652 342.193 307.408 343.283C308.775 345.254 300.106 243.064 300.106 243.064Z" fill="#407BFF"/>
<path d="M170.12 308.118C170.096 308.111 170.142 307.849 170.253 307.357C170.389 306.785 170.556 306.075 170.762 305.21C171.206 303.346 171.85 300.652 172.526 297.299C173.198 293.947 173.914 289.934 174.403 285.446C174.856 280.963 175.141 275.973 174.454 270.835C173.692 265.713 171.767 261.07 169.501 257.196C167.238 253.305 164.69 250.113 162.379 247.608C160.066 245.101 158.024 243.226 156.569 241.988C155.119 240.743 154.29 240.081 154.327 240.031C154.343 240.012 154.567 240.153 154.98 240.444C155.385 240.743 156.011 241.154 156.752 241.766C158.271 242.941 160.378 244.767 162.76 247.25C165.14 249.732 167.759 252.922 170.088 256.85C172.418 260.76 174.405 265.483 175.186 270.728C175.885 275.972 175.572 281.006 175.08 285.518C174.549 290.034 173.777 294.054 173.036 297.405C172.292 300.756 171.569 303.437 171.04 305.281C170.775 306.202 170.556 306.914 170.396 307.393C170.239 307.876 170.144 308.125 170.12 308.118Z" fill="#263238"/>
<path d="M166.274 313.227C166.321 313.248 166.025 314.01 165.452 315.37C164.879 316.73 164.02 318.685 162.936 321.091C160.77 325.903 157.685 332.509 154.139 339.738C150.59 346.968 147.252 353.45 144.77 358.108C143.531 360.437 142.51 362.313 141.784 363.597C141.059 364.884 140.638 365.583 140.593 365.56C140.548 365.536 140.884 364.791 141.53 363.464C142.243 362.028 143.178 360.143 144.307 357.869C146.709 353.035 149.923 346.566 153.477 339.413C156.959 332.228 160.109 325.73 162.463 320.872C163.572 318.587 164.489 316.694 165.19 315.251C165.843 313.928 166.228 313.207 166.274 313.227Z" fill="#263238"/>
<path d="M230.007 416.972C229.997 416.971 229.998 416.887 230.008 416.723C230.024 416.526 230.043 416.289 230.068 415.994C230.137 415.306 230.231 414.366 230.351 413.168C230.628 410.649 231.025 407.053 231.522 402.53C232.582 393.364 234.072 380.452 235.829 365.238L236.164 365.615C225.407 365.625 213.437 365.635 200.843 365.646C176.728 365.604 154.902 365.566 139.046 365.539C131.176 365.489 124.791 365.449 120.32 365.421C118.148 365.391 116.442 365.369 115.229 365.351C114.681 365.336 114.244 365.325 113.905 365.315C113.607 365.302 113.454 365.289 113.454 365.276C113.454 365.264 113.607 365.251 113.905 365.238C114.244 365.228 114.679 365.217 115.229 365.201C116.443 365.184 118.149 365.161 120.32 365.132C124.792 365.103 131.176 365.064 139.046 365.014C154.902 364.986 176.728 364.947 200.843 364.906C213.437 364.918 225.407 364.929 236.164 364.937H236.545L236.498 365.315C234.632 380.516 233.05 393.418 231.925 402.575C231.347 407.089 230.887 410.678 230.565 413.191C230.401 414.383 230.272 415.32 230.177 416.004C230.131 416.296 230.095 416.531 230.063 416.726C230.035 416.892 230.017 416.972 230.007 416.972Z" fill="#263238"/>
<path d="M141.597 366.547C141.496 366.609 140.681 365.392 139.21 363.559C137.744 361.723 135.562 359.309 132.83 356.995C130.091 354.688 127.346 352.941 125.29 351.802C123.235 350.659 121.899 350.06 121.944 349.95C121.974 349.871 123.387 350.301 125.532 351.339C127.675 352.372 130.519 354.081 133.307 356.429C136.089 358.785 138.249 361.302 139.627 363.241C141.008 365.183 141.669 366.503 141.597 366.547Z" fill="#263238"/>
<path d="M311.214 375.928C311.188 375.931 311.125 375.509 311.024 374.703C310.925 373.831 310.791 372.656 310.624 371.175C310.296 368.108 309.857 363.668 309.383 358.175C308.413 347.19 307.294 331.996 306.298 315.201C305.304 298.401 304.61 283.181 304.21 272.162C304.006 266.653 303.876 262.193 303.806 259.111C303.782 257.62 303.762 256.438 303.747 255.56C303.741 254.749 303.751 254.322 303.776 254.321C303.802 254.319 303.842 254.745 303.896 255.554C303.944 256.429 304.01 257.612 304.093 259.099C304.247 262.249 304.464 266.686 304.731 272.139C305.263 283.15 306.04 298.361 307.032 315.157C308.029 331.946 309.066 347.14 309.901 358.131C310.322 363.575 310.664 368.003 310.908 371.148C311.017 372.634 311.105 373.815 311.17 374.689C311.225 375.499 311.239 375.925 311.214 375.928Z" fill="#263238"/>
<path d="M204.477 295.316C204.436 295.311 204.491 294.63 204.628 293.379C204.791 292.027 205.01 290.227 205.276 288.016C205.899 283.334 206.751 276.922 207.738 269.499L208.288 269.836C205.431 271.837 202.331 274.007 199.114 276.26C195.838 278.539 192.685 280.732 189.781 282.751L189.108 283.219L189.232 282.413C190.358 275.052 191.33 268.698 192.039 264.059C192.4 261.877 192.693 260.102 192.914 258.766C193.131 257.535 193.267 256.872 193.309 256.877C193.35 256.883 193.29 257.558 193.147 258.8C192.977 260.143 192.751 261.928 192.475 264.123C191.831 268.771 190.949 275.137 189.928 282.515L189.379 282.176C192.278 280.147 195.424 277.943 198.693 275.654C201.917 273.411 205.024 271.251 207.887 269.259L208.555 268.794L208.437 269.597C207.345 277.006 206.402 283.405 205.715 288.078C205.364 290.278 205.078 292.068 204.864 293.412C204.651 294.653 204.516 295.322 204.477 295.316Z" fill="#E0E0E0"/>
<path d="M257.838 301.068C257.809 301.096 257.319 300.618 256.446 299.712C255.51 298.722 254.265 297.405 252.735 295.786C249.533 292.314 245.146 287.56 240.068 282.057L240.679 281.85C240.391 285.327 240.079 289.097 239.755 293.011C239.413 296.987 239.084 300.814 238.78 304.338L238.711 305.155L238.169 304.543C233.228 298.972 228.964 294.164 225.85 290.653C224.402 288.979 223.224 287.62 222.337 286.597C221.529 285.644 221.106 285.114 221.136 285.087C221.166 285.06 221.648 285.536 222.512 286.44C223.435 287.428 224.664 288.743 226.174 290.359C229.337 293.825 233.67 298.572 238.69 304.073L238.079 304.278C238.371 300.753 238.687 296.924 239.017 292.948C239.353 289.035 239.678 285.266 239.976 281.79L240.045 280.979L240.587 281.583C245.587 287.159 249.906 291.974 253.06 295.491C254.527 297.167 255.721 298.531 256.619 299.555C257.44 300.511 257.868 301.041 257.838 301.068Z" fill="#E0E0E0"/>
<path d="M284.703 299.169C284.737 299.192 284.398 299.783 283.74 300.857C283.017 302.011 282.052 303.545 280.868 305.432C278.312 309.403 274.809 314.842 270.754 321.138L270.401 320.598C273.838 320.005 277.567 319.361 281.437 318.694C285.372 318.027 289.159 317.386 292.646 316.795L293.455 316.659L292.999 317.337C288.845 323.518 285.26 328.851 282.642 332.745C281.386 334.567 280.365 336.047 279.596 337.162C278.876 338.183 278.471 338.726 278.435 338.703C278.401 338.68 278.741 338.095 279.399 337.033C280.124 335.89 281.09 334.371 282.275 332.503C284.837 328.573 288.345 323.189 292.412 316.949L292.764 317.49C289.279 318.091 285.492 318.745 281.56 319.422C277.688 320.078 273.957 320.71 270.518 321.293L269.716 321.429L270.164 320.753C274.307 314.515 277.886 309.126 280.5 305.191C281.755 303.351 282.774 301.852 283.541 300.728C284.262 299.695 284.667 299.146 284.703 299.169Z" fill="#E0E0E0"/>
<path d="M248.985 326.644C249.019 326.667 248.68 327.26 248.022 328.332C247.299 329.486 246.335 331.02 245.151 332.908C242.594 336.878 239.092 342.316 235.036 348.613L234.682 348.073C238.119 347.48 241.849 346.837 245.718 346.169C249.652 345.502 253.441 344.861 256.928 344.27L257.736 344.134L257.281 344.812C253.126 350.993 249.541 356.326 246.924 360.22C245.667 362.042 244.646 363.522 243.878 364.637C243.157 365.658 242.752 366.201 242.716 366.178C242.682 366.156 243.023 365.57 243.681 364.508C244.407 363.365 245.371 361.846 246.556 359.979C249.119 356.048 252.628 350.662 256.694 344.425L257.045 344.965C253.56 345.566 249.774 346.22 245.842 346.898C241.969 347.553 238.238 348.185 234.8 348.768L233.997 348.904L234.445 348.228C238.589 341.99 242.168 336.6 244.781 332.667C246.036 330.826 247.055 329.327 247.823 328.203C248.546 327.17 248.951 326.623 248.985 326.644Z" fill="#E0E0E0"/>
<path d="M326.155 298.779C326.189 298.802 325.85 299.393 325.192 300.467C324.468 301.621 323.505 303.155 322.321 305.042C319.764 309.013 316.262 314.451 312.206 320.748L311.852 320.208C315.289 319.615 319.018 318.971 322.888 318.304C326.823 317.637 330.611 316.996 334.097 316.405L334.906 316.269L334.451 316.947C330.296 323.128 326.711 328.461 324.093 332.355C322.837 334.177 321.816 335.657 321.048 336.772C320.327 337.793 319.922 338.336 319.886 338.313C319.852 338.29 320.193 337.705 320.851 336.643C321.577 335.5 322.541 333.981 323.726 332.113C326.289 328.183 329.798 322.797 333.863 316.559L334.215 317.1C330.73 317.701 326.944 318.355 323.012 319.032C319.139 319.688 315.408 320.32 311.97 320.903L311.167 321.039L311.615 320.364C315.758 314.126 319.338 308.736 321.951 304.803C323.206 302.962 324.225 301.463 324.993 300.339C325.714 299.305 326.121 298.758 326.155 298.779Z" fill="#E0E0E0"/>
<path d="M145.433 276.081C145.467 276.104 145.128 276.695 144.47 277.769C143.747 278.923 142.782 280.457 141.598 282.345C139.042 286.315 135.539 291.754 131.484 298.05L131.129 297.511C134.566 296.919 138.296 296.275 142.166 295.607C146.1 294.941 149.888 294.3 153.375 293.708L154.183 293.572L153.728 294.25C149.573 300.431 145.988 305.764 143.371 309.659C142.114 311.48 141.094 312.962 140.325 314.077C139.605 315.098 139.199 315.641 139.164 315.618C139.13 315.595 139.47 315.01 140.128 313.948C140.854 312.805 141.818 311.286 143.004 309.418C145.566 305.488 149.074 300.102 153.141 293.864L153.493 294.405C150.007 295.006 146.221 295.66 142.289 296.337C138.416 296.992 134.686 297.625 131.247 298.208L130.444 298.344L130.892 297.667C135.036 291.43 138.615 286.041 141.228 282.106C142.483 280.266 143.503 278.767 144.27 277.642C144.993 276.607 145.399 276.059 145.433 276.081Z" fill="#E0E0E0"/>
<path d="M89.3728 382.109C89.4054 382.084 89.862 382.59 90.6774 383.55C91.5495 384.597 92.7094 385.989 94.1345 387.701C97.1137 391.365 101.195 396.384 105.919 402.195L105.297 402.364C105.802 398.913 106.349 395.169 106.916 391.282C107.506 387.336 108.073 383.537 108.595 380.038L108.716 379.228L109.218 379.87C113.801 385.739 117.757 390.806 120.645 394.503C121.987 396.262 123.077 397.693 123.897 398.769C124.644 399.772 125.033 400.326 125 400.352C124.967 400.378 124.517 399.873 123.713 398.916C122.852 397.87 121.707 396.482 120.301 394.775C117.361 391.119 113.333 386.11 108.666 380.306L109.289 380.138C108.777 383.638 108.222 387.44 107.645 391.389C107.065 395.274 106.507 399.016 105.992 402.466L105.871 403.272L105.369 402.635C100.727 396.759 96.7181 391.682 93.7899 387.976C92.43 386.212 91.3226 384.775 90.4916 383.698C89.7358 382.692 89.3416 382.135 89.3728 382.109Z" fill="#E0E0E0"/>
<path d="M217.408 313.458C217.411 313.499 216.734 313.584 215.481 313.706C214.124 313.824 212.319 313.98 210.099 314.172C205.39 314.523 198.938 315.004 191.47 315.561L191.687 314.954C194.231 317.341 196.991 319.929 199.856 322.616C202.759 325.355 205.553 327.991 208.125 330.419L208.72 330.982L207.905 331.026C200.469 331.433 194.051 331.786 189.366 332.043C187.155 332.138 185.357 332.214 184.006 332.272C182.757 332.313 182.079 332.315 182.076 332.274C182.073 332.233 182.747 332.152 183.99 332.037C185.339 331.928 187.133 331.782 189.338 331.603C194.019 331.28 200.431 330.836 207.86 330.323L207.641 330.929C205.061 328.509 202.259 325.881 199.349 323.152C196.493 320.456 193.741 317.858 191.204 315.465L190.611 314.906L191.421 314.858C198.896 314.407 205.353 314.017 210.068 313.732C212.292 313.624 214.103 313.536 215.463 313.47C216.724 313.423 217.406 313.417 217.408 313.458Z" fill="#E0E0E0"/>
<path d="M185.989 384.928C186.02 384.901 186.488 385.399 187.322 386.342C188.214 387.372 189.401 388.741 190.86 390.425C193.91 394.031 198.089 398.968 202.926 404.685L202.306 404.867C202.743 401.407 203.216 397.652 203.708 393.755C204.22 389.798 204.714 385.989 205.168 382.48L205.273 381.667L205.787 382.301C210.485 388.079 214.539 393.066 217.498 396.706C218.874 398.439 219.991 399.849 220.834 400.909C221.599 401.896 221.999 402.444 221.968 402.469C221.937 402.495 221.476 401.998 220.652 401.058C219.772 400.032 218.6 398.665 217.161 396.986C214.149 393.388 210.024 388.459 205.246 382.747L205.865 382.569C205.423 386.078 204.941 389.89 204.442 393.849C203.938 397.744 203.452 401.496 203.005 404.956L202.9 405.763L202.385 405.136C197.629 399.352 193.522 394.355 190.521 390.707C189.127 388.97 187.993 387.556 187.139 386.494C186.363 385.504 185.957 384.955 185.989 384.928Z" fill="#E0E0E0"/>
<path d="M129.831 332.513C129.834 332.554 129.156 332.64 127.904 332.761C126.547 332.879 124.742 333.035 122.522 333.227C117.812 333.578 111.36 334.059 103.893 334.616L104.11 334.009C106.654 336.396 109.414 338.984 112.279 341.671C115.182 344.41 117.975 347.046 120.548 349.474L121.143 350.037L120.328 350.081C112.892 350.488 106.474 350.84 101.789 351.098C99.5783 351.193 97.7803 351.269 96.4289 351.327C95.1797 351.367 94.5019 351.37 94.499 351.329C94.4962 351.288 95.1697 351.207 96.4133 351.092C97.7618 350.983 99.5556 350.837 101.761 350.658C106.441 350.335 112.854 349.891 120.283 349.378L120.063 349.985C117.482 347.564 114.68 344.936 111.77 342.207C108.913 339.511 106.162 336.913 103.625 334.52L103.033 333.961L103.842 333.912C111.318 333.461 117.774 333.071 122.489 332.786C124.714 332.678 126.525 332.59 127.884 332.523C129.146 332.478 129.829 332.472 129.831 332.513Z" fill="#E0E0E0"/>
<path d="M178.078 383.319C178.081 383.36 177.403 383.445 176.151 383.567C174.794 383.685 172.989 383.841 170.769 384.032C166.059 384.384 159.608 384.864 152.14 385.422L152.357 384.815C154.901 387.201 157.661 389.789 160.526 392.476C163.429 395.214 166.223 397.852 168.795 400.28L169.39 400.843L168.575 400.886C161.139 401.293 154.721 401.646 150.036 401.903C147.825 401.998 146.027 402.075 144.676 402.133C143.427 402.174 142.749 402.175 142.746 402.134C142.743 402.093 143.417 402.012 144.66 401.897C146.009 401.788 147.803 401.642 150.008 401.464C154.689 401.14 161.101 400.696 168.53 400.183L168.311 400.79C165.73 398.37 162.928 395.742 160.019 393.012C157.161 390.317 154.411 387.719 151.874 385.325L151.281 384.767L152.091 384.718C159.566 384.268 166.023 383.878 170.737 383.593C172.962 383.485 174.773 383.397 176.134 383.33C177.392 383.283 178.076 383.278 178.078 383.319Z" fill="#E0E0E0"/>
<path d="M286.994 254.057C286.997 254.098 286.319 254.183 285.067 254.305C283.71 254.423 281.905 254.579 279.685 254.77C274.975 255.122 268.524 255.603 261.056 256.158L261.273 255.551C263.817 257.938 266.577 260.526 269.442 263.213C272.345 265.951 275.139 268.589 277.711 271.016L278.306 271.578L277.491 271.622C270.055 272.03 263.637 272.382 258.952 272.638C256.741 272.733 254.943 272.81 253.592 272.868C252.343 272.909 251.665 272.911 251.662 272.87C251.659 272.828 252.333 272.748 253.576 272.633C254.925 272.524 256.719 272.377 258.924 272.199C263.605 271.875 270.017 271.432 277.446 270.918L277.226 271.525C274.645 269.105 271.843 266.477 268.933 263.748C266.078 261.052 263.325 258.454 260.788 256.061L260.196 255.502L261.005 255.454C268.481 255.003 274.937 254.613 279.652 254.328C281.877 254.22 283.688 254.132 285.048 254.065C286.308 254.023 286.992 254.016 286.994 254.057Z" fill="#E0E0E0"/>
<path d="M234.015 383.319C234.015 383.319 257.874 376.446 265.768 374.432C268.845 373.648 282.024 380.599 291.125 386.379C291.125 386.379 303.66 393.811 302.646 396.101C301.53 398.621 296.906 398.105 289.536 394.639C289.536 394.639 292.107 402.108 287.059 401.946C287.059 401.946 289.563 410.017 284.833 410.852C280.101 411.688 278.988 401.389 274.813 400.833C270.639 400.275 262.01 399.72 262.01 399.72C262.01 399.72 254.825 411.619 249.258 412.453C243.691 413.288 230.793 411.784 230.793 411.784L234.015 383.319Z" fill="white"/>
<path d="M274.736 384.964C274.845 384.791 277.828 386.478 281.399 388.73C284.971 390.983 287.778 392.949 287.669 393.122C287.56 393.293 284.578 391.609 281.004 389.355C277.434 387.102 274.626 385.137 274.736 384.964Z" fill="white"/>
<path d="M273.324 389.553C273.409 389.367 276.951 390.82 281.235 392.797C285.52 394.775 288.922 396.528 288.837 396.712C288.752 396.896 285.21 395.444 280.926 393.468C276.642 391.491 273.237 389.737 273.324 389.553Z" fill="white"/>
<path d="M275.878 400.677C275.907 400.474 278.317 400.638 281.264 401.041C284.21 401.445 286.577 401.936 286.549 402.139C286.52 402.34 284.111 402.177 281.163 401.773C278.216 401.37 275.85 400.878 275.878 400.677Z" fill="white"/>
<path d="M202.98 137.221C203.534 139.046 202.902 141.174 201.441 142.401C199.981 143.627 197.774 143.881 196.073 143.019C192.84 141.38 192.43 136.92 193.066 133.351C193.702 129.783 194.916 125.975 193.42 122.673C192.275 120.148 189.795 118.549 187.861 116.56C184.492 113.098 182.697 108.051 183.516 103.291C184.336 98.5292 187.906 94.2497 192.559 92.9494C197.309 91.6207 203.161 93.0798 206.698 89.6426C209.26 87.1512 209.417 83.0673 211.401 80.0938C214.48 75.4768 220.987 74.7437 226.486 75.4952C231.983 76.2467 237.582 78.0107 242.967 76.6707C247.465 75.5519 251.156 72.4111 255.371 70.4826C264.507 66.3037 276.184 68.5669 283.098 75.8568C290.012 83.1467 291.654 94.9275 286.998 103.83C285.326 107.027 282.807 109.933 279.461 111.286" fill="#263238"/>
<path d="M230.341 254.346C245.575 254.33 257.856 241.865 257.646 226.633L257.286 200.564C257.286 200.564 279.185 198.37 280.636 176.675C282.087 154.978 281.04 104.919 281.04 104.919C256.496 92.7479 227.288 94.814 204.701 110.318L201.349 112.62L202.979 227.4C203.192 242.354 215.384 254.362 230.341 254.346Z" fill="white"/>
<path d="M275.286 144.216C271.431 143.454 271.46 138.477 275.322 137.758C275.493 137.727 275.681 137.728 275.85 137.761C279.704 138.522 279.676 143.501 275.813 144.219C275.643 144.25 275.454 144.25 275.286 144.216Z" fill="#263238"/>
<path d="M279.544 137.289C279.184 137.646 277.14 135.889 274.151 135.712C271.164 135.491 268.907 136.961 268.597 136.56C268.445 136.38 268.821 135.72 269.807 135.053C270.775 134.388 272.409 133.785 274.27 133.908C276.132 134.032 277.671 134.846 278.543 135.634C279.433 136.427 279.717 137.13 279.544 137.289Z" fill="#263238"/>
<path d="M244.951 138.019C246.384 139.011 246.742 140.978 245.749 142.412C244.757 143.845 242.79 144.203 241.356 143.21C239.923 142.218 239.565 140.251 240.558 138.817C241.551 137.382 243.517 137.025 244.951 138.019Z" fill="#263238"/>
<path d="M246.92 138.152C246.559 138.51 244.517 136.753 241.528 136.575C238.54 136.354 236.284 137.825 235.973 137.422C235.82 137.242 236.196 136.583 237.183 135.915C238.151 135.25 239.785 134.647 241.647 134.77C243.509 134.895 245.047 135.709 245.918 136.496C246.81 137.292 247.095 137.995 246.92 138.152Z" fill="#263238"/>
<path d="M257.568 163.475C257.561 163.239 259.43 162.966 262.458 162.713C263.245 162.671 263.869 162.528 263.949 162.109C264.115 161.644 263.858 160.792 263.511 159.839C262.848 157.82 262.179 155.775 261.477 153.634C258.682 144.8 256.779 137.524 257.229 137.382C257.677 137.24 260.306 144.285 263.102 153.119C263.76 155.275 264.387 157.332 265.008 159.364C265.246 160.284 265.733 161.371 265.259 162.638C265.008 163.272 264.367 163.706 263.844 163.814C263.318 163.943 262.875 163.919 262.5 163.916C259.459 163.862 257.576 163.71 257.568 163.475Z" fill="#263238"/>
<path d="M247.673 166.249C251.504 168.021 256.074 170.232 262.105 171.308C262.105 171.308 258.309 176.698 252.175 174.066C245.807 171.335 247.673 166.249 247.673 166.249Z" fill="#263238"/>
<path d="M257.338 200.252C257.338 200.252 243.557 200.621 229.472 190.667C229.472 190.667 235.311 206.656 257.082 205.88L257.338 200.252Z" fill="white"/>
<path d="M281.19 110.404C281.19 110.404 268.086 117.064 250.704 108.807C239.298 103.389 226.076 100.89 223.218 103.217C220.359 105.545 219.972 117.197 208.848 120.813C208.848 120.813 210.049 143.006 201.178 142.387C192.308 141.767 197.173 107.263 197.173 107.263L218.629 96.2618L242.181 91.3357L264.515 94.0427L281.841 98.4257L281.19 110.404Z" fill="#263238"/>
<path d="M202.798 135.253C202.437 135.072 188.12 130.027 187.786 144.896C187.451 159.766 202.448 157.034 202.483 156.609C202.52 156.184 202.798 135.253 202.798 135.253Z" fill="white"/>
<path d="M198.069 150.873C198.005 150.824 197.805 151.049 197.364 151.239C196.933 151.425 196.195 151.543 195.427 151.235C193.869 150.622 192.602 148.1 192.591 145.418C192.582 144.064 192.896 142.781 193.399 141.726C193.877 140.648 194.599 139.905 195.393 139.782C196.184 139.617 196.733 140.103 196.906 140.526C197.096 140.946 196.995 141.241 197.073 141.268C197.114 141.306 197.398 141.027 197.293 140.41C197.238 140.113 197.072 139.759 196.729 139.465C196.378 139.168 195.857 139.007 195.305 139.054C194.156 139.108 193.101 140.139 192.547 141.299C191.93 142.462 191.547 143.902 191.556 145.424C191.584 148.421 193.055 151.26 195.19 151.93C196.23 152.226 197.11 151.931 197.568 151.589C198.035 151.232 198.12 150.902 198.069 150.873Z" fill="white"/>
<path d="M195.23 88.7025C195.147 88.5295 197.589 87.8304 200.387 88.8939C203.197 89.9233 204.586 92.0503 204.41 92.1269C204.247 92.2801 202.721 90.5246 200.129 89.5859C197.555 88.5989 195.252 88.9251 195.23 88.7025Z" fill="#263238"/>
<path d="M204.173 79.7974C204.434 79.8144 204.025 82.9326 204.544 86.652C205.049 90.4026 206.819 93.0131 206.62 93.1308C206.549 93.1805 206.006 92.6019 205.374 91.4888C204.755 90.3771 204.085 88.701 203.814 86.7612C203.278 82.8673 204.032 79.7648 204.173 79.7974Z" fill="#263238"/>
<path d="M265.269 130.148C265.191 129.973 265.828 129.461 267.033 128.968C268.233 128.475 270.018 128.055 272.017 128.072C274.017 128.094 275.795 128.548 276.985 129.066C278.18 129.583 278.807 130.107 278.725 130.28C278.542 130.674 275.679 129.555 272.003 129.548C268.329 129.484 265.444 130.545 265.269 130.148Z" fill="#263238"/>
<path d="M232.114 127.02C232.036 126.845 232.673 126.333 233.878 125.84C235.077 125.346 236.863 124.927 238.862 124.944C240.861 124.966 242.64 125.42 243.829 125.938C245.026 126.455 245.651 126.978 245.571 127.151C245.388 127.546 242.525 126.427 238.849 126.42C235.174 126.356 232.288 127.417 232.114 127.02Z" fill="#263238"/>
<path d="M262.71 132.485C262.729 132.503 262.746 132.807 262.767 133.364C262.785 133.993 262.809 134.787 262.839 135.763C262.862 136.817 262.887 138.06 262.917 139.485C262.923 140.922 263.009 142.594 263.625 144.308C264.217 146.017 265.243 147.772 266.76 149.262C268.29 150.727 270.292 151.948 272.62 152.481C273.776 152.755 275.004 152.888 276.246 152.799C277.488 152.741 278.752 152.49 279.956 152.016C282.385 151.126 284.584 149.373 286.072 147.069C287.495 144.868 288.133 142.303 288.065 139.81C288.072 137.273 288.078 134.823 288.085 132.483L288.428 132.826C280.999 132.758 274.641 132.702 270.027 132.659C267.813 132.621 266.021 132.59 264.684 132.565C264.111 132.548 263.636 132.536 263.239 132.523C262.903 132.513 262.723 132.499 262.71 132.485C262.683 132.458 263.32 132.431 264.532 132.402C265.851 132.38 267.616 132.349 269.797 132.309C274.468 132.266 280.904 132.21 288.425 132.142L288.767 132.139L288.769 132.485C288.774 134.823 288.781 137.275 288.788 139.811C288.872 142.387 288.2 145.152 286.691 147.47C285.117 149.91 282.783 151.761 280.21 152.695C278.933 153.19 277.595 153.45 276.283 153.505C274.97 153.592 273.675 153.444 272.459 153.145C270.007 152.562 267.913 151.256 266.327 149.701C264.756 148.118 263.711 146.265 263.127 144.474C262.52 142.674 262.466 140.944 262.503 139.453C262.533 137.991 262.558 136.715 262.581 135.634C262.611 134.673 262.633 133.888 262.653 133.267C262.673 132.736 262.692 132.468 262.71 132.485Z" fill="#263238"/>
<path d="M227.945 131.751C227.963 131.77 227.98 132.073 228.001 132.631C228.02 133.26 228.044 134.054 228.074 135.03C228.095 136.083 228.122 137.327 228.152 138.752C228.157 140.189 228.244 141.86 228.859 143.575C229.45 145.283 230.477 147.039 231.994 148.531C233.524 149.995 235.527 151.216 237.855 151.75C239.011 152.023 240.239 152.156 241.481 152.067C242.723 152.009 243.986 151.758 245.19 151.284C247.619 150.394 249.819 148.641 251.306 146.337C252.73 144.136 253.368 141.571 253.3 139.078C253.307 136.541 253.313 134.091 253.32 131.751L253.663 132.095C246.232 132.027 239.876 131.97 235.261 131.927C233.048 131.889 231.256 131.858 229.918 131.834C229.346 131.817 228.871 131.804 228.473 131.791C228.139 131.778 227.959 131.766 227.945 131.751C227.918 131.725 228.554 131.698 229.767 131.668C231.085 131.645 232.851 131.614 235.032 131.574C239.703 131.532 246.139 131.475 253.66 131.407L254.002 131.404L254.003 131.75C254.009 134.088 254.016 136.54 254.023 139.077C254.107 141.652 253.435 144.417 251.926 146.735C250.352 149.176 248.018 151.026 245.444 151.961C244.168 152.456 242.829 152.715 241.518 152.77C240.205 152.857 238.91 152.709 237.693 152.41C235.242 151.827 233.147 150.522 231.562 148.966C229.991 147.383 228.946 145.53 228.361 143.739C227.753 141.94 227.701 140.21 227.738 138.718C227.767 137.256 227.793 135.98 227.816 134.899C227.845 133.938 227.868 133.154 227.888 132.533C227.909 132.002 227.928 131.733 227.945 131.751Z" fill="#263238"/>
<path d="M263.022 133.518C263.022 133.723 260.83 133.887 258.127 133.887C255.423 133.887 253.23 133.721 253.23 133.518C253.23 133.314 255.423 133.15 258.127 133.15C260.831 133.15 263.022 133.314 263.022 133.518Z" fill="#263238"/>
<path d="M200.831 133.713C200.831 133.508 206.9 133.326 214.387 133.303C221.876 133.28 227.946 133.428 227.946 133.63C227.947 133.835 221.878 134.017 214.389 134.04C206.903 134.064 200.831 133.917 200.831 133.713Z" fill="#263238"/>
<path d="M473.282 151.328L431.069 136.168L389.267 151.123C383.931 153.644 379.25 155.153 379.25 160.124V184.877C379.25 202.066 383.754 219.1 393.02 234.138C400.818 246.792 412.892 259.822 431.479 268.105C448.566 262.555 461.321 247.758 469.119 235.104C478.385 220.066 482.889 203.031 482.889 185.842V163.584C482.889 156.495 479.131 153.033 473.282 151.328Z" fill="#407BFF"/>
<g opacity="0.3">
<path d="M431.48 253.742C416.774 247.189 407.221 236.661 401.052 226.648C393.721 214.75 390.158 201.273 390.158 187.673V170.31C390.158 166.376 392.53 162.692 397.242 160.493L431.078 147.841L431.071 136.168L389.269 151.123C384.881 153.04 379.252 155.153 379.252 160.124V184.877C379.252 202.066 383.756 219.1 393.022 234.138C400.82 246.792 412.894 259.822 431.481 268.105V253.742H431.48Z" fill="black"/>
</g>
<g opacity="0.4">
<path d="M431.479 268.106C434.44 267.115 437.16 265.974 439.772 264.55C446.779 260.733 452.758 255.489 457.321 250.744C462.424 245.437 466.227 239.701 469.528 234.344C478.795 219.306 483.299 202.271 482.889 184.607L482.914 164.171C482.889 153.996 477.669 153.244 473.282 151.328L431.069 136.168L431.076 147.841L465.307 160.697C470.019 162.896 472.391 166.58 472.391 170.514V187.877C472.391 201.477 468.828 214.954 461.497 226.852C455.327 236.865 446.185 247.189 431.479 253.742V268.106Z" fill="black"/>
</g>
<path opacity="0.5" d="M442.268 186.56L442.314 183.219C442.314 177.175 437.398 172.259 431.355 172.259C425.311 172.259 420.395 177.175 420.395 183.202L420.347 186.605C417.389 187.043 415.117 189.584 415.117 192.664V212.369C415.117 215.756 417.862 218.502 421.25 218.502H441.706C445.094 218.502 447.839 215.756 447.839 212.369V192.664C447.84 189.467 445.391 186.843 442.268 186.56ZM434.277 207.464H428.927L429.762 203.6C428.836 203.024 428.217 202 428.217 200.831C428.217 199.03 429.677 197.569 431.479 197.569C433.28 197.569 434.741 199.03 434.741 200.831C434.741 201.959 434.168 202.953 433.297 203.539C433.676 205.036 434.277 207.464 434.277 207.464ZM439.907 186.531H422.711L422.757 183.219C422.757 178.479 426.614 174.62 431.356 174.62C436.098 174.62 439.955 178.477 439.955 183.202L439.907 186.531Z" fill="white"/>
<path d="M396.996 186.319C396.903 186.332 396.61 185.03 396.364 182.89C396.11 180.753 395.923 177.774 396.021 174.487C396.067 172.844 396.177 171.28 396.325 169.863C396.462 168.448 396.721 167.121 397.268 166.128C397.804 165.13 398.555 164.534 399.118 164.27C399.69 164.004 400.048 164.017 400.052 164.058C400.123 164.15 398.625 164.445 397.735 166.363C397.295 167.291 397.101 168.524 397.003 169.927C396.893 171.333 396.805 172.883 396.759 174.51C396.663 177.764 396.765 180.714 396.884 182.848C396.996 184.982 397.105 186.305 396.996 186.319Z" fill="white"/>
<path d="M397.617 197.094C397.413 197.099 397.227 196.082 397.203 194.823C397.179 193.564 397.323 192.541 397.528 192.537C397.732 192.533 397.916 193.549 397.942 194.809C397.966 196.066 397.82 197.09 397.617 197.094Z" fill="white"/>
<path d="M353.081 299.169L306.011 415.57H221.138V420.823H473.933L525.64 299.169H353.081Z" fill="#263238"/>
<path d="M425.029 367.891C423.323 373.749 418.357 377.455 413.936 376.168C409.515 374.88 407.314 369.089 409.02 363.23C410.726 357.372 415.692 353.666 420.113 354.953C424.534 356.239 426.735 362.032 425.029 367.891Z" fill="#FAFAFA"/>
</g>
<defs>
<clipPath id="clip0_83_5079">
<rect width="600" height="423" fill="white"/>
</clipPath>
</defs>
</svg>
