<svg width="414" height="446" viewBox="0 0 414 446" fill="none" xmlns="http://www.w3.org/2000/svg">
<path d="M211.088 326.949C218.771 334.632 231.228 334.632 238.911 326.949C246.594 319.266 246.594 306.81 238.911 299.127C231.228 291.444 218.772 291.444 211.088 299.127C203.405 306.81 203.405 319.266 211.088 326.949Z" fill="#EBEBEB"/>
<path d="M232.156 301.366C232.226 302.285 231.942 303.233 231.429 304.037C230.918 304.85 230.151 305.498 229.291 305.926C228.411 306.347 227.337 306.495 226.402 306.172C225.47 305.877 224.689 305.257 224.201 304.481C224.945 305.006 225.748 305.385 226.562 305.521C226.969 305.587 227.375 305.597 227.769 305.522C228.167 305.476 228.546 305.322 228.915 305.154C229.099 305.062 229.286 304.962 229.465 304.857C229.636 304.739 229.817 304.633 229.977 304.5C230.322 304.261 230.606 303.953 230.891 303.642C231.438 302.999 231.871 302.232 232.156 301.366Z" fill="#C7C7C7"/>
<path d="M225.084 302.498C224.98 301.864 225.15 301.19 225.493 300.617C225.837 300.041 226.367 299.565 226.974 299.271C227.594 298.965 228.372 298.88 229.026 299.123C229.68 299.349 230.207 299.81 230.499 300.378C229.952 300.06 229.402 299.842 228.867 299.774C228.331 299.698 227.828 299.822 227.351 300.043C226.361 300.52 225.583 301.336 225.084 302.498Z" fill="#C7C7C7"/>
<path d="M224.995 322.284C225.247 322.856 225.245 323.536 225.046 324.158C224.843 324.781 224.44 325.354 223.909 325.75C223.373 326.171 222.637 326.379 221.972 326.273C221.309 326.175 220.72 325.846 220.323 325.367C220.913 325.545 221.48 325.637 222.004 325.603C222.53 325.569 222.984 325.371 223.389 325.068C223.808 324.752 224.161 324.356 224.434 323.894C224.7 323.427 224.891 322.891 224.995 322.284Z" fill="#C7C7C7"/>
<path d="M220.923 324.517C220.693 324.133 220.668 323.648 220.788 323.198C220.915 322.747 221.2 322.331 221.579 322.048C221.965 321.744 222.51 321.596 222.986 321.692C223.459 321.785 223.864 322.043 224.103 322.418C223.671 322.346 223.288 322.317 222.954 322.367C222.619 322.414 222.354 322.542 222.1 322.731C221.565 323.14 221.179 323.682 220.923 324.517Z" fill="#C7C7C7"/>
<path d="M217.907 304.587C218.252 304.893 218.451 305.353 218.468 305.85C218.481 306.352 218.281 306.868 217.911 307.24C217.535 307.643 216.947 307.796 216.471 307.734C215.986 307.676 215.556 307.47 215.234 307.142C215.688 307.137 216.097 307.135 216.457 307.059C216.818 306.987 217.095 306.854 217.301 306.637C217.526 306.41 217.701 306.119 217.799 305.782C217.903 305.438 217.926 305.039 217.907 304.587Z" fill="#C7C7C7"/>
<path d="M215.471 306.497C215.184 306.312 215.013 305.99 214.982 305.626C214.955 305.258 215.095 304.871 215.371 304.595C215.654 304.291 216.104 304.184 216.446 304.247C216.796 304.308 217.092 304.481 217.29 304.758C216.96 304.814 216.685 304.849 216.46 304.923C216.233 304.993 216.094 305.08 215.981 305.199C215.851 305.33 215.736 305.492 215.652 305.696C215.561 305.904 215.51 306.165 215.471 306.497Z" fill="#C7C7C7"/>
<path d="M231.578 325.323C231.366 325.732 230.968 326.038 230.49 326.175C230.006 326.311 229.457 326.243 229.006 325.974C228.523 325.708 228.231 325.175 228.175 324.698C228.113 324.213 228.207 323.746 228.447 323.354C228.562 323.793 228.664 324.189 228.826 324.519C228.984 324.851 229.18 325.088 229.442 325.235C229.717 325.397 230.042 325.497 230.393 325.509C230.751 325.526 231.143 325.451 231.578 325.323Z" fill="#C7C7C7"/>
<path d="M229.13 323.425C229.239 323.102 229.51 322.857 229.855 322.739C230.205 322.623 230.615 322.664 230.95 322.864C231.314 323.064 231.528 323.475 231.55 323.822C231.576 324.176 231.481 324.506 231.261 324.765C231.126 324.459 231.025 324.2 230.899 324C230.775 323.797 230.657 323.684 230.514 323.603C230.355 323.509 230.17 323.437 229.952 323.405C229.727 323.368 229.461 323.383 229.13 323.425Z" fill="#C7C7C7"/>
<path d="M238.316 311.48C238.371 311.937 238.214 312.414 237.896 312.797C237.573 313.181 237.08 313.434 236.556 313.466C236.007 313.518 235.466 313.241 235.151 312.878C234.827 312.512 234.642 312.073 234.62 311.614C234.963 311.912 235.27 312.182 235.589 312.364C235.906 312.55 236.202 312.635 236.501 312.609C236.82 312.589 237.144 312.488 237.441 312.301C237.747 312.114 238.029 311.831 238.316 311.48Z" fill="#C7C7C7"/>
<path d="M235.225 311.289C235.133 310.961 235.22 310.605 235.438 310.314C235.663 310.021 236.024 309.825 236.414 309.801C236.827 309.762 237.235 309.981 237.449 310.256C237.67 310.534 237.777 310.86 237.741 311.199C237.457 311.022 237.228 310.865 237.012 310.771C236.796 310.673 236.634 310.645 236.47 310.659C236.286 310.671 236.092 310.715 235.894 310.811C235.687 310.905 235.475 311.067 235.225 311.289Z" fill="#C7C7C7"/>
<path d="M212.258 315.936C212.313 316.393 212.157 316.87 211.839 317.253C211.516 317.637 211.023 317.89 210.499 317.922C209.95 317.974 209.409 317.697 209.094 317.334C208.77 316.968 208.584 316.529 208.562 316.07C208.905 316.368 209.213 316.638 209.532 316.82C209.849 317.006 210.144 317.091 210.443 317.065C210.761 317.045 211.086 316.944 211.383 316.757C211.69 316.569 211.971 316.286 212.258 315.936Z" fill="#C7C7C7"/>
<path d="M209.167 315.744C209.075 315.415 209.162 315.06 209.38 314.768C209.605 314.475 209.966 314.279 210.356 314.255C210.769 314.216 211.177 314.435 211.391 314.71C211.612 314.988 211.719 315.314 211.682 315.653C211.398 315.476 211.169 315.319 210.953 315.225C210.737 315.127 210.575 315.099 210.411 315.113C210.227 315.125 210.033 315.169 209.835 315.265C209.629 315.361 209.417 315.522 209.167 315.744Z" fill="#C7C7C7"/>
<g opacity="0.4">
<path d="M5.42287 239.917C5.47687 247.516 6.77187 255.155 9.68587 262.072C12.5749 268.954 17.1499 275.146 23.0669 278.984C24.5339 279.946 26.0619 280.772 27.6299 281.449C29.2099 282.107 30.8349 282.591 32.4679 282.931C35.7339 283.628 39.0589 283.612 42.2679 283.076C48.7059 281.958 54.6549 278.768 59.9099 274.567C60.2259 274.305 60.5929 274.029 60.8649 273.782L61.6109 273.076C62.0919 272.57 62.5739 272.091 63.0329 271.543C63.9629 270.49 64.8329 269.325 65.6409 268.055C67.2649 265.549 68.7349 262.71 69.9899 259.663C72.5589 253.58 74.5539 246.802 76.3579 239.832C79.9279 225.825 82.7689 210.999 86.1509 195.942C86.9919 192.173 87.8879 188.387 88.8389 184.583C89.7559 180.771 90.7849 176.951 91.8649 173.104C94.0599 165.402 96.5099 157.659 100.146 149.679C101.071 147.679 102.08 145.661 103.276 143.61C103.875 142.588 104.538 141.54 105.247 140.52C105.964 139.519 106.714 138.552 107.496 137.628C110.635 133.925 114.241 130.942 117.91 128.495C125.254 123.565 132.791 120.488 140.035 117.369C147.311 114.336 154.414 111.398 161.156 107.921C167.891 104.457 174.261 100.46 179.891 95.7068C185.54 90.9838 190.345 85.4148 194.036 79.2438C197.706 73.0478 200.387 66.3018 201.164 59.7258C201.554 56.4508 201.513 53.2488 200.982 50.2998C200.431 47.3538 199.411 44.6718 197.97 42.4388C195.113 37.9348 190.776 35.2228 185.894 34.2498C183.456 33.7358 180.868 33.6768 178.237 33.9498C175.604 34.2558 172.919 34.9128 170.257 35.9068C169.592 36.1548 168.93 36.4368 168.269 36.7198L165.91 37.7448C164.35 38.4508 162.806 39.1768 161.291 39.9548C158.258 41.5068 155.301 43.1828 152.386 45.0448C146.552 48.7358 140.823 53.2068 134.444 57.9968C128.103 62.7858 121 67.7188 113.32 71.9128C105.613 76.0508 97.4719 79.4878 89.2479 82.0248C88.2219 82.3698 87.1899 82.6358 86.1599 82.9398L83.3889 83.7298C81.8589 84.1768 80.3149 84.6738 78.7759 85.2018C75.7009 86.2758 72.6589 87.5098 69.7049 88.8798C57.8689 94.3968 47.5359 102.138 40.1669 112.203C36.4419 117.211 33.2989 122.747 30.7969 128.832C29.5309 131.867 28.4159 135.036 27.5069 138.329C26.5469 141.613 25.8089 145.018 25.1739 148.507C24.5689 151.997 24.1039 155.577 23.8119 159.217C23.6599 160.929 23.5559 163.161 23.4149 165.178C23.2419 167.238 23.0649 169.286 22.8199 171.328C21.8489 179.491 20.3249 187.488 18.2749 195.242C16.2859 203.009 13.7889 210.526 11.2709 217.922C10.0039 221.618 8.73587 225.29 7.60687 228.962C6.50287 232.619 5.47687 236.355 5.42287 239.917ZM2.42287 239.949C2.39387 237.836 2.68887 235.822 3.04387 233.857C3.38687 231.888 3.85087 229.972 4.29687 228.066C5.20087 224.255 6.17187 220.502 6.97187 216.725C7.79587 212.955 8.48187 209.172 9.00487 205.383C9.52587 201.594 9.81487 197.787 9.98487 194.003C10.2509 186.422 9.75987 178.892 8.54487 171.55C8.26087 169.714 7.90187 167.89 7.54387 166.077C7.14887 164.226 6.75487 162.591 6.32887 160.436C5.49787 156.342 4.84387 152.16 4.46487 147.9C3.67787 139.386 3.92887 130.526 5.66887 121.677C7.39687 112.847 10.6419 104.057 15.3949 96.0758C20.1429 88.0918 26.2539 80.9178 33.1479 74.8428C40.0549 68.7588 47.7379 63.7728 55.8169 59.8388C59.8569 57.8618 64.0029 56.1538 68.2569 54.6968C70.3809 53.9568 72.5419 53.3028 74.7449 52.7038L80.0839 51.2668C86.7219 49.3808 93.0859 47.1558 99.1949 44.2438C105.356 41.4178 111.28 37.8598 117.659 33.7908C124.014 29.7408 130.885 25.1248 138.498 21.0698C142.292 19.0458 146.23 17.1518 150.266 15.5168C152.283 14.6938 154.322 13.9398 156.368 13.2218L159.452 12.2008C160.622 11.8468 161.797 11.5098 162.993 11.2148C167.768 10.0268 172.801 9.39484 177.925 9.60184C183.041 9.77584 188.243 10.8008 193.155 12.7758C198.059 14.7598 202.641 17.7358 206.392 21.5208C210.163 25.2838 213.07 29.8388 214.869 34.6468C216.703 39.4508 217.451 44.4568 217.398 49.2408C217.367 54.0348 216.545 58.6258 215.238 62.9118C212.537 71.4828 208.209 78.8758 203.188 85.4868C200.685 88.8228 197.897 91.9168 194.995 94.8478C192.055 97.7458 188.963 100.451 185.749 102.953C172.862 112.988 158.221 119.589 144.988 127.317C138.394 131.137 132.097 135.325 127.334 140.141C124.978 142.565 123.052 145.118 121.689 147.737C121.348 148.393 121.043 149.053 120.764 149.715C120.494 150.368 120.242 151.03 119.991 151.75C119.495 153.188 119.046 154.769 118.64 156.409C117.827 159.699 117.196 163.251 116.645 166.868C116.046 170.483 115.588 174.194 115.075 177.936L113.595 189.278C113.102 193.093 112.585 196.932 111.998 200.784C109.638 216.189 106.639 231.897 101.033 247.543C98.1769 255.349 94.6919 263.171 89.7299 270.664C88.4639 272.525 87.1399 274.368 85.6649 276.165C84.2169 277.966 82.6399 279.725 80.8869 281.379C79.1629 283.043 77.2759 284.624 75.2279 286.054C74.2299 286.786 73.1309 287.435 72.0479 288.072L70.3679 288.97C69.8249 289.246 69.3479 289.45 68.8369 289.691C64.7929 291.526 60.5449 293.03 56.1179 293.976C51.7019 294.93 47.1109 295.318 42.5699 294.972C38.0289 294.66 33.5599 293.51 29.4839 291.709C27.4469 290.801 25.5069 289.72 23.7079 288.476C21.8929 287.259 20.2069 285.894 18.6609 284.416C12.4669 278.465 8.51487 271.029 6.04787 263.415C3.58587 255.763 2.56087 247.836 2.42287 239.949Z" fill="#EBEBEB"/>
<path d="M131.322 273.368C135.564 265.563 138.413 257.065 140.469 248.401C142.56 239.731 143.887 230.881 145.191 221.929C145.882 217.458 146.498 212.94 147.319 208.395C148.106 203.836 149.054 199.236 150.42 194.585C151.8 189.944 153.571 185.215 156.322 180.572C159.056 175.965 162.924 171.37 168.124 167.95C169.407 167.096 170.802 166.39 172.173 165.628C173.584 164.984 175.034 164.392 176.494 163.814C177.96 163.359 179.455 162.923 180.955 162.536C182.437 162.254 183.932 161.987 185.438 161.736C191.11 160.948 197.009 161.081 202.727 161.973C208.455 162.855 213.935 164.581 219.003 166.721C224.07 168.887 228.745 171.47 233.086 174.247C241.765 179.816 249.225 186.061 256.232 192.123L266.471 201.1C268.142 202.57 269.824 203.968 271.483 205.383L273.964 207.467L276.457 209.475C279.804 212.079 283.106 214.598 286.538 216.747C289.925 218.963 293.458 220.849 296.901 222.329C300.474 223.85 304.507 225.029 308.725 225.99C312.946 226.954 317.353 227.733 321.858 228.392C330.893 229.715 340.26 230.558 349.766 231.661L356.924 232.549C359.327 232.898 361.723 233.261 364.137 233.703C368.964 234.527 373.811 235.667 378.619 237.282C383.406 238.917 388.189 241.123 392.422 244.326C396.661 247.498 400.19 251.7 402.538 256.317C403.757 258.62 404.585 261.028 405.322 263.437L406.218 267.068C406.471 268.266 406.628 269.433 406.836 270.619C407.518 275.357 407.843 280.171 407.651 284.995C407.379 289.809 406.735 294.627 405.535 299.331C405.21 300.497 404.966 301.696 404.59 302.848L403.471 306.32C402.606 308.588 401.743 310.871 400.706 313.074C396.65 321.94 391.111 330.123 384.624 337.417C381.398 341.081 377.972 344.581 374.345 347.841C370.759 351.165 366.944 354.203 363.055 357.151C361.082 358.57 359.135 360.06 357.108 361.4L354.085 363.457L351.009 365.422C346.882 368.013 342.667 370.438 338.372 372.721C336.22 373.849 334.05 374.936 331.88 376.035C329.691 377.075 327.492 378.114 325.281 379.109C323.058 380.069 320.85 381.089 318.605 381.998C316.353 382.884 314.116 383.836 311.845 384.666L298.817 389.53C296.703 390.318 294.623 391.172 292.526 391.988L289.387 393.225L286.28 394.521C269.64 401.342 253.793 409.288 238.216 418.016C230.402 422.429 222.663 426.99 214.256 431.66C210.076 434.005 205.626 436.287 200.773 438.462C195.915 440.583 190.594 442.595 184.783 443.919C178.995 445.274 172.796 445.91 166.812 445.728C160.797 445.606 155.095 444.641 149.744 443.383C147.021 442.793 144.49 442.003 141.916 441.245C140.65 440.849 139.431 440.411 138.189 439.994C136.953 439.573 135.726 439.168 134.449 438.635L130.667 437.115L128.786 436.34L126.918 435.43C124.429 434.2 121.954 433.028 119.556 431.484C118.35 430.752 117.148 430.024 115.965 429.263L112.506 426.71L110.797 425.42C110.235 424.979 109.707 424.465 109.164 423.989L105.96 421.066C104.939 420.037 103.989 418.914 103.018 417.837L101.582 416.203C101.123 415.641 100.708 415.036 100.273 414.453C99.4178 413.274 98.5608 412.104 97.7438 410.913C97.0008 409.67 96.2918 408.41 95.5928 407.155C92.9468 402.074 90.9168 396.738 89.9748 391.392L89.5648 389.399C89.4618 388.735 89.3928 388.072 89.3078 387.41C89.1528 386.087 88.9748 384.767 88.8708 383.455C88.8118 380.845 88.6228 378.235 88.8168 375.702C88.9478 370.589 89.8178 365.7 90.7548 360.921C91.8538 356.186 93.0938 351.555 94.6768 347.1C97.7538 338.157 101.505 329.675 105.547 321.429C106.579 319.378 107.546 317.302 108.628 315.283C109.682 313.253 110.671 311.198 111.759 309.193C112.812 307.171 113.902 305.17 114.975 303.166L118.213 297.169L131.322 273.368ZM133.98 274.727C129.7 282.654 125.717 290.73 122.183 298.976L120.864 302.07L119.619 305.191C118.764 307.261 118.021 309.373 117.259 311.473C115.708 315.663 114.367 319.92 113.131 324.186C110.672 332.718 108.902 341.397 108.046 349.983C107.556 354.271 107.461 358.532 107.481 362.707C107.653 366.864 107.925 370.967 108.728 374.831C109.002 376.798 109.613 378.635 110.053 380.495L110.963 383.165C111.115 383.605 111.25 384.051 111.412 384.483L111.976 385.736C113.355 389.126 115.237 392.095 117.326 394.784C117.883 395.436 118.43 396.084 118.942 396.748L120.743 398.552C121.045 398.848 121.316 399.164 121.635 399.447L122.64 400.258C123.314 400.793 123.932 401.361 124.621 401.877L126.772 403.363C127.134 403.606 127.458 403.877 127.845 404.101L129.016 404.765L131.317 406.119L133.812 407.311C137.099 408.935 140.748 410.236 144.486 411.434C145.381 411.762 146.395 412.025 147.392 412.298C148.385 412.564 149.385 412.864 150.367 413.107C152.318 413.534 154.281 414.054 156.156 414.352C159.946 415.047 163.566 415.443 166.916 415.378C170.287 415.317 173.442 414.902 176.701 414.065C183.174 412.42 190.387 408.898 198.221 404.708C202.127 402.642 206.123 400.437 210.216 398.207C214.282 395.97 218.505 393.807 222.718 391.63C239.687 382.953 257.53 375.407 275.627 369.198L279.017 368.016L282.426 366.898C284.701 366.162 286.964 365.388 289.247 364.687L302.603 360.623C306.85 359.313 311.056 357.916 315.246 356.486L321.48 354.236C323.535 353.449 325.601 352.672 327.647 351.86C331.704 350.183 335.787 348.531 339.726 346.649L342.706 345.272L345.635 343.821C347.614 342.88 349.488 341.81 351.421 340.798C358.99 336.577 366.281 331.888 372.781 326.382C376.067 323.654 379.05 320.662 381.887 317.545C384.75 314.438 387.207 311.045 389.403 307.505C393.835 300.432 396.6 292.462 397.585 284.198C398.017 280.061 398.006 275.858 397.524 271.673C397.38 270.636 397.279 269.564 397.103 268.552L396.48 265.59C395.91 263.679 395.295 261.783 394.395 260.05C392.678 256.542 390.143 253.535 386.916 251.218C383.699 248.89 379.84 247.224 375.718 246.086C371.594 244.925 367.208 244.32 362.765 243.885C358.309 243.518 353.765 243.385 349.17 243.425C339.985 243.475 330.631 244.049 320.977 244.244C316.14 244.32 311.215 244.278 306.163 243.948C301.115 243.617 295.92 243.01 290.568 241.727C279.66 239.055 270.261 234.165 261.747 228.744C244.845 217.814 231.542 204.726 218.023 195.139C211.287 190.346 204.626 186.524 197.772 184.425C194.341 183.354 190.811 182.778 187.152 182.585C183.77 182.44 180.711 182.757 177.841 183.863C174.973 184.949 172.142 186.842 169.565 189.552C166.981 192.242 164.675 195.628 162.642 199.305C160.601 202.988 158.799 206.961 157.121 211.041C155.513 215.148 153.981 219.355 152.588 223.62C149.726 232.14 147.22 240.849 144.353 249.459C141.513 258.074 138.299 266.62 133.98 274.727Z" fill="#EBEBEB"/>
<path d="M409.717 69.8847C408.391 72.7537 406.935 75.2847 405.412 77.6677C404.666 78.8747 403.885 79.9967 403.108 81.1407C402.315 82.2377 401.505 83.3497 400.686 84.3957C399.073 86.5387 397.369 88.5137 395.658 90.4767C388.804 98.2297 381.333 104.884 374.007 111.481L371.421 113.829L370.276 114.873L369.195 116.012C368.454 116.757 367.79 117.623 367.087 118.444C366.429 119.322 365.771 120.2 365.128 121.125C364.495 122.053 363.872 122.985 363.29 123.983C362.705 124.959 362.123 125.957 361.573 126.986C360.495 129.042 359.407 131.158 358.456 133.339C354.489 142.076 351.504 151.474 346.853 160.88C344.439 165.549 341.566 170.329 337.376 174.476C335.337 176.604 332.901 178.402 330.348 180.044C329.044 180.804 327.722 181.589 326.342 182.197C325.647 182.515 324.956 182.856 324.261 183.143L322.138 183.928C319.283 184.955 316.381 185.609 313.477 186.115C312.001 186.376 310.395 186.457 308.83 186.604C307.259 186.707 305.731 186.613 304.156 186.599C302.6 186.56 301.116 186.333 299.573 186.161C298.798 186.084 298.07 185.929 297.339 185.782L295.118 185.333L294.007 185.093L292.94 184.783L290.803 184.141C289.35 183.757 288.014 183.21 286.643 182.674C281.213 180.525 276.233 177.681 271.707 174.387C267.213 171.061 263.131 167.314 259.482 163.246C255.845 159.171 252.717 154.706 250.005 150.031C249.34 148.854 248.701 147.663 248.071 146.476C247.457 145.273 246.909 144.029 246.342 142.81C245.763 141.597 245.25 140.344 244.768 139.09C244.277 137.833 243.78 136.595 243.365 135.3C241.604 130.233 240.357 124.978 239.45 119.751C238.567 114.511 238.036 109.26 238.007 104.048C237.953 98.8487 238.269 93.7097 239.164 88.6977C240.069 83.6887 241.591 78.8207 243.892 74.3037C246.224 69.7557 249.684 65.7157 253.887 62.6167C258.074 59.5017 262.845 57.2007 267.728 55.3257C277.548 51.6367 287.891 49.3307 298.078 47.7527C303.192 46.9657 308.269 46.4497 313.303 46.1307C314.037 46.1097 314.327 45.9947 314.747 45.9337L315.92 45.7307C316.716 45.4877 317.475 45.4227 318.265 45.1357L319.425 44.8127C319.82 44.6687 320.208 44.5127 320.603 44.4007C321.38 44.1837 322.198 43.7787 322.988 43.5237C326.241 42.2167 329.727 40.5557 333.506 38.4537L339.438 35.1247L342.607 33.3377L345.976 31.5217C348.239 30.2787 350.769 29.0907 353.371 27.9067C356.062 26.7727 358.898 25.6447 362.045 24.7557C365.239 23.8827 368.595 23.1257 372.304 22.8957C375.965 22.6507 379.836 22.7907 383.608 23.5817L385.026 23.8487L386.409 24.2207C387.324 24.4807 388.254 24.7237 389.156 25.0217C390.885 25.6867 392.695 26.3257 394.267 27.1817L396.677 28.4297L398.889 29.8017C400.41 30.7137 401.684 31.7347 403.015 32.7427C403.37 33.0067 403.64 33.2117 404.039 33.5337C404.559 33.9687 405.054 34.4157 405.545 34.8727C406.534 35.7357 407.487 36.8397 408.379 37.9657C408.595 38.2367 408.817 38.5207 409.027 38.8117L409.637 39.7397C410.031 40.3647 410.403 40.9927 410.772 41.6307C411.427 42.9317 412.017 44.3057 412.457 45.6517C412.655 46.3277 412.844 47.0007 413.01 47.6767C413.096 48.0207 413.183 48.3657 413.244 48.6907L413.396 49.6677C413.49 50.3097 413.561 50.9547 413.63 51.6087C413.702 52.2537 413.684 52.8167 413.702 53.4337C413.707 54.0247 413.706 54.6357 413.682 55.2177L413.542 56.8557C413.48 57.3937 413.438 57.9687 413.348 58.4657L413.081 59.9467C412.276 63.8527 411.033 67.0117 409.717 69.8847Z" fill="#EBEBEB"/>
<path d="M79.877 334.351C80.397 337.371 80.567 340.241 80.487 343.011C80.407 348.561 79.157 353.641 77.787 358.591C76.397 363.551 74.707 368.371 72.597 373.021C70.447 377.651 67.827 382.091 64.567 386.161C61.297 390.221 57.537 394.031 53.047 397.291C48.537 400.491 42.937 402.841 36.797 403.761C33.737 404.211 30.547 404.301 27.437 403.951C24.337 403.581 21.337 402.791 18.717 401.601C16.077 400.431 13.827 398.941 11.877 397.361C9.91704 395.771 8.22704 394.091 6.58704 392.401C5.72704 391.461 4.95704 390.451 4.27704 389.361C3.63704 388.251 3.10704 387.081 2.64704 385.861C1.79704 383.421 1.25704 380.821 0.907043 378.171C0.207043 372.871 0.0570424 367.201 0.727042 361.771C1.39704 356.341 3.07704 351.281 5.71704 346.961C8.35704 342.641 11.817 338.971 15.897 336.041C19.957 333.081 24.727 330.961 29.397 329.031C34.137 327.151 38.727 325.381 43.087 323.321C47.527 321.331 51.667 318.971 56.977 317.321C58.317 316.921 59.737 316.551 61.327 316.381C62.897 316.181 64.627 316.141 66.507 316.461C68.527 316.801 70.947 317.931 72.727 319.491C73.157 319.881 73.617 320.301 73.987 320.721C74.357 321.141 74.727 321.571 75.077 322.021C75.687 322.871 76.297 323.791 76.727 324.641C77.227 325.541 77.557 326.341 77.927 327.221C78.227 328.021 78.567 328.901 78.777 329.671L79.127 330.881L79.417 332.051C79.607 332.841 79.737 333.581 79.877 334.351Z" fill="#EBEBEB"/>
</g>
<path d="M350.309 394.483C363.401 382.13 363.999 361.503 351.645 348.411C339.292 335.32 318.665 334.722 305.573 347.075C292.482 359.428 291.884 380.056 304.237 393.147C316.59 406.238 337.218 406.837 350.309 394.483Z" fill="#8AAEFE"/>
<path d="M297.619 382.746C299.089 381.213 302.117 378.378 307.247 375.608C313.46 372.251 330.724 367.737 338.499 362.989C349.436 356.318 350.357 350.01 350.035 346.814C346.913 343.943 343.303 341.748 339.417 340.29C338.871 343.641 336.642 354.133 318.246 362.34C308.752 366.566 299.209 365.022 295.971 364.5C294.787 370.475 295.268 376.801 297.619 382.746Z" fill="#407BFF"/>
<path d="M312.31 399.395C321.738 404.54 333.513 404.919 343.63 399.365C347.178 397.417 350.219 394.908 352.703 392.006C351.377 391.375 348.694 390.482 346.688 390.164C337.785 388.742 328.505 393.696 325.151 395.95C319.785 399.562 314.922 399.674 312.31 399.395Z" fill="#407BFF"/>
<path d="M299.944 387.466C300.092 387.724 300.248 387.972 300.407 388.225C300.547 388.455 300.696 388.679 300.846 388.903C301.184 389.41 301.53 389.907 301.894 390.387C302.219 390.821 302.554 391.25 302.9 391.66C303.026 391.817 303.16 391.964 303.291 392.118C303.439 392.29 303.586 392.462 303.736 392.626C303.889 392.795 304.042 392.965 304.197 393.126C304.377 393.32 304.565 393.517 304.755 393.706C304.94 393.897 305.13 394.086 305.323 394.267C305.491 394.428 305.657 394.583 305.822 394.739C306.191 395.083 306.564 395.411 306.948 395.734L306.956 395.736C309.026 396.192 311.715 395.702 315.553 393.822C321.265 391.033 327.179 384.948 338.253 379.934C348.71 375.193 357.83 376.609 359.982 376.767L359.987 376.764C361.188 370.334 360.469 363.513 357.57 357.202C355.487 357.292 348.881 358.78 335.601 371.681C330.551 376.586 326.037 380.123 322.05 382.645C310.397 390.002 303.212 388.675 300.154 387.436L300.149 387.439C300.079 387.446 300.011 387.456 299.944 387.466Z" fill="#407BFF"/>
<path d="M329.493 351.954C330.19 353.223 332.25 353.43 334.096 352.417C335.941 351.404 336.873 349.554 336.176 348.285C335.479 347.016 333.419 346.809 331.573 347.822C329.728 348.835 328.797 350.685 329.493 351.954Z" fill="#407BFF"/>
<path d="M338.89 353.426C339.283 354.141 340.498 354.228 341.606 353.62C342.713 353.012 343.293 351.94 342.9 351.225C342.507 350.51 341.292 350.423 340.184 351.031C339.077 351.639 338.498 352.711 338.89 353.426Z" fill="#407BFF"/>
<path d="M317.352 395.582C317.947 396.666 319.739 396.826 321.353 395.94C322.968 395.053 323.794 393.456 323.199 392.372C322.604 391.288 320.812 391.127 319.198 392.014C317.583 392.9 316.756 394.498 317.352 395.582Z" fill="#407BFF"/>
<path d="M323.429 396.159C323.746 396.736 324.619 396.864 325.381 396.447C326.142 396.029 326.503 395.223 326.186 394.646C325.87 394.069 324.996 393.941 324.234 394.358C323.473 394.776 323.112 395.582 323.429 396.159Z" fill="#407BFF"/>
<path d="M324.121 393.061C324.311 393.407 324.858 393.472 325.342 393.206C325.826 392.94 326.065 392.444 325.875 392.098C325.685 391.752 325.138 391.687 324.654 391.953C324.17 392.219 323.931 392.715 324.121 393.061Z" fill="#407BFF"/>
<path d="M344.37 391.132C344.902 392.101 346.38 392.311 347.672 391.602C348.964 390.893 349.58 389.532 349.048 388.564C348.516 387.595 347.038 387.385 345.746 388.094C344.454 388.802 343.838 390.163 344.37 391.132Z" fill="#407BFF"/>
<path d="M343.179 386.784C343.483 387.338 344.234 387.509 344.857 387.167C345.48 386.825 345.738 386.099 345.435 385.546C345.131 384.992 344.38 384.821 343.757 385.163C343.134 385.505 342.875 386.231 343.179 386.784Z" fill="#407BFF"/>
<path d="M301.894 390.387C310.636 388.626 320.756 385.942 331.391 382.449C342.329 378.863 352.317 374.906 360.538 371.045C375.143 364.187 384.149 357.616 382.933 353.907C381.742 350.256 370.756 350.151 355.33 353.122C355.744 353.767 356.141 354.429 356.515 355.11C356.655 355.366 356.791 355.625 356.926 355.884C365.138 354.834 370.578 355.312 371.318 357.571C372.07 359.863 367.839 363.552 360.392 367.647C353.104 371.655 342.733 376.055 330.967 379.916C319.177 383.783 308.199 386.385 299.944 387.465C291.551 388.574 285.973 388.112 285.221 385.819C284.486 383.57 288.567 379.971 295.761 375.962C295.58 374.868 295.459 373.762 295.402 372.661C280.88 379.501 271.738 386.298 272.95 389.997C274.184 393.766 285.666 393.659 301.894 390.387Z" fill="#407BFF"/>
<path d="M303.732 392.617C312.567 390.759 322.368 388.15 332.562 384.859L332.57 384.861C342.71 381.593 352.131 378 360.346 374.37C380.626 365.409 393.58 356.198 391.886 350.939C390.206 345.731 374.613 345.789 353.247 350.236C353.563 350.629 353.871 351.033 354.169 351.442C372.11 348.002 384.97 348.185 386.422 352.699C387.891 357.256 377.347 365.044 360.48 372.818C352.314 376.575 342.677 380.333 332.194 383.715C321.654 387.116 311.572 389.712 302.717 391.435C284.567 394.956 271.527 394.785 270.066 390.243C268.62 385.753 278.869 378.108 295.354 370.437C295.361 369.927 295.375 369.419 295.408 368.908C275.55 377.764 262.927 386.813 264.601 392.011C266.294 397.258 282.121 397.165 303.732 392.617Z" fill="#407BFF"/>
<path d="M192.973 217.555C203.026 214.123 208.394 203.191 204.961 193.138C201.529 183.085 190.597 177.717 180.544 181.149C170.491 184.581 165.123 195.514 168.555 205.567C171.988 215.62 182.92 220.988 192.973 217.555Z" fill="#EBEBEB"/>
<path d="M205.161 204.928C204.223 204.096 202.308 202.572 199.159 201.186C195.345 199.506 184.976 197.669 180.178 195.245C173.428 191.84 172.588 188.172 172.625 186.278C174.325 184.441 176.345 182.979 178.561 181.937C179.041 183.882 180.849 189.949 192.059 193.904C197.844 195.94 203.384 194.579 205.264 194.119C206.245 197.576 206.262 201.32 205.161 204.928Z" fill="#DBDBDB"/>
<path d="M197.309 215.418C192.007 218.892 185.099 219.673 178.884 216.885C176.704 215.907 174.797 214.576 173.198 212.986C173.948 212.552 175.484 211.899 176.649 211.617C181.819 210.358 187.512 212.833 189.592 214C192.92 215.871 195.786 215.706 197.309 215.418Z" fill="#DBDBDB"/>
<path d="M204.017 207.815C203.942 207.974 203.862 208.127 203.78 208.283C203.709 208.425 203.631 208.564 203.554 208.703C203.379 209.017 203.199 209.326 203.008 209.625C202.837 209.896 202.66 210.164 202.477 210.422C202.41 210.52 202.338 210.613 202.268 210.71C202.189 210.818 202.11 210.926 202.03 211.03C201.948 211.137 201.866 211.244 201.783 211.346C201.686 211.469 201.585 211.593 201.482 211.713C201.382 211.834 201.279 211.955 201.175 212.07C201.084 212.172 200.994 212.272 200.904 212.371C200.703 212.591 200.499 212.801 200.289 213.009L200.284 213.011C199.088 213.378 197.483 213.217 195.136 212.292C191.644 210.922 187.877 207.623 181.125 205.199C174.749 202.906 169.452 204.172 168.193 204.366L168.19 204.365C167.179 200.64 167.279 196.594 168.684 192.744C169.913 192.698 173.87 193.26 182.293 200.219C185.496 202.864 188.319 204.731 190.784 206.026C197.987 209.801 202.151 208.68 203.891 207.806L203.894 207.807C203.937 207.809 203.977 207.812 204.017 207.815Z" fill="#DBDBDB"/>
<path d="M185.738 215.054C186.079 214.271 187.279 214.039 188.418 214.535C189.557 215.031 190.203 216.069 189.862 216.852C189.521 217.635 188.321 217.867 187.182 217.371C186.043 216.874 185.397 215.837 185.738 215.054Z" fill="#C7C7C7"/>
<path d="M191.182 213.685C191.374 213.244 192.084 213.128 192.768 213.425C193.451 213.723 193.848 214.322 193.656 214.764C193.463 215.205 192.754 215.321 192.07 215.024C191.386 214.725 190.989 214.126 191.182 213.685Z" fill="#C7C7C7"/>
<path d="M176.265 190.064C176.557 189.395 177.601 189.205 178.597 189.639C179.594 190.073 180.165 190.968 179.873 191.637C179.581 192.306 178.537 192.496 177.54 192.062C176.545 191.628 175.973 190.733 176.265 190.064Z" fill="#C7C7C7"/>
<path d="M179.806 189.4C179.961 189.044 180.468 188.922 180.938 189.127C181.408 189.332 181.663 189.786 181.508 190.142C181.353 190.498 180.846 190.62 180.376 190.416C179.906 190.21 179.651 189.755 179.806 189.4Z" fill="#C7C7C7"/>
<path d="M180.379 191.183C180.472 190.969 180.79 190.902 181.089 191.032C181.388 191.162 181.555 191.441 181.462 191.655C181.369 191.868 181.051 191.936 180.752 191.806C180.452 191.675 180.285 191.396 180.379 191.183Z" fill="#C7C7C7"/>
<path d="M192.381 191.232C192.642 190.634 193.499 190.431 194.296 190.779C195.093 191.127 195.528 191.893 195.267 192.491C195.006 193.089 194.149 193.292 193.352 192.944C192.555 192.596 192.12 191.83 192.381 191.232Z" fill="#C7C7C7"/>
<path d="M191.915 193.851C192.064 193.509 192.496 193.368 192.881 193.536C193.265 193.703 193.456 194.116 193.307 194.458C193.158 194.8 192.726 194.941 192.341 194.773C191.957 194.605 191.766 194.192 191.915 193.851Z" fill="#C7C7C7"/>
<path d="M58.9044 83.4838C68.7665 79.5354 73.5604 68.3398 69.612 58.4777C65.6636 48.6157 54.4679 43.8217 44.6059 47.7702C34.7438 51.7186 29.9499 62.9142 33.8983 72.7763C37.8467 82.6383 49.0424 87.4323 58.9044 83.4838Z" fill="#407BFF"/>
<path opacity="0.1" d="M58.9044 83.4838C68.7665 79.5354 73.5604 68.3398 69.612 58.4777C65.6636 48.6157 54.4679 43.8217 44.6059 47.7702C34.7438 51.7186 29.9499 62.9142 33.8983 72.7763C37.8467 82.6383 49.0424 87.4323 58.9044 83.4838Z" fill="black"/>
<g opacity="0.1">
<path d="M70.1543 71.221C69.2163 70.389 67.3013 68.865 64.1523 67.479C60.3383 65.799 49.9693 63.962 45.1713 61.538C38.4213 58.133 37.5813 54.465 37.6183 52.571C39.3183 50.735 41.3383 49.272 43.5543 48.23C44.0343 50.175 45.8423 56.242 57.0523 60.197C62.8373 62.233 68.3773 60.872 70.2573 60.412C71.2383 63.868 71.2553 67.612 70.1543 71.221Z" fill="black"/>
<path d="M62.3024 81.711C57.0004 85.185 50.0924 85.966 43.8774 83.178C41.6984 82.2 39.7904 80.869 38.1914 79.279C38.9414 78.845 40.4774 78.192 41.6424 77.91C46.8124 76.651 52.5054 79.126 54.5854 80.293C57.9134 82.164 60.7794 81.998 62.3024 81.711Z" fill="black"/>
<path d="M69.0105 74.108C68.9355 74.267 68.8555 74.42 68.7745 74.576C68.7035 74.718 68.6255 74.857 68.5485 74.996C68.3735 75.31 68.1935 75.619 68.0025 75.918C67.8315 76.189 67.6545 76.457 67.4715 76.715C67.4045 76.813 67.3325 76.906 67.2625 77.003C67.1835 77.111 67.1045 77.219 67.0245 77.323C66.9425 77.43 66.8605 77.537 66.7775 77.639C66.6805 77.762 66.5795 77.886 66.4765 78.007C66.3765 78.128 66.2735 78.249 66.1695 78.364C66.0785 78.467 65.9885 78.566 65.8985 78.665C65.6975 78.885 65.4935 79.096 65.2835 79.303L65.2785 79.305C64.0825 79.672 62.4775 79.511 60.1305 78.586C56.6385 77.216 52.8715 73.917 46.1195 71.493C39.7435 69.2 34.4465 70.466 33.1875 70.66L33.1845 70.658C32.1735 66.933 32.2735 62.887 33.6785 59.037C34.9075 58.991 38.8645 59.553 47.2875 66.513C50.4905 69.159 53.3135 71.025 55.7785 72.32C62.9815 76.095 67.1455 74.974 68.8855 74.1L68.8885 74.101C68.9305 74.102 68.9705 74.105 69.0105 74.108Z" fill="black"/>
</g>
<g opacity="0.1">
<path d="M50.7317 81.3458C51.0727 80.5628 52.2727 80.3308 53.4117 80.8268C54.5507 81.3228 55.1967 82.3608 54.8557 83.1438C54.5147 83.9268 53.3147 84.1588 52.1757 83.6628C51.0367 83.1668 50.3907 82.1298 50.7317 81.3458Z" fill="black"/>
<path d="M56.1756 79.9777C56.3676 79.5367 57.0776 79.4197 57.7616 79.7177C58.4446 80.0157 58.8426 80.6147 58.6506 81.0557C58.4586 81.4967 57.7486 81.6137 57.0646 81.3157C56.3806 81.0177 55.9826 80.4187 56.1756 79.9777Z" fill="black"/>
<path d="M41.259 56.3566C41.551 55.6876 42.595 55.4976 43.591 55.9316C44.588 56.3666 45.159 57.2606 44.867 57.9296C44.575 58.5986 43.531 58.7886 42.535 58.3546C41.538 57.9206 40.967 57.0256 41.259 56.3566Z" fill="black"/>
<path d="M44.8002 55.6918C44.9552 55.3358 45.4622 55.2138 45.9322 55.4188C46.4022 55.6238 46.6572 56.0778 46.5022 56.4338C46.3472 56.7898 45.8402 56.9118 45.3702 56.7078C44.9002 56.5028 44.6452 56.0478 44.8002 55.6918Z" fill="black"/>
<path d="M45.3724 57.4756C45.4654 57.2616 45.7834 57.1946 46.0824 57.3246C46.3814 57.4546 46.5484 57.7336 46.4554 57.9476C46.3624 58.1616 46.0444 58.2286 45.7454 58.0986C45.4464 57.9676 45.2794 57.6886 45.3724 57.4756Z" fill="black"/>
<path d="M57.3756 57.525C57.6366 56.927 58.4936 56.724 59.2906 57.072C60.0876 57.42 60.5226 58.186 60.2626 58.784C60.0026 59.382 59.1446 59.585 58.3466 59.237C57.5496 58.889 57.1146 58.123 57.3756 57.525Z" fill="black"/>
<path d="M56.909 60.1437C57.058 59.8017 57.49 59.6607 57.875 59.8287C58.259 59.9957 58.45 60.4087 58.301 60.7507C58.152 61.0927 57.72 61.2337 57.335 61.0657C56.951 60.8977 56.76 60.4847 56.909 60.1437Z" fill="black"/>
</g>
<path d="M190.643 102.836C189.928 101.994 148.789 82.907 111.535 111.34C77.2823 137.483 65.3903 186.611 69.9383 187.786C75.5053 189.225 90.7673 165.779 120.059 152.899C130.446 148.332 146.983 152.895 146.983 152.895L190.643 102.836Z" fill="#407BFF"/>
<path opacity="0.1" d="M146.988 152.894C146.988 152.894 139.816 150.912 131.953 150.872C138.408 137.351 150.472 112.127 158.301 95.793C176.735 95.962 190.235 102.354 190.641 102.832L146.988 152.894Z" fill="black"/>
<path d="M258.413 182.768C259.128 183.611 271.228 227.318 237.083 259.42C205.689 288.935 155.278 292.631 154.862 287.952C154.354 282.225 179.98 271.003 197.478 244.212C203.683 234.712 201.886 217.652 201.886 217.652L258.413 182.768Z" fill="#407BFF"/>
<path opacity="0.1" d="M260.037 216.05C242.499 221.158 215.599 228.985 201.38 233.115C202.686 225.242 201.891 217.651 201.891 217.651L258.414 182.767C258.821 183.246 262.955 197.736 260.037 216.05Z" fill="black"/>
<g filter="url(#filter0_d_83_3465)">
<path d="M162.631 236.201L122.452 188.811C122.452 188.811 143.404 132.623 193.212 94.8778C218.083 76.0528 247.259 61.9588 273.38 52.6348C309.426 39.7138 339.591 35.9688 344.262 41.4778C348.954 47.0118 340.304 76.1338 321.682 109.605C308.19 133.824 289.513 160.301 266.874 181.759C221.489 224.722 162.631 236.201 162.631 236.201Z" fill="white"/>
</g>
<path d="M260.239 161.468C245.146 174.264 222.537 172.403 209.74 157.31C196.944 142.216 198.805 119.608 213.898 106.811C228.991 94.0139 251.6 95.8759 264.397 110.969C277.194 126.063 275.332 148.671 260.239 161.468Z" fill="#A6A6A6"/>
<path d="M262.198 158.138C247.105 170.935 224.495 169.073 211.7 153.98C198.903 138.887 200.764 116.277 215.858 103.481C230.951 90.6838 253.56 92.5458 266.357 107.639C279.153 122.732 277.291 145.341 262.198 158.138Z" fill="#407BFF"/>
<path d="M255.112 149.752C244.65 158.635 228.969 157.355 220.086 146.893C211.203 136.431 212.483 120.75 222.944 111.867C233.406 102.984 249.087 104.264 257.97 114.726C266.854 125.187 265.574 140.869 255.112 149.752Z" fill="white"/>
<path d="M255.117 149.753C252.699 151.806 249.995 153.324 247.166 154.298L227.205 152.669C224.571 151.249 222.149 149.313 220.096 146.895C218.603 145.136 217.406 143.232 216.489 141.236L259.594 144.754C258.365 146.574 256.875 148.26 255.117 149.753Z" fill="#EBEBEB"/>
<path d="M260.125 117.684L220.339 114.437C221.128 113.533 221.999 112.669 222.94 111.87C233.409 102.981 249.086 104.261 257.974 114.729C258.773 115.67 259.492 116.664 260.125 117.684Z" fill="#EBEBEB"/>
<path d="M262.276 139.597L214.677 135.712C214.521 134.983 214.409 134.258 214.334 133.502L262.972 137.472C262.778 138.183 262.538 138.891 262.276 139.597Z" fill="#EBEBEB"/>
<path d="M321.682 109.606L273.38 52.6358C309.426 39.7148 339.591 35.9698 344.262 41.4788C348.954 47.0128 340.304 76.1348 321.682 109.606Z" fill="#407BFF"/>
<path d="M287.58 57.4528C286.699 58.1998 285.379 58.0907 284.632 57.2097C283.885 56.3287 283.994 55.0087 284.875 54.2617C285.756 53.5147 287.076 53.6237 287.823 54.5047C288.569 55.3857 288.46 56.7058 287.58 57.4528Z" fill="white"/>
<path d="M296.172 67.5878C295.291 68.3348 293.971 68.2268 293.224 67.3448C292.477 66.4638 292.586 65.1438 293.467 64.3968C294.348 63.6498 295.668 63.7578 296.415 64.6398C297.162 65.5208 297.053 66.8408 296.172 67.5878Z" fill="white"/>
<path d="M304.764 77.7218C303.883 78.4688 302.563 78.3598 301.816 77.4788C301.069 76.5978 301.178 75.2778 302.059 74.5308C302.94 73.7838 304.26 73.8928 305.007 74.7738C305.753 75.6558 305.645 76.9748 304.764 77.7218Z" fill="white"/>
<path d="M313.357 87.8566C312.476 88.6036 311.156 88.4946 310.409 87.6136C309.662 86.7326 309.771 85.4126 310.652 84.6656C311.533 83.9186 312.853 84.0276 313.6 84.9086C314.347 85.7896 314.238 87.1096 313.357 87.8566Z" fill="white"/>
<path d="M321.95 97.9918C321.069 98.7388 319.749 98.6298 319.002 97.7488C318.255 96.8678 318.364 95.5478 319.245 94.8008C320.126 94.0538 321.446 94.1628 322.192 95.0438C322.939 95.9248 322.831 97.2448 321.95 97.9918Z" fill="white"/>
<path d="M134.044 187.703C133.163 188.45 131.843 188.341 131.096 187.46C130.349 186.579 130.458 185.259 131.339 184.512C132.22 183.765 133.54 183.874 134.286 184.755C135.034 185.636 134.925 186.956 134.044 187.703Z" fill="#A6A6A6"/>
<path d="M142.637 197.837C141.756 198.584 140.436 198.475 139.69 197.594C138.943 196.713 139.052 195.393 139.932 194.646C140.813 193.899 142.133 194.008 142.88 194.889C143.627 195.771 143.518 197.09 142.637 197.837Z" fill="#A6A6A6"/>
<path d="M151.229 207.972C150.348 208.719 149.028 208.611 148.281 207.73C147.534 206.849 147.643 205.529 148.524 204.782C149.405 204.035 150.725 204.144 151.472 205.025C152.218 205.905 152.11 207.225 151.229 207.972Z" fill="#A6A6A6"/>
<path d="M159.822 218.107C158.941 218.854 157.622 218.745 156.874 217.864C156.127 216.983 156.236 215.663 157.116 214.916C157.997 214.169 159.317 214.278 160.064 215.159C160.812 216.04 160.703 217.36 159.822 218.107Z" fill="#A6A6A6"/>
<path d="M168.414 228.241C167.533 228.988 166.213 228.879 165.466 227.998C164.719 227.117 164.827 225.797 165.708 225.05C166.589 224.303 167.909 224.412 168.656 225.293C169.403 226.175 169.295 227.494 168.414 228.241Z" fill="#A6A6A6"/>
<path opacity="0.2" d="M342 40.0698C314.18 42.0498 266.02 58.9098 215.31 98.6698C177.85 128.04 150.52 179.44 137.78 206.89L122.45 188.81C122.45 188.81 143.4 132.62 193.21 94.8798C218.08 76.0498 247.26 61.9598 273.38 52.6398C305.69 41.0498 333.26 36.8498 342 40.0698Z" fill="white"/>
<path d="M144.684 243.919L112.012 205.378L124.719 191.492L160.464 233.652L144.684 243.919Z" fill="#407BFF"/>
<path opacity="0.1" d="M160.46 233.652L152.77 238.647L119.857 196.804L124.717 191.499L160.46 233.652Z" fill="black"/>
<path opacity="0.6" d="M137.498 235.316C122.354 245.529 108.981 258.564 99.217 274.125C89.45 289.627 83.387 307.691 82.828 326.375C82.587 335.697 83.715 345.12 86.241 354.26C88.759 363.401 92.676 372.248 97.802 380.457C102.923 388.672 109.241 396.24 116.413 403.006C123.585 409.779 131.598 415.753 140.125 420.983C131.056 416.779 122.301 411.732 114.174 405.675C106.05 399.626 98.561 392.556 92.121 384.492C85.679 376.438 80.303 367.389 76.351 357.643C72.391 347.904 69.864 337.483 68.899 326.849C67.022 305.543 71.521 283.665 80.842 264.156C90.138 244.57 104.09 227.324 120.545 213.191L137.498 235.316Z" fill="#407BFF"/>
<defs>
<filter id="filter0_d_83_3465" x="118.452" y="39.0161" width="231.066" height="205.185" filterUnits="userSpaceOnUse" color-interpolation-filters="sRGB">
<feFlood flood-opacity="0" result="BackgroundImageFix"/>
<feColorMatrix in="SourceAlpha" type="matrix" values="0 0 0 0 0 0 0 0 0 0 0 0 0 0 0 0 0 0 127 0" result="hardAlpha"/>
<feOffset dy="4"/>
<feGaussianBlur stdDeviation="2"/>
<feComposite in2="hardAlpha" operator="out"/>
<feColorMatrix type="matrix" values="0 0 0 0 0 0 0 0 0 0 0 0 0 0 0 0 0 0 0.09 0"/>
<feBlend mode="normal" in2="BackgroundImageFix" result="effect1_dropShadow_83_3465"/>
<feBlend mode="normal" in="SourceGraphic" in2="effect1_dropShadow_83_3465" result="shape"/>
</filter>
</defs>
</svg>
