<svg width="394" height="367" viewBox="0 0 394 367" fill="none" xmlns="http://www.w3.org/2000/svg">
<g clip-path="url(#clip0_83_4898)">
<path d="M447 317.398H-53V317.648H447V317.398Z" fill="#EBEBEB"/>
<path d="M376.708 324.208H279.111V324.458H376.708V324.208Z" fill="#EBEBEB"/>
<path d="M282.667 329.986H236V330.236H282.667V329.986Z" fill="#EBEBEB"/>
<path d="M396.901 333.494H377.709V333.744H396.901V333.494Z" fill="#EBEBEB"/>
<path d="M166 330.111H73.4727V330.361H166V330.111Z" fill="#EBEBEB"/>
<path d="M64.57 330.111H44.667V330.361H64.57V330.111Z" fill="#EBEBEB"/>
<path d="M37.654 325.888H4.79199V326.138H37.654V325.888Z" fill="#EBEBEB"/>
<path d="M184.014 272.8H-9.08497C-12.232 272.8 -14.793 270.239 -14.793 267.092V-4.3401C-14.793 -7.4871 -12.232 -10.0481 -9.08497 -10.0481H184.014C187.16 -10.0481 189.721 -7.4871 189.721 -4.3401V267.092C189.721 270.239 187.16 272.8 184.014 272.8ZM-9.08497 -9.7971C-12.095 -9.7971 -14.543 -7.3491 -14.543 -4.3391V267.093C-14.543 270.103 -12.095 272.551 -9.08497 272.551H184.014C187.023 272.551 189.471 270.103 189.471 267.093V-4.3401C189.471 -7.3491 187.023 -9.7981 184.014 -9.7981L-9.08497 -9.7971Z" fill="#EBEBEB"/>
<path d="M400.31 272.8H207.212C204.065 272.8 201.505 270.239 201.505 267.092V-4.3401C201.505 -7.4871 204.066 -10.0481 207.212 -10.0481H400.31C403.458 -10.0481 406.018 -7.4871 406.018 -4.3401V267.092C406.019 270.239 403.458 272.8 400.31 272.8ZM207.212 -9.7971C204.203 -9.7971 201.755 -7.3491 201.755 -4.3391V267.093C201.755 270.103 204.203 272.551 207.212 272.551H400.31C403.32 272.551 405.768 270.103 405.768 267.093V-4.3401C405.768 -7.3491 403.32 -9.7981 400.31 -9.7981L207.212 -9.7971Z" fill="#EBEBEB"/>
<path d="M338.073 308.195H36.0344L18.0234 103.31H320.062L338.073 308.195Z" fill="#F0F0F0"/>
<path d="M30.6973 314.721L36.0343 308.195L18.0233 103.31L12.6953 109.937L30.6973 314.721Z" fill="#E0E0E0"/>
<path d="M40.0253 300.416L23.4343 111.685C23.2593 109.696 24.8263 107.985 26.8233 107.985H312.682C314.445 107.985 315.916 109.332 316.071 111.089L332.662 299.82C332.837 301.809 331.27 303.52 329.273 303.52H43.4143C41.6513 303.52 40.1803 302.172 40.0253 300.416Z" fill="#FAFAFA"/>
<path d="M78.4867 308.195H32.9797L29.7617 317.398H75.2687L78.4867 308.195Z" fill="#E0E0E0"/>
<path d="M78.4865 308.195H377.71L374.491 317.398H75.2686L78.4865 308.195Z" fill="#F5F5F5"/>
<path d="M201.702 308.195H259.06L258.443 314.221H201.085L201.702 308.195Z" fill="#E0E0E0"/>
<path d="M288.617 89.8638H361.087C367.092 129.62 339.32 162.334 299.564 162.334C286.844 162.334 273.839 158.985 261.863 152.625L288.617 89.8638Z" fill="#E0E0E0"/>
<path d="M288.618 89.8639L326.815 34.3489C335.949 41.1509 343.751 49.6469 349.671 59.2369C355.592 68.8269 359.489 79.2819 361.087 89.8639H288.618Z" fill="#EBEBEB"/>
<path d="M288.618 89.8638L277.671 17.3938C286.125 17.3938 294.737 18.8728 303.117 21.7638C311.498 24.6548 319.518 28.9138 326.814 34.3478L288.618 89.8638Z" fill="#E6E6E6"/>
<path d="M288.618 89.8638L261.863 152.624C237.516 139.695 220.054 115.722 216.148 89.8638C210.143 50.1078 237.915 17.3938 277.671 17.3938L288.618 89.8638Z" fill="#F0F0F0"/>
<path d="M199.155 219.19H263.44C264.289 224.808 264.397 230.402 263.763 235.828C263.129 241.254 261.757 246.467 259.683 251.332L199.155 219.19Z" fill="#EBEBEB"/>
<path d="M199.155 219.19L200.755 155.882C216.032 158.506 230.697 166.294 242.158 177.869C253.619 189.444 261.157 204.081 263.44 219.191H199.155V219.19Z" fill="#E0E0E0"/>
<path d="M199.155 219.19L142.068 241.177C138.439 234.13 136.003 226.689 134.87 219.19C129.543 183.924 154.179 154.905 189.445 154.905C193.187 154.905 196.972 155.232 200.756 155.882L199.155 219.19Z" fill="#F0F0F0"/>
<path d="M199.155 219.19L259.683 251.333C251.214 271.198 231.804 283.475 208.866 283.475C181.904 283.475 155.117 266.513 142.069 241.177L199.155 219.19Z" fill="white"/>
<path d="M197 362.561C304.082 362.561 390.889 357.492 390.889 351.238C390.889 344.985 304.082 339.915 197 339.915C89.9184 339.915 3.11133 344.985 3.11133 351.238C3.11133 357.492 89.9184 362.561 197 362.561Z" fill="#F5F5F5"/>
<path d="M187.585 174.387H97.51C91.794 174.387 86.736 169.71 86.27 163.994L81.761 108.608C81.296 102.892 85.592 98.2151 91.308 98.2151H181.383C187.099 98.2151 192.157 102.892 192.622 108.608L197.131 163.994C197.598 169.71 193.301 174.387 187.585 174.387Z" fill="white"/>
<path d="M187.585 174.819H97.5101C91.5591 174.819 86.3231 169.979 85.8391 164.029L81.3301 108.643C81.0951 105.749 82.0111 103.022 83.9101 100.961C85.8011 98.91 88.4291 97.781 91.3091 97.781H181.384C187.335 97.781 192.57 102.622 193.055 108.572L197.564 163.958C197.799 166.851 196.883 169.578 194.984 171.639C193.093 173.69 190.466 174.819 187.585 174.819ZM91.3091 98.648C88.6731 98.648 86.2711 99.679 84.5471 101.549C82.8141 103.43 81.9781 105.924 82.1931 108.573L86.7021 163.959C87.1511 169.47 91.9991 173.954 97.5101 173.954H187.585C190.221 173.954 192.623 172.923 194.347 171.053C196.08 169.172 196.916 166.678 196.701 164.03L192.192 108.644C191.743 103.132 186.895 98.648 181.384 98.648H91.3091Z" fill="#407BFF"/>
<path d="M163.14 158.216C159.608 162.062 155.043 164.824 149.9 166.236L148.409 161.966C159.499 158.935 167.007 148.593 166.006 136.303C165.409 128.967 161.897 122.324 156.699 117.517L159.571 114.39C172.573 126.413 174.183 146.195 163.14 158.216Z" fill="#E0E0E0"/>
<path d="M159.572 114.391L156.7 117.518C151.502 112.711 144.617 109.74 137.281 109.74C129.945 109.74 123.545 112.719 119.138 117.526L115.747 114.391C121.086 108.579 128.71 105.314 136.921 105.314C145.14 105.314 153.288 108.579 159.572 114.391Z" fill="#263238"/>
<path d="M149.901 166.236C139.454 169.094 127.772 166.028 119.315 158.216C106.323 146.194 104.713 126.413 115.747 114.391L119.138 117.526C114.722 122.333 112.292 128.967 112.889 136.303C114.083 150.966 126.942 162.858 141.606 162.858C143.979 162.858 146.266 162.546 148.41 161.966L149.901 166.236Z" fill="#407BFF"/>
<path d="M64.888 8.68799H57.666V9.55299H64.888V8.68799Z" fill="#407BFF"/>
<path d="M50.6657 8.68799H34.2217V9.55299H50.6657V8.68799Z" fill="#407BFF"/>
<path d="M127.144 88.2941H37.0686C31.3526 88.2941 26.2946 83.6171 25.8286 77.9011L21.3196 22.5151C20.8546 16.7991 25.1506 12.1221 30.8666 12.1221H120.942C126.658 12.1221 131.716 16.7991 132.181 22.5151L136.69 77.9011C137.156 83.6171 132.86 88.2941 127.144 88.2941Z" fill="white"/>
<path d="M127.144 88.727H37.068C31.117 88.727 25.881 83.886 25.397 77.936L20.889 22.55C20.653 19.657 21.569 16.929 23.469 14.869C25.36 12.817 27.988 11.688 30.868 11.688H120.943C126.894 11.688 132.13 16.529 132.614 22.479L137.123 77.865C137.358 80.759 136.442 83.486 134.543 85.547C132.652 87.598 130.024 88.727 127.144 88.727ZM30.867 12.554C28.231 12.554 25.83 13.585 24.105 15.456C22.372 17.336 21.536 19.83 21.752 22.479L26.261 77.865C26.71 83.377 31.558 87.861 37.069 87.861H127.145C129.78 87.861 132.182 86.831 133.907 84.96C135.64 83.079 136.476 80.585 136.26 77.935L131.751 22.549C131.302 17.037 126.453 12.553 120.943 12.553L30.867 12.554Z" fill="#407BFF"/>
<path d="M29.467 28.0141H77.199L76.815 23.2991H29.083L29.467 28.0141Z" fill="#E0E0E0"/>
<path d="M124.931 28.0141H77.1994L76.8154 23.2991H124.547L124.931 28.0141Z" fill="#407BFF"/>
<path d="M30.466 40.29H44.083L43.699 35.574H30.082L30.466 40.29Z" fill="#E0E0E0"/>
<path d="M125.93 40.29H44.0832L43.6992 35.574H125.546L125.93 40.29Z" fill="#407BFF"/>
<path d="M31.465 52.5651H73.9531L73.5691 47.8501H31.0811L31.465 52.5651Z" fill="#E0E0E0"/>
<path d="M126.93 52.5651H73.9533L73.5693 47.8501H126.546L126.93 52.5651Z" fill="#407BFF"/>
<path d="M32.465 64.841H104.977L104.593 60.125H32.0811L32.465 64.841Z" fill="#E0E0E0"/>
<path d="M127.929 64.841H104.977L104.593 60.125H127.545L127.929 64.841Z" fill="#407BFF"/>
<path d="M33.4641 77.1161H67.0021L66.6181 72.4011H33.0801L33.4641 77.1161Z" fill="#E0E0E0"/>
<path d="M128.928 77.1161H67.0022L66.6182 72.4011H128.544L128.928 77.1161Z" fill="#407BFF"/>
<path d="M250.281 88.2941H160.206C154.49 88.2941 149.432 83.6171 148.967 77.9011L144.458 22.5151C143.993 16.7991 148.289 12.1221 154.005 12.1221H244.08C249.796 12.1221 254.854 16.7991 255.32 22.5151L259.829 77.9011C260.294 83.6171 255.997 88.2941 250.281 88.2941Z" fill="white"/>
<path d="M250.281 88.727H160.206C154.255 88.727 149.019 83.886 148.535 77.936L144.026 22.55C143.791 19.657 144.707 16.929 146.606 14.868C148.497 12.817 151.124 11.688 154.004 11.688H244.08C250.031 11.688 255.266 16.529 255.751 22.479L260.26 77.865C260.496 80.758 259.58 83.486 257.68 85.546C255.79 87.598 253.162 88.727 250.281 88.727ZM154.004 12.554C151.369 12.554 148.967 13.584 147.242 15.455C145.509 17.336 144.673 19.83 144.888 22.479L149.397 77.865C149.846 83.377 154.695 87.861 160.205 87.861H250.28C252.916 87.861 255.317 86.83 257.042 84.959C258.775 83.079 259.611 80.585 259.395 77.936L254.886 22.55C254.437 17.038 249.589 12.554 244.078 12.554H154.004Z" fill="#407BFF"/>
<path d="M205.129 77.1161H203.539L199.157 23.2991H200.747L205.129 77.1161Z" fill="#E0E0E0"/>
<path d="M207.529 54.7531H197.497L195.785 33.7261H205.817L207.529 54.7531Z" fill="#407BFF"/>
<path d="M185.385 77.1161H183.795L179.414 23.2991H181.004L185.385 77.1161Z" fill="#E0E0E0"/>
<path d="M188.166 59.4232H178.134L176.633 40.9922H186.665L188.166 59.4232Z" fill="#407BFF"/>
<path d="M165.642 77.1161H164.052L159.671 23.2991H161.26L165.642 77.1161Z" fill="#E0E0E0"/>
<path d="M167.188 44.259H157.156L156.126 31.605H166.158L167.188 44.259Z" fill="#263238"/>
<path d="M224.872 77.1161H223.282L218.901 23.2991H220.491L224.872 77.1161Z" fill="#E0E0E0"/>
<path d="M228.244 66.6891H218.212L215.529 33.7261H225.56L228.244 66.6891Z" fill="#263238"/>
<path d="M244.615 77.1161H243.025L238.644 23.2991H240.234L244.615 77.1161Z" fill="#E0E0E0"/>
<path d="M248.309 70.639H238.277L236.128 44.24H246.16L248.309 70.639Z" fill="#407BFF"/>
<path d="M153.889 259.772H63.8137C58.0977 259.772 53.0397 255.095 52.5747 249.379L48.0657 193.993C47.6007 188.277 51.8967 183.6 57.6127 183.6H147.688C153.404 183.6 158.462 188.277 158.927 193.993L163.436 249.379C163.902 255.095 159.605 259.772 153.889 259.772Z" fill="white"/>
<path d="M153.889 260.204H63.8138C57.8628 260.204 52.6268 255.364 52.1428 249.414L47.6338 194.028C47.3988 191.135 48.3148 188.407 50.2138 186.346C52.1048 184.295 54.7328 183.166 57.6128 183.166H147.688C153.639 183.166 158.874 188.007 159.359 193.957L163.868 249.343C164.104 252.235 163.188 254.963 161.289 257.024C159.398 259.075 156.77 260.204 153.889 260.204ZM57.6128 184.032C54.9768 184.032 52.5748 185.063 50.8508 186.933C49.1178 188.814 48.2818 191.308 48.4968 193.957L53.0058 249.343C53.4548 254.854 58.3038 259.338 63.8138 259.338H153.889C156.525 259.338 158.927 258.307 160.651 256.436C162.384 254.556 163.22 252.062 163.004 249.414L158.495 194.028C158.046 188.516 153.198 184.032 147.687 184.032H57.6128Z" fill="#407BFF"/>
<path d="M69.7988 220.364L89.2128 242.794L111.476 208.453L125.244 226.199L128.603 221.017L151.107 247.989L64.6748 247.956L69.7988 220.364Z" fill="#407BFF"/>
<path d="M134.609 221.756L125.586 241.077L96.8068 195.383L83.2548 224.401L78.9128 217.506L64.6768 247.988L151.104 247.945L134.609 221.756Z" fill="#E0E0E0"/>
<path d="M319.88 94.06C322.289 98.581 324.359 103.049 326.308 107.703C328.208 112.359 329.965 117.089 331.338 122.087C331.688 123.327 331.992 124.606 332.282 125.891C332.397 126.327 332.68 127.719 332.678 128.603C332.724 129.585 332.648 130.47 332.526 131.316C331.984 134.641 330.82 137.189 329.552 139.597C326.961 144.364 323.837 148.314 320.204 152.045C319.114 153.164 317.323 153.188 316.204 152.098C315.29 151.208 315.107 149.851 315.664 148.774L315.735 148.639C317.879 144.5 320.002 140.133 321.436 135.989C322.126 133.936 322.674 131.835 322.671 130.288C322.659 129.919 322.648 129.579 322.592 129.343C322.569 129.22 322.546 129.109 322.507 129.048L322.322 128.46C321.988 127.383 321.646 126.305 321.246 125.219C319.732 120.877 317.859 116.517 315.914 112.192C313.976 107.88 311.892 103.495 309.831 99.327L309.789 99.242C308.401 96.434 309.552 93.032 312.36 91.643C315.113 90.281 318.442 91.37 319.88 94.06Z" fill="#407BFF"/>
<path d="M316.751 148.213L311.979 149.716L317.596 156.293C317.596 156.293 319.765 154.385 320.546 151.623C320.81 150.691 320.423 149.694 319.638 149.127L318.842 148.551C318.238 148.114 317.462 147.989 316.751 148.213Z" fill="white"/>
<path d="M305.404 153.77L311.423 158.546L317.596 156.292L311.979 149.716L305.404 153.77Z" fill="white"/>
<path d="M284.85 60.6131C284.73 61.2051 284.319 61.6201 283.932 61.5421C283.545 61.4631 283.329 60.9201 283.45 60.3281C283.57 59.7361 283.981 59.3211 284.368 59.3991C284.755 59.4791 284.971 60.0221 284.85 60.6131Z" fill="#263238"/>
<path d="M284.375 61.6321C284.375 61.6321 282.336 64.7721 280.52 66.1181C281.368 67.3081 283.238 67.2231 283.238 67.2231L284.375 61.6321Z" fill="white"/>
<path d="M287.684 57.768C287.77 57.768 287.857 57.737 287.925 57.674C288.069 57.541 288.078 57.317 287.944 57.173C286.613 55.732 284.997 55.988 284.928 56C284.735 56.033 284.605 56.216 284.638 56.409C284.671 56.602 284.856 56.73 285.046 56.699C285.099 56.691 286.362 56.505 287.424 57.654C287.494 57.73 287.589 57.768 287.684 57.768Z" fill="#263238"/>
<path d="M301.28 71.3811C300.206 76.8571 299.559 84.4431 303.389 88.0971C303.389 88.0971 301.892 93.6511 291.717 93.6511C280.529 93.6511 286.335 88.7761 286.335 88.7761C290.985 87.3331 290.945 82.0351 289.881 77.7811L301.28 71.3811Z" fill="white"/>
<path d="M284.374 87.9211C284.374 87.9211 286.005 84.0551 287.672 83.3891C289.339 82.7221 299.95 80.9781 302.394 82.5171C304.838 84.0561 306.489 89.0011 306.489 89.0011L284.374 87.9211Z" fill="#407BFF"/>
<path d="M295.589 343.979C294.628 343.979 293.701 343.847 293.39 343.415C293.281 343.264 293.196 343.007 293.405 342.64C293.522 342.434 293.711 342.295 293.967 342.225C295.213 341.886 297.828 343.377 297.939 343.441C298.003 343.478 298.038 343.551 298.026 343.623C298.014 343.696 297.958 343.754 297.886 343.768C297.408 343.864 296.484 343.979 295.589 343.979ZM294.402 342.527C294.277 342.527 294.162 342.54 294.059 342.568C293.895 342.612 293.782 342.694 293.712 342.816C293.587 343.036 293.632 343.145 293.678 343.208C294.026 343.692 295.918 343.703 297.31 343.506C296.616 343.15 295.277 342.527 294.402 342.527Z" fill="#407BFF"/>
<path d="M297.849 343.772C297.824 343.772 297.8 343.767 297.776 343.756C296.872 343.351 295.083 341.732 295.22 340.886C295.252 340.687 295.393 340.44 295.88 340.39C296.244 340.353 296.573 340.456 296.863 340.694C297.815 341.476 298.017 343.492 298.025 343.578C298.031 343.641 298.003 343.702 297.952 343.739C297.922 343.761 297.886 343.772 297.849 343.772ZM296.023 340.738C295.988 340.738 295.952 340.74 295.917 340.743C295.598 340.775 295.578 340.901 295.571 340.942C295.489 341.45 296.705 342.722 297.627 343.276C297.531 342.687 297.264 341.481 296.639 340.968C296.451 340.813 296.248 340.738 296.023 340.738Z" fill="#407BFF"/>
<path d="M306.08 343.595H298.595L297.849 326.261H305.334L306.08 343.595Z" fill="white"/>
<path d="M298.644 342.728H306.818C307.124 342.728 307.389 342.94 307.455 343.239L308.934 349.892C309.087 350.582 308.563 351.235 307.857 351.223C304.908 351.173 300.648 351 296.942 351C292.609 351 292.084 351.236 287.003 351.236C283.93 351.236 283.077 348.129 284.364 347.848C290.219 346.567 291.782 346.43 296.842 343.31C297.391 342.972 297.998 342.728 298.644 342.728Z" fill="#263238"/>
<path d="M316.791 88.1231C323.806 89.7311 328.435 108.663 328.435 108.663L316.722 117.462C316.722 117.462 310.332 113.503 308.031 104.545C305.62 95.1581 309.619 86.4791 316.791 88.1231Z" fill="#263238"/>
<path opacity="0.2" d="M310.779 101.293C314.589 105.063 317.052 111.014 317.347 116.984L316.726 117.463C316.726 117.463 310.331 113.498 308.028 104.543C307.885 103.983 307.763 103.422 307.661 102.872L310.779 101.293Z" fill="black"/>
<path d="M342.011 116.295L285.186 139.004L302.075 181.266L358.9 158.556L342.011 116.295Z" fill="#407BFF"/>
<path opacity="0.5" d="M341.177 116.628L285.187 139.003L302.076 181.265L358.067 158.889L341.177 116.628Z" fill="white"/>
<g opacity="0.5">
<path d="M295.445 139.241L290.144 141.36L291.645 145.117L296.946 142.998L295.445 139.241Z" fill="#407BFF"/>
<path d="M304.198 135.743L298.896 137.862L300.398 141.619L305.699 139.5L304.198 135.743Z" fill="#407BFF"/>
<path d="M312.951 132.245L307.649 134.364L309.151 138.121L314.452 136.002L312.951 132.245Z" fill="#407BFF"/>
<path d="M321.705 128.747L316.403 130.866L317.905 134.623L323.206 132.504L321.705 128.747Z" fill="#407BFF"/>
<path d="M330.458 125.249L325.156 127.368L326.658 131.125L331.959 129.006L330.458 125.249Z" fill="#407BFF"/>
<path d="M339.21 121.757L333.908 123.876L335.41 127.633L340.711 125.514L339.21 121.757Z" fill="#407BFF"/>
<path d="M297.924 145.443L292.623 147.562L294.125 151.32L299.426 149.201L297.924 145.443Z" fill="#407BFF"/>
<path d="M306.677 141.948L301.376 144.066L302.878 147.824L308.179 145.706L306.677 141.948Z" fill="#407BFF"/>
<path d="M315.43 138.45L310.129 140.568L311.631 144.326L316.932 142.208L315.43 138.45Z" fill="#407BFF"/>
<path d="M324.183 134.951L318.882 137.07L320.383 140.827L325.685 138.709L324.183 134.951Z" fill="#407BFF"/>
<path d="M332.936 131.453L327.635 133.572L329.137 137.33L334.438 135.211L332.936 131.453Z" fill="#407BFF"/>
<path d="M341.689 127.956L336.388 130.074L337.889 133.831L343.191 131.713L341.689 127.956Z" fill="#407BFF"/>
<path d="M300.404 151.65L295.103 153.769L296.604 157.526L301.905 155.408L300.404 151.65Z" fill="#407BFF"/>
<path d="M309.158 148.15L303.856 150.268L305.358 154.025L310.659 151.907L309.158 148.15Z" fill="#407BFF"/>
<path d="M317.91 144.654L312.608 146.773L314.11 150.53L319.411 148.411L317.91 144.654Z" fill="#407BFF"/>
<path d="M326.664 141.156L321.362 143.275L322.864 147.032L328.165 144.913L326.664 141.156Z" fill="#407BFF"/>
<path d="M335.416 137.665L330.114 139.783L331.616 143.54L336.917 141.422L335.416 137.665Z" fill="#407BFF"/>
<path d="M344.169 134.167L338.867 136.285L340.369 140.043L345.67 137.925L344.169 134.167Z" fill="#407BFF"/>
<path d="M302.882 157.855L297.581 159.973L299.083 163.731L304.384 161.613L302.882 157.855Z" fill="#407BFF"/>
<path d="M311.636 154.357L306.335 156.475L307.837 160.233L313.138 158.115L311.636 154.357Z" fill="#407BFF"/>
<path d="M320.389 150.856L315.088 152.974L316.589 156.731L321.891 154.613L320.389 150.856Z" fill="#407BFF"/>
<path d="M329.142 147.361L323.841 149.479L325.343 153.237L330.644 151.119L329.142 147.361Z" fill="#407BFF"/>
<path d="M337.895 143.863L332.594 145.981L334.095 149.738L339.397 147.62L337.895 143.863Z" fill="#407BFF"/>
<path d="M346.648 140.365L341.347 142.483L342.848 146.241L348.15 144.122L346.648 140.365Z" fill="#407BFF"/>
<path d="M305.364 164.057L300.062 166.175L301.564 169.932L306.865 167.814L305.364 164.057Z" fill="#407BFF"/>
<path d="M314.116 160.562L308.814 162.68L310.316 166.437L315.617 164.319L314.116 160.562Z" fill="#407BFF"/>
<path d="M322.87 157.064L317.568 159.182L319.07 162.939L324.371 160.821L322.87 157.064Z" fill="#407BFF"/>
<path d="M331.622 153.569L326.32 155.688L327.822 159.445L333.123 157.326L331.622 153.569Z" fill="#407BFF"/>
<path d="M340.375 150.074L335.073 152.192L336.575 155.95L341.876 153.832L340.375 150.074Z" fill="#407BFF"/>
<path d="M349.129 146.569L343.827 148.687L345.329 152.445L350.63 150.327L349.129 146.569Z" fill="#407BFF"/>
<path d="M307.841 170.264L302.54 172.383L304.042 176.141L309.343 174.022L307.841 170.264Z" fill="#407BFF"/>
<path d="M316.595 166.766L311.294 168.885L312.796 172.643L318.097 170.524L316.595 166.766Z" fill="#407BFF"/>
<path d="M325.348 163.268L320.047 165.386L321.549 169.145L326.85 167.026L325.348 163.268Z" fill="#407BFF"/>
<path d="M334.101 159.77L328.8 161.888L330.301 165.646L335.603 163.527L334.101 159.77Z" fill="#407BFF"/>
<path d="M342.855 156.269L337.554 158.387L339.055 162.145L344.357 160.026L342.855 156.269Z" fill="#407BFF"/>
<path d="M351.608 152.773L346.307 154.892L347.808 158.649L353.109 156.531L351.608 152.773Z" fill="#407BFF"/>
</g>
<path d="M337.31 129.701C336.985 128.888 337.381 127.965 338.194 127.64C339.007 127.315 339.93 127.711 340.255 128.524C340.58 129.337 340.184 130.26 339.371 130.585C338.558 130.91 337.635 130.515 337.31 129.701Z" fill="white"/>
<path d="M335.995 151.813C335.67 151 336.066 150.077 336.879 149.752C337.692 149.427 338.615 149.823 338.94 150.636C339.265 151.449 338.869 152.372 338.056 152.697C337.243 153.022 336.32 152.626 335.995 151.813Z" fill="white"/>
<path d="M316.01 152.604C315.685 151.791 316.081 150.868 316.894 150.543C317.707 150.218 318.63 150.614 318.955 151.427C319.28 152.24 318.884 153.163 318.071 153.488C317.258 153.814 316.335 153.418 316.01 152.604Z" fill="white"/>
<path d="M303.463 172.01C303.138 171.197 303.534 170.274 304.347 169.949C305.16 169.624 306.083 170.02 306.408 170.833C306.733 171.646 306.337 172.569 305.524 172.894C304.711 173.219 303.788 172.823 303.463 172.01Z" fill="white"/>
<path d="M304.935 172.009C304.826 172.009 304.715 171.979 304.616 171.914C304.343 171.738 304.265 171.374 304.442 171.101L316.99 151.696C317.094 151.536 317.269 151.435 317.46 151.428L336.913 150.657L338.195 129.077C338.215 128.754 338.501 128.512 338.817 128.525C339.141 128.545 339.388 128.823 339.369 129.147L338.055 151.258C338.037 151.56 337.793 151.798 337.491 151.81L317.81 152.59L305.429 171.739C305.317 171.914 305.128 172.009 304.935 172.009Z" fill="white"/>
<path d="M272.461 95.628C270.931 103.714 269.974 120.32 274.416 153.204H314.45C313.727 147.501 310.864 117.08 316.792 88.123C316.792 88.123 309.93 86.746 303.39 86.431C298.275 86.184 290.869 86.021 286.372 86.432C284.495 86.603 282.652 86.874 281.011 87.165C276.681 87.93 273.278 91.308 272.461 95.628Z" fill="#263238"/>
<path opacity="0.2" d="M278.757 108.08L271.237 108.68C270.967 118.41 271.637 132.61 274.417 153.2H274.777C279.287 138.37 285.267 117.17 278.757 108.08Z" fill="black"/>
<path opacity="0.2" d="M297.852 326.266L298.235 335.2H305.723L305.34 326.266H297.852Z" fill="black"/>
<path d="M304.838 63.3701C302.915 70.5451 302.154 74.8431 297.726 77.8261C291.066 82.3141 282.773 77.1631 282.514 69.5581C282.28 62.7131 285.464 52.1291 293.164 50.6831C300.751 49.2581 306.761 56.1951 304.838 63.3701Z" fill="white"/>
<path d="M288.039 63.4171L284.15 64.4281L287.769 55.0421C287.377 54.3261 286.346 51.0641 287.436 47.8021C287.723 46.9421 288.513 46.3601 289.419 46.3421C297.481 46.1851 305.906 50.7111 310.154 54.1321C310.972 54.7911 311.172 55.9521 310.625 56.8481C309.695 58.3701 308.491 59.5351 306.974 61.0791C306.894 63.7071 302.603 75.5821 300.228 76.9151C297.853 78.2481 293.311 77.7071 292.103 75.5401C290.894 73.3751 286.81 70.5001 288.039 63.4171Z" fill="#263238"/>
<path d="M291.638 63.566C291.201 65.462 290.008 67.114 288.74 68.113C286.832 69.615 285.339 68.229 285.418 66.021C285.489 64.034 286.566 60.859 288.698 60.213C290.798 59.576 292.138 61.398 291.638 63.566Z" fill="white"/>
<path d="M360.082 341.395C360.076 340.434 360.202 339.506 360.632 339.192C360.782 339.082 361.039 338.995 361.407 339.202C361.614 339.318 361.754 339.506 361.825 339.761C362.172 341.005 360.698 343.63 360.635 343.741C360.599 343.805 360.526 343.84 360.453 343.829C360.38 343.818 360.322 343.762 360.307 343.69C360.208 343.213 360.088 342.29 360.082 341.395ZM361.526 340.199C361.525 340.074 361.512 339.959 361.483 339.857C361.437 339.694 361.356 339.581 361.233 339.511C361.012 339.387 360.903 339.434 360.841 339.479C360.359 339.83 360.36 341.722 360.566 343.113C360.918 342.416 361.531 341.073 361.526 340.199Z" fill="#407BFF"/>
<path d="M360.303 343.655C360.303 343.63 360.308 343.606 360.318 343.582C360.718 342.676 362.325 340.876 363.172 341.008C363.371 341.039 363.619 341.178 363.672 341.665C363.711 342.028 363.611 342.358 363.374 342.65C362.598 343.607 360.583 343.822 360.498 343.831C360.435 343.837 360.374 343.81 360.337 343.759C360.315 343.727 360.303 343.691 360.303 343.655ZM363.326 341.809C363.326 341.774 363.324 341.738 363.32 341.703C363.286 341.384 363.16 341.365 363.118 341.358C362.61 341.279 361.345 342.503 360.797 343.429C361.385 343.329 362.59 343.055 363.099 342.426C363.253 342.237 363.327 342.034 363.326 341.809Z" fill="#407BFF"/>
<path d="M360.416 343.704L353.112 344.221L349.009 326.749L356.313 326.232L360.416 343.704Z" fill="white"/>
<path d="M360.392 342.026L352.25 341.305C351.945 341.278 351.663 341.466 351.57 341.758L349.511 348.255C349.298 348.928 349.762 349.626 350.466 349.676C353.407 349.886 357.667 350.089 361.358 350.416C365.674 350.798 362.879 350.788 367.941 351.236C371.002 351.507 372.125 348.488 370.869 348.094C365.149 346.302 364.114 345.064 362.137 342.765C361.715 342.276 361.035 342.083 360.392 342.026Z" fill="#263238"/>
<path opacity="0.2" d="M349.012 326.754L351.125 335.76L358.432 335.243L356.319 326.236L349.012 326.754Z" fill="black"/>
<path d="M288.617 153.203C288.617 153.203 305.834 210.696 312.367 232.037C319.52 255.408 346.739 332.941 346.739 332.941L359.936 330.04C359.936 330.04 341.292 263.425 333.561 230.833C327.622 205.798 314.45 153.203 314.45 153.203H288.617Z" fill="#407BFF"/>
<path d="M344.421 328.86C344.361 328.867 345.719 334.015 345.719 334.015L361.593 332.31L361.521 327.593L344.421 328.86Z" fill="#263238"/>
<path opacity="0.3" d="M298.154 179.849C307.68 181.105 311.474 214.306 312.901 233.79C312.72 233.173 312.53 232.587 312.364 232.034C308.799 220.382 302.048 197.928 296.65 179.955C297.097 179.807 297.606 179.775 298.154 179.849Z" fill="black"/>
<path d="M274.416 153.203C274.416 153.203 280.191 209.196 282.678 231.991C285.265 255.701 294.978 333.47 294.978 333.47H307.658C307.658 333.47 306.121 257.12 305.61 233.803C305.053 208.384 300.732 153.203 300.732 153.203H274.416Z" fill="#407BFF"/>
<path d="M293.005 328.42C292.946 328.42 293.72 333.684 293.72 333.684H309.144L309.561 328.986L293.005 328.42Z" fill="#263238"/>
<path d="M220.266 205.884C226.874 216.366 240.732 219.505 251.214 212.897C261.696 206.288 264.837 192.433 258.228 181.951C251.619 171.469 237.763 168.326 227.281 174.934C216.799 181.542 213.658 195.401 220.266 205.884ZM255.225 183.844C260.787 192.667 258.144 204.33 249.321 209.893C240.496 215.457 228.832 212.813 223.27 203.99C217.706 195.164 220.35 183.501 229.175 177.937C237.998 172.375 249.661 175.018 255.225 183.844Z" fill="#263238"/>
<path opacity="0.2" d="M256.127 197.743C254.014 207.065 244.743 212.909 235.422 210.796C226.098 208.683 220.253 199.412 222.366 190.09C224.479 180.766 233.75 174.921 243.074 177.034C252.396 179.148 258.241 188.419 256.127 197.743Z" fill="#407BFF"/>
<path d="M258.845 179.229L260.949 182.566C261.268 183.073 261.117 183.743 260.61 184.062C260.103 184.381 259.433 184.23 259.114 183.723L257.011 180.386C256.691 179.879 256.843 179.209 257.35 178.89C257.855 178.57 258.525 178.722 258.845 179.229Z" fill="#263238"/>
<path d="M272.454 169.745C270.022 171.405 267.61 173.096 265.226 174.833C262.844 176.572 260.482 178.344 258.19 180.225C257.676 180.647 257.491 181.379 257.785 182.01C258.134 182.756 259.022 183.077 259.768 182.728C262.454 181.471 265.07 180.104 267.666 178.705C270.261 177.303 272.826 175.855 275.373 174.377C277.54 173.117 279.689 171.829 281.827 170.524C282.443 170.148 282.631 169.338 282.246 168.728L280.513 165.98C280.128 165.37 279.317 165.191 278.712 165.584C276.614 166.949 274.526 168.333 272.454 169.745Z" fill="#263238"/>
<path d="M283.603 98.4292C282.38 104.432 281.066 110.414 279.702 116.382L275.555 134.237C274.214 140.057 273.064 145.961 272.012 151.947L268.865 169.952L268.858 169.993C268.589 171.529 267.127 172.556 265.591 172.288C264.252 172.054 263.3 170.911 263.256 169.605C263.04 163.355 263.136 157.174 263.486 150.953C263.858 144.752 264.432 138.494 265.454 132.271C266.428 126.152 267.524 120.103 268.696 114.06C269.864 108.02 271.134 102.005 272.519 96.0162C273.225 92.9632 276.271 91.0612 279.324 91.7662C282.324 92.4602 284.212 95.4282 283.603 98.4292Z" fill="#407BFF"/>
<path d="M268.006 168.326C267.5 167.791 266.739 167.568 266.022 167.739L264.396 168.127C263.563 168.326 262.939 169.018 262.828 169.867L262.357 173.477C262.222 174.511 262.443 175.561 262.982 176.454L265.214 180.148C265.802 180.926 266.787 181.293 267.74 181.091L270.068 180.597C271.527 180.287 272.397 178.783 271.938 177.364L271.328 175.482C271.328 175.482 271.292 171.801 268.006 168.326Z" fill="white"/>
<path d="M291.395 94.9582C295.034 104.612 282.447 118.379 282.447 118.379L266.52 113.111C266.52 113.111 267.739 99.9392 273.267 92.5132C280.096 83.3402 288.625 87.6102 291.395 94.9582Z" fill="#263238"/>
</g>
<defs>
<clipPath id="clip0_83_4898">
<rect width="394" height="367" fill="white"/>
</clipPath>
</defs>
</svg>
