<svg width="489" height="454" viewBox="0 0 489 454" fill="none" xmlns="http://www.w3.org/2000/svg">
<path d="M245.448 450.23C113.077 450.23 5.76804 388.276 5.76804 311.851C5.76804 235.426 113.077 173.472 245.448 173.472C377.82 173.472 485.129 235.426 485.129 311.851C485.129 388.276 377.82 450.23 245.448 450.23Z" fill="#FAFAFA"/>
<path d="M114.152 400.901C87.6321 400.901 66.1336 388.489 66.1336 373.178C66.1336 357.866 87.6321 345.454 114.152 345.454C140.671 345.454 162.17 357.866 162.17 373.178C162.17 388.489 140.671 400.901 114.152 400.901Z" fill="#E0E0E0"/>
<path d="M426.305 360.762L465.679 338.03C467.899 336.748 467.899 334.67 465.679 333.389L236.659 201.164C234.439 199.882 230.841 199.882 228.621 201.164L189.246 223.895C187.026 225.177 187.026 227.255 189.246 228.537L418.266 360.762C420.486 362.043 424.086 362.043 426.305 360.762Z" fill="#E0E0E0"/>
<path d="M399.852 24.53L408.756 29.6703C408.712 29.2729 408.681 28.8775 408.681 28.4921V25.9124C408.681 21.3219 411.904 19.4613 415.879 21.7561C417.489 22.6854 418.97 24.1585 420.169 25.8815C420.82 20.1097 425.349 17.9594 430.849 21.1346C436.796 24.5688 441.618 32.9203 441.618 39.7877V43.6462C441.618 45.4251 441.289 46.923 440.706 48.1172L448.102 52.3871C450.307 53.66 452.095 56.7565 452.095 59.3023C452.095 61.8491 450.307 62.881 448.102 61.6071L399.852 33.7499C397.646 32.4771 395.859 29.3805 395.859 26.8337C395.859 24.2889 397.646 23.2561 399.852 24.53Z" fill="#EBEBEB"/>
<path d="M353.741 45.8635L360.461 49.7429C360.428 49.4432 360.405 49.1453 360.405 48.8535V46.9063C360.405 43.4423 362.837 42.0379 365.837 43.7699C367.052 44.4711 368.169 45.5827 369.075 46.8834C369.566 42.5269 372.984 40.9044 377.135 43.3008C381.624 45.8924 385.263 52.1941 385.263 57.3773V60.2896C385.263 61.6322 385.015 62.7627 384.574 63.664L390.156 66.8861C391.82 67.8472 393.169 70.1839 393.169 72.1051C393.169 74.0264 391.82 74.8053 390.156 73.8451L353.741 52.8206C352.077 51.8594 350.728 49.5228 350.728 47.6015C350.728 45.6823 352.077 44.9034 353.741 45.8635Z" fill="#EBEBEB"/>
<path d="M284.779 320.247L250.931 300.676C247.442 298.662 245.698 296.022 245.697 293.382C245.697 290.742 245.682 288.674 245.682 288.674L280.801 268.872C282.661 267.797 284.17 265.185 284.17 263.035V221.304L343.291 255.467L343.293 297.198C343.293 299.346 341.785 301.96 339.924 303.033L310.048 320.247C303.071 324.277 291.757 324.276 284.779 320.247Z" fill="#263238"/>
<path d="M329.098 304.587V309.276L339.933 303.032C341.781 301.962 343.299 299.355 343.299 297.196V255.469L332.035 248.971C331.802 251.83 331.549 254.787 331.316 257.667L339.214 262.238V294.842C339.214 297.002 337.716 299.608 335.849 300.678L329.098 304.587Z" fill="black"/>
<path d="M339.215 294.849C339.215 296.998 337.706 299.611 335.845 300.685L310.053 315.541C303.075 319.57 291.759 319.571 284.78 315.544L250.915 295.975C243.936 291.948 243.935 285.416 250.913 281.387L276.722 266.52C278.582 265.445 280.091 262.833 280.091 260.684V228.076L339.213 262.239V294.849H339.215Z" fill="#37474F"/>
<path d="M269.86 270.488V270.483L276.723 266.521C278.584 265.446 280.092 262.834 280.092 260.685V228.077L339.215 262.24V294.849C339.215 296.998 337.706 299.611 335.845 300.685L329.101 304.578L269.86 270.488Z" fill="#263238"/>
<path d="M245.689 288.677C245.689 288.677 245.689 290.739 245.689 293.385C245.689 296.031 247.44 298.657 250.922 300.68L284.776 320.24C288.122 322.186 292.46 323.159 296.837 323.236V318.548C292.459 318.49 288.122 317.479 284.776 315.552L250.922 295.973C247.44 293.969 245.689 291.324 245.689 288.677Z" fill="#455A64"/>
<path d="M434.142 335.38C431.959 336.64 428.305 336.572 425.978 335.229C396.912 318.449 226.4 220.005 197.339 203.226C195.013 201.884 193.128 198.618 193.128 195.932V10.3699C193.128 7.6837 194.896 4.48554 197.079 3.2256C199.261 1.96566 202.915 2.03339 205.241 3.377L433.878 135.38C436.203 136.722 438.09 139.989 438.09 142.675L438.093 328.235C438.092 330.922 436.323 334.12 434.142 335.38Z" fill="#455A64"/>
<path d="M425.977 335.224L197.339 203.222C195.012 201.879 193.127 198.612 193.127 195.927V10.3651C193.127 7.67893 195.012 6.5903 197.339 7.93291L425.974 139.937C428.3 141.279 430.186 144.545 430.186 147.231L430.189 332.792C430.188 335.478 428.303 336.567 425.977 335.224Z" fill="#407BFF"/>
<path d="M425.977 335.224L197.339 203.222C195.012 201.879 193.127 198.612 193.127 195.927V10.3651C193.127 7.67893 195.012 6.5903 197.339 7.93291L425.974 139.937C428.3 141.279 430.186 144.545 430.186 147.231L430.189 332.792C430.188 335.478 428.303 336.567 425.977 335.224Z" fill="#37474F"/>
<path d="M426.597 340.031C428.931 341.062 432.161 341.023 434.145 339.876C436.324 338.611 438.094 335.42 438.094 332.716V315.875L430.195 320.447V337.288C430.195 339.739 428.64 340.849 426.597 340.031Z" fill="#263238"/>
<path d="M430.195 320.447L430.188 337.282C430.188 339.968 428.303 341.057 425.977 339.713L197.338 207.711C195.012 206.369 193.127 203.102 193.127 200.417V183.545L430.195 320.447Z" fill="#37474F"/>
<path opacity="0.2" d="M430.188 320.412V337.282C430.188 339.968 428.303 341.057 425.977 339.713L197.339 207.711C195.012 206.369 193.128 203.102 193.128 200.417V183.545L430.188 320.412Z" fill="black"/>
<path d="M422.289 299.319L422.287 149.854C422.287 148.242 421.156 146.282 419.76 145.476L203.561 20.6537C202.165 19.8479 201.034 20.5013 201.034 22.1128L201.027 171.581C201.027 173.192 202.158 175.152 203.554 175.958L419.761 300.778C421.158 301.583 422.289 300.93 422.289 299.319Z" fill="#407BFF"/>
<path opacity="0.3" d="M422.289 299.319L422.287 149.854C422.287 148.242 421.156 146.282 419.76 145.476L203.561 20.6537C202.165 19.8479 201.034 20.5013 201.034 22.1128L201.027 171.581C201.027 173.192 202.158 175.152 203.554 175.958L419.761 300.778C421.158 301.583 422.289 300.93 422.289 299.319Z" fill="black"/>
<path d="M311.661 257.354C313.843 258.614 315.613 261.679 315.613 264.198C315.613 266.718 313.843 267.74 311.661 266.479C309.478 265.219 307.709 262.155 307.709 259.635C307.709 257.115 309.479 256.094 311.661 257.354Z" fill="#455A64"/>
<path d="M428.95 143.064C429.709 144.387 430.176 145.885 430.195 147.227V320.448L438.094 315.876V142.675C438.094 141.333 437.608 139.835 436.849 138.512L428.95 143.064Z" fill="#263238"/>
<path d="M161.289 9.48632C161.839 9.15664 162.591 9.1666 163.438 9.65563L391.31 141.26C392.939 142.201 394.261 144.49 394.261 146.373V300.001C394.261 301.147 393.77 302.161 393.017 302.565C392.535 302.824 389.999 304.3 389.246 304.705C388.763 304.964 388.173 304.973 387.536 304.606L159.67 172.953C158.038 172.015 156.716 169.728 156.716 167.845V13.4992C156.716 12.5291 157.067 11.8558 157.631 11.561C158.161 11.2831 160.747 9.813 161.289 9.48632Z" fill="#407BFF"/>
<path d="M388.51 304.392C389.327 304.392 389.991 303.381 389.991 302.138V148.511C389.991 146.82 388.753 144.675 387.289 143.83L159.418 12.2263C159.037 12.0062 158.667 11.8896 158.349 11.8896C157.638 11.8896 157.213 12.4912 157.213 13.4992V167.843C157.213 169.535 158.451 171.676 159.917 172.519L387.784 304.174C388.036 304.318 388.28 304.392 388.51 304.392Z" fill="#FAFAFA"/>
<path d="M158.349 12.3876C157.795 12.3876 157.711 13.0838 157.711 13.4991V167.844C157.711 169.379 158.836 171.322 160.167 172.089L388.032 303.742C388.207 303.843 388.369 303.894 388.51 303.894C389.034 303.894 389.493 303.073 389.493 302.138V148.511C389.493 146.975 388.37 145.03 387.04 144.262L159.169 12.6575C158.784 12.4344 158.51 12.3876 158.349 12.3876ZM158.35 11.3916C158.746 11.3916 159.194 11.5211 159.667 11.795L387.538 143.398C389.169 144.34 390.489 146.628 390.489 148.511V302.138C390.489 303.626 389.663 304.89 388.51 304.89C388.205 304.89 387.877 304.801 387.535 304.605L159.669 172.952C158.038 172.014 156.715 169.727 156.715 167.844V13.4991C156.716 12.1635 157.38 11.3916 158.35 11.3916Z" fill="#E0E0E0"/>
<path d="M393.022 302.563C392.702 302.733 390.407 304.042 389.401 304.615C390.079 304.132 390.437 303.301 390.487 302.137V158.165L394.265 155.955V300.002C394.266 301.143 393.774 302.164 393.022 302.563Z" fill="#F0F0F0"/>
<path d="M156.719 13.4762C156.731 11.6117 158.046 10.8577 159.668 11.795L387.539 143.398C389.17 144.34 390.49 146.628 390.49 148.511L390.487 158.165L156.719 23.1633V13.4762Z" fill="#407BFF"/>
<g opacity="0.4">
<path d="M159.669 11.7931L387.536 143.399C388.343 143.872 389.085 144.67 389.615 145.589L393.365 143.416C392.836 142.507 392.112 141.717 391.313 141.263L163.438 9.65864C162.593 9.16661 161.841 9.15765 161.293 9.48234C160.764 9.80704 158.313 11.1994 157.692 11.5341C158.212 11.2831 158.908 11.3568 159.669 11.7931Z" fill="white"/>
</g>
<path opacity="0.15" d="M394.266 155.964V146.369C394.266 145.412 393.913 144.355 393.365 143.417L389.605 145.58C390.153 146.508 390.487 147.557 390.487 148.513V158.165L394.266 155.964Z" fill="black"/>
<path d="M390.488 158.165L390.491 175.55L156.719 40.5766V23.1636L390.488 158.165Z" fill="#EBEBEB"/>
<path d="M380.754 156.873L365.635 148.187V156.852L380.759 165.584L380.754 156.873Z" fill="#E0E0E0"/>
<path d="M361.901 145.989L361.9 149.414L354.36 145.06V141.635L361.901 145.989Z" fill="#E0E0E0"/>
<path d="M361.901 151.278L361.9 154.703L354.36 150.349V146.924L361.901 151.278Z" fill="#E0E0E0"/>
<path d="M350.59 139.456L350.589 142.882L343.048 138.527V135.103L350.59 139.456Z" fill="#E0E0E0"/>
<path d="M350.59 144.746L350.589 148.171L343.048 143.817V140.392L350.59 144.746Z" fill="#E0E0E0"/>
<path d="M339.278 132.925L339.277 136.35L331.736 131.995V128.57L339.278 132.925Z" fill="#E0E0E0"/>
<path d="M339.278 138.213L339.277 141.639L331.736 137.284V133.86L339.278 138.213Z" fill="#E0E0E0"/>
<path d="M305.347 113.336L305.346 116.761L297.804 112.407V108.983L305.347 113.336Z" fill="#E0E0E0"/>
<path d="M305.347 118.626L305.346 122.051L297.804 117.697V114.271L305.347 118.626Z" fill="#E0E0E0"/>
<path d="M294.035 106.804L294.034 110.23L286.492 105.875V102.45L294.035 106.804Z" fill="#E0E0E0"/>
<path d="M294.035 112.093L294.034 115.519L286.492 111.164V107.74L294.035 112.093Z" fill="#E0E0E0"/>
<path d="M282.724 100.272L282.723 103.698L275.181 99.3435V95.9182L282.724 100.272Z" fill="#E0E0E0"/>
<path d="M282.724 105.562L282.723 108.987L275.181 104.632V101.207L282.724 105.562Z" fill="#E0E0E0"/>
<path d="M327.97 126.397L309.115 115.512V124.219L327.966 135.103L327.97 126.397Z" fill="#E0E0E0"/>
<path d="M271.406 93.743L256.288 85.0569V93.7221L271.411 102.454L271.406 93.743Z" fill="#E0E0E0"/>
<path d="M252.555 82.8584L252.553 86.2837L245.012 81.9292V78.5039L252.555 82.8584Z" fill="#E0E0E0"/>
<path d="M252.555 88.1472L252.553 91.5725L245.012 87.218V83.7937L252.555 88.1472Z" fill="#E0E0E0"/>
<path d="M241.243 76.3257L241.241 79.7519L233.7 75.3974V71.9722L241.243 76.3257Z" fill="#E0E0E0"/>
<path d="M241.243 81.6155L241.241 85.0407L233.7 80.6862V77.261L241.243 81.6155Z" fill="#E0E0E0"/>
<path d="M229.933 69.794L229.931 73.2192L222.39 68.8647V65.4395L229.933 69.794Z" fill="#E0E0E0"/>
<path d="M229.933 75.0825L229.931 78.5088L222.39 74.1533V70.729L229.933 75.0825Z" fill="#E0E0E0"/>
<path d="M195.998 50.2027L195.996 53.6279L188.455 49.2734V45.8481L195.998 50.2027Z" fill="#E0E0E0"/>
<path d="M195.998 55.4917L195.996 58.9169L188.455 54.5624V51.1382L195.998 55.4917Z" fill="#E0E0E0"/>
<path d="M184.687 43.6699L184.685 47.0952L177.144 42.7407V39.3164L184.687 43.6699Z" fill="#E0E0E0"/>
<path d="M184.687 48.96L184.685 52.3852L177.144 48.0307V44.6055L184.687 48.96Z" fill="#E0E0E0"/>
<path d="M173.375 37.1382L173.373 40.5634L165.832 36.2089V32.7837L173.375 37.1382Z" fill="#E0E0E0"/>
<path d="M173.375 42.4268L173.373 45.852L165.832 41.4975V38.0732L173.375 42.4268Z" fill="#E0E0E0"/>
<path d="M218.619 63.2661L199.766 52.3818V61.0889L218.615 71.9722L218.619 63.2661Z" fill="#E0E0E0"/>
<path d="M390.488 158.165L394.266 155.955V173.375L390.491 175.55L390.488 158.165Z" fill="#E0E0E0"/>
<path d="M217.045 51.145V51.7855C217.045 52.8104 216.326 53.2267 215.437 52.7137L169.635 26.2699C168.747 25.757 168.028 24.511 168.027 23.4851V22.8437C168.027 21.8188 168.746 21.4025 169.634 21.9154L215.436 48.3602C216.325 48.8732 217.045 50.1202 217.045 51.145Z" fill="#F5F5F5"/>
<path d="M168.028 23.4851V22.8437C168.028 21.8188 168.747 21.4025 169.635 21.9154L175.568 25.3417L175.569 29.6962L169.636 26.2709C168.748 25.757 168.028 24.511 168.028 23.4851Z" fill="#455A64"/>
<path d="M386.719 177.718L160.483 47.1226V55.8087L367.872 175.551L367.876 288.75L386.719 299.629V177.718Z" fill="#F0F0F0"/>
<path d="M367.872 175.551L349.035 164.674V173.36L367.872 184.255V175.551Z" fill="#407BFF"/>
<path d="M367.872 245.202L349.035 234.327V243.013L367.872 253.906V245.202Z" fill="#407BFF"/>
<path d="M367.872 253.91L349.035 243.035V251.721L367.872 262.614V253.91Z" fill="#407BFF"/>
<path opacity="0.8" d="M367.872 253.91L349.035 243.035V251.721L367.872 262.614V253.91Z" fill="white"/>
<path d="M254.768 179.894L235.93 169.019V177.705L254.768 188.598V179.894Z" fill="#407BFF"/>
<path opacity="0.3" d="M254.768 179.894L235.93 169.019V177.705L254.768 188.598V179.894Z" fill="black"/>
<path d="M254.768 188.603L235.93 177.727V186.413L254.768 197.307V188.603Z" fill="#407BFF"/>
<path opacity="0.4" d="M254.768 188.603L235.93 177.727V186.413L254.768 197.307V188.603Z" fill="black"/>
<path d="M254.768 197.311L235.93 186.436V195.122L254.768 206.015V197.311Z" fill="#407BFF"/>
<path opacity="0.5" d="M254.768 197.311L235.93 186.436V195.122L254.768 206.015V197.311Z" fill="black"/>
<path d="M254.768 206.019L235.93 195.144V203.83L254.768 214.723V206.019Z" fill="#407BFF"/>
<path opacity="0.3" d="M254.768 206.019L235.93 195.144V203.83L254.768 214.723V206.019Z" fill="black"/>
<path d="M273.604 121.118L254.768 110.242V153.78L273.604 164.674V121.118Z" fill="#407BFF"/>
<path d="M273.604 173.367L254.768 162.491V223.444L273.604 234.338V173.367Z" fill="#407BFF"/>
<path d="M349.035 216.904L330.199 206.028V214.713L349.035 225.608V216.904Z" fill="#407BFF"/>
<path opacity="0.3" d="M349.035 216.904L330.199 206.028V214.713L349.035 225.608V216.904Z" fill="black"/>
<path d="M311.309 151.595L292.472 140.719V149.405L311.309 160.299V151.595Z" fill="#407BFF"/>
<path opacity="0.6" d="M311.309 151.595L292.472 140.719V149.405L311.309 160.299V151.595Z" fill="white"/>
<path d="M217.04 149.418L198.204 138.542V147.228L217.04 158.122V149.418Z" fill="#407BFF"/>
<path opacity="0.8" d="M217.04 149.418L198.204 138.542V147.228L217.04 158.122V149.418Z" fill="white"/>
<path d="M217.04 166.841L198.204 155.964V164.65L217.04 175.545V166.841Z" fill="#407BFF"/>
<path d="M386.951 177.325L387.183 177.459L387.185 300.44L160.255 169.419L160.023 169.285L160.021 46.3047L386.951 177.325ZM160.951 160.069L178.869 170.413V162.775L160.951 152.43V160.069ZM386.254 186.699L368.332 176.351V183.99L386.254 194.337V186.699ZM274.064 174.186V181.824L291.99 192.174V184.536L274.064 174.186ZM291.99 183.465V175.827L274.064 165.477V173.115L291.99 183.465ZM273.136 173.65L255.211 163.301V170.939L273.136 181.288V173.65ZM273.136 172.579V164.94L255.211 154.591V162.229L273.136 172.579ZM273.136 163.869V156.229L255.211 145.88V153.519L273.136 163.869ZM273.136 155.159V147.52L255.211 137.171V144.809L273.136 155.159ZM274.064 155.694L291.99 166.044V158.405L274.064 148.056V155.694ZM274.064 156.766V164.404L291.99 174.754V167.115L274.064 156.766ZM292.918 175.29L310.843 185.638V177.999L292.918 167.65V175.29ZM292.918 176.361V184L310.843 194.349V186.71L292.918 176.361ZM292.918 185.071V192.71L310.843 203.058V195.42L292.918 185.071ZM292.918 193.781V201.42L310.843 211.769V204.13L292.918 193.781ZM291.99 193.246L274.064 182.896V190.534L291.99 200.884V193.246ZM274.064 191.606V199.244L291.99 209.594V201.956L274.064 191.606ZM273.136 191.07L255.211 180.721V188.359L273.136 198.708V191.07ZM273.136 189.999V182.36L255.211 172.012V179.65L273.136 189.999ZM254.282 171.475L236.357 161.127V168.765L254.282 179.114V171.475ZM254.282 170.404V162.766L236.357 152.418V160.056L254.282 170.404ZM254.282 161.694V154.056L236.357 143.707V151.345L254.282 161.694ZM254.282 152.984V145.346L236.357 134.997V142.636L254.282 152.984ZM254.282 144.273V136.635L236.357 126.286V133.925L254.282 144.273ZM254.282 135.564V127.926L236.357 117.577V125.216L254.282 135.564ZM255.211 136.099L273.136 146.449V138.81L255.211 128.462V136.099ZM274.064 146.984L291.99 157.334V149.695L274.064 139.346V146.984ZM292.918 157.87L310.843 168.219V160.581L292.918 150.232V157.87ZM292.918 158.941V166.58L310.843 176.928V169.29L292.918 158.941ZM311.77 177.465L329.696 187.814V180.176L311.77 169.827V177.465ZM311.77 178.536V186.175L329.696 196.524V188.885L311.77 178.536ZM311.77 187.247V194.886L329.696 205.235V197.596L311.77 187.247ZM311.77 195.957V203.595L329.696 213.944V206.306L311.77 195.957ZM311.77 204.666V212.305L329.696 222.654V215.015L311.77 204.666ZM311.77 213.377V221.015L329.696 231.364V223.726L311.77 213.377ZM310.843 212.841L292.918 202.492V210.131L310.843 220.48V212.841ZM292.918 211.201V218.84L310.843 229.188V221.55L292.918 211.201ZM291.99 210.666L274.064 200.316V207.954L291.99 218.304V210.666ZM273.136 199.78L255.211 189.432V197.07L273.136 207.42V199.78ZM254.282 188.895L236.357 178.547V186.185L254.282 196.534V188.895ZM254.282 187.824V180.186L236.357 169.838V177.476L254.282 187.824ZM235.43 169.301L217.504 158.951V166.59L235.43 176.939V169.301ZM235.43 168.229V160.591L217.504 150.241V157.88L235.43 168.229ZM235.43 159.519V151.881L217.504 141.531V149.17L235.43 159.519ZM235.43 150.809V143.171L217.504 132.821V140.46L235.43 150.809ZM235.43 142.099V134.461L217.504 124.111V131.75L235.43 142.099ZM235.43 133.389V125.751L217.504 115.401V123.04L235.43 133.389ZM235.43 124.679V117.041L217.504 106.691V114.329L235.43 124.679ZM235.43 115.969V108.331L217.504 97.9812V105.619L235.43 115.969ZM236.357 116.505L254.282 126.854V119.216L236.357 108.867V116.505ZM255.211 127.389L273.136 137.737V130.099L255.211 119.75V127.389ZM274.064 138.274L291.99 148.624V140.985L274.064 130.636V138.274ZM292.918 149.16L310.843 159.509V151.871L292.918 141.521V149.16ZM311.77 160.044L329.696 170.393V162.755L311.77 152.406V160.044ZM311.77 161.117V168.755L329.696 179.104V171.466L311.77 161.117ZM330.625 179.64L348.55 189.99V182.351L330.625 172.003V179.64ZM330.625 180.712V188.35L348.55 198.7V191.061L330.625 180.712ZM330.625 189.421V197.06L348.55 207.409V199.769L330.625 189.421ZM330.625 198.132V205.771L348.55 216.12V208.48L330.625 198.132ZM330.625 206.842V214.48L348.55 224.83V217.191L330.625 206.842ZM330.625 215.551V223.19L348.55 233.54V225.9L330.625 215.551ZM330.625 224.262V231.9L348.55 242.249V234.61L330.625 224.262ZM330.625 232.971V240.61L348.55 250.959V243.319L330.625 232.971ZM329.696 232.435L311.77 222.086V229.725L329.696 240.074V232.435ZM311.77 230.797V238.435L329.696 248.785V241.145L311.77 230.797ZM310.843 230.261L292.918 219.912V227.551L310.843 237.9V230.261ZM291.99 219.376L274.064 209.026V216.665L291.99 227.014V219.376ZM273.136 208.49L255.211 198.141V205.779L273.136 216.129V208.49ZM254.282 197.606L236.357 187.257V194.895L254.282 205.244V197.606ZM235.43 186.721L217.504 176.371V184.01L235.43 194.359V186.721ZM235.43 185.649V178.011L217.504 167.661V175.3L235.43 185.649ZM216.576 167.125L198.651 156.777V164.415L216.576 174.764V167.125ZM216.576 166.054V158.415L198.651 148.067V155.705L216.576 166.054ZM216.576 157.344V149.705L198.651 139.357V146.995L216.576 157.344ZM216.576 148.634V140.995L198.651 130.647V138.285L216.576 148.634ZM216.576 139.924V132.285L198.651 121.937V129.575L216.576 139.924ZM216.576 131.214V123.575L198.651 113.227V120.865L216.576 131.214ZM216.576 122.504V114.865L198.651 104.517V112.155L216.576 122.504ZM216.576 113.794V106.155L198.651 95.8059V103.444L216.576 113.794ZM216.576 105.084V97.4453L198.651 87.0969V94.7352L216.576 105.084ZM216.576 96.3736V88.7353L198.651 78.3868V86.0252L216.576 96.3736ZM217.504 96.9095L235.43 107.259V99.6206L217.504 89.2711V96.9095ZM236.357 107.795L254.282 118.143V110.505L236.357 100.156V107.795ZM255.211 118.679L273.136 129.027V121.389L255.211 111.04V118.679ZM274.064 129.564L291.99 139.914V132.275L274.064 121.926V129.564ZM292.918 140.45L310.843 150.798V143.16L292.918 132.811V140.45ZM311.77 151.334L329.696 161.683V154.045L311.77 143.696V151.334ZM330.625 162.219L348.55 172.569V164.93L330.625 154.581V162.219ZM330.625 163.292V170.93L348.55 181.279V173.64L330.625 163.292ZM349.478 181.814L367.404 192.164V184.526L349.478 174.176V181.814ZM349.478 182.886V190.524L367.404 200.874V193.236L349.478 182.886ZM349.478 191.596V199.235L367.404 209.584V201.946L349.478 191.596ZM349.478 200.306V207.946L367.404 218.295V210.656L349.478 200.306ZM349.478 209.016V216.656L367.404 227.005V219.366L349.478 209.016ZM349.478 217.726V225.365L367.404 235.714V228.076L349.478 217.726ZM349.478 226.436V234.076L367.404 244.425V236.786L349.478 226.436ZM349.478 235.146V242.785L367.404 253.134V245.496L349.478 235.146ZM349.478 243.856V251.496L367.404 261.845V254.206L349.478 243.856ZM349.478 252.566V260.206L367.404 270.555V262.916L349.478 252.566ZM348.55 252.03L330.625 241.682V249.321L348.55 259.671V252.03ZM330.625 250.392V258.03L348.55 268.38V260.74L330.625 250.392ZM329.696 249.856L311.77 239.507V247.145L329.696 257.495V249.856ZM310.843 238.971L292.918 228.622V236.26L310.843 246.608V238.971ZM291.99 228.086L274.064 217.736V225.375L291.99 235.724V228.086ZM273.136 217.2L255.211 206.851V214.489L273.136 224.838V217.2ZM254.282 206.316L236.357 195.967V203.605L254.282 213.954V206.316ZM235.43 195.431L217.504 185.081V192.72L235.43 203.069V195.431ZM216.576 184.546L198.651 174.197V181.835L216.576 192.185V184.546ZM216.576 183.474V175.835L198.651 165.487V173.125L216.576 183.474ZM197.722 164.951L179.796 154.602V162.24L197.722 172.59V164.951ZM197.722 163.879V156.241L179.796 145.892V153.53L197.722 163.879ZM197.722 155.169V147.531L179.796 137.182V144.82L197.722 155.169ZM197.722 146.458V138.82L179.796 128.471V136.109L197.722 146.458ZM197.722 137.748V130.11L179.796 119.761V127.399L197.722 137.748ZM197.722 129.038V121.4L179.796 111.051V118.689L197.722 129.038ZM197.722 120.328V112.69L179.796 102.341V109.979L197.722 120.328ZM197.722 111.618V103.98L179.796 93.6306V101.269L197.722 111.618ZM197.722 102.908V95.27L179.796 84.9206V92.5589L197.722 102.908ZM197.722 94.1983V86.56L179.796 76.2106V83.8489L197.722 94.1983ZM197.722 85.4883V77.85L179.796 67.5006V75.1389L197.722 85.4883ZM197.722 76.7783V69.144L179.796 58.7945V66.4289L197.722 76.7783ZM198.651 77.3142L216.576 87.6636V80.0292L198.651 69.6798V77.3142ZM217.504 88.1994L235.43 98.5489V90.9145L217.504 80.5651V88.1994ZM236.357 99.0847L254.282 109.433V101.799L236.357 91.4494V99.0847ZM255.211 109.969L273.136 120.317V112.684L255.211 102.335V109.969ZM274.064 120.854L291.99 131.204V123.57L274.064 113.221V120.854ZM292.918 131.74L310.843 142.088V134.455L292.918 124.106V131.74ZM311.77 142.624L329.696 152.973V145.34L311.77 134.991V142.624ZM330.625 153.509L348.55 163.858V156.224L330.625 145.875V153.509ZM349.478 164.394L367.404 174.744V167.111L349.478 156.761V164.394ZM349.478 165.466V173.104L367.404 183.454V175.816L349.478 165.466ZM386.254 195.409L368.332 185.061V192.7L386.254 203.047V195.409ZM386.254 204.119L368.332 193.771V201.41L386.254 211.757V204.119ZM386.254 212.829L368.332 202.481V210.12L386.255 220.467L386.254 212.829ZM386.254 221.539L368.331 211.191V218.831L386.254 229.178V221.539ZM386.255 230.249L368.332 219.902V227.541L386.255 237.888V230.249ZM386.255 238.96L368.332 228.613V236.251L386.255 246.598V238.96ZM386.255 247.669L368.332 237.322V244.961L386.255 255.309V247.669ZM386.255 256.38L368.332 246.033V253.671L386.255 264.019V256.38ZM386.255 265.089L368.332 254.741V262.38L386.255 272.728V265.089ZM386.255 273.8L368.332 263.452V271.091L386.256 281.439L386.255 273.8ZM386.255 282.51L368.331 272.162V279.8L386.255 290.148V282.51ZM367.404 271.626L349.478 261.276V268.915L367.404 279.264V271.626ZM349.478 269.986V277.597L367.404 287.946V280.335L349.478 269.986ZM348.55 269.451L330.625 259.102V266.713L348.55 277.062V269.451ZM329.696 258.565L311.77 248.216V255.826L329.696 266.176V258.565ZM310.843 247.681L292.918 237.333V244.943L310.843 255.292V247.681ZM291.99 236.796L274.064 226.446V234.057L291.99 244.406V236.796ZM273.136 225.91L255.211 215.562V223.171L273.136 233.52V225.91ZM254.282 215.025L236.357 204.677V212.286L254.282 222.636V215.025ZM235.43 204.141L217.504 193.791V201.401L235.43 211.75V204.141ZM216.576 193.256L198.651 182.907V190.516L216.576 200.865V193.256ZM197.722 182.371L179.796 172.022V179.63L197.722 189.98V182.371ZM197.722 181.299V173.66L179.796 163.311V170.949L197.722 181.299ZM160.951 151.359L178.869 161.703V154.065L160.951 143.72V151.359ZM160.951 142.649L178.869 152.994V145.356L160.951 135.011V142.649ZM160.951 133.939L178.869 144.284V136.646L160.951 126.3V133.939ZM160.95 125.229L178.868 135.574V127.936L160.95 117.59V125.229ZM160.95 116.518L178.868 126.863V119.225L160.95 108.879V116.518ZM160.95 107.809L178.868 118.154V110.516L160.949 100.17L160.95 107.809ZM160.95 99.0977L178.869 109.443V101.805L160.95 91.4594V99.0977ZM160.95 90.3876L178.869 100.733V93.0948L160.95 82.7493V90.3876ZM160.95 81.6776L178.869 92.0231V84.3848L160.95 74.0393V81.6776ZM160.95 72.9676L178.869 83.3131V75.6747L160.95 65.3293V72.9676ZM160.949 64.2576L178.868 74.603V66.9657L160.949 56.6203V64.2576ZM160.949 55.5476L178.868 65.893V58.2587L160.949 47.9132V55.5476ZM368.332 167.646V175.28L386.254 185.627V177.994L368.332 167.646ZM386.255 291.22L368.331 280.872V288.483L386.255 298.832V291.22ZM178.868 179.094V171.486L160.95 161.142V168.75L178.868 179.094Z" fill="#E0E0E0"/>
<path d="M235.931 99.3387L160.484 55.8145V99.3646L235.931 142.878V99.3387Z" fill="#FAFAFA" stroke="#E0E0E0" stroke-width="0.996" stroke-miterlimit="10"/>
<path d="M232.116 132.011L221.92 104.168L210.646 110.909L199.311 99.3624L188.006 106.814L176.702 78.9792L165.397 84.777" stroke="#455A64" stroke-width="0.747" stroke-miterlimit="10" stroke-linecap="round" stroke-linejoin="round"/>
<path d="M221.92 102.85C222.548 103.213 223.057 104.096 223.057 104.825C223.057 105.554 222.548 105.848 221.92 105.484C221.293 105.119 220.784 104.235 220.784 103.509C220.784 102.783 221.293 102.488 221.92 102.85Z" fill="#407BFF"/>
<path d="M210.616 109.591C211.243 109.954 211.752 110.837 211.752 111.566C211.752 112.295 211.243 112.589 210.616 112.225C209.988 111.86 209.479 110.977 209.479 110.25C209.479 109.524 209.988 109.229 210.616 109.591Z" fill="#407BFF"/>
<path d="M199.311 98.0489C199.938 98.4114 200.447 99.2949 200.447 100.024C200.447 100.752 199.938 101.047 199.311 100.682C198.683 100.318 198.174 99.4343 198.174 98.7072C198.174 97.9811 198.683 97.6863 199.311 98.0489Z" fill="#407BFF"/>
<path d="M188.006 105.493C188.634 105.855 189.143 106.739 189.143 107.468C189.143 108.196 188.634 108.491 188.006 108.126C187.379 107.762 186.87 106.878 186.87 106.151C186.87 105.426 187.379 105.13 188.006 105.493Z" fill="#407BFF"/>
<path d="M176.701 77.6617C177.329 78.0242 177.838 78.9077 177.838 79.6367C177.838 80.3648 177.329 80.6596 176.701 80.2951C176.074 79.9306 175.565 79.0471 175.565 78.32C175.565 77.5939 176.074 77.2991 176.701 77.6617Z" fill="#407BFF"/>
<path d="M165.397 83.4603C166.024 83.8228 166.533 84.7062 166.533 85.4353C166.533 86.1634 166.024 86.4582 165.397 86.0937C164.769 85.7291 164.26 84.8447 164.26 84.1186C164.26 83.3925 164.769 83.0977 165.397 83.4603Z" fill="#407BFF"/>
<path d="M129.095 216.214L149.156 227.796L129.093 239.38L109.031 227.797L129.095 216.214Z" fill="#455A64"/>
<path d="M109.029 227.771L109.03 273.84L129.092 285.422L129.094 239.382L109.029 227.771Z" fill="#37474F"/>
<path d="M129.094 239.382L129.092 285.422L149.154 273.839L149.156 227.774L129.094 239.382Z" fill="#263238"/>
<path d="M155.489 251.429L175.55 263.01L155.487 274.595L135.426 263.011L155.489 251.429Z" fill="#407BFF"/>
<path opacity="0.3" d="M155.489 251.429L175.55 263.01L155.487 274.595L135.426 263.011L155.489 251.429Z" fill="white"/>
<path d="M135.424 262.986L135.425 289.079L155.486 300.661L155.488 274.596L135.424 262.986Z" fill="#407BFF"/>
<path d="M155.488 274.596L155.486 300.661L175.549 289.077L175.55 262.989L155.488 274.596Z" fill="#407BFF"/>
<path opacity="0.1" d="M155.488 274.596L155.486 300.661L175.549 289.077L175.55 262.989L155.488 274.596Z" fill="black"/>
<path d="M181.883 255.832L201.943 267.415L181.881 278.998L161.819 267.416L181.883 255.832Z" fill="#407BFF"/>
<path opacity="0.88" d="M181.883 255.832L201.943 267.415L181.881 278.998L161.819 267.416L181.883 255.832Z" fill="white"/>
<path d="M161.816 267.39L161.818 304.317L181.88 315.9L181.881 279L161.816 267.39Z" fill="#407BFF"/>
<path opacity="0.75" d="M161.816 267.39L161.818 304.317L181.88 315.9L181.881 279L161.816 267.39Z" fill="white"/>
<path d="M181.881 279L181.88 315.9L201.942 304.316L201.943 267.392L181.881 279Z" fill="#407BFF"/>
<path opacity="0.6" d="M181.881 279L181.88 315.9L201.942 304.316L201.943 267.392L181.881 279Z" fill="white"/>
<path d="M208.276 294.951L228.337 306.533L208.274 318.117L188.213 306.534L208.276 294.951Z" fill="#407BFF"/>
<path opacity="0.3" d="M208.276 294.951L228.337 306.533L208.274 318.117L188.213 306.534L208.276 294.951Z" fill="black"/>
<path d="M188.211 306.508L188.212 319.555L208.273 331.138L208.275 318.118L188.211 306.508Z" fill="#407BFF"/>
<path opacity="0.4" d="M188.211 306.508L188.212 319.555L208.273 331.138L208.275 318.118L188.211 306.508Z" fill="black"/>
<path d="M208.275 318.118L208.273 331.138L228.336 319.554L228.338 306.511L208.275 318.118Z" fill="#407BFF"/>
<path opacity="0.55" d="M208.275 318.118L208.273 331.138L228.336 319.554L228.338 306.511L208.275 318.118Z" fill="black"/>
<path d="M317.554 375.981V383.574L325.054 363.19V355.607C325.054 355.607 325.054 355.607 325.045 355.616L317.554 375.981Z" fill="#263238"/>
<path d="M317.551 375.985V383.574L286.614 372.843V365.254L317.551 375.985Z" fill="#37474F"/>
<path d="M325.054 355.604L317.55 375.986L286.613 365.254C295.107 357.842 309.873 354.135 325.054 355.604Z" fill="#455A64"/>
<path d="M357.376 377.392C357.385 377.467 357.385 377.55 357.385 377.625V377.392H357.376Z" fill="#407BFF"/>
<path d="M320.635 385.56L325.23 407.17C343.981 405.341 357.532 395.854 357.375 385.013L357.384 385.032V377.624C357.384 388.382 343.868 397.767 325.23 399.586L322.074 384.735L320.635 385.56Z" fill="#407BFF"/>
<path opacity="0.4" d="M320.635 385.56L325.23 407.17C343.981 405.341 357.532 395.854 357.375 385.013L357.384 385.032V377.624C357.384 388.382 343.868 397.767 325.23 399.586L322.074 384.735L320.635 385.56Z" fill="black"/>
<path d="M321.71 399.836V407.426C313.522 407.812 306.036 406.786 298.879 404.303C290.035 401.234 283.793 396.364 281.296 390.586C280.537 388.829 280.154 387.052 280.135 385.287C280.127 384.568 280.134 377.445 280.134 377.445C280.134 377.445 282.275 377.277 284.786 374.599L290.579 376.608L317.112 385.813L321.71 399.836Z" fill="#407BFF"/>
<path opacity="0.6" d="M321.71 399.836V407.426C313.522 407.812 306.036 406.786 298.879 404.303C290.035 401.234 283.793 396.364 281.296 390.586C280.537 388.829 280.154 387.052 280.135 385.287C280.127 384.568 280.134 377.445 280.134 377.445C280.134 377.445 282.275 377.277 284.786 374.599L290.579 376.608L317.112 385.813L321.71 399.836Z" fill="white"/>
<path d="M344.799 368.716L321.749 382.023V374.434L344.799 361.126V368.716Z" fill="#407BFF"/>
<path opacity="0.1" d="M344.799 368.716L321.749 382.023V374.434L344.799 361.126V368.716Z" fill="black"/>
<path d="M357.097 374.886C359.62 386.748 345.437 397.612 325.23 399.584L320.634 377.973L347.303 362.576C352.871 366.064 356.08 370.1 357.097 374.886Z" fill="#407BFF"/>
<path opacity="0.3" d="M357.097 374.886C359.62 386.748 345.437 397.612 325.23 399.584L320.634 377.973L347.303 362.576C352.871 366.064 356.08 370.1 357.097 374.886Z" fill="black"/>
<path d="M321.575 399.203L321.71 399.836C313.522 400.222 306.036 399.197 298.879 396.713C290.035 393.645 283.793 388.774 281.296 382.997C278.946 377.55 280.188 371.913 284.786 367.01L290.579 369.019L317.112 378.224L321.575 399.203Z" fill="#407BFF"/>
<path opacity="0.75" d="M321.575 399.203L321.71 399.836C313.522 400.222 306.036 399.197 298.879 396.713C290.035 393.645 283.793 388.774 281.296 382.997C278.946 377.55 280.188 371.913 284.786 367.01L290.579 369.019L317.112 378.224L321.575 399.203Z" fill="white"/>
<path d="M344.799 361.126L321.75 374.434L328.527 356.026C334.938 356.953 339.955 358.527 344.799 361.126Z" fill="#407BFF"/>
<path d="M320.635 385.563V377.973L325.231 399.584V407.173L320.635 385.563Z" fill="#407BFF"/>
<path opacity="0.55" d="M320.635 385.563V377.973L325.231 399.584V407.173L320.635 385.563Z" fill="black"/>
<path d="M291.232 344.217L296.254 347.116L291.232 350.015L286.211 347.116L291.232 344.217Z" fill="#407BFF"/>
<path opacity="0.3" d="M291.232 344.217L296.254 347.116L291.232 350.015L286.211 347.116L291.232 344.217Z" fill="black"/>
<path d="M286.211 347.11V350.019L291.232 352.918V350.016L286.211 347.11Z" fill="#407BFF"/>
<path opacity="0.4" d="M286.211 347.11V350.019L291.232 352.918V350.016L286.211 347.11Z" fill="black"/>
<path d="M291.232 350.016V352.918L296.253 350.019L296.254 347.11L291.232 350.016Z" fill="#407BFF"/>
<path opacity="0.55" d="M291.232 350.016V352.918L296.253 350.019L296.254 347.11L291.232 350.016Z" fill="black"/>
<path d="M283.567 341.967L264.962 331.227C263.853 330.586 262.109 330.553 261.067 331.155C260.026 331.756 260.081 332.763 261.191 333.404L279.795 344.145C280.904 344.785 282.648 344.818 283.69 344.216C284.732 343.616 284.676 342.609 283.567 341.967Z" fill="#E0E0E0"/>
<path d="M279.92 350.748L284.94 353.646L279.92 356.546L274.898 353.647L279.92 350.748Z" fill="#407BFF"/>
<path opacity="0.88" d="M279.92 350.748L284.94 353.646L279.92 356.546L274.898 353.647L279.92 350.748Z" fill="white"/>
<path d="M274.898 353.64V356.55L279.919 359.449L279.92 356.547L274.898 353.64Z" fill="#407BFF"/>
<path opacity="0.75" d="M274.898 353.64V356.55L279.919 359.449L279.92 356.547L274.898 353.64Z" fill="white"/>
<path d="M279.92 356.547L279.919 359.449L284.94 356.55V353.641L279.92 356.547Z" fill="#407BFF"/>
<path opacity="0.6" d="M279.92 356.547L279.919 359.449L284.94 356.55V353.641L279.92 356.547Z" fill="white"/>
<path d="M272.254 348.499L253.651 337.758C252.541 337.118 250.797 337.085 249.755 337.687C248.714 338.288 248.769 339.294 249.88 339.936L268.484 350.676C269.594 351.317 271.338 351.35 272.379 350.748C273.419 350.147 273.363 349.14 272.254 348.499Z" fill="#E0E0E0"/>
<path d="M268.608 357.279L273.629 360.178L268.607 363.078L263.586 360.178L268.608 357.279Z" fill="#407BFF"/>
<path opacity="0.3" d="M268.608 357.279L273.629 360.178L268.607 363.078L263.586 360.178L268.608 357.279Z" fill="white"/>
<path d="M263.586 360.171L263.587 363.08L268.607 365.98V363.077L263.586 360.171Z" fill="#407BFF"/>
<path d="M268.607 363.077V365.98L273.628 363.08L273.629 360.172L268.607 363.077Z" fill="#407BFF"/>
<path opacity="0.1" d="M268.607 363.077V365.98L273.628 363.08L273.629 360.172L268.607 363.077Z" fill="black"/>
<path d="M260.941 355.03L242.337 344.289C241.227 343.649 239.483 343.616 238.441 344.217C237.4 344.818 237.455 345.825 238.566 346.466L257.169 357.207C258.279 357.848 260.023 357.88 261.064 357.279C262.107 356.677 262.051 355.67 260.941 355.03Z" fill="#E0E0E0"/>
<path d="M257.296 363.81L262.317 366.709L257.296 369.608L252.274 366.709L257.296 363.81Z" fill="#455A64"/>
<path d="M252.273 366.703V369.612L257.294 372.511L257.295 369.608L252.273 366.703Z" fill="#37474F"/>
<path d="M257.296 369.608L257.295 372.511L262.316 369.611L262.317 366.703L257.296 369.608Z" fill="#263238"/>
<path d="M249.63 361.561L231.027 350.82C229.917 350.179 228.173 350.147 227.131 350.748C226.09 351.35 226.145 352.357 227.256 352.997L245.86 363.738C246.969 364.378 248.713 364.411 249.755 363.81C250.795 363.209 250.739 362.202 249.63 361.561Z" fill="#E0E0E0"/>
<path d="M99.8496 206.536C92.9453 206.498 89.6695 208.477 87.1845 215.089C84.6994 221.7 78.1049 236.847 77.9775 241.352C77.845 246.024 92.8846 260.184 92.3457 259.94C92.1804 259.866 96.9293 251.358 96.9293 251.358L88.4703 240.991L93.3198 226.914L99.8496 206.536Z" fill="white"/>
<path d="M91.3036 361.289C90.8813 361.692 90.8006 362.083 90.8145 363.554C90.8285 365.03 90.206 366.672 90.962 368.046C91.5277 369.073 94.4111 369.78 95.8772 369.019C97.0973 368.386 98.3134 366.977 99.2586 365.979C100.205 364.981 101.117 363.938 102.22 363.116C103.463 362.19 104.907 361.574 106.204 360.725C108.235 359.395 109.627 357.188 109.814 354.76C109.87 354.038 109.75 353.092 109.352 352.488C108.821 351.682 107.705 351.485 106.753 351.637C105.348 351.862 100.591 354.521 99.4907 355.282C98.1102 356.236 91.7398 360.872 91.3036 361.289Z" fill="#263238"/>
<path d="M98.298 355.189C98.3428 356.247 102.8 353.773 104.626 354.014C104.645 354.017 104.659 354.03 104.676 354.038C106.371 354.853 104.964 357.231 103.385 358.448C101.805 359.665 96.6546 363.45 96.6546 363.45L95.5999 357.341L98.298 355.189Z" fill="white"/>
<path d="M117.615 372.395C116.789 372.392 116.421 375.098 116.27 377.186C116.152 378.799 115.541 381.431 116.111 382.616C116.682 383.801 118.857 384.542 122.214 384.474C124.388 384.429 127.795 385.861 130.133 387.126C132.546 388.432 135.147 388.403 137.678 388.072C140.661 387.683 143.732 385.911 144.198 384.667C144.665 383.423 144.037 382.837 136.959 379.929C136.894 379.902 129.493 376.674 126.037 372.96L117.615 372.395Z" fill="#263238"/>
<path d="M136.959 379.931C137.939 380.333 138.783 380.688 139.53 381.009C139.722 381.679 139.466 382.738 136.338 383.259C131.571 384.054 117.565 373.511 117.565 373.511C117.565 373.511 119.572 374.064 119.949 372.916L126.038 372.962C129.492 376.676 136.894 379.904 136.959 379.931Z" fill="white"/>
<path d="M88.4691 326.645C88.4691 318.128 89.8376 312.829 89.8376 312.829C89.8376 312.829 89.0069 295.044 88.9113 283.864C88.7221 261.755 89.1454 258.508 94.0357 248.97C94.0357 248.97 122.59 245.628 123.793 259.544C125.291 276.875 127.033 305.874 126.987 314.127C126.954 320.272 126.257 326.933 125.919 340.868C125.702 349.792 124.76 362.402 126.037 372.963C124.422 375.668 120.053 375.62 117.564 373.512C116.847 363.173 111.716 343.374 110.92 336.465C110.096 329.313 111.529 321.538 111.529 321.538C111.529 321.538 107.747 292.021 107.082 287.528C107.082 287.528 105.365 295.801 105.426 301.946C105.446 303.905 104.748 310.481 103.626 321.538C102.943 328.273 98.1771 354.585 97.1452 363.045C94.7548 365.353 91.6662 363.762 91.5268 362.757C90.728 352.433 88.4691 333.086 88.4691 326.645Z" fill="white"/>
<path opacity="0.15" d="M107.083 287.527L104.559 273.192C104.559 273.192 98.7066 272.723 93.3193 267.291C93.3193 267.291 94.8312 273.024 102.252 274.974L105.206 287.944L105.706 299.769L107.083 287.527Z" fill="black"/>
<path d="M114.247 201.725L113.057 214.718L101.644 214.027L102.518 199.618L114.247 201.725Z" fill="white"/>
<path d="M91.338 252.46C92.4496 249.714 93.0731 247.868 96.2732 242.591C91.3948 226.878 89.8331 221.587 90.7803 214.869C91.3828 210.594 94.7414 206.322 98.9036 206.545C98.9036 206.545 101.153 206.549 102.099 206.545C102.286 209.524 110.562 209.669 113.701 207.62L116.591 207.696C118.635 208.42 125.589 218.607 126.356 225.369C126.979 230.864 122.675 235.626 122.675 235.626C122.509 237.81 123.084 242.592 123.084 242.592C123.084 242.592 123.063 255.889 123.084 262.499C123.084 262.499 121.47 267.597 104.722 266.002C89.8251 264.584 89.4606 259.493 89.4606 259.493C89.4606 259.493 89.8938 256.028 91.338 252.46Z" fill="#407BFF"/>
<g opacity="0.3">
<path d="M91.338 252.46C92.4496 249.714 93.0731 247.868 96.2732 242.591C91.3948 226.878 89.8331 221.587 90.7803 214.869C91.3828 210.594 94.7414 206.322 98.9036 206.545C98.9036 206.545 101.153 206.549 102.099 206.545C102.286 209.524 110.562 209.669 113.701 207.62L116.591 207.696C118.635 208.42 125.589 218.607 126.356 225.369C126.979 230.864 122.675 235.626 122.675 235.626C122.509 237.81 123.084 242.592 123.084 242.592C123.084 242.592 123.063 255.889 123.084 262.499C123.084 262.499 121.47 267.597 104.722 266.002C89.8251 264.584 89.4606 259.493 89.4606 259.493C89.4606 259.493 89.8938 256.028 91.338 252.46Z" fill="black"/>
</g>
<path d="M112.517 171.329C112.517 171.329 117.904 170.385 121.695 174.655C127.536 181.232 121.131 186.072 121.131 186.072L112.517 171.329Z" fill="#263238"/>
<path d="M122.675 187.449C122.675 187.449 125.211 191.262 124.883 191.667C124.554 192.072 122.949 192.506 122.949 192.506L122.675 187.449Z" fill="white"/>
<path d="M114.921 175.364C117.381 176.627 121.632 178.961 122.748 188.006C123.894 197.292 121.834 200.526 120.571 201.747C119.717 202.571 115.308 202.881 113.005 202.172C110.124 201.286 103.879 198.22 100.943 193.435C97.4886 187.803 96.7576 180.287 100.721 177.329C106.296 173.166 112.839 174.295 114.921 175.364Z" fill="white"/>
<path d="M116.151 186.046C121.295 183.427 119.984 176.595 119.984 176.595C119.984 176.595 112.631 166.092 99.0714 172.885C94.3802 175.236 91.5646 180.574 91.6791 186.824C91.6791 194.952 98.2686 201.542 106.397 201.542C111.136 201.542 114.978 197.7 114.978 192.961V192.394L114.543 192.534C113.8 192.723 112.194 192.89 110.538 191.464C108.281 189.519 108.01 185.705 110.869 184.742C113.709 183.786 115.22 187.089 115.22 187.089L115.223 187.085L116.329 190.122C117.451 189.714 118.028 188.474 117.62 187.352C117.371 186.67 116.801 186.227 116.151 186.046Z" fill="#263238"/>
<path d="M147.267 188.144L171.751 200.407L160.238 233.584L137.376 221.272L147.267 188.144Z" fill="#407BFF"/>
<path d="M148.436 191.353L168.976 201.641L158.774 230.17L139.594 219.84L148.436 191.353Z" fill="#F5F5F5"/>
<path opacity="0.15" d="M152.782 194.341C152.782 194.341 152.952 193.887 153.16 193.326C153.368 192.765 155.068 193.069 156.957 194.005L160.574 195.797C162.463 196.732 163.825 197.945 163.617 198.506L163.239 199.521L152.782 194.341Z" fill="black"/>
<path d="M153.109 190.299C153.237 189.949 153.976 189.993 154.758 190.399L156.174 191.133C156.174 191.133 157.003 188.941 160.258 190.394C163.513 191.848 162.817 194.385 162.817 194.385C162.817 194.385 163.49 194.741 164.321 195.182C165.151 195.622 165.749 196.266 165.654 196.622L165.484 197.266L152.872 190.951C152.872 190.951 152.98 190.649 153.109 190.299Z" fill="#37474F"/>
<path d="M154.483 191.74C155.655 192.293 156.118 192.561 155.798 193.426C155.432 194.413 155.088 195.123 155.088 195.123L160.666 197.924C160.666 197.924 161.107 196.669 161.3 196.185C161.493 195.7 161.894 195.463 162.782 195.909L163.104 195.557L154.307 191.256L154.483 191.74Z" fill="#263238"/>
<path d="M152.546 194.397C152.546 194.397 152.715 193.943 152.923 193.382C153.132 192.821 154.833 193.125 156.721 194.061L160.338 195.853C162.227 196.788 163.589 198.001 163.38 198.562L163.003 199.577L152.546 194.397Z" fill="#37474F"/>
<path d="M116.59 207.695C120.446 207.632 122.777 207.973 128.039 215.782C133.3 223.59 143.054 237.968 144.199 239.831C145.79 242.423 146.149 246.398 144.853 248.824C143.643 251.09 141.515 251.876 135.454 245.435C130.964 240.664 121.53 227.994 121.53 227.994C121.53 227.994 114.188 214.307 116.59 207.695Z" fill="white"/>
<path d="M142.463 250.465C145.641 251.446 157.297 237.569 160.539 233.396C164.132 228.773 167.018 226.166 169.643 224.159C174.134 220.725 173.386 215.575 171.323 210.878C170.609 209.251 168.297 210.356 168.297 210.356L167.513 212.614L166.157 216.524C165.209 217.433 164.665 217.734 164.596 217.469C164.467 216.97 165.26 214.866 165.204 212.687C165.136 210.067 163.329 211.82 162.796 212.748C162.263 213.676 161.648 215.181 160.931 217.111C160.054 219.472 160.472 221.841 159.384 223.458C158.295 225.076 142.462 238.228 142.462 238.228V250.465H142.463Z" fill="white"/>
<path d="M96.2743 242.591C96.2743 242.591 107.444 249.189 123.084 242.591C123.084 242.591 125.26 254.823 125.92 267.377C126.477 277.95 127.704 300.652 127.704 300.652C127.704 300.652 123.085 306.035 106.613 304.944C90.7814 303.894 87.9856 299.767 87.9856 299.767C87.9856 299.767 87.9487 279.378 87.8661 270.464C87.7595 259.066 89.3581 252.837 96.2743 242.591Z" fill="#407BFF"/>
<path opacity="0.5" d="M96.2743 242.591C96.2743 242.591 107.444 249.189 123.084 242.591C123.084 242.591 125.26 254.823 125.92 267.377C126.477 277.95 127.704 300.652 127.704 300.652C127.704 300.652 123.085 306.035 106.613 304.944C90.7814 303.894 87.9856 299.767 87.9856 299.767C87.9856 299.767 87.9487 279.378 87.8661 270.464C87.7595 259.066 89.3581 252.837 96.2743 242.591Z" fill="black"/>
<path d="M91.0823 182.445L88.4708 180.052C89.3244 179.121 90.7706 179.057 91.7018 179.911C92.3731 180.525 92.5853 181.447 92.3373 182.263C92.662 182.235 92.9887 182.214 93.3193 182.214V203.214C93.3193 209.239 88.436 214.122 82.4111 214.122V193.122C82.4111 187.865 86.1312 183.478 91.0823 182.445Z" fill="#263238"/>
</svg>
