<svg width="439" height="446" viewBox="0 0 439 446" fill="none" xmlns="http://www.w3.org/2000/svg">
<g clip-path="url(#clip0_83_1018)">
<path d="M63.8168 246.649H10.8428V446.102H63.8168V246.649Z" fill="#F5F5F5"/>
<path d="M350.843 312.975H297.869V445H350.843V312.975Z" fill="#F5F5F5"/>
<path d="M431.745 209.203H378.771V445H431.745V209.203Z" fill="#F5F5F5"/>
<path d="M261.099 217.762H208.125V445H261.099V217.762Z" fill="#F5F5F5"/>
<path d="M154.825 153.426H101.851V445H154.825V153.426Z" fill="#F5F5F5"/>
<path d="M378.77 23.1421C378.77 23.1421 378.514 23.4131 377.997 23.9271C377.471 24.4461 376.7 25.2061 375.688 26.2041C373.642 28.2071 370.632 31.1551 366.741 34.9641C358.93 42.5831 347.591 53.6431 333.451 67.4361C305.126 95.0041 265.584 133.489 220.683 177.189L220.484 177.382L220.306 177.169C211.44 166.548 202.175 155.447 192.728 144.13C167.361 113.721 143.301 84.8791 121.947 59.2801L122.325 59.2591C97.2151 97.0031 75.9902 128.908 61.0361 151.386C53.5501 162.607 47.6361 171.474 43.5871 177.543C41.5611 180.564 40.0041 182.888 38.9461 184.465C38.4201 185.242 38.0201 185.833 37.7451 186.239C37.4741 186.636 37.3271 186.833 37.3271 186.833C37.3271 186.833 37.4511 186.622 37.7121 186.218C37.9791 185.807 38.3691 185.209 38.8811 184.423C39.9241 182.837 41.4621 180.5 43.4601 177.461C47.4831 171.374 53.3601 162.483 60.7981 151.23C75.7141 128.726 96.8841 96.7851 121.93 58.9981L122.105 58.7341L122.308 58.9781C143.673 84.5671 167.746 113.399 193.126 143.797C202.571 155.116 211.834 166.218 220.698 176.84L220.322 176.82C265.271 133.169 304.856 94.7291 333.212 67.1921C347.398 53.4461 358.773 42.4241 366.61 34.8311C370.528 31.0491 373.559 28.1231 375.619 26.1351C376.645 25.1521 377.427 24.4031 377.96 23.8921C378.491 23.3901 378.77 23.1421 378.77 23.1421Z" fill="#EBEBEB"/>
<path d="M122.129 68.9613C127.558 68.9613 131.959 64.5602 131.959 59.1313C131.959 53.7023 127.558 49.3013 122.129 49.3013C116.7 49.3013 112.299 53.7023 112.299 59.1313C112.299 64.5602 116.7 68.9613 122.129 68.9613Z" fill="#EBEBEB"/>
<path d="M41.0666 195.921C46.0868 193.856 48.4823 188.112 46.4171 183.091C44.3519 178.071 38.6081 175.675 33.5879 177.74C28.5677 179.805 26.1722 185.549 28.2374 190.569C30.3026 195.59 36.0464 197.986 41.0666 195.921Z" fill="#EBEBEB"/>
<path d="M230.215 178.569C231.082 173.209 227.441 168.162 222.082 167.295C216.723 166.428 211.676 170.07 210.809 175.429C209.942 180.789 213.584 185.836 218.942 186.703C224.301 187.57 229.348 183.928 230.215 178.569Z" fill="#EBEBEB"/>
<path d="M393.391 21.5607C394.582 16.2642 391.255 11.0045 385.958 9.81284C380.662 8.62118 375.402 11.9488 374.21 17.2453C373.019 22.5418 376.346 27.8015 381.643 28.9931C386.939 30.1848 392.199 26.8572 393.391 21.5607Z" fill="#EBEBEB"/>
<path d="M23.9763 38.9242C26.3813 37.4712 28.9403 36.3692 31.5813 35.6192L33.1483 28.0912L45.8663 27.8682L47.6963 35.3352C50.3613 35.9922 52.9593 37.0032 55.4133 38.3712L61.8413 34.1582L70.9923 42.9942L67.0083 49.5642C68.4623 51.9692 69.5633 54.5302 70.3133 57.1712L77.8403 58.7372L78.0633 71.4552L70.5963 73.2862C69.9393 75.9512 68.9283 78.5472 67.5603 81.0022L71.7733 87.4302L62.9383 96.5812L56.3673 92.5972C53.9623 94.0502 51.4023 95.1522 48.7613 95.9022L47.1943 103.43L34.4763 103.653L32.6453 96.1852C29.9803 95.5282 27.3833 94.5172 24.9293 93.1492L18.5013 97.3622L9.3503 88.5272L13.3343 81.9562C11.8813 79.5512 10.7783 76.9912 10.0293 74.3502L2.5023 72.7842L2.2793 60.0662L9.7473 58.2352C10.4043 55.5702 11.4163 52.9732 12.7833 50.5192L8.5703 44.0912L17.4053 34.9402L23.9763 38.9242ZM30.7563 55.8662C25.5213 61.2882 25.6733 69.9262 31.0953 75.1612C36.5173 80.3962 45.1553 80.2442 50.3893 74.8222C55.6233 69.4002 55.4723 60.7622 50.0503 55.5282C44.6283 50.2932 35.9903 50.4442 30.7563 55.8662Z" fill="#EBEBEB"/>
<path d="M233.881 15.9461C236.87 14.1401 240.051 12.7701 243.333 11.8381L245.28 2.48207L261.087 2.20508L263.362 11.4861C266.675 12.3021 269.903 13.5591 272.953 15.2591L280.942 10.0221L292.316 21.0041L287.364 29.1701C289.171 32.1601 290.54 35.3431 291.471 38.6241L300.826 40.5711L301.104 56.3781L291.823 58.6541C291.007 61.9661 289.75 65.1931 288.05 68.2441L293.286 76.2341L282.306 87.6081L274.139 82.6561C271.15 84.4621 267.967 85.8311 264.686 86.7631L262.739 96.1191L246.932 96.3961L244.657 87.1141C241.345 86.2981 238.117 85.0411 235.066 83.3411L227.077 88.5781L215.703 77.5971L220.655 69.4301C218.849 66.4411 217.479 63.2591 216.547 59.9771L207.192 58.0301L206.915 42.2231L216.196 39.9471C217.012 36.6351 218.27 33.4071 219.969 30.3571L214.733 22.3681L225.714 10.9941L233.881 15.9461ZM242.307 37.0041C235.801 43.7431 235.989 54.4791 242.728 60.9851C249.467 67.4911 260.203 67.3021 266.709 60.5631C273.214 53.8241 273.027 43.0881 266.288 36.5821C259.549 30.0771 248.813 30.2661 242.307 37.0041Z" fill="#F5F5F5"/>
<path d="M84.7886 7.51503C86.0476 6.75403 87.3866 6.17803 88.7686 5.78503L89.5886 1.84503L96.2456 1.72803L97.2036 5.63603C98.5986 5.98003 99.9586 6.50903 101.243 7.22503L104.607 5.02003L109.397 9.64503L107.312 13.084C108.073 14.343 108.65 15.683 109.042 17.065L112.982 17.885L113.099 24.542L109.19 25.5C108.846 26.895 108.317 28.254 107.601 29.539L109.806 32.904L105.182 37.694L101.743 35.609C100.484 36.37 99.1436 36.946 97.7616 37.339L96.9416 41.279L90.2846 41.396L89.3266 37.487C87.9316 37.143 86.5726 36.614 85.2876 35.898L81.9236 38.103L77.1336 33.478L79.2186 30.039C78.4576 28.78 77.8806 27.44 77.4886 26.058L73.5486 25.238L73.4316 18.581L77.3406 17.623C77.6846 16.228 78.2136 14.869 78.9296 13.584L76.7246 10.22L81.3486 5.43003L84.7886 7.51503ZM88.3366 16.383C85.5966 19.221 85.6766 23.742 88.5136 26.482C91.3516 29.222 95.8726 29.142 98.6126 26.304C101.353 23.466 101.274 18.945 98.4346 16.205C95.5976 13.466 91.0766 13.545 88.3366 16.383Z" fill="#F5F5F5"/>
<path d="M394.871 77.4002C396.573 76.3712 398.385 75.5922 400.254 75.0602L401.363 69.7322L410.366 69.5742L411.662 74.8602C413.549 75.3252 415.387 76.0412 417.124 77.0092L421.674 74.0272L428.151 80.2812L425.331 84.9322C426.36 86.6352 427.14 88.4472 427.67 90.3162L432.998 91.4252L433.156 100.428L427.87 101.724C427.405 103.61 426.689 105.448 425.721 107.186L428.703 111.736L422.449 118.214L417.798 115.394C416.095 116.423 414.283 117.202 412.414 117.733L411.305 123.061L402.303 123.219L401.007 117.933C399.121 117.468 397.282 116.752 395.545 115.784L390.995 118.766L384.517 112.512L387.337 107.861C386.308 106.158 385.528 104.346 384.997 102.477L379.669 101.368L379.511 92.3662L384.797 91.0702C385.262 89.1842 385.978 87.3462 386.946 85.6082L383.964 81.0582L390.218 74.5802L394.871 77.4002ZM399.67 89.3932C395.965 93.2312 396.072 99.3462 399.91 103.051C403.748 106.756 409.863 106.649 413.568 102.811C417.273 98.9732 417.166 92.8582 413.328 89.1532C409.489 85.4482 403.375 85.5562 399.67 89.3932Z" fill="#F5F5F5"/>
<path d="M288.1 446.365H370.18C371.748 446.365 372.987 445.035 372.877 443.471L368.78 385.383C368.68 383.969 367.505 382.871 366.087 382.87L290.735 382.763C289.288 382.761 288.095 383.899 288.03 385.345L285.399 443.54C285.329 445.079 286.559 446.365 288.1 446.365Z" fill="#263238"/>
<path d="M299.424 446.365C299.55 446.365 299.653 432.151 299.653 414.62C299.653 397.084 299.55 382.872 299.424 382.872C299.298 382.872 299.195 397.083 299.195 414.62C299.195 432.151 299.297 446.365 299.424 446.365Z" fill="#455A64"/>
<path d="M300.395 384.379C300.388 384.383 300.43 384.462 300.519 384.611C300.623 384.781 300.755 384.997 300.92 385.267C301.299 385.865 301.83 386.699 302.504 387.761C303.9 389.913 305.926 393.028 308.661 396.719C311.424 400.375 314.891 404.668 319.558 408.597C321.882 410.563 324.518 412.399 327.436 413.981C330.363 415.525 333.662 416.755 337.204 417.04C340.751 417.337 344.212 416.538 347.282 415.294C350.359 414.032 353.119 412.336 355.486 410.412C360.231 406.539 363.364 401.856 365.281 397.686C367.211 393.491 367.898 389.77 368.181 387.227C368.237 386.587 368.302 386.019 368.33 385.525C368.336 385.039 368.341 384.622 368.345 384.274C368.345 383.957 368.345 383.704 368.345 383.505C368.342 383.332 368.337 383.243 368.329 383.243C368.321 383.243 368.311 383.332 368.298 383.505C368.286 383.703 368.271 383.956 368.252 384.272C368.235 384.619 368.216 385.034 368.193 385.517C368.151 386.008 368.073 386.571 368.003 387.207C367.667 389.73 366.937 393.411 364.986 397.551C363.049 401.665 359.919 406.278 355.219 410.085C352.874 411.976 350.147 413.641 347.113 414.879C344.086 416.098 340.696 416.874 337.239 416.584C333.782 416.307 330.538 415.104 327.644 413.584C324.757 412.026 322.14 410.215 319.828 408.274C315.185 404.395 311.707 400.145 308.919 396.524C306.159 392.868 304.093 389.783 302.652 387.662C301.947 386.621 301.393 385.802 300.997 385.216C300.816 384.956 300.672 384.748 300.558 384.585C300.457 384.444 300.402 384.374 300.395 384.379Z" fill="#455A64"/>
<path d="M334.363 417.092C334.363 419.172 336.049 420.859 338.13 420.859C340.211 420.859 341.897 419.173 341.897 417.092C341.897 415.012 340.21 413.325 338.13 413.325C336.05 413.325 334.363 415.012 334.363 417.092Z" fill="#455A64"/>
<path d="M312.322 371.043C313.898 369.584 316.114 369.043 318.251 368.832C323.406 368.32 329.08 369.392 333.584 371.95C338.089 374.508 341.404 378.769 343.607 383.458L340.647 386.555C339.438 381.68 336.737 377.436 332.547 374.666C328.357 371.896 323.903 370.626 318.944 371.424C317.804 371.607 316.193 372.033 315.247 372.695C313.312 374.049 313.015 375.624 313.356 377.633C313.861 380.603 314.608 381.895 315.879 383.488C313.7 383.539 313.191 383.551 311.013 383.602C310.463 381.455 309.909 379.277 309.948 377.061C309.989 374.846 310.696 372.549 312.322 371.043Z" fill="#263238"/>
<path d="M229.904 415.886H198.787V428.146H229.904V415.886Z" fill="#FAFAFA"/>
<path d="M295.218 413.781H197.491V416.349H295.218V413.781Z" fill="#455A64"/>
<path d="M295.218 427.599H197.944V430.167H295.218V427.599Z" fill="#455A64"/>
<path d="M229.904 414.392L230.051 429.678H295.217V414.392H229.904Z" fill="#455A64"/>
<path d="M245.742 422.02C245.742 424.121 244.165 425.824 242.22 425.824C240.275 425.824 238.697 424.121 238.697 422.02C238.697 419.919 240.274 418.216 242.22 418.216C244.166 418.216 245.742 419.919 245.742 422.02Z" fill="#263238"/>
<path d="M242.219 426.37C239.976 426.37 238.151 424.418 238.151 422.019C238.151 419.62 239.976 417.669 242.219 417.669C244.463 417.669 246.288 419.62 246.288 422.019C246.289 424.418 244.463 426.37 242.219 426.37ZM242.219 418.763C240.578 418.763 239.244 420.224 239.244 422.02C239.244 423.816 240.578 425.277 242.219 425.277C243.86 425.277 245.195 423.816 245.195 422.02C245.195 420.224 243.86 418.763 242.219 418.763Z" fill="#E0E0E0"/>
<path d="M227.566 425.141C227.566 425.298 221.172 425.426 213.287 425.426C205.399 425.426 199.007 425.299 199.007 425.141C199.007 424.984 205.399 424.857 213.287 424.857C221.172 424.856 227.566 424.984 227.566 425.141Z" fill="#263238"/>
<path d="M227.566 423.005C227.566 423.162 221.172 423.29 213.287 423.29C205.399 423.29 199.007 423.163 199.007 423.005C199.007 422.848 205.399 422.72 213.287 422.72C221.172 422.72 227.566 422.848 227.566 423.005Z" fill="#263238"/>
<path d="M227.566 420.869C227.566 421.026 221.172 421.154 213.287 421.154C205.399 421.154 199.007 421.027 199.007 420.869C199.007 420.712 205.399 420.584 213.287 420.584C221.172 420.585 227.566 420.712 227.566 420.869Z" fill="#263238"/>
<path d="M227.566 418.734C227.566 418.891 221.172 419.019 213.287 419.019C205.399 419.019 199.007 418.891 199.007 418.734C199.007 418.577 205.399 418.449 213.287 418.449C221.172 418.449 227.566 418.577 227.566 418.734Z" fill="#263238"/>
<path d="M287.991 417.643H258.625V425.824H287.991V417.643Z" fill="white"/>
<path d="M263.199 424.992C263.042 424.992 262.914 423.533 262.914 421.733C262.914 419.933 263.041 418.474 263.199 418.474C263.356 418.474 263.484 419.933 263.484 421.733C263.483 423.533 263.356 424.992 263.199 424.992Z" fill="#E0E0E0"/>
<path d="M267.082 424.992C266.925 424.992 266.797 423.533 266.797 421.733C266.797 419.933 266.924 418.474 267.082 418.474C267.239 418.474 267.366 419.933 267.366 421.733C267.366 423.533 267.239 424.992 267.082 424.992Z" fill="#E0E0E0"/>
<path d="M270.965 424.992C270.808 424.992 270.68 423.533 270.68 421.733C270.68 419.933 270.807 418.474 270.965 418.474C271.122 418.474 271.249 419.933 271.249 421.733C271.249 423.533 271.122 424.992 270.965 424.992Z" fill="#E0E0E0"/>
<path d="M274.848 424.992C274.691 424.992 274.562 423.533 274.562 421.733C274.562 419.933 274.69 418.474 274.848 418.474C275.005 418.474 275.133 419.933 275.133 421.733C275.132 423.533 275.005 424.992 274.848 424.992Z" fill="#E0E0E0"/>
<path d="M278.731 424.992C278.574 424.992 278.446 423.533 278.446 421.733C278.446 419.933 278.573 418.474 278.731 418.474C278.888 418.474 279.016 419.933 279.016 421.733C279.015 423.533 278.888 424.992 278.731 424.992Z" fill="#E0E0E0"/>
<path d="M282.614 424.992C282.457 424.992 282.329 423.533 282.329 421.733C282.329 419.933 282.456 418.474 282.614 418.474C282.771 418.474 282.899 419.933 282.899 421.733C282.898 423.533 282.771 424.992 282.614 424.992Z" fill="#E0E0E0"/>
<path d="M234.038 431.821H202.921V444.081H234.038V431.821Z" fill="#FAFAFA"/>
<path d="M299.352 429.716H201.625V432.284H299.352V429.716Z" fill="#407BFF"/>
<path d="M299.352 443.534H202.078V446.102H299.352V443.534Z" fill="#407BFF"/>
<path d="M234.038 430.327L234.185 445.613H299.352V430.327H234.038Z" fill="#407BFF"/>
<path d="M249.876 437.954C249.876 440.055 248.299 441.758 246.354 441.758C244.408 441.758 242.831 440.055 242.831 437.954C242.831 435.853 244.408 434.15 246.354 434.15C248.299 434.151 249.876 435.854 249.876 437.954Z" fill="#263238"/>
<path d="M246.354 442.305C244.11 442.305 242.285 440.353 242.285 437.954C242.285 435.555 244.11 433.604 246.354 433.604C248.598 433.604 250.423 435.555 250.423 437.954C250.423 440.353 248.598 442.305 246.354 442.305ZM246.354 434.697C244.713 434.697 243.378 436.158 243.378 437.954C243.378 439.75 244.713 441.211 246.354 441.211C247.995 441.211 249.33 439.75 249.33 437.954C249.33 436.158 247.994 434.697 246.354 434.697Z" fill="#E0E0E0"/>
<path d="M231.7 441.076C231.7 441.233 225.306 441.361 217.421 441.361C209.533 441.361 203.141 441.234 203.141 441.076C203.141 440.919 209.533 440.791 217.421 440.791C225.306 440.792 231.7 440.919 231.7 441.076Z" fill="#263238"/>
<path d="M231.7 438.94C231.7 439.097 225.306 439.225 217.421 439.225C209.533 439.225 203.141 439.097 203.141 438.94C203.141 438.783 209.533 438.655 217.421 438.655C225.306 438.655 231.7 438.783 231.7 438.94Z" fill="#263238"/>
<path d="M231.7 436.805C231.7 436.962 225.306 437.09 217.421 437.09C209.533 437.09 203.141 436.962 203.141 436.805C203.141 436.648 209.533 436.52 217.421 436.52C225.306 436.52 231.7 436.648 231.7 436.805Z" fill="#263238"/>
<path d="M231.7 434.668C231.7 434.825 225.306 434.953 217.421 434.953C209.533 434.953 203.141 434.826 203.141 434.668C203.141 434.51 209.533 434.383 217.421 434.383C225.306 434.384 231.7 434.511 231.7 434.668Z" fill="#263238"/>
<path d="M292.125 433.578H262.759V441.759H292.125V433.578Z" fill="white"/>
<path d="M267.333 440.927C267.176 440.927 267.048 439.468 267.048 437.668C267.048 435.868 267.175 434.409 267.333 434.409C267.49 434.409 267.618 435.868 267.618 437.668C267.618 439.468 267.49 440.927 267.333 440.927Z" fill="#E0E0E0"/>
<path d="M271.216 440.927C271.059 440.927 270.931 439.468 270.931 437.668C270.931 435.868 271.059 434.409 271.216 434.409C271.373 434.409 271.501 435.868 271.501 437.668C271.5 439.468 271.373 440.927 271.216 440.927Z" fill="#E0E0E0"/>
<path d="M275.098 440.927C274.941 440.927 274.813 439.468 274.813 437.668C274.813 435.868 274.941 434.409 275.098 434.409C275.255 434.409 275.382 435.868 275.382 437.668C275.382 439.468 275.255 440.927 275.098 440.927Z" fill="#E0E0E0"/>
<path d="M278.982 440.927C278.825 440.927 278.697 439.468 278.697 437.668C278.697 435.868 278.824 434.409 278.982 434.409C279.139 434.409 279.266 435.868 279.266 437.668C279.266 439.468 279.139 440.927 278.982 440.927Z" fill="#E0E0E0"/>
<path d="M282.865 440.927C282.708 440.927 282.58 439.468 282.58 437.668C282.58 435.868 282.707 434.409 282.865 434.409C283.022 434.409 283.15 435.868 283.15 437.668C283.15 439.468 283.022 440.927 282.865 440.927Z" fill="#E0E0E0"/>
<path d="M286.748 440.927C286.591 440.927 286.463 439.468 286.463 437.668C286.463 435.868 286.59 434.409 286.748 434.409C286.905 434.409 287.033 435.868 287.033 437.668C287.033 439.468 286.905 440.927 286.748 440.927Z" fill="#E0E0E0"/>
<path d="M170.48 137.872L162.426 136.259C157.012 139.297 150.621 140.769 143.889 140.075C128.01 138.439 115.758 124.729 115.875 108.767C116.01 90.3231 131.951 75.9491 150.433 77.8661C166.124 79.4931 178.292 92.8971 178.423 108.671C178.488 116.499 175.699 123.613 171.072 129.102L171.087 129.092L170.48 137.872Z" fill="white"/>
<path d="M170.48 137.872C170.48 137.872 170.481 137.663 170.5 137.278C170.521 136.872 170.552 136.308 170.591 135.579C170.679 134.076 170.807 131.898 170.972 129.085L171.151 129.187C171.151 129.187 171.142 129.194 171.137 129.197C171.085 129.233 171.014 129.221 170.977 129.169C170.947 129.126 170.952 129.067 170.984 129.029C173.442 126.058 176.26 121.585 177.534 115.56C178.179 112.566 178.389 109.221 178.038 105.698C177.657 102.181 176.62 98.4992 174.82 94.9672C173.006 91.4472 170.409 88.0992 167.102 85.3082C163.8 82.5292 159.793 80.2492 155.294 79.0792C150.819 77.8742 145.919 77.6642 141.111 78.5912C136.291 79.4872 131.625 81.7082 127.666 84.9192C125.617 86.4962 123.915 88.4332 122.338 90.4072C121.625 91.4502 120.894 92.4822 120.27 93.5652L119.399 95.2232L118.969 96.0502L118.625 96.9142C116.695 101.477 115.963 106.376 116.238 111.048C116.49 115.737 117.972 120.153 120.075 123.964C122.195 127.781 125.013 130.994 128.146 133.462C131.292 135.922 134.734 137.648 138.131 138.697C138.993 138.918 139.84 139.136 140.673 139.35C141.51 139.544 142.354 139.628 143.172 139.77C144.812 140.026 146.419 140.074 147.951 140.051C154.12 139.924 159.031 137.999 162.372 136.164C162.395 136.151 162.424 136.147 162.449 136.152C165.009 136.693 167.001 137.114 168.379 137.406C169.045 137.551 169.562 137.663 169.937 137.744C170.289 137.82 170.48 137.872 170.48 137.872C170.48 137.872 170.314 137.852 169.969 137.791C169.599 137.723 169.087 137.629 168.427 137.509C167.027 137.244 165.003 136.861 162.403 136.369L162.479 136.357C159.139 138.25 154.198 140.24 147.958 140.412C146.408 140.446 144.783 140.407 143.12 140.158C142.291 140.02 141.435 139.939 140.586 139.747C139.741 139.534 138.881 139.318 138.007 139.099C134.557 138.054 131.058 136.317 127.855 133.833C124.665 131.34 121.793 128.087 119.627 124.213C117.479 120.346 115.963 115.857 115.697 111.085C115.408 106.332 116.147 101.346 118.108 96.6972L118.459 95.8182L118.895 94.9752C119.19 94.4142 119.485 93.8512 119.781 93.2862C120.416 92.1832 121.158 91.1312 121.885 90.0702C123.489 88.0592 125.223 86.0882 127.309 84.4812C131.34 81.2112 136.093 78.9532 141.002 78.0432C145.899 77.1032 150.882 77.3232 155.436 78.5582C160.012 79.7572 164.084 82.0852 167.432 84.9192C170.786 87.7652 173.412 91.1742 175.24 94.7542C177.054 98.3462 178.09 102.087 178.458 105.654C178.797 109.229 178.563 112.612 177.891 115.638C176.561 121.726 173.672 126.217 171.159 129.178L171.006 129.01C171.011 129.006 171.02 129 171.02 129C171.072 128.964 171.143 128.976 171.179 129.028C171.194 129.05 171.201 129.078 171.199 129.103C170.974 131.943 170.799 134.142 170.679 135.659C170.618 136.374 170.571 136.928 170.537 137.327C170.505 137.695 170.48 137.872 170.48 137.872Z" fill="#263238"/>
<path d="M133.281 110.993L137.198 106.8L145.257 113.486L160.108 98.1895L164.012 102.117L144.944 121.328L133.281 110.993Z" fill="#407BFF"/>
<path d="M387.715 85.3042H362.257L287.969 130.014C288.247 130.432 297.016 136.773 308.469 144.962L200.892 343.04L110.86 303.277L31.1406 446.557H74.7006L129.63 346.22L212.25 384.493L247.273 388.673L342.08 168.87C353.993 177.315 363.144 183.781 363.144 183.781H388.602C388.602 183.781 381.178 121.471 381.178 120.976C381.178 120.481 387.715 85.3042 387.715 85.3042Z" fill="#407BFF"/>
<path opacity="0.3" d="M387.715 85.3042H362.257L287.969 130.014C288.247 130.432 297.016 136.773 308.469 144.962L200.892 343.04L110.86 303.277L31.1406 446.557H74.7006L129.63 346.22L212.25 384.493L247.273 388.673L342.08 168.87C353.993 177.315 363.144 183.781 363.144 183.781H388.602C388.602 183.781 381.178 121.471 381.178 120.976C381.178 120.481 387.715 85.3042 387.715 85.3042Z" fill="black"/>
<path d="M56.9141 446.557L136.952 302.05L226.664 343.04L342.36 130.014L376.807 148.111L247.273 388.673L155.403 346.22L100.474 446.557H56.9141Z" fill="#407BFF"/>
<path d="M313.427 130.014C314.247 131.244 388.603 183.781 388.603 183.781L387.716 85.3042L313.427 130.014Z" fill="#407BFF"/>
<path d="M313.427 130.014C313.427 130.158 307.728 130.274 300.699 130.274C293.668 130.274 287.97 130.157 287.97 130.014C287.97 129.871 293.668 129.754 300.699 129.754C307.727 129.754 313.427 129.871 313.427 130.014Z" fill="#263238"/>
<path d="M333.314 145.378C333.314 145.522 327.615 145.638 320.586 145.638C313.555 145.638 307.857 145.521 307.857 145.378C307.857 145.234 313.555 145.118 320.586 145.118C327.615 145.117 333.314 145.234 333.314 145.378Z" fill="#263238"/>
<path d="M142.119 234.569C142.119 234.569 140.574 235.241 140.333 233.179C140.091 231.116 144.39 226.822 145.765 225.458C147.14 224.094 149.105 224.387 150.849 224.776C152.593 225.165 159.73 225.884 162.098 227.404C164.466 228.924 168.091 236.549 168.847 236.911C169.603 237.273 191.869 238.433 191.869 238.433L190.911 256.682C190.911 256.682 169.057 252.518 164.729 249.811C160.401 247.104 160.969 246.026 159.739 243.501C158.509 240.976 157.188 238.295 157.188 238.295L155.142 237.956L151.862 239.766C151.862 239.766 151.475 244.398 148.229 244.28L146.638 243.442C146.638 243.442 145.577 244.669 144.368 242.772C143.159 240.875 143.388 240.521 143.388 240.521C143.388 240.521 142.115 242.095 140.74 240.143C139.365 238.191 142.119 234.569 142.119 234.569Z" fill="white"/>
<path d="M166.107 242.316C166.11 242.33 166.028 242.356 165.866 242.392C165.705 242.431 165.459 242.462 165.14 242.463C164.506 242.469 163.545 242.313 162.52 241.718C161.5 241.139 160.431 240.097 159.745 238.641C159.038 237.195 158.692 235.415 158.594 233.528L158.947 233.743C157.483 234.421 155.759 234.856 153.953 234.919C152.686 234.967 151.443 234.826 150.284 234.533C149.73 234.369 149.089 234.284 148.606 233.753C148.348 233.501 148.288 232.976 148.549 232.678C148.787 232.383 149.088 232.278 149.336 232.172C151.34 231.36 153.183 230.728 154.745 230.251C156.308 229.773 157.59 229.451 158.48 229.248C159.371 229.048 159.87 228.967 159.878 229.001C159.887 229.038 159.404 229.185 158.532 229.444C157.66 229.706 156.398 230.081 154.858 230.602C153.318 231.121 151.5 231.785 149.519 232.616C149.277 232.714 149.047 232.827 148.94 232.973C148.839 233.116 148.845 233.273 148.985 233.431C149.276 233.771 149.855 233.892 150.409 234.039C151.524 234.313 152.718 234.446 153.936 234.399C155.672 234.338 157.329 233.928 158.741 233.289L159.078 233.136L159.094 233.504C159.175 235.353 159.488 237.07 160.134 238.459C160.761 239.859 161.734 240.857 162.685 241.45C163.637 242.052 164.539 242.25 165.149 242.296C165.761 242.34 166.101 242.276 166.107 242.316Z" fill="white"/>
<path d="M154.834 229.804C154.876 229.857 154.082 230.287 152.732 230.213C152.069 230.206 151.288 230.093 150.462 230.149C149.62 230.186 148.833 230.544 148.183 231.294C146.83 232.805 145.212 233.804 143.993 234.313C142.765 234.831 141.942 234.936 141.929 234.879C141.906 234.798 142.685 234.566 143.837 233.979C144.989 233.393 146.483 232.41 147.808 230.933C148.158 230.571 148.548 230.201 149.026 229.991C149.492 229.769 149.984 229.689 150.435 229.669C151.342 229.638 152.111 229.793 152.755 229.845C154.044 230.008 154.804 229.729 154.834 229.804Z" fill="white"/>
<path d="M150.246 234.665C150.368 234.706 149.467 236.758 147.408 238.51C145.363 240.281 143.199 240.859 143.177 240.732C143.115 240.583 145.114 239.812 147.069 238.115C149.042 236.441 150.108 234.582 150.246 234.665Z" fill="white"/>
<path d="M151.048 237.464C151.178 237.478 150.885 239.275 149.582 241.039C148.294 242.815 146.67 243.638 146.617 243.518C146.528 243.388 147.946 242.414 149.161 240.732C150.396 239.065 150.897 237.418 151.048 237.464Z" fill="white"/>
<path d="M218.295 199.003L198.37 234.956L167.445 234.424L165.121 252.996L197.033 260.82L210.173 246.393L218.295 199.003Z" fill="#E0E0E0"/>
<path d="M200.857 241.057C200.703 241.071 200.51 239.593 199.82 237.923C199.146 236.246 198.25 235.054 198.37 234.957C198.463 234.862 199.589 235.959 200.302 237.727C201.028 239.488 200.99 241.06 200.857 241.057Z" fill="#263238"/>
<path d="M225.872 135.367C223.351 135.702 220.725 133.893 220.139 131.419C219.552 128.944 221.088 126.15 223.491 125.318C221.89 123.736 221.448 121.103 222.445 119.085C223.441 117.068 225.802 115.819 228.031 116.129C228.083 113.908 229.37 111.755 231.303 110.659C233.235 109.563 235.744 109.562 237.677 110.657C240.091 108.508 244.046 108.357 246.618 110.314C248.768 109.876 251.141 110.981 252.19 112.909C253.238 114.837 252.876 117.43 251.339 118.996" fill="#263238"/>
<path d="M247.827 115.416L246.687 115.438C235.213 115.66 225.833 124.654 225.132 136.109C224.48 146.763 223.897 158.542 224.078 164.247C224.453 176.06 236.307 177.669 236.307 177.669L235.583 191.884L236.985 202.719L264.244 190.44L265.783 138.905C266.603 126.617 260.134 115.896 247.827 115.416Z" fill="white"/>
<path d="M236.209 177.653C236.209 177.653 243.763 177.961 251.604 172.822C251.604 172.822 247.942 181.971 236.131 181.136L236.209 177.653Z" fill="white"/>
<path d="M228.968 148.152C228.954 149.044 229.697 149.791 230.628 149.823C231.557 149.855 232.324 149.16 232.338 148.268C232.352 147.376 231.609 146.628 230.68 146.596C229.749 146.564 228.982 147.261 228.968 148.152Z" fill="#263238"/>
<path d="M227.784 141.84C227.997 142.056 229.257 141.085 231.073 141.055C232.886 140.998 234.237 141.907 234.43 141.681C234.525 141.58 234.304 141.187 233.716 140.776C233.137 140.366 232.154 139.976 231.023 140.003C229.892 140.031 228.949 140.466 228.41 140.903C227.86 141.342 227.679 141.744 227.784 141.84Z" fill="#263238"/>
<path d="M244.346 147.775C244.332 148.666 245.075 149.414 246.006 149.445C246.935 149.477 247.702 148.782 247.716 147.89C247.73 146.999 246.987 146.25 246.057 146.218C245.127 146.187 244.36 146.883 244.346 147.775Z" fill="#263238"/>
<path d="M245.639 141.833C245.853 142.049 247.114 141.078 248.929 141.048C250.742 140.992 252.093 141.9 252.286 141.674C252.381 141.574 252.162 141.181 251.571 140.77C250.992 140.36 250.01 139.97 248.879 139.997C247.748 140.025 246.805 140.46 246.266 140.897C245.718 141.335 245.535 141.737 245.639 141.833Z" fill="#263238"/>
<path d="M239.311 155.429C239.318 155.325 238.185 155.152 236.352 154.954C235.887 154.916 235.447 154.832 235.362 154.517C235.246 154.184 235.431 153.681 235.645 153.137C236.059 152.007 236.493 150.822 236.948 149.58C238.755 144.516 240.053 140.356 239.849 140.285C239.644 140.214 238.014 144.261 236.207 149.325C235.773 150.573 235.357 151.764 234.962 152.902C234.797 153.433 234.507 154.036 234.757 154.726C234.889 155.07 235.234 155.315 235.532 155.389C235.831 155.474 236.092 155.474 236.322 155.483C238.164 155.545 239.306 155.531 239.311 155.429Z" fill="#263238"/>
<path d="M243.929 134.877C244.177 135.333 245.724 134.803 247.639 134.704C249.551 134.562 251.173 134.892 251.339 134.41C251.41 134.181 251.062 133.774 250.364 133.418C249.672 133.063 248.625 132.798 247.477 132.869C246.33 132.942 245.341 133.335 244.719 133.774C244.092 134.214 243.818 134.66 243.929 134.877Z" fill="#263238"/>
<path d="M227.552 134.355C227.943 134.76 229.433 134.303 231.235 134.248C233.035 134.14 234.569 134.461 234.911 134.023C235.061 133.811 234.813 133.402 234.139 133.025C233.475 132.649 232.369 132.352 231.131 132.407C229.894 132.464 228.827 132.858 228.209 133.293C227.58 133.728 227.379 134.157 227.552 134.355Z" fill="#263238"/>
<path d="M226.164 130.668C226.164 130.668 229.137 123.207 232.672 121.411C236.951 119.237 238.903 123.943 242.997 122.713C247.091 121.483 251.176 119.396 255.445 122.497C260.117 125.891 258.007 128.376 258.393 133.614C259.958 154.848 263.956 160.784 264.867 150.75C264.967 149.652 267.994 148.72 268.355 144.077C268.823 138.056 268.913 130.754 267.489 126.515C266.289 122.942 264.191 120.499 260.463 117.832C254.578 113.622 246.607 113.684 241.206 114.333C235.804 114.982 225.491 121.413 226.164 130.668Z" fill="#263238"/>
<path d="M264.106 150.442C264.145 148.617 265.689 147.146 267.509 147.284C269.717 147.451 272.193 148.655 272.136 153.211C272.034 161.294 263.94 159.525 263.929 159.293C263.922 159.136 264.034 153.824 264.106 150.442Z" fill="white"/>
<path d="M265.726 156.275C265.762 156.25 265.866 156.376 266.102 156.487C266.332 156.596 266.731 156.675 267.154 156.522C268.012 156.219 268.748 154.873 268.805 153.416C268.835 152.681 268.689 151.978 268.436 151.395C268.197 150.8 267.82 150.383 267.391 150.301C266.964 150.197 266.657 150.45 266.555 150.676C266.444 150.901 266.493 151.063 266.45 151.076C266.427 151.096 266.278 150.938 266.347 150.605C266.382 150.445 266.48 150.255 266.671 150.103C266.867 149.948 267.153 149.871 267.452 149.907C268.075 149.958 268.629 150.538 268.907 151.178C269.22 151.822 269.4 152.611 269.367 153.437C269.295 155.066 268.442 156.579 267.269 156.902C266.699 157.043 266.227 156.866 265.984 156.672C265.738 156.471 265.698 156.29 265.726 156.275Z" fill="white"/>
<path d="M263.645 134.794C262.61 135.53 261.516 136.291 260.254 136.44C258.992 136.59 257.533 135.892 257.295 134.643C257.188 134.082 257.313 133.427 256.935 133C256.484 132.49 255.673 132.668 254.997 132.753C252.653 133.048 249.859 130.507 249.216 128.233C248.635 129.142 247.328 129.438 246.41 128.871C245.492 128.304 245.155 127.977 244.43 127.179C243.705 126.38 242.695 125.673 241.63 125.845C241.034 125.941 240.482 126.308 239.881 126.266C238.818 126.192 238.276 124.96 238.095 123.91C237.914 122.86 237.765 121.634 236.856 121.079C236.013 120.565 234.94 120.892 233.966 121.055C232.992 121.218 231.727 121.013 231.458 120.063C231.317 119.565 231.522 119.033 231.791 118.591C233.01 116.586 235.736 115.653 237.929 116.491C238.667 113.806 241.124 111.68 243.887 111.335C246.65 110.989 249.554 112.444 250.932 114.864C252.609 113.282 255.078 112.584 257.335 113.053C259.593 113.522 261.578 115.146 262.487 117.265C264.442 116.71 266.697 117.427 267.973 119.008C269.249 120.59 269.472 122.945 268.516 124.738C269.984 125.539 271.255 126.958 271.318 128.63C271.381 130.301 269.784 131.999 268.162 131.59C268.839 132.879 268.343 134.656 267.096 135.408C265.848 136.16 264.045 135.769 263.221 134.568" fill="#263238"/>
<path d="M237.376 118.881C237.369 118.882 237.371 118.932 237.381 119.029C237.394 119.126 237.402 119.273 237.441 119.459C237.522 119.831 237.683 120.38 238.058 121.004C238.435 121.619 239.014 122.326 239.886 122.879C240.741 123.44 241.907 123.855 243.213 123.759L243.073 123.583C242.836 124.279 242.92 125.107 243.278 125.81C243.618 126.526 244.144 127.156 244.699 127.77C244.983 128.064 245.231 128.412 245.621 128.68C246 128.937 246.451 129.081 246.91 129.13C247.823 129.229 248.846 128.927 249.492 128.148L249.188 128.067C249.425 129.669 250.369 131.258 251.839 132.21C252.618 132.75 253.575 133.071 254.509 133.028C255.444 133.001 256.308 132.71 257.112 132.403L256.894 132.312C257.348 133.308 258.031 134.151 258.854 134.768C259.661 135.384 260.729 135.734 261.683 135.48C263.582 135.04 264.816 133.429 265.042 131.931L264.861 132.02C265.817 132.517 266.833 132.547 267.645 132.374C268.468 132.207 269.109 131.836 269.564 131.473C270.021 131.103 270.288 130.728 270.447 130.468C270.593 130.199 270.653 130.05 270.644 130.046C270.603 130.013 270.388 130.665 269.48 131.365C269.027 131.7 268.399 132.04 267.607 132.181C266.825 132.33 265.862 132.279 264.979 131.802L264.826 131.719L264.797 131.891C264.568 133.289 263.379 134.792 261.617 135.18C260.752 135.401 259.814 135.087 259.048 134.505C258.279 133.923 257.627 133.11 257.206 132.174L257.139 132.026L256.988 132.083C256.196 132.382 255.362 132.655 254.498 132.678C253.634 132.713 252.775 132.428 252.033 131.916C250.644 131.016 249.758 129.529 249.526 128.013L249.468 127.632L249.222 127.933C248.677 128.6 247.762 128.887 246.942 128.8C246.53 128.758 246.13 128.632 245.799 128.41C245.477 128.198 245.218 127.854 244.93 127.558C244.375 126.955 243.864 126.349 243.541 125.683C243.201 125.025 243.124 124.298 243.326 123.668L243.388 123.474L243.185 123.492C241.955 123.599 240.832 123.224 239.997 122.699C239.145 122.182 238.567 121.512 238.182 120.926C237.426 119.717 237.433 118.861 237.376 118.881Z" fill="#455A64"/>
<path d="M239.826 161.633C239.866 161.331 241.861 161.707 243.602 160.271C245.348 158.838 245.53 156.668 245.811 156.706C245.942 156.702 246.108 157.254 245.961 158.156C245.823 159.042 245.295 160.274 244.23 161.153C243.163 162.029 241.919 162.255 241.088 162.167C240.239 162.084 239.788 161.767 239.826 161.633Z" fill="#263238"/>
<path d="M182.241 276.021L197.627 259.051L210.494 220.166C213.121 213.42 215.376 204.855 218.558 198.458C220.124 195.312 222.762 192.831 225.973 191.404L231.436 188.978L234.703 183.764C232.821 195.557 249.349 197.009 266.915 182.368C266.915 182.368 272.718 186.294 280.897 193.077C284.478 196.047 287.725 199.292 289.079 204.194C291.536 213.094 280.975 239.433 269.476 264.211C266.036 271.623 249.653 304.835 249.653 304.835L243.756 309.132C243.756 309.132 191.621 293.336 186.931 284.679C182.241 276.021 182.241 276.021 182.241 276.021Z" fill="#E0E0E0"/>
<path d="M190.777 265.903C190.765 265.89 190.915 265.716 191.213 265.394C191.551 265.038 191.991 264.576 192.538 264.001C193.748 262.762 195.431 261.041 197.499 258.923L197.455 258.994C198.418 256.03 199.57 252.489 200.851 248.545C202.176 244.597 203.519 240.214 204.876 235.58C207.504 226.494 209.991 218.276 212.288 212.502C213.402 209.604 214.448 207.317 215.182 205.745C215.552 205.007 215.85 204.414 216.078 203.959C216.288 203.553 216.406 203.344 216.422 203.352C216.438 203.36 216.352 203.584 216.173 204.004C215.967 204.469 215.7 205.075 215.367 205.829C214.691 207.424 213.7 209.726 212.633 212.633C210.431 218.424 208.007 226.634 205.376 235.727C204.019 240.36 202.655 244.76 201.305 248.695C199.982 252.625 198.793 256.155 197.798 259.108L197.784 259.15L197.754 259.179C195.637 261.248 193.916 262.931 192.677 264.141C192.102 264.688 191.64 265.128 191.284 265.466C190.964 265.765 190.789 265.915 190.777 265.903Z" fill="#263238"/>
<path d="M238.643 201.144L220.612 275.065L201.883 284.379V266.296L234.293 199.537L238.643 201.144Z" fill="#407BFF"/>
<g opacity="0.3">
<path d="M204.156 268.409C209.268 270.332 213.872 273.376 218.388 276.45C222.903 279.524 227.417 282.675 232.427 284.852C237.437 287.029 243.051 288.189 248.4 287.086C253.75 285.983 258.746 282.329 260.509 277.159L204.156 268.409Z" fill="black"/>
</g>
<path d="M231.438 188.748L236.046 181.691L237.855 191.36L242.448 186.163L265.237 175.503L269.192 183.974L244.013 198.864L237.03 198.344L231.938 192.301L231.438 188.748Z" fill="#E0E0E0"/>
<path d="M231.437 188.749C231.496 188.743 231.596 189.287 231.782 190.207C232.011 191.31 232.269 192.555 232.555 193.934L232.099 193.866C232.49 193.15 232.906 192.388 233.34 191.595C234.028 190.378 234.673 189.236 235.26 188.197L235.506 187.761L235.669 188.225C236.073 189.377 236.288 190.349 236.47 191.024C236.641 191.7 236.748 192.085 236.702 192.104C236.658 192.122 236.465 191.763 236.218 191.104C235.962 190.45 235.679 189.483 235.248 188.388L235.657 188.416C235.089 189.465 234.463 190.618 233.797 191.847C233.355 192.636 232.93 193.393 232.531 194.104L232.204 194.687L232.075 194.036C231.468 190.985 231.313 188.759 231.437 188.749Z" fill="#263238"/>
<path d="M239.106 192.313L236.205 191.959C235.419 192.842 233.497 194.661 232.711 195.545L232.717 195.626C233.06 197.561 233.404 199.495 233.747 201.43C235.368 201.351 237 201.482 238.588 201.819C239.556 200.12 240.287 198.839 241.255 197.14L239.106 192.313Z" fill="#407BFF"/>
<path d="M244.058 301.349C243.998 301.402 243.146 300.493 241.718 299.082C240.291 297.671 238.262 295.781 235.876 293.866C233.486 291.955 231.199 290.387 229.51 289.303C227.822 288.217 226.749 287.585 226.787 287.515C226.804 287.483 227.092 287.605 227.6 287.852C228.109 288.096 228.829 288.483 229.702 288.989C231.45 289.999 233.791 291.532 236.201 293.46C238.607 295.391 240.615 297.341 241.982 298.826C242.667 299.568 243.201 300.186 243.551 300.629C243.903 301.071 244.085 301.326 244.058 301.349Z" fill="#263238"/>
<path d="M239.333 192.909L242.553 191.323L243.645 196.961L240.962 197.199L239.333 192.909Z" fill="#407BFF"/>
<path opacity="0.3" d="M242.114 189.053V201.821L265.852 186.142L243.761 199.004L242.114 189.053Z" fill="black"/>
<path d="M269.192 183.975C269.212 184.005 268.721 184.374 267.812 185.017C266.895 185.647 265.553 186.537 263.847 187.562C260.456 189.647 255.589 192.199 250.343 195.213C248.126 196.499 246.034 197.792 244.152 199.068L243.84 199.279L243.772 198.912C243.052 195.013 242.427 191.63 241.957 189.084L242.224 189.168C241.197 190.125 240.361 190.905 239.719 191.503C239.131 192.038 238.805 192.315 238.784 192.293C238.763 192.272 239.049 191.953 239.599 191.38C240.214 190.755 241.016 189.94 242.001 188.939L242.209 188.728L242.269 189.023C242.783 191.561 243.466 194.933 244.253 198.819L243.873 198.663C245.757 197.363 247.856 196.054 250.08 194.763C255.346 191.739 260.23 189.243 263.659 187.246C265.383 186.264 266.751 185.424 267.7 184.848C268.642 184.258 269.172 183.946 269.192 183.975Z" fill="#263238"/>
<path d="M236.24 193.039L234.909 189.779L232.712 193.816L233.653 195.279L236.24 193.039Z" fill="#407BFF"/>
<path d="M239.881 192.567C239.993 192.671 238.404 194.508 236.696 196.954C234.978 199.394 233.793 201.514 233.658 201.444C233.536 201.387 234.527 199.131 236.27 196.655C238.003 194.173 239.785 192.472 239.881 192.567Z" fill="#263238"/>
<path d="M238.268 201.917C238.231 202.059 237.142 201.895 235.811 201.673C234.48 201.447 233.397 201.245 233.409 201.099C233.419 200.958 234.541 200.93 235.897 201.16C237.254 201.386 238.304 201.781 238.268 201.917Z" fill="#263238"/>
<path d="M118.605 247.895L103.583 205.436C103.296 204.521 103.856 203.556 104.793 203.352L139.493 194.288C140.359 194.097 141.229 194.592 141.507 195.434L157.295 243.264L206.262 275.427L203.909 277.829L191.382 274.776L118.605 247.895Z" fill="#455A64"/>
<path d="M203.911 277.829C203.906 277.836 203.82 277.789 203.658 277.69C203.472 277.573 203.237 277.424 202.944 277.238C202.291 276.811 201.382 276.216 200.227 275.46C197.847 273.876 194.46 271.62 190.288 268.842C181.896 263.193 170.355 255.425 157.607 246.844C156.719 246.244 155.836 245.647 155.014 245.091L154.941 245.041L154.913 244.958C150.301 231.043 146.17 218.578 143.177 209.549C141.718 205.071 140.537 201.447 139.708 198.902C139.319 197.673 139.013 196.706 138.792 196.01C138.7 195.701 138.625 195.453 138.566 195.255C138.518 195.084 138.497 194.995 138.505 194.993C138.513 194.99 138.55 195.074 138.614 195.239C138.686 195.432 138.775 195.676 138.887 195.978C139.129 196.667 139.465 197.624 139.892 198.84C140.758 201.372 141.991 204.979 143.515 209.436C146.547 218.452 150.732 230.899 155.404 244.794L155.303 244.661C156.126 245.217 157.008 245.813 157.897 246.414C170.612 255.044 182.123 262.857 190.493 268.538C194.626 271.374 197.982 273.676 200.34 275.293C201.472 276.083 202.363 276.705 203.002 277.152C203.283 277.355 203.509 277.518 203.687 277.646C203.841 277.759 203.916 277.821 203.911 277.829Z" fill="#263238"/>
<path d="M124.594 246.989C124.587 246.845 131.411 246.406 139.834 246.008C148.26 245.61 155.094 245.404 155.1 245.547C155.107 245.691 148.284 246.13 139.858 246.528C131.436 246.926 124.601 247.132 124.594 246.989Z" fill="#263238"/>
<path d="M130.126 222.753C130.731 224.679 130.391 226.5 129.367 226.822C128.343 227.144 127.023 225.843 126.418 223.917C125.813 221.991 126.153 220.17 127.177 219.848C128.201 219.527 129.521 220.827 130.126 222.753Z" fill="#E0E0E0"/>
<path d="M172.885 237.894C172.885 237.894 171.589 238.538 171.387 236.471C171.208 234.637 175.609 231.922 177.256 230.904C178.903 229.885 182.377 230.586 184.149 230.816C186.543 231.127 192.12 233.624 193.893 235.751C195.694 237.912 196.929 243.439 197.584 243.962C198.239 244.485 220.411 253.208 220.411 253.208L215.364 270.772C215.364 270.772 195.011 261.788 191.405 258.175C187.799 254.562 188.595 253.64 187.966 250.902C187.337 248.165 186.654 245.255 186.654 245.255L184.738 244.463L181.134 245.487C181.134 245.487 180.694 246.856 179.765 247.925C178.656 249.202 176.647 249.146 175.531 247.875C175.531 247.875 173.702 248.511 172.81 246.446C172.445 245.6 172.708 244.313 172.708 244.313C172.708 244.313 171.069 244.635 171.056 242.593C171.043 240.401 172.885 237.894 172.885 237.894Z" fill="white"/>
<path d="M184.43 240.218C184.427 240.304 183.686 240.277 182.545 240.527C181.413 240.768 179.871 241.361 178.544 242.528C177.218 243.697 176.437 245.153 176.055 246.246C175.664 247.346 175.597 248.085 175.512 248.077C175.455 248.077 175.388 247.315 175.704 246.136C176.01 244.968 176.785 243.386 178.2 242.138C179.616 240.891 181.282 240.321 182.479 240.165C183.69 239.999 184.438 240.162 184.43 240.218Z" fill="white"/>
<path d="M182.772 236.451C182.763 236.544 181.965 236.41 180.744 236.694C179.529 236.961 177.931 237.744 176.567 239.083C175.202 240.429 174.274 241.938 173.6 243.017C172.932 244.105 172.511 244.781 172.445 244.745C172.385 244.712 172.688 243.978 173.28 242.834C173.878 241.702 174.774 240.121 176.204 238.71C177.639 237.299 179.372 236.517 180.675 236.332C181.988 236.129 182.79 236.404 182.772 236.451Z" fill="white"/>
<path d="M182.45 232.332C182.44 232.419 181.752 232.325 180.686 232.522C179.622 232.706 178.2 233.256 176.865 234.236C175.527 235.219 174.497 236.349 173.743 237.155C172.993 237.968 172.515 238.467 172.458 238.419C172.405 238.375 172.779 237.797 173.463 236.916C174.151 236.044 175.16 234.844 176.558 233.816C177.959 232.786 179.499 232.255 180.634 232.158C181.777 232.047 182.465 232.278 182.45 232.332Z" fill="white"/>
<path d="M277.073 192.443C283.306 193.661 287.364 199.138 288.632 205.987C290.431 215.701 268.161 261.613 264.011 271.636C259.639 282.196 249.967 284.504 244.335 284.373C238.703 284.243 199.237 265.732 199.237 265.732L205.023 245.704L240.091 256.115L253.988 217.015" fill="#E0E0E0"/>
<path d="M253.99 217.016C253.99 217.016 253.925 217.256 253.771 217.714C253.609 218.188 253.378 218.864 253.078 219.745C252.451 221.544 251.537 224.166 250.362 227.539C247.975 234.316 244.529 244.096 240.273 256.179L240.213 256.348L240.04 256.297C229.962 253.319 218.05 249.8 204.958 245.932L205.254 245.77C203.409 252.174 201.479 258.873 199.482 265.802L199.347 265.504C208.558 269.781 218.417 274.269 228.694 278.594C232.868 280.325 237.004 282.05 241.182 283.381L242.754 283.832C243.277 283.968 243.796 284.013 244.316 284.112C245.392 284.129 246.472 284.077 247.534 283.932C249.664 283.669 251.729 283.063 253.648 282.199C257.49 280.467 260.67 277.509 262.603 273.937C263.584 272.172 264.303 270.258 265.135 268.427C265.959 266.595 266.773 264.785 267.577 262.996C274.056 248.717 279.8 235.809 283.919 224.694C285.946 219.137 287.702 214.035 288.416 209.396C288.566 208.239 288.659 207.104 288.502 206.044C288.295 204.977 288.057 203.954 287.733 203.005C287.11 201.098 286.277 199.445 285.336 198.092C283.447 195.36 281.164 193.964 279.589 193.279C278.79 192.939 278.156 192.731 277.722 192.629C277.29 192.515 277.071 192.443 277.071 192.443C277.071 192.443 277.297 192.479 277.735 192.577C278.175 192.663 278.818 192.854 279.63 193.182C281.231 193.841 283.562 195.226 285.501 197.975C286.466 199.336 287.323 201.003 287.967 202.927C288.302 203.886 288.549 204.917 288.766 205.996C288.939 207.109 288.848 208.261 288.703 209.436C288.008 214.131 286.271 219.244 284.263 224.821C280.181 235.97 274.468 248.902 268.012 263.193C267.211 264.982 266.4 266.793 265.58 268.624C264.753 270.447 264.044 272.353 263.034 274.179C261.062 277.836 257.793 280.886 253.856 282.663C251.889 283.55 249.776 284.171 247.598 284.442C246.51 284.591 245.407 284.644 244.299 284.627C243.744 284.529 243.165 284.474 242.627 284.333L241.027 283.875C236.804 282.531 232.673 280.808 228.49 279.073C218.2 274.743 208.343 270.249 199.129 265.96L198.934 265.869L198.994 265.661C201 258.735 202.939 252.039 204.793 245.637L204.86 245.406L205.09 245.475C218.172 249.378 230.073 252.928 240.144 255.933L239.911 256.051C244.235 243.992 247.735 234.231 250.16 227.468C251.377 224.11 252.323 221.499 252.972 219.708C253.295 218.835 253.542 218.165 253.716 217.695C253.889 217.243 253.99 217.016 253.99 217.016Z" fill="#263238"/>
<path d="M245.69 270.807C245.528 270.836 244.991 267.319 243.428 263.258C241.892 259.185 239.953 256.203 240.092 256.117C240.146 256.081 240.7 256.781 241.452 258.011C242.204 259.239 243.128 261.014 243.914 263.073C244.697 265.132 245.188 267.072 245.444 268.489C245.703 269.906 245.755 270.798 245.69 270.807Z" fill="#263238"/>
<path d="M274.646 192.529C274.677 192.62 273.355 193.045 271.373 194.047C270.379 194.541 269.24 195.216 268.03 196.041C266.834 196.886 265.574 197.894 264.359 199.069C263.155 200.257 262.119 201.494 261.246 202.67C260.393 203.861 259.692 204.983 259.175 205.966C258.128 207.925 257.672 209.236 257.582 209.203C257.548 209.191 257.638 208.857 257.832 208.259C258.016 207.658 258.359 206.812 258.847 205.798C259.329 204.78 260.008 203.618 260.855 202.39C261.722 201.177 262.768 199.907 263.994 198.696C265.232 197.498 266.527 196.482 267.759 195.644C269.006 194.826 270.183 194.173 271.212 193.715C272.237 193.25 273.09 192.927 273.696 192.757C274.299 192.577 274.635 192.494 274.646 192.529Z" fill="#263238"/>
<path d="M55.8417 336.569L36.8896 312.884C36.8896 312.884 110.203 252.486 117.134 248.172C122.383 244.905 133.052 240.567 143.153 243.961C153.253 247.355 170.351 259.168 176.654 263C182.957 266.832 237.827 300.818 243.758 309.132C243.758 309.132 231.819 330.729 224.001 334.35C217.878 337.186 200.226 332.952 189.913 326.682C179.599 320.412 132.281 279.888 132.281 279.888L55.8417 336.569Z" fill="#263238"/>
<path d="M62.9023 364.335L88.5063 382.727L137.779 302.429L187.529 325.098L154.076 269.205C154.076 269.205 127.096 269.522 122.855 269.045C117.415 268.433 107.483 277.02 102.061 287.503C97.3493 296.614 62.9023 364.335 62.9023 364.335Z" fill="#263238"/>
<path d="M171.425 318.479C171.322 318.579 160.086 307.117 146.334 292.881C132.577 278.64 121.512 267.018 121.615 266.918C121.718 266.818 132.951 278.278 146.708 292.519C160.461 306.755 171.529 318.38 171.425 318.479Z" fill="#455A64"/>
<path opacity="0.3" d="M77.2871 320.666C77.2871 320.666 99.3331 279.461 109.717 276.718C109.717 276.718 94.6951 297.075 89.6671 311.486L77.2871 320.666Z" fill="black"/>
<path d="M126.31 271.797C126.291 271.867 125.31 271.402 123.415 271.244C121.538 271.061 118.717 271.386 115.673 272.891C112.61 274.363 109.595 277.191 106.942 280.81C104.303 284.451 101.653 288.66 99.1188 293.197C94.1178 302.33 90.2608 310.958 87.1838 317.06C85.6718 320.125 84.3788 322.571 83.4748 324.255C83.0268 325.054 82.6688 325.693 82.3988 326.175C82.1478 326.611 82.0078 326.836 81.9918 326.827C81.9758 326.818 82.0848 326.577 82.3058 326.125C82.5538 325.632 82.8828 324.978 83.2948 324.161C84.1428 322.45 85.3838 319.982 86.8518 316.899C89.8408 310.761 93.6438 302.11 98.6618 292.945C101.21 288.384 103.873 284.18 106.556 280.523C109.253 276.885 112.359 274.021 115.51 272.561C118.636 271.068 121.529 270.794 123.432 271.043C125.356 271.267 126.31 271.797 126.31 271.797Z" fill="#455A64"/>
<path d="M75.4675 349.418L61.4425 375.264C61.4425 375.264 30.1755 371.57 27.3975 376.271L78.2045 402.247L99.2915 361.517L75.4675 349.418Z" fill="#263238"/>
<path d="M78.2787 381.095C80.3477 382.963 77.5887 386.262 75.4307 384.445C73.1267 382.366 76.4167 379.01 78.4347 381.255" fill="#E0E0E0"/>
<path d="M78.2045 402.247L80.1695 398.058L30.7215 374.719C30.7215 374.719 27.9565 374.547 27.3975 376.271L78.2045 402.247Z" fill="#455A64"/>
<path d="M60.7515 374.584C60.6325 374.836 61.8155 375.583 62.6285 377.005C63.4785 378.406 63.5585 379.802 63.8365 379.821C65.2555 378.959 62.1855 373.758 60.7515 374.584Z" fill="white"/>
<path d="M54.295 374.064C54.115 374.276 54.9741 375.247 55.2801 376.727C55.6291 378.198 55.2621 379.441 55.5151 379.556C57.1441 379.223 55.906 373.673 54.295 374.064Z" fill="white"/>
<path d="M48.0078 378.894C49.3778 379.071 49.5818 373.571 48.2058 373.65C48.2718 373.818 48.0818 378.736 48.0078 378.894Z" fill="white"/>
<path d="M64.2607 368.825C64.4397 368.816 69.2997 371.674 69.3747 371.823C70.1567 370.659 64.8897 367.574 64.2607 368.825Z" fill="white"/>
<path d="M56.3924 303.348L32.3594 320.293C32.3594 320.293 5.97441 303.115 1.39941 306.096L35.4154 351.911L71.4634 323.531L56.3924 303.348Z" fill="#263238"/>
<path d="M44.8637 332.985C45.8897 335.577 41.9537 337.31 40.8257 334.724C39.6827 331.839 44.1197 330.291 44.9327 333.198" fill="#E0E0E0"/>
<path d="M35.4154 351.911L39.0344 349.028L5.06642 306.179C5.06642 306.179 2.66441 304.798 1.39941 306.096L35.4154 351.911Z" fill="#455A64"/>
<path d="M32.0415 319.377C31.8235 319.55 32.5525 320.745 32.6505 322.379C32.7915 324.012 32.2435 325.298 32.4845 325.439C34.1385 325.296 33.6935 319.272 32.0415 319.377Z" fill="white"/>
<path d="M26.4861 316.047C26.2311 316.157 26.5701 317.408 26.1881 318.871C25.8491 320.344 24.9681 321.296 25.1441 321.511C26.7511 321.934 28.1031 316.411 26.4861 316.047Z" fill="white"/>
<path d="M18.708 317.588C19.857 318.355 22.479 313.515 21.211 312.975C21.195 313.155 18.844 317.478 18.708 317.588Z" fill="white"/>
<path opacity="0.3" d="M167.662 314.584C167.662 314.584 139.642 293.254 132.961 285.032C126.37 276.921 122.856 269.045 122.856 269.045L167.662 314.584Z" fill="black"/>
</g>
<defs>
<clipPath id="clip0_83_1018">
<rect width="439" height="446" fill="white"/>
</clipPath>
</defs>
</svg>
