<svg width="142" height="14" viewBox="0 0 142 14" fill="none" xmlns="http://www.w3.org/2000/svg">
<g clip-path="url(#clip0_19_2)">
<path d="M16.6055 0.39209V12.7342H14.5331V1.05104L15.2085 1.08399L9.46579 12.7342H7.14629L1.40026 1.10046L2.07569 1.06751V12.7342H0V0.39209H3.32439L8.85297 11.7952H7.7657L13.2811 0.39209H16.6055Z" fill="#242424"/>
<path d="M46.4067 11.4196L45.5172 11.5184V0.39209H47.6225V12.7342H44.8582L36.2029 1.61114L37.076 1.5123V12.7342H34.9707V0.39209H37.8009L46.4067 11.4163V11.4196Z" fill="#242424"/>
<path d="M53.056 6.5635L52.1829 12.0756L51.1451 10.8565H60.7229V12.7313H49.959L50.9474 6.56021L49.959 0.38916H60.6405V2.26387H51.1451L52.1829 1.04481L53.056 6.55691V6.5635ZM60.2485 5.65745V7.46626H51.6261V5.65745H60.2485Z" fill="#242424"/>
<path d="M61.6445 0.39209H74.0196V2.29974H61.6445V0.39209ZM66.7448 1.39699H68.916V12.7342H66.7448V1.39699Z" fill="#242424"/>
<path d="M80.8836 0.39209L86.8075 12.7342H84.488L79.1077 1.21577H79.9479L74.5675 12.7342H72.248L78.1687 0.39209H80.8836ZM75.1573 9.90401V8.11167H83.7796V9.90401H75.1573Z" fill="#242424"/>
<path d="M87.498 12.7342V11.0736L96.6146 1.47935L98.0149 2.2042H87.5639V0.39209H98.8682V2.03946L89.7352 11.6667L88.5326 10.9254H98.9176V12.7342H87.498Z" fill="#242424"/>
<path d="M107.065 12.965C105.662 12.965 104.426 12.6948 103.362 12.1578C102.298 11.6207 101.471 10.8728 100.878 9.91076C100.285 8.95199 99.9883 7.83507 99.9883 6.5633C99.9883 5.29153 100.285 4.17461 100.878 3.21585C101.471 2.25708 102.298 1.50587 103.362 0.968832C104.426 0.43179 105.662 0.161621 107.065 0.161621C108.469 0.161621 109.704 0.43179 110.769 0.968832C111.833 1.50587 112.66 2.25378 113.253 3.21585C113.846 4.17461 114.142 5.29153 114.142 6.5633C114.142 7.83507 113.846 8.95199 113.253 9.91076C112.66 10.8695 111.833 11.6207 110.769 12.1578C109.704 12.6948 108.469 12.965 107.065 12.965ZM107.065 11.0244C108.064 11.0244 108.924 10.8432 109.648 10.4807C110.373 10.1183 110.933 9.60435 111.335 8.93222C111.734 8.26339 111.935 7.47265 111.935 6.5633C111.935 5.65395 111.734 4.86321 111.335 4.19438C110.933 3.52555 110.373 3.00828 109.648 2.64585C108.924 2.28343 108.064 2.10222 107.065 2.10222C106.067 2.10222 105.22 2.28343 104.489 2.64585C103.761 3.00828 103.194 3.52226 102.795 4.19438C102.393 4.86321 102.196 5.65395 102.196 6.5633C102.196 7.47265 102.397 8.26339 102.795 8.93222C103.194 9.60105 103.761 10.1183 104.489 10.4807C105.217 10.8432 106.077 11.0244 107.065 11.0244Z" fill="#242424"/>
<path d="M127.684 11.4196L126.795 11.5184V0.39209H128.9V12.7342H126.136L117.48 1.61114L118.353 1.5123V12.7342H116.248V0.39209H119.078L127.684 11.4163V11.4196Z" fill="#242424"/>
<path d="M134.333 6.5635L133.46 12.0756L132.422 10.8565H142V12.7313H131.236L132.225 6.56021L131.236 0.38916H141.918V2.26387H132.422L133.46 1.04481L134.333 6.55691V6.5635ZM141.526 5.65745V7.46626H132.903V5.65745H141.526Z" fill="#242424"/>
<path d="M23.3103 2.01318C21.6432 2.01318 20.2891 3.36732 20.2891 5.03446H33.3824C33.3824 3.36732 32.0282 2.01318 30.3611 2.01318H23.3103ZM20.2891 10.0688V6.03936H33.3824V10.0688C33.3824 11.736 32.0282 13.0901 30.3611 13.0901H23.3103C21.6432 13.0901 20.2891 11.736 20.2891 10.0688ZM22.8062 10.0688C22.5295 10.0688 22.3021 10.2929 22.3021 10.5729C22.3021 10.853 22.5262 11.077 22.8062 11.077H24.8193C25.0961 11.077 25.3234 10.853 25.3234 10.5729C25.3234 10.2929 25.0994 10.0688 24.8193 10.0688H22.8062Z" fill="#407BFF"/>
<path fill-rule="evenodd" clip-rule="evenodd" d="M18.2767 3.02128C18.2767 1.35414 19.6309 0 21.298 0H28.3488C29.3734 0 30.2762 0.50739 30.8231 1.28824C30.6715 1.26848 30.52 1.26189 30.3618 1.26189H23.3111C21.2255 1.26189 19.5353 2.95209 19.5353 5.03766V10.072C19.5353 10.2269 19.5452 10.3817 19.5617 10.5333C18.7841 9.98636 18.2734 9.0836 18.2734 8.05893V3.02457L18.2767 3.02128Z" fill="#407BFF"/>
</g>
<defs>
<clipPath id="clip0_19_2">
<rect width="142" height="14" fill="white"/>
</clipPath>
</defs>
</svg>
