<svg width="428" height="400" viewBox="0 0 428 400" fill="none" xmlns="http://www.w3.org/2000/svg">
<g clip-path="url(#clip0_168_744)">
<path d="M213.999 399.771C332.45 399.771 428.473 344.342 428.473 275.966C428.473 207.591 332.45 152.161 213.999 152.161C95.5485 152.161 -0.474609 207.591 -0.474609 275.966C-0.474609 344.342 95.5485 399.771 213.999 399.771Z" fill="#F5F5F5"/>
<path d="M355.768 332.021C385.383 332.021 409.39 318.161 409.39 301.063C409.39 283.965 385.383 270.104 355.768 270.104C326.154 270.104 302.146 283.965 302.146 301.063C302.146 318.161 326.154 332.021 355.768 332.021Z" fill="#E0E0E0"/>
<path d="M163.799 367.956L30.7796 291.157C28.5969 289.897 28.5969 287.854 30.7796 286.593L223.085 175.566C225.268 174.306 228.806 174.306 230.989 175.566L363.974 252.345C366.157 253.605 366.157 255.649 363.974 256.909L171.703 367.955C169.521 369.216 165.982 369.217 163.799 367.956Z" fill="#E0E0E0"/>
<path d="M382.832 283.31C381.686 275.445 384.618 245.476 391.289 234.074C397.962 222.671 409.041 210.694 418.611 212.484C427.524 214.15 428.228 225.421 419.005 234.304C409.781 243.186 395.651 254.716 392.983 268.134L385.714 290.977L382.832 283.31Z" fill="#407BFF"/>
<path opacity="0.1" d="M382.832 283.31C381.686 275.445 384.618 245.476 391.289 234.074C397.962 222.671 409.041 210.694 418.611 212.484C427.524 214.15 428.228 225.421 419.005 234.304C409.781 243.186 395.651 254.716 392.983 268.134L385.714 290.977L382.832 283.31Z" fill="black"/>
<path d="M384.966 280.842C385.212 280.777 385.394 280.555 385.398 280.29C385.81 252.644 403.486 227.039 415.547 219.907C415.823 219.744 415.914 219.387 415.751 219.112C415.59 218.837 415.238 218.739 414.955 218.908C402.665 226.175 384.654 252.208 384.236 280.273C384.231 280.594 384.487 280.856 384.808 280.862C384.864 280.863 384.916 280.856 384.966 280.842Z" fill="white"/>
<path d="M389.29 295.271C389.909 290.666 393.13 282.718 400.419 274.853C409.345 265.221 424.171 259.924 426.234 254.325C428.711 247.598 423.058 243.006 413.426 246.067C400.475 250.184 386.03 266.351 386.215 287.145L389.29 295.271Z" fill="#407BFF"/>
<path d="M386.692 290.912C386.907 290.863 387.084 290.692 387.132 290.46C392.01 266.259 411.548 253.224 419.522 250.984C419.83 250.897 420.01 250.576 419.924 250.268C419.838 249.958 419.529 249.777 419.209 249.865C410.391 252.342 390.974 265.528 385.994 290.231C385.931 290.545 386.135 290.852 386.449 290.915C386.532 290.933 386.615 290.93 386.692 290.912Z" fill="white"/>
<path d="M117.365 22.3632L110.266 26.4621C110.301 26.1452 110.325 25.8302 110.325 25.5227V23.4657C110.325 19.8058 107.756 18.322 104.586 20.1525C103.302 20.8934 102.122 22.0677 101.166 23.4415C100.647 18.8393 97.036 17.1253 92.65 19.6566C87.908 22.3949 84.0645 29.0521 84.0645 34.5276V37.6042C84.0645 39.0227 84.3273 40.2166 84.7914 41.1691L78.8946 44.5737C77.1369 45.5886 75.7109 48.0575 75.7109 50.0874C75.7109 52.1173 77.136 52.9402 78.8946 51.9253L117.364 29.7148C119.123 28.6998 120.548 26.231 120.548 24.2011C120.549 22.1703 119.123 21.3473 117.365 22.3632Z" fill="#E6E6E6"/>
<path d="M27.7267 31.5212L31.643 28.5053V19.8787C31.643 13.0397 37.098 5.10184 43.0208 1.68233C48.9437 -1.73718 53.7444 1.03552 53.7444 7.8736V9.12621C55.0884 7.03853 56.8238 5.24257 58.7213 4.14653C62.9834 1.68605 66.4383 3.68054 66.4383 8.6015V9.17095L71.8979 6.01892C74.7051 4.39818 76.9801 5.7123 76.9801 8.95286C76.9801 12.1934 74.7051 16.1348 71.8979 17.7547L27.7267 43.257C24.9205 44.8768 22.6445 43.5636 22.6445 40.323C22.6445 37.0825 24.9195 33.1411 27.7267 31.5212Z" fill="#E6E6E6"/>
<path d="M38.9883 280.59C38.9883 283.167 40.9175 286.369 43.296 287.742L163.983 357.42C166.361 358.794 170.219 358.794 172.597 357.42L351.458 254.165C353.837 252.791 355.766 249.589 355.766 247.013C355.766 244.436 353.837 241.233 351.459 239.86L230.772 170.182C228.394 168.808 224.536 168.808 222.158 170.182L43.2951 273.438C40.9166 274.81 38.9883 278.014 38.9883 280.59Z" fill="#37474F"/>
<path d="M168.293 349.127V358.448C166.731 358.448 165.17 358.11 163.986 357.424L43.295 287.743C40.9175 286.37 38.9883 283.167 38.9883 280.591C38.9883 278.173 40.6892 275.209 42.8579 273.717C40.9278 275.1 41.0778 277.129 43.296 278.413L163.987 348.094C165.169 348.78 166.731 349.127 168.293 349.127Z" fill="#263238"/>
<path d="M34.9474 273.591C32.7162 272.303 30.9072 269.032 30.9072 266.285L30.9062 122.263C30.9062 119.517 32.8346 116.176 35.213 114.803L214.075 11.5474C216.453 10.1736 220.192 10.1046 222.423 11.3936C224.655 12.6816 226.464 15.9529 226.464 18.7005V162.722C226.464 165.469 224.536 168.809 222.157 170.183L43.2953 273.438C40.9169 274.81 37.1795 274.88 34.9474 273.591Z" fill="#455A64"/>
<path d="M42.7866 273.698C40.4091 274.811 37.0269 274.792 34.9485 273.588C32.7201 272.304 30.9102 269.032 30.9102 266.286V122.26C30.9102 120.887 31.3873 119.365 32.173 118.022L40.2507 122.677V122.687C39.4752 124.04 38.9878 125.552 38.9878 126.924V270.952C38.9869 273.498 40.6486 274.642 42.7866 273.698Z" fill="#263238"/>
<path d="M38.9883 126.929V270.951C38.9883 273.698 40.9166 274.811 43.295 273.438L222.157 170.182C224.536 168.808 226.464 165.468 226.464 162.722V18.7005C226.464 15.9539 224.536 14.8401 222.157 16.2139L43.296 119.468C40.9175 120.842 38.9883 124.182 38.9883 126.929Z" fill="#37474F"/>
<path d="M43.2956 278.412L163.983 348.09C166.362 349.464 170.219 349.464 172.598 348.09L351.46 244.834C353.838 243.461 353.838 241.234 351.46 239.86L230.773 170.182C228.395 168.808 224.537 168.808 222.158 170.182L43.2956 273.438C40.9171 274.81 40.9171 277.038 43.2956 278.412Z" fill="#455A64"/>
<path d="M45.6118 124.999L218.55 25.1873C219.978 24.3634 221.134 25.0316 221.134 26.6794V159.559C221.134 161.207 219.978 163.212 218.55 164.036L45.6118 263.846C44.1849 264.67 43.0273 264.002 43.0273 262.354V129.475C43.0273 127.828 44.184 125.823 45.6118 124.999Z" fill="#407BFF"/>
<path opacity="0.4" d="M45.6118 124.999L218.55 25.1873C219.978 24.3634 221.134 25.0316 221.134 26.6794V159.559C221.134 161.207 219.978 163.212 218.55 164.036L45.6118 263.846C44.1849 264.67 43.0273 264.002 43.0273 262.354V129.475C43.0273 127.828 44.184 125.823 45.6118 124.999Z" fill="black"/>
<path d="M57.3044 274.682L224.312 178.271C225.501 177.584 227.43 177.584 228.62 178.271L236.46 182.797C237.649 183.484 237.649 184.597 236.46 185.283L69.4288 281.68C68.2395 282.367 66.3103 282.366 65.1211 281.68L57.3044 277.168C56.1152 276.481 56.1142 275.369 57.3044 274.682Z" fill="#37474F"/>
<path d="M77.5099 286.346L244.516 189.934C245.705 189.247 247.633 189.247 248.823 189.934L297.044 217.776C298.234 218.463 298.234 219.575 297.044 220.262L130.214 316.552C129.024 317.239 127.094 317.242 125.902 316.558L77.5136 288.826C76.3225 288.143 76.3207 287.033 77.5099 286.346Z" fill="#263238"/>
<path d="M224.269 230.928L229.528 227.892C229.751 227.763 229.755 227.556 229.536 227.429L223.987 224.225C223.768 224.098 223.409 224.101 223.186 224.23L217.928 227.265C217.704 227.394 217.702 227.601 217.921 227.727L223.47 230.932C223.688 231.058 224.046 231.056 224.269 230.928ZM215.258 219.653L209.999 222.689C209.777 222.819 209.773 223.025 209.992 223.151L215.541 226.355C215.76 226.482 216.119 226.479 216.342 226.351L221.6 223.314C221.824 223.186 221.827 222.978 221.608 222.852L216.058 219.648C215.839 219.522 215.481 219.525 215.258 219.653ZM198.27 229.461L189.372 234.598C189.148 234.727 189.145 234.935 189.363 235.06L194.912 238.265C195.131 238.391 195.49 238.389 195.713 238.26L204.611 233.123C204.834 232.994 204.838 232.786 204.619 232.66L199.07 229.456C198.852 229.33 198.493 229.332 198.27 229.461ZM207.573 224.09L202.314 227.126C202.091 227.255 202.088 227.463 202.307 227.589L207.856 230.793C208.075 230.92 208.434 230.917 208.656 230.788L213.915 227.753C214.138 227.623 214.142 227.416 213.923 227.29L208.373 224.087C208.155 223.958 207.796 223.961 207.573 224.09ZM186.945 236L181.686 239.035C181.463 239.165 181.459 239.372 181.678 239.498L187.228 242.702C187.447 242.829 187.805 242.826 188.029 242.697L193.287 239.661C193.51 239.532 193.513 239.325 193.294 239.198L187.745 235.994C187.526 235.868 187.168 235.871 186.945 236ZM179.259 240.437L174.001 243.473C173.777 243.601 173.774 243.809 173.993 243.935L179.542 247.138C179.761 247.265 180.12 247.263 180.342 247.133L185.601 244.098C185.824 243.968 185.828 243.762 185.608 243.636L180.059 240.432C179.842 240.306 179.483 240.308 179.259 240.437ZM201.052 253.486L206.311 250.45C206.533 250.321 206.537 250.113 206.318 249.987L200.769 246.783C200.55 246.656 200.191 246.659 199.968 246.788L194.71 249.823C194.486 249.953 194.483 250.16 194.702 250.286L200.252 253.49C200.471 253.617 200.83 253.615 201.052 253.486ZM193.368 257.922L198.626 254.887C198.85 254.757 198.853 254.551 198.634 254.425L193.085 251.221C192.866 251.095 192.507 251.096 192.284 251.226L187.026 254.261C186.802 254.39 186.799 254.598 187.017 254.724L192.566 257.928C192.786 258.054 193.144 258.052 193.368 257.922ZM185.683 262.36L190.941 259.323C191.165 259.195 191.167 258.988 190.948 258.861L185.399 255.657C185.18 255.53 184.821 255.533 184.598 255.661L179.339 258.697C179.116 258.826 179.113 259.033 179.332 259.159L184.881 262.363C185.101 262.491 185.459 262.488 185.683 262.36ZM177.997 266.797L183.256 263.761C183.479 263.633 183.482 263.425 183.263 263.299L177.714 260.096C177.495 259.97 177.136 259.971 176.913 260.1L171.655 263.136C171.431 263.265 171.428 263.472 171.647 263.598L177.196 266.801C177.416 266.927 177.775 266.925 177.997 266.797ZM216.585 235.364L221.842 232.329C222.066 232.2 222.069 231.992 221.851 231.866L216.302 228.662C216.083 228.535 215.725 228.538 215.501 228.667L210.243 231.702C210.019 231.832 210.015 232.039 210.234 232.166L215.783 235.37C216.002 235.496 216.36 235.494 216.585 235.364ZM208.738 249.049L220.467 242.277C220.69 242.147 220.693 241.94 220.474 241.815L206.998 234.033C206.778 233.907 206.42 233.909 206.197 234.038L200.13 237.54C199.906 237.67 199.902 237.877 200.121 238.003L207.257 242.122C207.476 242.248 207.472 242.456 207.248 242.584L202.395 245.387C202.172 245.516 202.168 245.723 202.387 245.849L207.936 249.053C208.155 249.18 208.515 249.177 208.738 249.049ZM171.575 244.873L166.317 247.91C166.094 248.038 166.09 248.246 166.309 248.372L171.858 251.576C172.077 251.703 172.436 251.7 172.659 251.572L177.917 248.536C178.141 248.407 178.144 248.2 177.925 248.074L172.376 244.87C172.157 244.743 171.799 244.745 171.575 244.873ZM163.89 249.311L158.631 252.346C158.408 252.476 158.404 252.683 158.624 252.808L164.173 256.013C164.392 256.139 164.751 256.137 164.974 256.008L170.232 252.972C170.456 252.844 170.458 252.636 170.24 252.51L164.69 249.306C164.471 249.179 164.113 249.182 163.89 249.311ZM123.402 297.86C123.621 297.986 123.979 297.984 124.202 297.856L129.461 294.82C129.683 294.692 129.687 294.484 129.468 294.358L123.919 291.155C123.7 291.029 123.341 291.031 123.118 291.159L117.86 294.195C117.636 294.324 117.633 294.531 117.852 294.657L123.402 297.86ZM102.41 284.806L97.152 287.841C96.9283 287.97 96.9246 288.178 97.1445 288.304L102.694 291.507C102.913 291.634 103.271 291.632 103.494 291.502L108.753 288.467C108.976 288.338 108.979 288.13 108.76 288.004L103.211 284.801C102.992 284.675 102.634 284.676 102.41 284.806ZM113.452 294.45C113.671 294.577 114.03 294.574 114.252 294.446L119.511 291.409C119.734 291.28 119.737 291.073 119.518 290.947L113.969 287.743C113.75 287.616 113.391 287.619 113.168 287.747L107.91 290.783C107.686 290.912 107.683 291.118 107.902 291.245L113.452 294.45ZM136.175 300.097L141.433 297.062C141.657 296.932 141.661 296.725 141.442 296.599L135.892 293.395C135.673 293.269 135.315 293.271 135.091 293.4L129.833 296.435C129.61 296.564 129.606 296.771 129.825 296.898L135.374 300.101C135.593 300.228 135.952 300.226 136.175 300.097ZM127.69 304.538C127.909 304.665 128.268 304.662 128.49 304.534L133.749 301.497C133.973 301.368 133.975 301.162 133.757 301.035L128.208 297.831C127.989 297.704 127.631 297.707 127.407 297.835L122.149 300.872C121.926 301 121.922 301.207 122.141 301.334L127.69 304.538ZM110.095 280.369L104.836 283.404C104.613 283.534 104.61 283.74 104.829 283.866L110.378 287.071C110.597 287.196 110.956 287.195 111.179 287.066L116.437 284.03C116.661 283.901 116.664 283.694 116.445 283.567L110.896 280.363C110.677 280.238 110.318 280.24 110.095 280.369ZM148.519 258.184L143.261 261.22C143.038 261.349 143.034 261.556 143.253 261.682L148.802 264.886C149.022 265.013 149.379 265.01 149.603 264.882L154.861 261.845C155.085 261.716 155.088 261.51 154.87 261.383L149.321 258.179C149.102 258.053 148.743 258.056 148.519 258.184ZM117.78 275.932L112.522 278.968C112.298 279.096 112.295 279.304 112.513 279.43L118.062 282.634C118.281 282.761 118.64 282.759 118.863 282.63L124.121 279.594C124.345 279.465 124.348 279.258 124.129 279.132L118.58 275.928C118.362 275.801 118.004 275.803 117.78 275.932ZM156.204 253.747L150.946 256.783C150.722 256.912 150.72 257.12 150.939 257.246L156.488 260.45C156.707 260.577 157.065 260.575 157.288 260.445L162.547 257.41C162.77 257.28 162.774 257.073 162.555 256.947L157.006 253.743C156.787 253.616 156.428 253.618 156.204 253.747ZM140.835 262.621L135.576 265.657C135.353 265.786 135.349 265.993 135.568 266.119L141.118 269.323C141.337 269.449 141.696 269.447 141.92 269.318L147.177 266.282C147.401 266.154 147.404 265.946 147.185 265.82L141.635 262.617C141.417 262.49 141.059 262.492 140.835 262.621ZM133.15 267.058L127.891 270.093C127.668 270.222 127.664 270.43 127.883 270.556L133.432 273.76C133.651 273.887 134.01 273.884 134.233 273.755L139.491 270.72C139.714 270.59 139.717 270.383 139.498 270.256L133.949 267.052C133.732 266.927 133.373 266.929 133.15 267.058ZM125.465 271.495L120.207 274.531C119.983 274.66 119.979 274.867 120.198 274.993L125.748 278.197C125.967 278.324 126.325 278.321 126.548 278.192L131.807 275.156C132.029 275.027 132.033 274.819 131.814 274.694L126.265 271.49C126.047 271.364 125.689 271.366 125.465 271.495ZM162.628 275.67L167.886 272.635C168.11 272.506 168.114 272.298 167.895 272.173L162.345 268.968C162.126 268.842 161.768 268.844 161.545 268.973L156.286 272.009C156.063 272.138 156.06 272.345 156.279 272.471L161.828 275.675C162.046 275.802 162.404 275.8 162.628 275.67ZM232.245 209.845L226.987 212.881C226.763 213.009 226.761 213.216 226.979 213.343L232.529 216.547C232.748 216.674 233.107 216.671 233.329 216.542L238.588 213.507C238.811 213.377 238.814 213.171 238.596 213.045L233.047 209.84C232.828 209.714 232.469 209.716 232.245 209.845ZM222.942 215.216L217.684 218.253C217.46 218.381 217.457 218.588 217.675 218.715L223.225 221.919C223.444 222.046 223.802 222.043 224.025 221.915L229.283 218.879C229.507 218.749 229.51 218.543 229.292 218.417L223.743 215.212C223.525 215.085 223.166 215.088 222.942 215.216ZM239.93 205.409L234.672 208.444C234.449 208.573 234.445 208.781 234.664 208.908L240.214 212.111C240.432 212.238 240.792 212.236 241.015 212.106L246.273 209.071C246.497 208.941 246.5 208.734 246.281 208.608L240.732 205.404C240.512 205.277 240.154 205.279 239.93 205.409ZM198.788 245.64L204.046 242.604C204.27 242.474 204.272 242.268 204.053 242.142L198.504 238.937C198.285 238.811 197.926 238.814 197.704 238.942L192.445 241.979C192.222 242.107 192.219 242.314 192.437 242.441L197.986 245.645C198.206 245.771 198.564 245.768 198.788 245.64ZM248.417 200.967C248.198 200.841 247.839 200.843 247.616 200.972L242.359 204.007C242.135 204.137 242.131 204.343 242.35 204.469L247.899 207.674C248.117 207.8 248.476 207.798 248.7 207.669L253.958 204.632C254.182 204.504 254.186 204.297 253.967 204.17L248.417 200.967ZM170.313 271.234L175.571 268.199C175.795 268.069 175.798 267.862 175.579 267.736L170.03 264.532C169.811 264.405 169.452 264.408 169.229 264.537L163.971 267.573C163.747 267.702 163.744 267.91 163.963 268.035L169.512 271.24C169.731 271.365 170.089 271.363 170.313 271.234ZM264.555 216.823L269.813 213.787C270.037 213.659 270.04 213.451 269.822 213.325L264.272 210.122C264.053 209.995 263.695 209.997 263.471 210.127L258.213 213.162C257.99 213.291 257.985 213.499 258.204 213.624L263.754 216.828C263.973 216.953 264.331 216.952 264.555 216.823ZM248.942 216.683L254.201 213.647C254.423 213.518 254.427 213.311 254.208 213.184L248.659 209.98C248.441 209.854 248.081 209.856 247.858 209.985L242.6 213.02C242.376 213.15 242.372 213.357 242.592 213.483L248.141 216.687C248.36 216.815 248.718 216.812 248.942 216.683ZM256.344 205.544C256.126 205.417 255.766 205.42 255.544 205.549L250.285 208.585C250.062 208.714 250.059 208.922 250.278 209.047L255.827 212.252C256.046 212.378 256.405 212.375 256.627 212.247L261.886 209.211C262.109 209.082 262.113 208.875 261.894 208.749L256.344 205.544ZM257.962 204.61L271.439 212.391C271.658 212.517 272.016 212.515 272.239 212.387L277.498 209.351C277.721 209.222 277.725 209.015 277.506 208.889L264.028 201.108C263.809 200.982 263.451 200.984 263.227 201.112L257.969 204.148C257.747 204.275 257.743 204.483 257.962 204.61ZM240.173 214.422L234.915 217.458C234.691 217.586 234.687 217.794 234.906 217.92L240.456 221.123C240.675 221.25 241.034 221.248 241.257 221.119L246.515 218.083C246.738 217.954 246.743 217.747 246.524 217.621L240.974 214.417C240.755 214.292 240.397 214.294 240.173 214.422ZM182.334 247.816L177.076 250.852C176.852 250.981 176.848 251.189 177.067 251.314L182.616 254.519C182.835 254.645 183.194 254.643 183.417 254.514L188.675 251.478C188.899 251.349 188.902 251.142 188.683 251.016L183.134 247.812C182.916 247.684 182.557 247.687 182.334 247.816ZM256.069 221.264C256.287 221.391 256.647 221.388 256.87 221.259L262.128 218.224C262.351 218.094 262.355 217.887 262.136 217.762L256.586 214.557C256.368 214.431 256.009 214.433 255.786 214.562L250.527 217.598C250.304 217.727 250.3 217.934 250.519 218.061L256.069 221.264ZM190.018 243.379L184.76 246.415C184.536 246.544 184.534 246.751 184.753 246.877L190.302 250.081C190.521 250.208 190.879 250.205 191.102 250.077L196.361 247.04C196.584 246.912 196.588 246.704 196.369 246.578L190.82 243.374C190.601 243.248 190.242 243.25 190.018 243.379ZM131.087 293.423C131.306 293.55 131.665 293.547 131.888 293.418L137.146 290.383C137.369 290.253 137.372 290.047 137.153 289.921L131.604 286.716C131.385 286.59 131.027 286.593 130.804 286.721L125.545 289.758C125.322 289.886 125.319 290.094 125.537 290.22L131.087 293.423ZM120.854 283.311L115.595 286.347C115.372 286.476 115.369 286.684 115.588 286.81L121.137 290.014C121.356 290.141 121.715 290.138 121.938 290.009L127.196 286.974C127.42 286.844 127.423 286.637 127.203 286.511L121.654 283.307C121.436 283.18 121.077 283.182 120.854 283.311ZM139.573 288.981L144.831 285.946C145.055 285.817 145.059 285.609 144.84 285.483L139.29 282.28C139.071 282.153 138.712 282.155 138.489 282.285L133.231 285.32C133.008 285.449 133.004 285.657 133.223 285.783L138.773 288.986C138.99 289.112 139.349 289.111 139.573 288.981ZM147.257 284.545L152.516 281.509C152.739 281.38 152.743 281.173 152.524 281.047L146.974 277.843C146.756 277.716 146.397 277.719 146.173 277.848L140.915 280.883C140.692 281.013 140.688 281.22 140.908 281.345L146.458 284.55C146.676 284.675 147.034 284.674 147.257 284.545ZM154.943 280.108L160.201 277.072C160.425 276.943 160.427 276.736 160.209 276.609L154.66 273.405C154.441 273.279 154.083 273.281 153.86 273.41L148.601 276.446C148.377 276.574 148.374 276.782 148.593 276.908L154.142 280.112C154.361 280.238 154.719 280.236 154.943 280.108ZM128.539 278.875L123.281 281.91C123.057 282.039 123.054 282.247 123.272 282.372L128.822 285.576C129.041 285.702 129.399 285.701 129.623 285.571L134.881 282.536C135.105 282.407 135.108 282.199 134.89 282.073L129.34 278.87C129.121 278.743 128.763 278.745 128.539 278.875ZM136.224 274.437L130.966 277.473C130.742 277.602 130.738 277.809 130.957 277.935L136.507 281.139C136.726 281.266 137.084 281.263 137.307 281.135L142.566 278.098C142.788 277.97 142.792 277.763 142.573 277.636L137.024 274.432C136.806 274.307 136.447 274.309 136.224 274.437ZM166.963 256.69L161.705 259.726C161.481 259.855 161.479 260.062 161.698 260.188L167.247 263.391C167.466 263.518 167.825 263.516 168.047 263.387L173.306 260.351C173.529 260.223 173.533 260.015 173.314 259.889L167.764 256.686C167.546 256.559 167.187 256.561 166.963 256.69ZM159.279 261.127L154.021 264.162C153.798 264.291 153.793 264.499 154.013 264.624L159.562 267.829C159.781 267.955 160.14 267.953 160.363 267.824L165.621 264.788C165.845 264.659 165.849 264.452 165.63 264.325L160.081 261.121C159.861 260.995 159.502 260.998 159.279 261.127ZM174.649 252.253L169.39 255.288C169.167 255.418 169.164 255.625 169.382 255.751L174.931 258.955C175.15 259.082 175.509 259.079 175.732 258.95L180.99 255.914C181.214 255.785 181.217 255.578 180.998 255.452L175.448 252.247C175.23 252.122 174.872 252.124 174.649 252.253ZM143.909 270L138.651 273.037C138.427 273.165 138.424 273.373 138.643 273.499L144.192 276.703C144.411 276.83 144.769 276.828 144.992 276.698L150.251 273.663C150.474 273.533 150.478 273.327 150.259 273.201L144.709 269.997C144.491 269.87 144.132 269.871 143.909 270ZM151.594 265.564L146.335 268.599C146.112 268.729 146.108 268.936 146.328 269.062L151.877 272.266C152.095 272.393 152.454 272.39 152.678 272.261L157.936 269.225C158.16 269.096 158.163 268.889 157.944 268.762L152.394 265.558C152.176 265.432 151.817 265.435 151.594 265.564ZM143.86 295.66L149.118 292.623C149.342 292.495 149.345 292.288 149.127 292.161L143.577 288.957C143.358 288.83 142.999 288.832 142.776 288.962L137.518 291.997C137.294 292.127 137.29 292.334 137.509 292.459L143.059 295.664C143.279 295.79 143.636 295.789 143.86 295.66ZM101.076 292.442L95.5256 289.238C95.3066 289.111 94.9487 289.114 94.7251 289.242L89.4667 292.278C89.243 292.406 89.2393 292.613 89.4583 292.74L95.0075 295.944C95.2265 296.07 95.5853 296.068 95.809 295.94L101.067 292.904C101.29 292.775 101.294 292.569 101.076 292.442ZM111.834 295.385L106.285 292.182C106.066 292.055 105.708 292.057 105.484 292.186L97.3943 296.857C97.1706 296.985 97.1678 297.193 97.3868 297.319L102.936 300.522C103.155 300.649 103.513 300.647 103.737 300.518L111.826 295.847C112.049 295.718 112.053 295.511 111.834 295.385ZM92.6672 286.186L87.1181 282.983C86.899 282.856 86.5412 282.858 86.3175 282.988L79.8457 286.724C79.6229 286.853 79.6183 287.06 79.8373 287.186L85.3864 290.39C85.6054 290.517 85.9643 290.514 86.187 290.386L92.6588 286.649C92.8825 286.52 92.8862 286.313 92.6672 286.186ZM97.6292 283.322C97.8473 283.449 98.2061 283.446 98.4298 283.317L103.688 280.281C103.912 280.152 103.915 279.945 103.696 279.819L98.1474 276.615C97.9283 276.488 97.5695 276.491 97.3458 276.619L92.0884 279.655C91.8647 279.784 91.861 279.991 92.08 280.117L97.6292 283.322ZM121.784 298.793L116.235 295.589C116.016 295.463 115.657 295.465 115.434 295.595L105.322 301.433C105.098 301.562 105.095 301.769 105.314 301.895L110.864 305.099C111.083 305.226 111.44 305.223 111.664 305.095L121.776 299.257C121.999 299.127 122.003 298.92 121.784 298.793ZM126.072 305.472L120.522 302.269C120.304 302.142 119.945 302.144 119.721 302.273L113.249 306.01C113.026 306.138 113.022 306.346 113.241 306.472L118.79 309.676C119.009 309.803 119.368 309.8 119.591 309.672L126.063 305.935C126.287 305.806 126.29 305.599 126.072 305.472ZM154.767 250.333C154.985 250.46 155.344 250.457 155.568 250.328L160.826 247.292C161.05 247.163 161.054 246.956 160.835 246.83L155.285 243.625C155.066 243.499 154.708 243.501 154.484 243.63L149.227 246.666C149.003 246.795 148.999 247.002 149.218 247.128L154.767 250.333ZM139.397 259.208C139.616 259.334 139.975 259.332 140.197 259.203L145.456 256.166C145.679 256.038 145.682 255.831 145.463 255.704L139.914 252.5C139.695 252.373 139.337 252.376 139.113 252.505L133.855 255.54C133.631 255.67 133.629 255.877 133.847 256.003L139.397 259.208ZM105.313 278.885C105.533 279.012 105.891 279.01 106.114 278.88L111.372 275.845C111.596 275.716 111.6 275.508 111.381 275.382L105.832 272.178C105.613 272.052 105.255 272.054 105.031 272.183L99.7728 275.218C99.55 275.347 99.5454 275.555 99.7653 275.681L105.313 278.885ZM147.082 254.77C147.301 254.897 147.66 254.895 147.883 254.766L153.141 251.73C153.365 251.602 153.367 251.394 153.148 251.268L147.599 248.064C147.38 247.938 147.022 247.939 146.799 248.068L141.54 251.104C141.317 251.232 141.313 251.44 141.532 251.566L147.082 254.77ZM131.712 263.644C131.931 263.77 132.29 263.768 132.513 263.639L137.771 260.604C137.995 260.475 137.999 260.267 137.78 260.141L132.231 256.938C132.012 256.812 131.653 256.813 131.43 256.943L126.172 259.978C125.948 260.108 125.945 260.315 126.164 260.441L131.712 263.644ZM130.067 305.912C129.848 305.785 129.49 305.787 129.267 305.917L121.177 310.587C120.953 310.715 120.951 310.922 121.169 311.049L126.718 314.252C126.937 314.379 127.295 314.377 127.518 314.248L135.608 309.577C135.832 309.449 135.835 309.241 135.616 309.115L130.067 305.912ZM120.683 270.011C120.902 270.138 121.261 270.135 121.484 270.007L126.742 266.971C126.966 266.842 126.969 266.635 126.75 266.509L121.201 263.305C120.982 263.178 120.623 263.181 120.4 263.309L115.141 266.345C114.918 266.473 114.915 266.68 115.133 266.807L120.683 270.011ZM112.998 274.449C113.217 274.574 113.576 274.573 113.798 274.444L119.057 271.407C119.28 271.279 119.284 271.071 119.065 270.945L113.516 267.741C113.297 267.614 112.938 267.617 112.715 267.746L107.457 270.781C107.233 270.911 107.231 271.117 107.45 271.243L112.998 274.449ZM272.442 223.712C272.223 223.586 271.865 223.587 271.641 223.717L258.698 231.19C258.475 231.318 258.471 231.526 258.69 231.652L264.24 234.855C264.458 234.982 264.817 234.98 265.041 234.851L277.983 227.378C278.207 227.249 278.211 227.042 277.992 226.916L272.442 223.712ZM255.454 233.52C255.235 233.393 254.877 233.395 254.653 233.524L249.395 236.56C249.171 236.69 249.169 236.896 249.387 237.022L254.936 240.226C255.155 240.352 255.514 240.35 255.737 240.221L260.996 237.185C261.219 237.057 261.222 236.849 261.004 236.723L255.454 233.52ZM151.545 291.223L156.804 288.187C157.026 288.058 157.03 287.851 156.811 287.725L151.262 284.521C151.043 284.394 150.684 284.397 150.461 284.525L145.203 287.562C144.979 287.69 144.976 287.897 145.195 288.024L150.744 291.228C150.963 291.354 151.322 291.352 151.545 291.223ZM240.084 242.393C239.865 242.267 239.507 242.269 239.284 242.398L234.026 245.434C233.802 245.563 233.799 245.77 234.018 245.896L239.567 249.1C239.786 249.227 240.145 249.224 240.368 249.095L245.626 246.059C245.85 245.93 245.854 245.722 245.634 245.597L240.084 242.393ZM280.127 219.275C279.908 219.148 279.549 219.151 279.326 219.28L274.068 222.316C273.845 222.445 273.841 222.653 274.06 222.778L279.61 225.983C279.829 226.109 280.187 226.107 280.41 225.978L285.669 222.943C285.892 222.813 285.895 222.606 285.677 222.48L280.127 219.275ZM293.361 218.042L279.884 210.261C279.665 210.134 279.307 210.137 279.083 210.265L273.825 213.302C273.601 213.431 273.597 213.638 273.817 213.764L287.294 221.545C287.513 221.672 287.872 221.669 288.095 221.541L293.353 218.504C293.577 218.376 293.58 218.168 293.361 218.042ZM211.367 258.974C211.148 258.847 210.789 258.85 210.566 258.978L204.094 262.715C203.871 262.843 203.867 263.051 204.086 263.178L209.635 266.381C209.854 266.508 210.213 266.506 210.436 266.377L216.907 262.64C217.131 262.511 217.135 262.304 216.916 262.178L211.367 258.974ZM230.781 247.764C230.562 247.638 230.203 247.641 229.981 247.769L221.891 252.44C221.667 252.569 221.664 252.776 221.882 252.903L227.432 256.107C227.651 256.234 228.009 256.231 228.232 256.102L236.322 251.432C236.546 251.303 236.549 251.096 236.33 250.97L230.781 247.764ZM193.57 269.249C193.351 269.122 192.992 269.125 192.77 269.254L149.491 294.241C149.268 294.369 149.264 294.577 149.483 294.703L155.032 297.907C155.251 298.034 155.609 298.032 155.833 297.902L199.111 272.915C199.335 272.786 199.338 272.579 199.119 272.452L193.57 269.249ZM147.865 295.637C147.646 295.51 147.287 295.513 147.064 295.641L140.593 299.378C140.369 299.506 140.366 299.714 140.585 299.84L146.134 303.044C146.353 303.17 146.712 303.168 146.935 303.039L153.407 299.302C153.629 299.174 153.633 298.967 153.414 298.84L147.865 295.637ZM202.468 264.111C202.249 263.984 201.891 263.987 201.667 264.115L195.197 267.852C194.973 267.981 194.969 268.188 195.188 268.314L200.737 271.517C200.956 271.644 201.315 271.642 201.538 271.514L208.009 267.777C208.232 267.649 208.235 267.442 208.016 267.315L202.468 264.111ZM138.966 300.774C138.747 300.647 138.388 300.65 138.166 300.779L131.694 304.515C131.47 304.644 131.467 304.851 131.686 304.977L137.235 308.181C137.454 308.308 137.812 308.305 138.036 308.177L144.508 304.44C144.732 304.311 144.735 304.104 144.516 303.978L138.966 300.774ZM220.265 253.836C220.046 253.71 219.689 253.712 219.465 253.841L212.993 257.577C212.77 257.706 212.767 257.914 212.986 258.04L218.535 261.244C218.753 261.371 219.113 261.369 219.335 261.239L225.807 257.503C226.031 257.374 226.034 257.166 225.815 257.041L220.265 253.836ZM247.769 237.956C247.55 237.829 247.191 237.832 246.967 237.961L241.709 240.996C241.485 241.125 241.482 241.332 241.701 241.459L247.251 244.663C247.47 244.789 247.828 244.787 248.051 244.658L253.309 241.623C253.533 241.493 253.536 241.286 253.318 241.16L247.769 237.956ZM264.797 225.836L270.056 222.801C270.279 222.671 270.283 222.464 270.064 222.339L264.515 219.135C264.296 219.009 263.937 219.01 263.714 219.14L258.456 222.175C258.233 222.304 258.23 222.512 258.448 222.638L263.998 225.841C264.215 225.968 264.575 225.966 264.797 225.836ZM231.955 226.491L237.213 223.455C237.437 223.326 237.439 223.119 237.221 222.993L231.671 219.79C231.452 219.663 231.094 219.665 230.871 219.794L225.612 222.83C225.389 222.959 225.385 223.166 225.604 223.292L231.153 226.495C231.372 226.622 231.731 226.62 231.955 226.491ZM213.025 255.727L228.394 246.854C228.618 246.725 228.621 246.517 228.402 246.392L222.853 243.187C222.634 243.062 222.276 243.063 222.052 243.192L206.682 252.066C206.459 252.194 206.455 252.402 206.674 252.528L212.223 255.731C212.443 255.859 212.801 255.857 213.025 255.727ZM256.311 230.278C256.531 230.405 256.889 230.402 257.112 230.274L262.37 227.238C262.594 227.109 262.598 226.902 262.379 226.776L256.83 223.572C256.612 223.446 256.253 223.448 256.029 223.576L250.771 226.613C250.548 226.741 250.544 226.949 250.762 227.075L256.311 230.278ZM249.184 225.697L254.443 222.661C254.666 222.532 254.669 222.325 254.45 222.199L248.901 218.995C248.682 218.868 248.323 218.871 248.101 218.999L242.842 222.035C242.619 222.164 242.615 222.371 242.834 222.497L248.383 225.701C248.603 225.828 248.962 225.826 249.184 225.697ZM205.34 260.165L210.599 257.128C210.822 257 210.826 256.793 210.607 256.666L205.058 253.462C204.839 253.335 204.48 253.338 204.256 253.466L198.998 256.503C198.774 256.632 198.772 256.838 198.991 256.965L204.54 260.169C204.758 260.295 205.117 260.293 205.34 260.165ZM239.324 240.087C239.543 240.213 239.902 240.211 240.125 240.082L245.383 237.046C245.607 236.917 245.609 236.709 245.391 236.583L239.841 233.379C239.622 233.252 239.264 233.255 239.041 233.384L233.782 236.419C233.559 236.549 233.555 236.756 233.775 236.881L239.324 240.087ZM166.915 282.349L172.173 279.313C172.396 279.184 172.4 278.977 172.182 278.85L166.633 275.646C166.414 275.519 166.056 275.521 165.832 275.651L160.574 278.687C160.35 278.816 160.347 279.023 160.565 279.15L166.114 282.354C166.333 282.481 166.692 282.478 166.915 282.349ZM174.6 277.912L179.859 274.876C180.081 274.747 180.085 274.54 179.866 274.414L174.317 271.21C174.098 271.084 173.74 271.086 173.516 271.215L168.258 274.251C168.034 274.38 168.032 274.587 168.25 274.713L173.8 277.917C174.019 278.043 174.377 278.041 174.6 277.912ZM159.231 286.786L164.489 283.751C164.713 283.622 164.716 283.414 164.496 283.289L158.947 280.085C158.728 279.959 158.369 279.96 158.147 280.09L152.888 283.125C152.665 283.254 152.662 283.462 152.88 283.588L158.429 286.792C158.648 286.917 159.007 286.915 159.231 286.786ZM189.97 269.038L195.228 266.003C195.452 265.873 195.456 265.666 195.237 265.54L189.687 262.336C189.468 262.21 189.11 262.212 188.886 262.341L183.628 265.376C183.405 265.505 183.401 265.712 183.62 265.839L189.169 269.043C189.388 269.17 189.747 269.167 189.97 269.038ZM182.285 273.476L187.543 270.44C187.767 270.311 187.77 270.105 187.551 269.978L182.001 266.774C181.783 266.647 181.423 266.649 181.201 266.778L175.942 269.814C175.72 269.943 175.716 270.15 175.935 270.276L181.484 273.48C181.703 273.606 182.062 273.604 182.285 273.476ZM197.655 264.601L202.913 261.566C203.137 261.437 203.14 261.229 202.922 261.103L197.373 257.9C197.154 257.773 196.795 257.775 196.572 257.905L191.314 260.94C191.09 261.069 191.087 261.277 191.306 261.402L196.855 264.607C197.073 264.732 197.431 264.731 197.655 264.601ZM236.241 200.944C236.46 201.069 236.819 201.068 237.041 200.939L242.3 197.902C242.523 197.774 242.526 197.567 242.308 197.44L240.831 196.587C240.612 196.461 240.253 196.463 240.029 196.592L234.771 199.629C234.548 199.757 234.545 199.964 234.764 200.091L236.241 200.944ZM198.235 225.237C198.453 225.364 198.812 225.362 199.035 225.232L204.294 222.197C204.517 222.068 204.521 221.861 204.302 221.735L198.753 218.531C198.534 218.405 198.175 218.406 197.952 218.535L192.694 221.572C192.47 221.7 192.467 221.908 192.686 222.034L198.235 225.237ZM213.604 216.364C213.823 216.49 214.182 216.487 214.405 216.359L219.663 213.323C219.887 213.194 219.89 212.988 219.672 212.861L214.122 209.657C213.903 209.53 213.544 209.533 213.321 209.662L208.063 212.697C207.84 212.826 207.835 213.033 208.055 213.159L213.604 216.364ZM188.851 230.655C189.07 230.782 189.427 230.78 189.651 230.65L194.909 227.615C195.133 227.486 195.136 227.278 194.917 227.152L189.368 223.948C189.149 223.822 188.79 223.824 188.567 223.954L183.309 226.989C183.085 227.118 183.081 227.326 183.3 227.452L188.851 230.655ZM205.919 220.801C206.137 220.928 206.497 220.925 206.72 220.796L211.978 217.76C212.201 217.631 212.205 217.423 211.986 217.297L206.436 214.093C206.218 213.966 205.86 213.968 205.636 214.098L200.378 217.133C200.154 217.263 200.15 217.47 200.369 217.596L205.919 220.801ZM173.48 239.529C173.699 239.655 174.058 239.653 174.281 239.524L179.539 236.488C179.763 236.36 179.766 236.152 179.547 236.025L173.998 232.822C173.779 232.695 173.42 232.697 173.197 232.826L167.938 235.862C167.715 235.991 167.712 236.198 167.931 236.324L173.48 239.529ZM181.165 235.092C181.384 235.218 181.743 235.216 181.966 235.087L187.224 232.051C187.448 231.922 187.451 231.715 187.232 231.589L181.683 228.384C181.464 228.258 181.106 228.26 180.882 228.389L175.624 231.425C175.4 231.554 175.397 231.761 175.615 231.887L181.165 235.092ZM220.871 209.817C221.09 209.944 221.449 209.941 221.672 209.812L226.93 206.776C227.154 206.647 227.157 206.441 226.939 206.314L225.461 205.461C225.242 205.334 224.884 205.337 224.661 205.466L219.402 208.502C219.179 208.631 219.175 208.838 219.394 208.964L220.871 209.817ZM243.926 196.506C244.145 196.633 244.504 196.631 244.727 196.502L249.985 193.466C250.209 193.337 250.212 193.13 249.993 193.004L248.515 192.151C248.296 192.025 247.938 192.027 247.715 192.157L242.456 195.192C242.233 195.321 242.229 195.529 242.448 195.654L243.926 196.506ZM255.584 203.236C255.803 203.363 256.161 203.36 256.384 203.232L261.643 200.196C261.866 200.067 261.869 199.86 261.651 199.734L256.101 196.53C255.883 196.403 255.523 196.406 255.3 196.534L250.042 199.571C249.818 199.699 249.815 199.907 250.034 200.033L255.584 203.236ZM272.483 221.4L277.741 218.364C277.965 218.235 277.968 218.028 277.749 217.901L272.2 214.697C271.982 214.57 271.622 214.573 271.4 214.702L266.141 217.737C265.919 217.867 265.915 218.074 266.134 218.2L271.683 221.404C271.9 221.531 272.259 221.529 272.483 221.4ZM228.557 205.38C228.776 205.507 229.133 205.505 229.357 205.375L234.615 202.34C234.839 202.211 234.843 202.003 234.624 201.877L233.147 201.025C232.928 200.898 232.569 200.9 232.346 201.029L227.088 204.065C226.865 204.194 226.861 204.401 227.08 204.527L228.557 205.38ZM165.796 243.966C166.015 244.092 166.373 244.09 166.596 243.961L171.855 240.925C172.078 240.796 172.082 240.589 171.863 240.463L166.314 237.259C166.095 237.132 165.736 237.135 165.513 237.264L160.255 240.3C160.032 240.429 160.028 240.636 160.247 240.762L165.796 243.966Z" fill="#455A64"/>
<path d="M193.944 289.145L241.303 261.802C242.73 260.978 245.045 260.978 246.472 261.802L273.629 277.481C275.056 278.304 275.056 279.641 273.629 280.465L226.269 307.808C224.842 308.632 222.528 308.632 221.101 307.808L193.944 292.129C192.516 291.304 192.516 289.968 193.944 289.145Z" fill="#263238"/>
<path d="M185.931 81.8414C171.125 95.1364 158.339 94.4393 150.345 88.2843C142.36 103.673 129.574 119.126 114.768 122.926L106.315 145.758C106.315 145.758 110.845 150.978 110.845 163.469C110.845 169.099 109.983 174.048 108.752 178.963C107.21 185.127 105.224 191.503 105.224 202.148C105.224 209.37 106.175 216.387 109.828 222.772C111.937 226.465 114.982 229.592 119.085 232.046C116.353 230.47 108.309 225.825 106.233 224.628C101.883 222.124 98.6829 218.907 96.4908 215.075C92.8383 208.681 91.8867 201.672 91.8867 194.45C91.8867 183.806 93.8728 177.429 95.4153 171.258C96.6464 166.35 97.516 161.401 97.516 155.771C97.516 143.281 92.9855 138.061 92.9855 138.061L101.43 115.228C116.236 111.429 129.022 95.9752 137.008 80.587C145.001 86.7419 157.788 87.44 172.593 74.144L185.931 81.8414Z" fill="#407BFF"/>
<path opacity="0.8" d="M141.697 83.2915L137.01 80.5859C138.425 81.6764 139.995 82.5907 141.697 83.2915Z" fill="white"/>
<path opacity="0.85" d="M172.595 74.1431C160.413 85.0829 149.6 86.5443 141.697 83.2916L150.346 88.2843C158.34 94.4392 171.126 95.1373 185.932 81.8414L172.595 74.1431Z" fill="white"/>
<path opacity="0.65" d="M137.009 80.5859C129.024 95.9742 116.237 111.428 101.432 115.227L114.768 122.926C129.573 119.126 142.36 103.673 150.345 88.2843L137.009 80.5859Z" fill="white"/>
<path opacity="0.55" d="M101.432 115.228L92.9863 138.059L106.315 145.757L114.768 122.926L101.432 115.228Z" fill="white"/>
<path opacity="0.4" d="M109.827 222.772C106.174 216.387 105.223 209.37 105.223 202.148C105.223 191.503 107.209 185.127 108.751 178.963C109.982 174.047 110.845 169.099 110.845 163.469C110.845 150.978 106.314 145.758 106.314 145.758L92.9855 138.06C92.9855 138.06 97.516 143.28 97.516 155.77C97.516 161.401 96.6455 166.35 95.4153 171.256C93.8728 177.428 91.8867 183.805 91.8867 194.449C91.8867 201.671 92.8383 208.68 96.4908 215.074C98.6819 218.906 101.882 222.123 106.233 224.627C108.309 225.825 116.352 230.47 119.085 232.045C114.981 229.591 111.936 226.464 109.827 222.772Z" fill="white"/>
<path opacity="0.05" d="M109.827 222.772C106.174 216.387 105.223 209.37 105.223 202.148C105.223 191.503 107.209 185.127 108.751 178.963C109.982 174.047 110.845 169.099 110.845 163.469C110.845 150.978 106.314 145.758 106.314 145.758L92.9855 138.06C92.9855 138.06 97.516 143.28 97.516 155.77C97.516 161.401 96.6455 166.35 95.4153 171.256C93.8728 177.428 91.8867 183.805 91.8867 194.449C91.8867 201.671 92.8383 208.68 96.4908 215.074C98.6819 218.906 101.882 222.123 106.233 224.627C108.309 225.825 116.352 230.47 119.085 232.045C114.981 229.591 111.936 226.464 109.827 222.772Z" fill="black"/>
<path d="M150.347 238.41C128.234 238.655 115.567 232.823 109.825 222.77C106.176 216.383 105.225 209.368 105.225 202.146C105.225 191.502 107.205 185.128 108.75 178.959C109.981 174.05 110.848 169.098 110.848 163.471C110.848 150.981 106.318 145.761 106.318 145.761L114.766 122.925C129.571 119.125 142.357 103.669 150.347 88.2804C158.337 94.4419 171.124 95.1343 185.928 81.8394L194.377 94.92C194.377 94.92 189.846 105.37 189.846 117.861C189.846 123.487 190.714 127.437 191.944 130.927C193.49 135.311 195.47 139.4 195.47 150.042C195.47 157.263 194.519 165.377 190.87 175.978C185.128 192.662 172.46 213.121 150.347 238.41Z" fill="#407BFF"/>
<path opacity="0.75" d="M150.347 238.41C128.234 238.655 115.567 232.823 109.825 222.77C106.176 216.383 105.225 209.368 105.225 202.146C105.225 191.502 107.205 185.128 108.75 178.959C109.981 174.05 110.848 169.098 110.848 163.471C110.848 150.981 106.318 145.761 106.318 145.761L114.766 122.925C129.571 119.125 142.357 103.669 150.347 88.2804C158.337 94.4419 171.124 95.1343 185.928 81.8394L194.377 94.92C194.377 94.92 189.846 105.37 189.846 117.861C189.846 123.487 190.714 127.437 191.944 130.927C193.49 135.311 195.47 139.4 195.47 150.042C195.47 157.263 194.519 165.377 190.87 175.978C185.128 192.662 172.46 213.121 150.347 238.41Z" fill="white"/>
<path opacity="0.75" d="M147.728 232.664C130.599 232.461 119.527 228.177 114.811 219.921C112.153 215.267 110.969 209.785 110.969 202.146C110.969 193.405 112.402 187.834 113.788 182.446C113.969 181.743 114.149 181.047 114.322 180.355C115.892 174.088 116.592 168.881 116.592 163.471C116.592 154.371 114.412 148.411 112.681 145.115L119.164 127.591C135.011 122.082 146.463 106.437 152.531 96.1737C155.758 97.5512 159.25 98.2642 162.87 98.2642C170.031 98.2642 177.309 95.5996 184.572 90.3301L187.979 95.6043C186.501 99.8803 184.101 108.296 184.101 117.861C184.101 123.46 184.848 128.078 186.524 132.836C186.703 133.343 186.887 133.843 187.071 134.349C188.436 138.073 189.724 141.591 189.724 150.042C189.724 158.072 188.401 165.494 185.436 174.108C179.786 190.53 167.102 210.223 147.728 232.664Z" fill="#407BFF"/>
<path opacity="0.4" d="M147.728 232.664C130.599 232.461 119.527 228.177 114.811 219.921C112.153 215.267 110.969 209.785 110.969 202.146C110.969 193.405 112.402 187.834 113.788 182.446C113.969 181.743 114.149 181.047 114.322 180.355C115.892 174.088 116.592 168.881 116.592 163.471C116.592 154.371 114.412 148.411 112.681 145.115L119.164 127.591C135.011 122.082 146.463 106.437 152.531 96.1737C155.758 97.5512 159.25 98.2642 162.87 98.2642C170.031 98.2642 177.309 95.5996 184.572 90.3301L187.979 95.6043C186.501 99.8803 184.101 108.296 184.101 117.861C184.101 123.46 184.848 128.078 186.524 132.836C186.703 133.343 186.887 133.843 187.071 134.349C188.436 138.073 189.724 141.591 189.724 150.042C189.724 158.072 188.401 165.494 185.436 174.108C179.786 190.53 167.102 210.223 147.728 232.664Z" fill="white"/>
<path opacity="0.15" d="M147.728 232.664C130.599 232.461 119.527 228.177 114.811 219.921C112.153 215.267 110.969 209.785 110.969 202.146C110.969 193.405 112.402 187.834 113.788 182.446C113.969 181.743 114.149 181.047 114.322 180.355C115.892 174.088 116.592 168.881 116.592 163.471C116.592 154.371 114.412 148.411 112.681 145.115L119.164 127.591C135.011 122.082 146.463 106.437 152.531 96.1737C155.758 97.5512 159.25 98.2642 162.87 98.2642C170.031 98.2642 177.309 95.5996 184.572 90.3301L187.979 95.6043C186.501 99.8803 184.101 108.296 184.101 117.861C184.101 123.46 184.848 128.078 186.524 132.836C186.703 133.343 186.887 133.843 187.071 134.349C188.436 138.073 189.724 141.591 189.724 150.042C189.724 158.072 188.401 165.494 185.436 174.108C179.786 190.53 167.102 210.223 147.728 232.664Z" fill="black"/>
<path opacity="0.8" d="M118.736 224.67C124.571 229.815 134.271 232.506 147.729 232.665L139.141 227.773C131.457 227.726 124.62 226.733 118.736 224.67Z" fill="white"/>
<path opacity="0.15" d="M183.508 93.0245L187.981 95.6052L184.573 90.3301L182.633 91.6694L183.508 93.0245Z" fill="black"/>
<path d="M182.052 130.257C180.377 125.499 179.629 120.88 179.629 115.283C179.629 105.718 182.03 97.3006 183.507 93.0255L182.632 91.6704C176.015 96.0471 169.394 98.2662 162.872 98.2662C159.252 98.2662 155.76 97.5541 152.533 96.1757C146.465 106.439 135.013 122.084 119.166 127.593L112.683 145.117C114.414 148.413 116.594 154.374 116.594 163.473C116.594 168.883 115.894 174.09 114.324 180.357C114.151 181.049 113.972 181.744 113.79 182.448C112.404 187.836 110.971 193.407 110.971 202.148C110.971 209.786 112.156 215.269 114.813 219.923C116.154 222.271 118.028 224.286 120.389 225.988C126.114 228.598 133.748 229.973 143.257 230.085C162.631 207.644 175.315 187.951 180.966 171.53C183.93 162.915 185.253 155.494 185.253 147.465C185.253 139.013 183.965 135.496 182.6 131.772C182.415 131.264 182.231 130.763 182.052 130.257Z" fill="#455A64"/>
<path d="M119.166 127.593L112.683 145.116C114.414 148.412 116.594 154.373 116.594 163.472C116.594 168.882 115.894 174.089 114.324 180.356C114.151 181.048 113.972 181.744 113.79 182.447C112.404 187.835 110.971 193.406 110.971 202.147C110.971 209.786 112.156 215.268 114.813 219.922C116.154 222.27 118.028 224.285 120.389 225.987C126.114 228.597 133.748 229.972 143.257 230.085V165.515L152.533 162.709V96.1748C149.94 100.599 146.889 105.024 143.257 109.448C137.056 116.926 128.949 124.192 119.166 127.593Z" fill="#37474F"/>
<path d="M165.647 141.653C165.559 141.478 165.438 141.31 165.296 141.145C165.28 141.127 165.268 141.108 165.252 141.091C165.005 140.819 164.683 140.564 164.288 140.337L161.18 138.542C160.653 138.238 160.044 138.009 159.394 137.857C159.026 137.771 158.643 137.715 158.256 137.678V128.484C158.256 123.876 156.514 120.227 153.477 118.473C150.578 116.799 146.994 117.026 143.383 119.111C136.749 122.941 131.553 132.286 131.553 140.386V151.239L125.371 154.809C125.175 154.921 125.004 155.043 124.845 155.167C124.789 155.21 124.729 155.253 124.678 155.298C124.665 155.309 124.655 155.322 124.641 155.333C124.073 155.845 123.788 156.43 123.789 157.017V194.228C123.788 194.388 123.815 194.548 123.857 194.708C123.999 195.249 124.387 195.773 125.024 196.216C125.132 196.292 125.246 196.366 125.369 196.436L126.881 197.31L128.48 198.234C129.06 198.571 129.746 198.803 130.475 198.952C132.379 199.345 134.585 199.111 136.11 198.231L164.286 181.963C165.34 181.355 165.867 180.557 165.867 179.759V142.541C165.87 142.242 165.796 141.942 165.647 141.653ZM137.643 140.386C137.643 134.462 141.666 127.135 146.427 124.385C148.051 123.448 149.51 123.216 150.433 123.747C151.519 124.374 152.168 126.145 152.168 128.484V139.337L144.155 143.964L137.644 147.723V140.386H137.643Z" fill="#263238"/>
<path d="M169.152 144.181C169.152 143.383 168.625 142.586 167.571 141.977L164.463 140.182C162.355 138.965 158.936 138.965 156.828 140.182L128.653 156.449C127.598 157.059 127.071 157.857 127.072 158.656V195.868C127.069 196.668 127.596 197.467 128.653 198.078L131.76 199.872C133.868 201.089 137.286 201.089 139.395 199.872L167.571 183.605C168.625 182.996 169.152 182.198 169.152 181.401V144.181Z" fill="#407BFF"/>
<path opacity="0.4" d="M131.761 162.653L128.653 160.858C126.545 159.641 126.545 157.667 128.653 156.45L156.828 140.183C158.936 138.966 162.355 138.966 164.463 140.183L167.571 141.978C169.679 143.195 169.679 145.168 167.571 146.385L139.395 162.653C137.287 163.87 133.868 163.87 131.761 162.653Z" fill="white"/>
<path opacity="0.1" d="M135.582 163.564V200.784C134.198 200.784 132.814 200.484 131.764 199.876L128.652 198.078C127.594 197.47 127.065 196.667 127.074 195.866V158.654C127.074 159.456 127.594 160.249 128.652 160.858L131.764 162.657C132.813 163.263 134.198 163.564 135.582 163.564Z" fill="black"/>
<path d="M156.085 181.974L149.358 185.859L150.4 173.689C149.596 173.264 149.082 172.216 149.082 170.713C149.082 168.034 150.711 164.921 152.721 163.76C154.731 162.6 156.36 163.832 156.36 166.512C156.36 168.015 155.847 169.653 155.042 171.009L156.085 181.974Z" fill="#455A64"/>
<path d="M156.085 181.974L149.991 178.456L149.357 185.858L156.085 181.974Z" fill="#37474F"/>
<path d="M152.722 163.759C151.407 164.519 150.258 166.115 149.619 167.878L155.043 171.01V171.008C155.848 169.653 156.361 168.014 156.361 166.511C156.36 163.831 154.73 162.6 152.722 163.759Z" fill="#37474F"/>
<path d="M161.539 145.011C161.539 145.01 161.54 145.009 161.54 145.007L161.539 130.126C161.539 125.518 159.797 121.869 156.76 120.115C153.862 118.441 150.277 118.668 146.666 120.753C140.033 124.583 134.837 133.928 134.837 142.027V156.989C134.837 157.439 135.136 157.889 135.73 158.232C136.918 158.918 138.844 158.918 140.033 158.232C140.626 157.889 140.927 157.44 140.927 156.989V142.027C140.927 136.103 144.949 128.776 149.711 126.027C151.334 125.089 152.794 124.857 153.716 125.388C154.802 126.015 155.451 127.786 155.451 130.125V145.006C155.451 145.007 155.451 145.007 155.451 145.008V145.016H155.452C155.456 145.462 155.755 145.907 156.344 146.247C157.532 146.933 159.458 146.933 160.647 146.247C161.237 145.907 161.535 145.462 161.54 145.016H161.541V145.011H161.539Z" fill="#E0E0E0"/>
<path d="M197.754 210.424L201.855 208.057L203.48 206.088L199.379 208.456L197.754 210.424Z" fill="#407BFF"/>
<path opacity="0.4" d="M197.754 210.424L201.855 208.057L203.48 206.088L199.379 208.456L197.754 210.424Z" fill="black"/>
<path d="M208.914 216.868L213.015 214.499L216.442 211.466L212.341 213.834L208.914 216.868Z" fill="#407BFF"/>
<path opacity="0.4" d="M208.914 216.868L213.015 214.499L216.442 211.466L212.341 213.834L208.914 216.868Z" fill="black"/>
<path d="M243.782 225.049C244.681 226.193 245.337 227.873 245.477 229.512C244.578 228.368 243.923 226.687 243.782 225.049ZM253.315 225.173C251.936 215.777 246.888 206.484 240.871 203.01C237.984 201.341 235.312 201.28 233.172 202.532C232.546 202.895 230.224 204.235 229.309 204.759C229.235 204.799 229.161 204.84 229.094 204.887C228.925 204.981 228.757 205.089 228.595 205.203C228.286 205.418 227.989 205.661 227.707 205.936C227.667 205.97 227.626 206.018 227.579 206.058C227.458 206.179 227.337 206.313 227.222 206.448C227.081 206.609 226.94 206.778 226.811 206.952C226.542 207.309 226.287 207.692 226.057 208.11C225.943 208.312 225.828 208.527 225.721 208.749L191.995 189.279L187.896 191.641V194.253L188.246 194.455L188.569 194.643V195.195L187.896 195.586V197.107L192.85 207.593L197.75 210.426L199.378 208.454L203.699 211.038L206.182 215.292L208.915 216.867L212.341 213.831L216.547 216.261L217.961 222.09L225.008 226.155C225.365 227.649 225.816 229.11 226.341 230.537C226.388 230.685 226.441 230.833 226.502 230.994C228.844 237.153 232.573 242.422 236.772 244.851C237.311 245.161 237.836 245.417 238.354 245.612C238.65 245.733 238.947 245.827 239.236 245.908C239.499 245.982 239.76 246.042 240.023 246.083C240.891 246.238 241.733 246.231 242.52 246.077C242.635 246.05 242.748 246.023 242.863 245.996C243.024 245.962 243.186 245.915 243.341 245.854C243.462 245.806 243.583 245.76 243.705 245.712C243.832 245.665 243.96 245.604 244.081 245.537C244.202 245.483 244.317 245.422 244.432 245.355C244.492 245.322 244.553 245.288 244.607 245.255C244.634 245.248 244.661 245.228 244.688 245.207C245.624 244.668 247.932 243.336 248.558 242.98C251.673 241.176 253.693 236.606 253.693 230.145C253.693 228.504 253.565 226.835 253.315 225.173Z" fill="#407BFF"/>
<path d="M242.579 232.974C240.961 232.04 239.65 229.263 239.65 226.772C239.65 224.281 240.961 223.019 242.579 223.953C244.197 224.887 245.508 227.663 245.508 230.154C245.509 232.646 244.197 233.908 242.579 232.974ZM249.216 227.534C247.837 218.145 242.789 208.851 236.772 205.379C233.986 203.77 231.409 203.649 229.309 204.76C229.235 204.8 229.161 204.841 229.094 204.888C228.925 204.982 228.757 205.09 228.595 205.204C228.286 205.419 227.989 205.661 227.707 205.937C227.667 205.971 227.626 206.018 227.579 206.058C227.458 206.179 227.337 206.314 227.222 206.449C227.081 206.61 226.94 206.779 226.811 206.953C226.542 207.31 226.287 207.693 226.057 208.111C225.943 208.313 225.828 208.528 225.721 208.75C225.162 209.894 224.718 211.226 224.422 212.734L187.896 191.642V194.254L188.246 194.456L188.569 194.644V195.196L187.896 195.586V197.107L192.85 207.593L197.75 210.427L199.378 208.454L203.699 211.039L206.182 215.293L208.915 216.868L212.341 213.832L216.547 216.262L217.961 222.091L225.008 226.156C225.365 227.65 225.816 229.11 226.341 230.537C226.388 230.685 226.441 230.834 226.502 230.995C228.844 237.154 232.573 242.423 236.772 244.852C237.311 245.161 237.836 245.418 238.354 245.612C238.65 245.734 238.947 245.828 239.236 245.909C239.499 245.982 239.76 246.043 240.023 246.084C240.891 246.239 241.733 246.232 242.52 246.077C242.635 246.05 242.748 246.023 242.863 245.996C243.024 245.963 243.186 245.915 243.341 245.855C243.462 245.807 243.583 245.761 243.705 245.713C243.832 245.665 243.96 245.605 244.081 245.538C244.202 245.484 244.317 245.423 244.432 245.356C244.492 245.323 244.553 245.289 244.607 245.255C244.634 245.249 244.661 245.228 244.688 245.208C247.676 243.323 249.594 238.821 249.594 232.515C249.594 230.873 249.459 229.204 249.216 227.534Z" fill="#407BFF"/>
<path opacity="0.4" d="M245.51 230.154C245.51 232.644 244.198 233.909 242.582 232.974C240.961 232.038 239.648 229.266 239.648 226.775C239.648 224.285 240.961 223.02 242.582 223.955C243.013 224.204 243.424 224.581 243.78 225.052C243.922 226.688 244.581 228.37 245.476 229.514C245.502 229.729 245.51 229.945 245.51 230.154Z" fill="black"/>
<path opacity="0.4" d="M253.694 230.146C253.694 236.607 251.675 241.177 248.558 242.98C247.932 243.337 245.623 244.67 244.689 245.208C247.677 243.323 249.595 238.821 249.595 232.515C249.595 230.873 249.459 229.204 249.218 227.534C247.839 218.145 242.791 208.852 236.774 205.379C233.987 203.77 231.41 203.649 229.311 204.76C230.226 204.235 232.547 202.896 233.174 202.533C235.314 201.281 237.986 201.342 240.873 203.011C246.89 206.483 251.938 215.778 253.317 225.174C253.566 226.835 253.694 228.504 253.694 230.146Z" fill="white"/>
<path d="M249.594 232.515C249.594 238.821 247.675 243.323 244.688 245.208C245.623 244.669 247.932 243.336 248.557 242.98C251.673 241.177 253.692 236.607 253.692 230.146C253.692 229.907 253.684 229.668 253.679 229.428C252.27 230.241 250.846 231.063 249.58 231.795C249.584 232.035 249.594 232.275 249.594 232.515Z" fill="#407BFF"/>
<path opacity="0.1" d="M249.594 232.515C249.594 238.821 247.675 243.323 244.688 245.208C245.623 244.669 247.932 243.336 248.557 242.98C251.673 241.177 253.692 236.607 253.692 230.146C253.692 229.907 253.684 229.668 253.679 229.428C252.27 230.241 250.846 231.063 249.58 231.795C249.584 232.035 249.594 232.275 249.594 232.515Z" fill="black"/>
<path opacity="0.15" d="M224.571 215.427V216.76L187.898 195.587L188.571 195.196V194.645L224.571 215.427Z" fill="black"/>
<path opacity="0.15" d="M224.571 215.98V216.76L187.898 195.587L188.571 195.196V195.19L224.571 215.98Z" fill="black"/>
<path opacity="0.15" d="M226.098 218.948C226.098 228.025 230.877 238.144 236.773 241.547C242.669 244.951 247.448 240.352 247.448 231.275C247.448 222.197 242.669 212.079 236.773 208.676C230.877 205.272 226.098 209.87 226.098 218.948Z" stroke="black" stroke-width="0.7315" stroke-miterlimit="10"/>
<path opacity="0.5" d="M225.723 208.751C225.164 209.896 224.72 211.227 224.424 212.735L187.898 191.643L191.997 189.281L225.723 208.751Z" fill="white"/>
<path d="M364.943 311.858C365.085 313.133 365.259 316.712 371.746 317.604C378.233 318.496 382.32 316.349 384.049 313.228C385.778 310.107 385.382 307.563 385.659 304.673C385.936 301.783 388.324 300.244 389.01 298.756C390.022 296.564 388.543 293.151 388.543 293.151L364.943 311.858Z" fill="#263238"/>
<path d="M317.609 301.694C317.374 301.881 317.307 303.925 318.031 304.832C318.529 305.457 323.037 308.478 328.426 307.612C333.815 306.748 336.405 305.24 339.431 303.3C342.526 301.315 344.701 300.964 347.923 300.854C351.042 300.746 353.326 300.053 353.561 299.234C353.976 297.796 353.976 296.885 353.293 296.931L317.609 301.694Z" fill="#263238"/>
<path d="M387.034 288.132C386.222 294.045 374.753 293.568 375.686 288.845L373.641 274.485L386.623 274.887L387.034 288.132Z" fill="white"/>
<path d="M365.415 308.909C365.989 307.844 367.662 306.309 368.398 305.349C372.246 300.33 374.669 294.491 375.144 288.141C375.17 287.793 375.214 287.118 375.56 286.909C375.926 286.689 376.26 286.993 376.632 287.155C376.639 287.15 376.644 287.144 376.651 287.138C376.651 287.138 376.654 287.157 376.655 287.166C377.12 287.367 377.761 287.591 378.663 287.692C380.962 287.948 383.503 287.398 384.077 287.477C384.523 287.538 384.661 288.919 384.624 290.414C385.442 289.897 385.709 288.873 386.444 288.275C386.84 287.952 387.015 287.942 387.007 287.41C387.001 287.063 386.979 286.752 386.975 286.405C387.564 286.232 388.06 288.494 388.544 290.22C389.105 292.218 389.805 294.473 389.018 296.503C388.579 297.633 387.854 298.623 387.188 299.637C386.042 301.382 385.034 303.296 384.833 305.376C384.746 306.287 384.815 307.211 384.686 308.117C384.234 311.273 382.069 313.755 379.026 314.706C375.07 315.942 369.131 315.748 365.645 312.982C364.425 312.012 364.841 309.974 365.415 308.909Z" fill="#37474F"/>
<path d="M350.647 287.139C347.506 289.58 343.713 291.02 339.847 289.258L338.943 265.087L351.962 267.427L350.647 287.139Z" fill="white"/>
<path d="M320.23 297.523C321.093 297.248 321.946 296.94 322.788 296.605C325.142 295.668 327.412 294.52 329.583 293.214C330.542 292.638 331.482 292.03 332.399 291.389C333.363 290.716 334.254 289.969 335.167 289.229C335.651 288.837 336.096 288.294 336.488 287.813C337.27 286.852 337.928 285.788 338.438 284.659C338.552 284.408 338.677 284.133 338.926 284.014C339.221 283.875 339.573 284.013 339.841 284.201C340.077 284.366 340.287 284.571 340.555 284.686C340.806 284.795 341.066 284.895 341.321 285.001C342.135 285.34 342.998 285.55 343.876 285.629C347.169 285.923 347.275 285.261 347.419 286.324C347.453 286.583 347.466 287.009 347.445 287.515C349.183 287.227 350.554 286.665 350.63 286.006L350.84 283.899C352.573 283.742 352.688 286.843 353.258 290.326C353.718 293.144 354.394 295.186 353.62 297.259C350.999 299.548 346.378 298.993 343.744 299.428C340.02 300.043 338.278 302.799 333.1 304.591C324.753 307.479 319.481 304.148 317.916 302.695C316.881 300.845 316.674 298.656 320.23 297.523Z" fill="#37474F"/>
<path d="M383.371 144.226C384.03 154.464 385.233 169.497 385.652 181.34C386.438 203.6 386.132 228.971 386.132 228.971C386.132 228.971 388.294 236.931 388.53 243.237C389.061 257.457 388.96 289.389 388.96 289.389C388.96 289.389 383.069 295.327 374.244 290.662C374.244 290.662 366.43 245.894 364.244 231.87C362.159 218.5 358.086 191.759 358.086 191.759L356.243 229.714C356.243 229.714 358.401 237.443 357.631 247.931C357.153 254.444 353.434 286.616 353.434 286.616C350.046 289.796 340.162 288.068 338.003 285.539C338.003 285.539 334.542 237.998 334.158 231.131C333.327 216.277 331.118 160.912 332.223 152.313C333.326 143.714 383.371 144.226 383.371 144.226Z" fill="#263238"/>
<path d="M358.087 191.759L355.5 174.63C355.5 174.63 348.382 173.283 343.189 169.428C343.189 169.428 345.212 174.004 353.075 177.269L355.632 193.22L356.245 229.713L358.087 191.759Z" fill="black"/>
<path d="M372.616 75.4888C373.09 77.419 376.373 77.1236 377.8 76.762C379.564 76.3146 380.871 74.7442 380.654 72.9212C381.396 72.6956 382.081 72.3191 382.56 71.7543C383.362 70.8102 383.233 69.5967 382.694 68.5743C383.86 67.6945 384.581 66.2546 384.317 64.8035C384.13 63.768 383.517 62.795 382.715 62.1817C382.033 61.6608 380.766 61.0354 379.856 61.164C379.52 61.2115 379.186 61.8406 379.672 61.891C380.311 61.9562 381.257 62.4092 381.752 62.7922C382.297 63.2125 382.933 63.8435 383.165 64.5807C383.551 65.8054 383.104 67.0198 382.162 67.7831C381.983 67.5687 381.794 67.3665 381.59 67.1978C380.921 66.6451 380.107 66.2891 379.228 66.3636C378.62 66.4149 377.869 66.6824 377.669 67.3273C377.443 68.0571 378.198 68.6741 378.757 68.9919C379.587 69.4653 380.553 69.5306 381.455 69.2351C381.527 69.2118 381.595 69.1727 381.665 69.1447C381.715 69.2444 381.763 69.3442 381.8 69.4411C382.303 70.7813 381.495 71.6089 380.397 71.9789C379.742 70.6145 377.95 69.6163 376.514 70.3312C375.69 70.7412 375.596 71.6322 376.183 72.3033C376.718 72.9147 377.608 73.1337 378.388 73.1803C378.746 73.2017 379.129 73.1933 379.516 73.1514C379.594 73.7441 379.468 74.3648 379.121 74.8644C378.517 75.733 377.402 75.9381 376.415 76.0117C375.133 76.1068 374.23 75.7479 373.213 74.9958C372.932 74.7871 372.546 75.2027 372.616 75.4888ZM381.127 68.3302C380.508 68.5007 379.881 68.4103 379.325 68.0375C378.934 67.7756 378.504 67.3935 379.198 67.3422C379.924 67.2891 380.619 67.7421 381.127 68.3302ZM379.181 72.1979C378.766 72.2157 378.358 72.1821 378.002 72.0917C377.726 72.0218 376.506 71.4039 377.128 71.1271C377.608 70.9137 378.441 71.388 378.779 71.6937C378.941 71.841 379.07 72.0143 379.181 72.1979Z" fill="#263238"/>
<path d="M374.883 39.441C374.883 39.441 375.118 39.4736 375.487 39.5668C375.232 38.2667 375.802 36.96 376.976 36.4232C378.388 35.7773 380.122 36.4875 380.847 38.0104L376.629 39.9396C377.751 40.3889 379.125 41.2109 379.839 42.6797C380.996 45.0573 379.471 50.1227 377.93 56.3783C376.388 62.6338 375.55 65.3366 374.527 67.9677C373.819 69.7888 372.545 69.8457 372.545 69.8457V63.605L372.814 58.4324C372.814 58.4324 369.493 53.8982 369.129 50.1823C368.659 45.4002 369.666 43.443 369.666 43.443L374.883 39.441Z" fill="#263238"/>
<path d="M351.931 34.0772C357.743 34.0958 362.44 38.823 362.42 44.6358C362.402 50.4487 357.675 55.1451 351.862 55.1255C346.049 55.1069 341.353 50.3798 341.371 44.5669C341.392 38.754 346.119 34.0576 351.931 34.0772Z" fill="#263238"/>
<path d="M372.619 57.6075C373.867 58.6896 374.882 55.8899 375.932 54.7976C376.981 53.7062 380.403 52.2215 382.094 55.8172C383.818 59.4818 380.527 64.4596 377.971 65.6451C374.225 67.3823 372.547 63.6059 372.547 63.6059V79.2197C368.602 86.3262 360.07 84.6644 356.037 85.6598C355.304 82.779 355.594 81.6886 356.014 80.092L356.044 75.0052C356.044 75.0052 352.937 75.6045 350.89 75.2811C347.483 74.7433 345.658 71.937 344.635 68.2444C342.994 62.3141 342.655 52.3566 344.935 40.8418C348.751 37.8911 361.661 38.3692 369.667 43.4449C369.081 53.6559 371.372 56.5255 372.619 57.6075Z" fill="white"/>
<path d="M356.044 75.0033C356.044 75.0033 363.656 73.4953 366.32 72.0908C368.103 71.1504 369.574 69.5148 370.009 68.4653C370.009 68.4653 369.503 70.7208 367.906 72.7488C365.953 75.2288 356.037 77.0276 356.037 77.0276L356.044 75.0033Z" fill="white"/>
<path d="M339.719 51.443C339.753 52.142 340.188 52.8065 340.418 53.0814C340.532 53.2306 340.635 53.4253 340.693 53.6658C340.944 54.7777 341.128 56.8859 341.632 58.0658C342.136 59.2578 343.202 61.1488 346.285 61.2746C346.892 61.3091 347.419 61.2635 347.89 61.1712C347.935 61.1712 347.981 61.16 348.015 61.1479C348.52 61.0444 348.955 60.8729 349.333 60.667C349.356 60.6437 349.39 60.6325 349.413 60.6213C349.448 60.598 349.482 60.5756 349.528 60.5523C349.551 60.529 349.585 60.5067 349.665 60.4489C349.711 60.4256 349.756 60.3911 349.791 60.3576C349.848 60.3231 349.894 60.2886 349.94 60.2429C349.986 60.2084 350.031 60.1739 350.077 60.1283C350.168 60.0481 350.248 59.968 350.341 59.8757C350.799 59.3948 351.143 58.8104 351.418 58.2251C352.129 56.7125 351.991 54.5586 353.114 54.3406C353.16 54.3294 353.206 54.3294 353.251 54.3173H353.4C354.924 54.375 354.706 56.7013 355.52 58.3854C356.333 60.0705 357.72 61.7313 361.02 61.8348C361.17 61.846 361.307 61.846 361.444 61.846C361.559 61.846 361.674 61.8348 361.788 61.8227C362.075 61.8115 362.338 61.777 362.579 61.7313C362.671 61.708 362.751 61.6968 362.831 61.6745C362.911 61.6633 362.992 61.64 363.072 61.6167C363.129 61.6055 363.175 61.5822 363.221 61.571C363.565 61.4564 363.863 61.3184 364.126 61.1703C364.229 61.1013 364.332 61.0444 364.435 60.9755C364.619 60.8375 364.79 60.6893 364.951 60.529C365.466 60.0248 365.776 59.4628 365.982 58.9931C366.521 57.8467 366.704 55.7619 366.979 54.6733C367.048 54.3872 367.139 54.1803 367.242 54.0433C367.461 53.7338 367.976 53.1951 368.01 52.4961C368.045 51.7859 367.563 51.1671 367.117 51.0981C366.865 51.0525 366.59 51.018 366.314 50.9723C363.713 50.606 360.321 50.3991 358.281 50.9145C355.715 51.5567 354.81 52.3582 353.388 52.3125C352.07 52.2547 351.222 51.3843 348.816 50.5473C346.902 49.8828 343.728 49.8483 341.298 50.0207C341.035 50.0319 340.794 50.0552 340.542 50.0785C340.132 50.1251 339.684 50.744 339.719 51.443ZM356.45 53.3685C356.587 53.1737 356.851 52.9789 357.183 52.7953C357.229 52.7608 357.276 52.7496 357.321 52.7263C357.345 52.703 357.367 52.6919 357.39 52.6807C357.505 52.635 357.631 52.5772 357.757 52.5204C357.86 52.4747 357.974 52.4402 358.089 52.3945C358.433 52.2687 358.8 52.1653 359.189 52.0739C359.327 52.0395 359.475 52.005 359.624 51.9826C359.991 51.9136 360.369 51.8568 360.747 51.8223C360.839 51.8223 360.919 51.8111 361.011 51.8111C363.463 51.662 364.988 52.2697 365.526 52.7851C366.099 53.3126 365.79 55.581 365.537 56.7274C365.526 56.7507 365.526 56.7852 365.514 56.8076C365.514 56.8421 365.502 56.8654 365.49 56.8989C365.467 57.0368 365.421 57.1971 365.376 57.3574C365.352 57.4488 365.33 57.5522 365.296 57.6436C365.296 57.6548 365.296 57.6548 365.296 57.6548C365.238 57.8151 365.181 57.9754 365.112 58.1357C365.101 58.1934 365.066 58.2503 365.043 58.296C365.032 58.3304 365.02 58.3649 364.997 58.3994C364.986 58.4339 364.963 58.4684 364.952 58.5029C364.928 58.5485 364.906 58.5942 364.883 58.6408C364.848 58.6986 364.825 58.7443 364.791 58.7899C364.757 58.8477 364.734 58.9046 364.688 58.9502C364.653 59.0071 364.619 59.0649 364.584 59.1105C363.954 59.982 362.911 60.7033 361.124 60.6688C359.348 60.6232 358.236 59.9931 357.525 59.2131C356.815 58.4339 356.517 57.5056 356.38 56.8635C356.106 55.5689 355.957 54.0563 356.45 53.3685ZM342.045 51.8903C342.183 51.7645 342.377 51.6266 342.653 51.5231C342.664 51.5119 342.676 51.4998 342.698 51.4998C342.778 51.4653 342.87 51.4309 342.962 51.3964C343.02 51.3852 343.077 51.3619 343.122 51.3507C343.168 51.3395 343.215 51.3274 343.26 51.3162C343.295 51.305 343.329 51.305 343.353 51.2929C343.364 51.2929 343.376 51.2817 343.387 51.2817C343.433 51.2706 343.479 51.2706 343.525 51.2584C343.696 51.224 343.892 51.1895 344.087 51.1783C344.19 51.1671 344.293 51.155 344.396 51.155C344.454 51.1438 344.522 51.1438 344.58 51.1438C344.626 51.1438 344.683 51.1438 344.729 51.1326C344.855 51.1326 344.981 51.1326 345.119 51.1438H345.257C345.302 51.1438 345.348 51.155 345.394 51.155C345.749 51.1783 346.127 51.2128 346.529 51.2808C348.271 51.5669 350.082 52.415 350.539 53.1485C351.009 53.8708 350.871 55.3602 350.619 56.6435C350.562 56.8961 350.494 57.1822 350.379 57.4916C350.368 57.5149 350.356 57.5373 350.356 57.5606C350.344 57.5951 350.332 57.6184 350.321 57.652C350.31 57.6631 350.31 57.6864 350.298 57.7088C350.287 57.7433 350.263 57.7778 350.252 57.8123C350.218 57.8812 350.183 57.9493 350.149 58.0182C350.125 58.076 350.091 58.1329 350.056 58.2018C350.045 58.213 350.033 58.2363 350.022 58.2596C349.999 58.2941 349.976 58.3398 349.942 58.3854C349.93 58.4087 349.907 58.4432 349.873 58.4889V58.5001C349.243 59.4172 348.142 60.2075 346.194 60.0929C345.461 60.0584 344.853 59.8748 344.361 59.6119C342.642 58.6958 342.241 56.7358 342.046 55.8308C341.804 54.663 341.518 52.3712 342.045 51.8903Z" fill="#263238"/>
<path d="M366.946 51.1382L378.088 53.6443C378.088 53.6443 376.743 53.8745 375.523 55.2986L366.938 53.6714L366.946 51.1382Z" fill="#263238"/>
<path d="M342.045 55.8325C342.24 56.7375 342.641 58.6975 344.36 59.6136C344.853 59.8774 345.46 60.061 346.194 60.0945C348.141 60.2092 349.242 59.4188 349.872 58.5017V58.4906C349.907 58.4449 349.929 58.4104 349.941 58.3871C349.976 58.3414 349.998 58.2958 350.021 58.2613C350.033 58.238 350.045 58.2156 350.056 58.2035C350.09 58.1345 350.125 58.0777 350.148 58.0199C350.183 57.9509 350.217 57.8829 350.252 57.8139C350.263 57.7794 350.286 57.745 350.297 57.7105C350.308 57.6872 350.308 57.6648 350.321 57.6536C350.332 57.6191 350.344 57.5958 350.355 57.5623C350.355 57.5399 350.366 57.5166 350.378 57.4933C350.493 57.1839 350.562 56.8978 350.619 56.6452C350.87 55.3618 351.008 53.8716 350.539 53.1502C350.08 52.4167 348.269 51.5686 346.528 51.2825C346.127 51.2135 345.749 51.179 345.393 51.1566C345.347 51.1566 345.302 51.1455 345.256 51.1455H345.118C344.981 51.1343 344.854 51.1343 344.729 51.1343C344.683 51.1455 344.625 51.1455 344.579 51.1455C344.523 51.1455 344.454 51.1455 344.396 51.1566C344.292 51.1566 344.19 51.1678 344.086 51.1799C343.892 51.1911 343.697 51.2256 343.524 51.2601C343.479 51.2713 343.433 51.2713 343.386 51.2834C343.375 51.2834 343.363 51.2946 343.352 51.2946C343.329 51.3058 343.295 51.3058 343.26 51.3179C343.214 51.3291 343.168 51.3412 343.122 51.3524C343.076 51.3636 343.019 51.3869 342.961 51.398C342.87 51.4325 342.778 51.467 342.698 51.5015C342.674 51.5015 342.663 51.5127 342.652 51.5248C342.377 51.6282 342.182 51.7652 342.044 51.892C341.519 52.371 341.805 54.6628 342.045 55.8325Z" fill="#37474F"/>
<path d="M356.381 56.8634C356.518 57.5046 356.816 58.4338 357.527 59.2129C358.237 59.9921 359.349 60.6221 361.125 60.6687C362.913 60.7032 363.955 59.9809 364.586 59.1104C364.62 59.0648 364.654 59.007 364.689 58.9501C364.735 58.9045 364.758 58.8467 364.792 58.7898C364.827 58.7442 364.849 58.6985 364.884 58.6407C364.907 58.595 364.929 58.5494 364.953 58.5028C364.964 58.4683 364.987 58.4338 364.998 58.3993C365.022 58.3648 365.033 58.3303 365.044 58.2959C365.067 58.2502 365.102 58.1924 365.113 58.1356C365.182 57.9753 365.239 57.815 365.297 57.6546C365.297 57.6546 365.297 57.6546 365.297 57.6435C365.331 57.5521 365.354 57.4487 365.377 57.3573C365.422 57.197 365.468 57.0367 365.491 56.8988C365.503 56.8643 365.515 56.841 365.515 56.8075C365.526 56.7842 365.526 56.7497 365.538 56.7273C365.791 55.5819 366.099 53.3125 365.527 52.7849C364.988 52.2696 363.464 51.6619 361.012 51.811C360.921 51.811 360.84 51.8222 360.748 51.8222C360.37 51.8567 359.993 51.9135 359.625 51.9825C359.476 52.0058 359.327 52.0403 359.19 52.0738C358.801 52.1652 358.434 52.2686 358.09 52.3944C357.976 52.4401 357.861 52.4746 357.758 52.5203C357.632 52.5771 357.505 52.6349 357.391 52.6806C357.368 52.6917 357.346 52.7029 357.322 52.7262C357.277 52.7495 357.231 52.7607 357.184 52.7952C356.852 52.9788 356.589 53.1736 356.451 53.3684C355.957 54.0562 356.106 55.5688 356.381 56.8634Z" fill="#37474F"/>
<path d="M342.345 32.6997C342.359 32.5711 342.375 32.4434 342.393 32.3158C342.428 32.079 342.477 31.8283 342.643 31.6559C343.156 31.1219 344.181 32.4612 344.547 32.7743C344.898 33.0735 345.258 33.3643 345.638 33.6271C345.759 33.711 346.653 34.1481 346.663 34.2375C346.526 32.971 346.339 31.668 346.656 30.4005C346.806 29.5608 347.045 27.6166 348.084 27.4078C348.703 27.2839 349.242 27.8012 349.703 28.2327C353.868 32.1312 359.306 30.3269 364.325 30.4872C368.521 30.6214 373.585 32.3288 375.48 36.41C376.347 38.2768 376.496 40.2443 374.782 41.5351C373.676 42.3683 372.594 42.3292 371.975 43.6619C371.823 43.9891 370.864 47.9612 371.429 47.9212C369.29 48.0722 367.246 46.813 366.753 44.7253C366.65 44.291 366.416 43.5007 366.32 43.0543C366.18 42.3953 365.633 42.2183 365.122 42.3282C363.85 42.6022 363.019 43.1232 361.813 43.4532C358.552 44.347 354.562 44.7477 351.248 44.0767C348.76 43.5725 346.357 42.3758 344.609 40.5136C342.702 38.4763 342.045 35.438 342.345 32.6997Z" fill="#263238"/>
<path d="M358.725 49.0796L362.406 49.6509C362.537 48.6061 361.817 47.6303 360.801 47.4728C359.783 47.3153 358.854 48.0348 358.725 49.0796Z" fill="#263238"/>
<path d="M357.862 66.2119L354.762 67.0172C354.967 67.9035 355.827 68.4413 356.683 68.2194C357.541 67.9967 358.068 67.0982 357.862 66.2119Z" fill="white"/>
<path d="M344.759 49.2895L348.491 48.8804C348.416 47.8374 347.52 47.0835 346.49 47.1962C345.458 47.3099 344.683 48.2466 344.759 49.2895Z" fill="#263238"/>
<path d="M353.84 54.4176L353.337 63.115L348.49 61.8494L353.322 54.3216C353.49 54.3113 353.663 54.3458 353.84 54.4176Z" fill="white"/>
<path d="M374.625 60.4575C374.625 61.7092 375.64 62.7242 376.892 62.7242C378.143 62.7242 379.158 61.7092 379.158 60.4575C379.158 59.2059 378.143 58.1909 376.892 58.1909C375.64 58.1918 374.625 59.2059 374.625 60.4575Z" fill="#263238"/>
<path d="M374.379 56.3122C374.595 55.6849 374.91 54.9598 375.384 54.4817C375.792 54.0689 376.583 53.766 377.184 53.8666C377.216 53.8722 377.246 53.9458 377.213 53.9654C376.965 54.1155 376.782 54.1928 376.536 54.369C376.296 54.5404 376.036 54.738 375.839 54.958C375.654 55.1658 375.514 55.4147 375.403 55.6663C375.281 55.9431 375.159 56.3271 375.141 56.63C375.105 57.2377 375.141 57.6235 375.359 58.124C375.472 58.3822 375.595 58.6254 375.787 58.8342C375.952 59.0131 376.182 59.1669 376.288 59.3896C376.426 59.6776 376.031 60.1679 375.717 60.0001C375.111 59.6758 374.732 59.0495 374.485 58.4315C374.206 57.7344 374.131 57.0308 374.379 56.3122Z" fill="#263238"/>
<path d="M342.078 87.2769C338.925 89.3375 334.577 92.0254 333.515 94.9398C332.452 97.8541 329.386 114.775 329.045 120.225C329.045 120.225 333.631 122.458 337.903 122.723L342.078 87.2769Z" fill="#455A64"/>
<path d="M379.291 79.2153C387.271 83.5883 395.176 90.1356 396.831 92.6529C396.831 92.6529 392.16 108.192 388.061 115.561C383.962 122.931 381.756 144.734 381.756 144.734C381.756 144.734 353.645 154.063 344.834 154.789C336.024 155.515 334.907 151.777 334.907 151.777C334.907 151.777 334.723 127.41 336.746 111.141C338.768 94.8729 338.349 90.0405 342.077 87.2771C344.487 85.4905 354.888 80.9824 354.888 80.9824C354.888 80.9824 354.888 83.113 354.888 85.6592C360.606 85.7505 379.291 79.2153 379.291 79.2153Z" fill="#37474F"/>
<path d="M352.729 88.1529C352.729 88.1529 351.967 86.8406 352.131 84.7558L354.478 83.0483L354.518 86.0102L352.729 88.1529Z" fill="#407BFF"/>
<path opacity="0.25" d="M352.729 88.1529C352.729 88.1529 351.967 86.8406 352.131 84.7558L354.478 83.0483L354.518 86.0102L352.729 88.1529Z" fill="black"/>
<path d="M357.291 86.3448L363.374 82.875L367.934 86.494L358.71 90.3226L357.291 86.3448Z" fill="#407BFF"/>
<path opacity="0.25" d="M357.291 86.3448L363.374 82.875L367.934 86.494L358.71 90.3226L357.291 86.3448Z" fill="black"/>
<path d="M372.547 72.6138V73.8394C372.314 75.0071 370.02 77.7062 364.233 80.3037C358.343 82.9468 356.037 85.659 356.037 85.659C356.037 85.659 358.229 85.6496 360.625 86.508C363.259 87.4512 367.638 90.7924 368.888 90.7607C370.104 90.73 371.859 87.276 375.138 83.8378C377.893 80.9486 379.291 79.2151 379.291 79.2151C379.291 79.2151 374.795 72.6389 372.547 72.6138Z" fill="#455A64"/>
<path d="M356.038 85.6589C353.944 85.8957 351.979 87.3486 351.466 86.5797C350.953 85.8108 352.732 78.8069 356.024 76.6772L356.038 85.6589Z" fill="#455A64"/>
<path d="M335.725 122.436C335.725 122.436 335.467 126.791 335.4 128.278C335.333 129.766 337.831 155.328 337.831 155.328L329.045 159.041C329.045 159.041 327.986 149.2 327.64 143.714C327.295 138.228 327.707 131.477 328.397 126.814C329.088 122.151 329.344 120.366 329.344 120.366C331.703 121.456 333.869 121.99 335.725 122.436Z" fill="white"/>
<path d="M329.752 171.514C329.752 171.514 329.741 171.909 329.759 173.397C329.777 174.884 330.673 179.275 331.223 180.65C331.774 182.027 333.111 185.054 333.78 185.408C334.563 185.823 335.089 185.868 335.924 185.79C337.317 185.661 338.77 186.377 340.083 185.747C340.596 185.501 341.08 185.172 341.634 185.04C342.453 184.844 343.384 185.088 344.109 184.66C344.572 184.387 344.862 183.883 345.322 183.604C345.994 183.195 346.877 183.344 347.593 183.016C348.168 182.752 348.574 182.197 348.775 181.597C349.187 180.366 348.785 178.984 348.533 177.753C348.533 177.753 349.123 177.085 349.162 175.669C349.202 174.253 348.927 171.854 348.612 170.95C348.298 170.046 341.926 166.389 341.926 166.389L340.668 165.563C340.668 165.563 336.539 164.462 332.843 166.821C329.147 169.182 329.752 171.514 329.752 171.514Z" fill="white"/>
<path d="M331.476 171.341C329.792 174.148 330.781 179.175 330.788 179.235C330.257 177.32 329.773 174.538 329.759 173.397C329.741 171.91 329.752 171.515 329.752 171.515C329.752 171.515 329.147 169.183 332.843 166.823C336.539 164.463 340.668 165.565 340.668 165.565C340.668 165.565 333.169 168.518 331.476 171.341Z" fill="white"/>
<path d="M348.532 177.754C348.022 176.025 346.527 173.41 345.819 172.751C345.112 172.092 344.522 171.267 345.229 171.542C345.937 171.817 346.92 171.983 347.313 171.488C347.707 170.992 347.785 171.857 347.352 172.525C346.92 173.193 347.274 173.705 347.785 174.806C348.297 175.906 348.419 177.133 348.532 177.754Z" fill="white"/>
<path d="M394.394 92.9619C397.051 93.8762 397.406 101.161 396.83 107.68C396.254 114.199 391.168 129.631 388.846 135.003C386.242 141.027 384.664 144.509 382.933 146.402C381.202 148.295 377.576 149.844 372.938 152.248C368.736 154.426 365.867 155.523 358.715 157.743C350.645 160.249 347.548 160.402 345.817 161.601C344.085 162.799 343.613 165.417 341.926 166.39L340.668 165.565C338.475 166.006 334.81 167.469 332.641 168.914C330.586 170.284 329.751 171.515 329.751 171.515L329.758 173.397C329.758 173.397 327.713 174.262 325.982 170.589C324.25 166.916 323.451 161.456 325.449 159.058C327.446 156.661 333.757 153.419 338.859 151.777C343.961 150.135 346.53 148.496 352.515 144.879C358.89 141.026 363.312 138.465 366.462 136.733C367.671 136.038 368.481 135.185 369.02 132.963C369.446 131.205 370.728 126.022 371.512 122.13C372.815 115.665 375.619 95.9639 394.394 92.9619Z" fill="white"/>
<path d="M396.832 92.6526C396.832 92.6526 398.069 92.8698 398.241 98.0265C398.413 103.184 398.208 108.687 397.536 112.648C396.864 116.61 392.905 128.314 392.905 128.314C392.905 128.314 381.469 132.065 369.764 127.59C369.764 127.59 372.518 110.721 373.55 106.247C374.583 101.771 389.053 87.973 396.832 92.6526Z" fill="#455A64"/>
<path d="M356.367 92.9878C355.715 97.1781 354.812 107.144 354.812 121.207C354.812 124.655 349.781 131.652 348.597 131.504C347.414 131.355 345.243 124.775 344.936 120.956C345.413 111.712 351.002 97.3664 353.444 92.4678L356.367 92.9878Z" fill="#407BFF"/>
<path opacity="0.15" d="M353.258 92.8667C353.32 92.7278 353.383 92.5899 353.443 92.4688L356.366 92.9888L356.191 94.2172C354.99 94.1501 353.645 93.3197 353.258 92.8667Z" fill="black"/>
<path d="M357.292 86.3448C356.038 86.0083 354.519 86.0083 354.519 86.0083C354.519 86.0083 353.422 86.8014 352.729 88.1519C352.729 88.1519 352.575 90.7494 353.443 92.468C353.443 92.468 354.523 93.3776 356.366 92.988C356.366 92.988 358.115 91.9321 358.71 90.3225C358.9 88.9133 357.917 86.8014 357.292 86.3448Z" fill="#407BFF"/>
</g>
<defs>
<clipPath id="clip0_168_744">
<rect width="428" height="400" fill="white"/>
</clipPath>
</defs>
</svg>
