<svg width="678" height="397" viewBox="0 0 678 397" fill="none" xmlns="http://www.w3.org/2000/svg">
<g clip-path="url(#clip0_172_11542)">
<path d="M651.141 117.593C634.816 81.7852 610.15 50.5636 573.711 33.1129C525.019 9.79465 467.31 9.21786 416.796 27.0917C387.983 37.287 362.432 54.4209 337.601 71.883C315.53 87.4032 290.35 111.109 263.058 116.122C226.114 122.907 138.837 67.8844 73.379 83.063C7.92099 98.2417 -11.0523 183.622 5.07499 236.747C21.2023 289.872 83.8143 289.872 106.582 333.511C129.35 377.15 210.936 414.148 311.494 389.482C412.053 364.817 464.23 350.587 517.355 370.509C570.48 390.431 643.528 396.123 668.194 312.638C678.068 279.217 680.943 243.763 676.281 209.213C672.194 178.938 664.432 146.745 651.141 117.593Z" fill="#407BFF"/>
<path opacity="0.7" d="M651.141 117.593C634.816 81.7852 610.15 50.5636 573.711 33.1129C525.019 9.79465 467.31 9.21786 416.796 27.0917C387.983 37.287 362.432 54.4209 337.601 71.883C315.53 87.4032 290.35 111.109 263.058 116.122C226.114 122.907 138.837 67.8844 73.379 83.063C7.92099 98.2417 -11.0523 183.622 5.07499 236.747C21.2023 289.872 83.8143 289.872 106.582 333.511C129.35 377.15 210.936 414.148 311.494 389.482C412.053 364.817 464.23 350.587 517.355 370.509C570.48 390.431 643.528 396.123 668.194 312.638C678.068 279.217 680.943 243.763 676.281 209.213C672.194 178.938 664.432 146.745 651.141 117.593Z" fill="white"/>
<path d="M12.8359 369.751H688.43" stroke="#263238" stroke-width="0.948667" stroke-miterlimit="10"/>
<path d="M232.083 43.3812L243.704 44.7141L246.118 34.1355L235.288 30.3702C235.148 28.1646 234.689 26.0453 233.951 24.0606L241.95 16.0937L235.185 7.61077L225.78 13.5466C223.934 12.264 221.887 11.2518 219.692 10.5735L218.481 -0.378906H207.63L206.413 10.6199C204.228 11.3115 202.192 12.3342 200.358 13.6253L190.968 7.69899L184.203 16.182L192.247 24.1935C191.526 26.1733 191.081 28.2851 190.952 30.4822L180.131 34.2446L182.545 44.8232L194.232 43.4827C195.294 45.1969 196.583 46.7547 198.056 48.116L194.128 59.2695L203.904 63.9777L210.257 53.8222C211.196 53.9437 212.151 54.0129 213.124 54.0129C214.13 54.0129 215.12 53.9399 216.091 53.8099L222.421 63.9284L232.197 59.2201L228.262 48.0486C229.738 46.6778 231.026 45.1087 232.083 43.3812ZM201.076 31.8008C201.076 25.1459 206.471 19.7509 213.125 19.7509C219.78 19.7509 225.175 25.1459 225.175 31.8008C225.175 38.4557 219.78 43.8508 213.125 43.8508C206.471 43.8508 201.076 38.4557 201.076 31.8008Z" stroke="#263238" stroke-width="0.948667" stroke-miterlimit="10"/>
<path d="M588.132 205.6L595.619 206.459L597.175 199.644L590.196 197.218C590.106 195.797 589.81 194.432 589.335 193.153L594.488 188.02L590.13 182.554L584.071 186.379C582.881 185.552 581.563 184.9 580.149 184.463L579.368 177.407H572.378L571.594 184.494C570.186 184.939 568.875 185.598 567.693 186.43L561.643 182.611L557.285 188.077L562.468 193.238C562.003 194.514 561.716 195.875 561.634 197.29L554.662 199.714L556.218 206.529L563.748 205.666C564.432 206.77 565.262 207.774 566.211 208.651L563.681 215.837L569.979 218.869L574.072 212.327C574.677 212.405 575.293 212.45 575.919 212.45C576.568 212.45 577.204 212.402 577.83 212.319L581.909 218.838L588.207 215.805L585.672 208.608C586.62 207.724 587.451 206.713 588.132 205.6ZM568.154 198.139C568.154 193.851 571.63 190.376 575.917 190.376C580.205 190.376 583.68 193.852 583.68 198.139C583.68 202.427 580.204 205.902 575.917 205.902C571.63 205.902 568.154 202.427 568.154 198.139Z" stroke="#263238" stroke-width="0.948667" stroke-miterlimit="10"/>
<path d="M655.856 47.7079L660.556 48.2468L661.532 43.9692L657.152 42.4466C657.095 41.5549 656.91 40.6982 656.611 39.8957L659.846 36.674L657.11 33.2436L653.307 35.6437C652.56 35.1248 651.733 34.7159 650.845 34.4418L650.355 30.0125H645.967L645.475 34.4607C644.591 34.7406 643.768 35.1542 643.026 35.676L639.229 33.2797L636.493 36.71L639.746 39.9497C639.454 40.7504 639.274 41.6042 639.222 42.4931L634.846 44.0148L635.822 48.2923L640.548 47.7506C640.978 48.4431 641.499 49.074 642.094 49.6242L640.506 54.1342L644.459 56.0382L647.028 51.9314C647.408 51.9807 647.795 52.0082 648.188 52.0082C648.595 52.0082 648.995 51.9788 649.388 51.9257L651.947 56.0173L655.9 54.1133L654.31 49.5958C654.907 49.0408 655.429 48.4062 655.856 47.7079ZM643.316 43.0244C643.316 40.333 645.498 38.1511 648.19 38.1511C650.881 38.1511 653.063 40.333 653.063 43.0244C653.063 45.7157 650.881 47.8977 648.19 47.8977C645.498 47.8977 643.316 45.7157 643.316 43.0244Z" stroke="#263238" stroke-width="0.948667" stroke-miterlimit="10"/>
<path d="M75.6429 245.91L80.3426 246.449L81.3188 242.172L76.9388 240.649C76.8819 239.757 76.696 238.9 76.3981 238.098L79.633 234.876L76.8971 231.446L73.0939 233.846C72.3473 233.327 71.52 232.918 70.6321 232.644L70.1416 228.215H65.754L65.2617 232.663C64.3785 232.943 63.555 233.357 62.8132 233.878L59.0157 231.482L56.2797 234.912L59.5327 238.152C59.2405 238.953 59.0612 239.807 59.009 240.695L54.6328 242.217L55.609 246.495L60.3352 245.953C60.765 246.646 61.2858 247.276 61.8816 247.827L60.2935 252.337L64.2466 254.241L66.8156 250.134C67.1951 250.183 67.5821 250.211 67.9749 250.211C68.3818 250.211 68.7822 250.181 69.1749 250.128L71.7344 254.22L75.6875 252.316L74.0966 247.798C74.6943 247.243 75.2151 246.609 75.6429 245.91ZM63.1035 241.227C63.1035 238.535 65.2854 236.353 67.9768 236.353C70.6681 236.353 72.8501 238.535 72.8501 241.227C72.8501 243.918 70.6681 246.1 67.9768 246.1C65.2854 246.1 63.1035 243.918 63.1035 241.227Z" stroke="#263238" stroke-width="0.948667" stroke-miterlimit="10"/>
<path d="M605.539 51.2969H534.652V124.268H605.539V51.2969Z" stroke="#263238" stroke-width="0.948667" stroke-miterlimit="10"/>
<path d="M605.539 51.2969H534.652V58.17H605.539V51.2969Z" fill="#407BFF" stroke="#263238" stroke-width="0.948667" stroke-miterlimit="10"/>
<path d="M545.501 84.302H538.266V91.5375H545.501V84.302Z" stroke="#263238" stroke-width="0.948667" stroke-miterlimit="10"/>
<path d="M556.657 84.302H549.422V91.5375H556.657V84.302Z" stroke="#263238" stroke-width="0.948667" stroke-miterlimit="10"/>
<path d="M567.81 84.302H560.574V91.5375H567.81V84.302Z" stroke="#263238" stroke-width="0.948667" stroke-miterlimit="10"/>
<path d="M578.966 84.302H571.73V91.5375H578.966V84.302Z" stroke="#263238" stroke-width="0.948667" stroke-miterlimit="10"/>
<path d="M590.12 84.302H582.885V91.5375H590.12V84.302Z" stroke="#263238" stroke-width="0.948667" stroke-miterlimit="10"/>
<path d="M601.275 84.302H594.039V91.5375H601.275V84.302Z" stroke="#263238" stroke-width="0.948667" stroke-miterlimit="10"/>
<path d="M545.501 95.5H538.266V102.735H545.501V95.5Z" stroke="#263238" stroke-width="0.948667" stroke-miterlimit="10"/>
<path d="M556.657 95.5H549.422V102.735H556.657V95.5Z" fill="#407BFF" stroke="#263238" stroke-width="0.948667" stroke-miterlimit="10"/>
<path d="M567.81 95.5H560.574V102.735H567.81V95.5Z" stroke="#263238" stroke-width="0.948667" stroke-miterlimit="10"/>
<path d="M578.966 95.5H571.73V102.735H578.966V95.5Z" stroke="#263238" stroke-width="0.948667" stroke-miterlimit="10"/>
<path d="M590.12 95.5H582.885V102.735H590.12V95.5Z" stroke="#263238" stroke-width="0.948667" stroke-miterlimit="10"/>
<path d="M601.275 95.5H594.039V102.735H601.275V95.5Z" stroke="#263238" stroke-width="0.948667" stroke-miterlimit="10"/>
<path d="M545.501 106.697H538.266V113.933H545.501V106.697Z" stroke="#263238" stroke-width="0.948667" stroke-miterlimit="10"/>
<path d="M556.657 106.697H549.422V113.933H556.657V106.697Z" stroke="#263238" stroke-width="0.948667" stroke-miterlimit="10"/>
<path d="M567.81 106.697H560.574V113.933H567.81V106.697Z" stroke="#263238" stroke-width="0.948667" stroke-miterlimit="10"/>
<path d="M578.966 106.697H571.73V113.933H578.966V106.697Z" fill="#407BFF" stroke="#263238" stroke-width="0.948667" stroke-miterlimit="10"/>
<path d="M590.12 106.697H582.885V113.933H590.12V106.697Z" stroke="#263238" stroke-width="0.948667" stroke-miterlimit="10"/>
<path d="M601.275 106.697H594.039V113.933H601.275V106.697Z" stroke="#263238" stroke-width="0.948667" stroke-miterlimit="10"/>
<path d="M602.007 63.6294H538.266V77.756H602.007V63.6294Z" stroke="#263238" stroke-width="0.948667" stroke-miterlimit="10"/>
<path d="M574.32 109.265L576.031 111.287L581.161 103.669" stroke="#263238" stroke-width="0.948667" stroke-miterlimit="10"/>
<path d="M551.625 97.7607L553.179 100.248L559.087 93.2527" stroke="#263238" stroke-width="0.948667" stroke-miterlimit="10"/>
<path d="M534.299 370.688L540.657 305.746L545.618 306.834L536.636 370.688H534.299Z" fill="white" stroke="#263238" stroke-width="0.948667" stroke-miterlimit="10"/>
<path d="M607.726 370.688L598.744 306.834L603.706 305.746L610.064 370.688H607.726Z" fill="white" stroke="#263238" stroke-width="0.948667" stroke-miterlimit="10"/>
<path d="M602.243 313.584L605.433 237.645C605.623 233.122 602.007 229.352 597.481 229.352H544.274C539.635 229.352 535.979 233.303 536.339 237.928L542.228 313.584H602.243Z" fill="white" stroke="#263238" stroke-width="0.948667" stroke-miterlimit="10"/>
<path d="M537.183 313.584H607.797V296.94H537.183V313.584Z" fill="white" stroke="#263238" stroke-width="0.948667" stroke-miterlimit="10"/>
<path d="M602.242 313.584H607.587L611.329 282.316C611.329 279.807 609.295 277.773 606.785 277.773C604.276 277.773 602.242 279.807 602.242 282.316V313.584Z" fill="white" stroke="#263238" stroke-width="0.948667" stroke-miterlimit="10"/>
<path d="M542.227 313.584H536.882L533.141 282.316C533.141 279.807 535.175 277.773 537.684 277.773C540.193 277.773 542.227 279.807 542.227 282.316V313.584Z" fill="white" stroke="#263238" stroke-width="0.948667" stroke-miterlimit="10"/>
<path d="M610.314 260.006H659.764V233.011C659.764 231.701 658.702 230.64 657.392 230.64H612.686C611.376 230.64 610.314 231.701 610.314 233.011V260.006Z" fill="white" stroke="#263238" stroke-width="0.948667" stroke-miterlimit="10"/>
<path d="M501.305 370.688L507.181 268.247H512.198L503.589 370.688H501.305Z" fill="white" stroke="#263238" stroke-width="0.948667" stroke-miterlimit="10"/>
<path d="M482.844 370.688L488.719 268.247H493.746L485.137 370.688H482.844Z" fill="white" stroke="#263238" stroke-width="0.948667" stroke-miterlimit="10"/>
<path d="M645.681 370.688L638.359 268.247H643.366L647.949 370.688H645.681Z" fill="white" stroke="#263238" stroke-width="0.948667" stroke-miterlimit="10"/>
<path d="M666.33 370.688L659.008 268.247H664.005L668.589 370.688H666.33Z" fill="white" stroke="#263238" stroke-width="0.948667" stroke-miterlimit="10"/>
<path d="M482.289 271.427H667.283V262.466H482.289V271.427Z" fill="white" stroke="#263238" stroke-width="0.948667" stroke-miterlimit="10"/>
<path d="M482.289 265.54H667.283V262.466H482.289V265.54Z" fill="#263238" stroke="#263238" stroke-width="0.948667" stroke-miterlimit="10"/>
<path d="M479.508 262.901H670.064V259.485H479.508V262.901Z" fill="white" stroke="#263238" stroke-width="0.948667" stroke-miterlimit="10"/>
<g opacity="0.2">
<path d="M107.678 172.465C111.024 170.078 115.581 162.064 115.585 162.057C115.632 161.974 109.391 160.658 108.988 160.619C104.319 160.183 95.0423 162.081 92.9723 166.907C91.4819 170.384 93.6297 174.099 97.0924 175.185C100.63 176.297 104.826 174.499 107.678 172.465Z" fill="black"/>
<path d="M157.297 93.5239C157.382 93.4812 152.903 88.9399 152.588 88.6857C148.935 85.7458 140.15 82.212 135.761 85.0959C132.6 87.1726 132.342 91.4567 134.631 94.2733C136.969 97.1506 141.462 97.9665 144.961 97.8432C149.07 97.698 157.291 93.5267 157.297 93.5239Z" fill="black"/>
<path d="M142.772 52.7674C139.608 56.9586 142.56 65.9548 145.255 69.7921C145.489 70.1232 149.727 74.8903 149.776 74.8068C149.776 74.8068 149.821 74.7299 149.832 74.711C150.286 76.1349 150.791 77.6566 151.375 79.3073C152.478 82.3477 153.753 85.7734 155.393 89.4077C157.021 93.044 158.892 96.9496 161.235 100.885C163.577 104.832 166.243 108.865 169.527 112.665C169.564 112.709 169.609 112.749 169.646 112.791C168.34 111.978 164.613 109.827 164.308 109.694C160.009 107.823 150.603 106.734 147.132 110.674C144.632 113.513 145.513 117.712 148.465 119.825C151.479 121.982 156.027 121.583 159.371 120.54C163.141 119.365 169.526 113.658 170.034 113.202C173.194 116.793 176.73 120.219 180.498 123.492C182.651 125.365 184.877 127.185 187.132 128.98C185.981 128.313 184.946 127.726 184.793 127.66C180.494 125.789 171.087 124.7 167.616 128.64C165.116 131.478 165.998 135.678 168.949 137.791C171.963 139.948 176.512 139.549 179.855 138.506C183.247 137.448 188.789 132.693 190.238 131.415C191.111 132.094 191.974 132.783 192.85 133.459C197.047 136.706 201.251 139.928 205.276 143.214C206.696 144.372 208.05 145.564 209.411 146.752C208.387 146.161 207.52 145.671 207.381 145.611C203.081 143.74 193.675 142.651 190.204 146.59C187.703 149.429 188.586 153.629 191.538 155.741C194.551 157.899 199.101 157.499 202.444 156.457C205.681 155.447 210.836 151.103 212.565 149.593C213.921 150.852 215.281 152.109 216.539 153.39C217.378 154.284 218.248 155.086 219.04 156.03C219.844 156.949 220.641 157.858 221.429 158.759C222.885 160.549 224.397 162.388 225.772 164.17C226.739 165.402 227.637 166.594 228.544 167.792C227.146 166.623 224.358 164.393 224.104 164.234C221.468 162.572 216.556 160.92 212.372 160.981C211.984 160.733 211.577 160.52 211.148 160.349C207.778 159.003 203.765 160.525 202.723 164.161C201.276 169.208 207.264 176.544 211.158 179.155C211.388 179.309 214.067 180.702 215.772 181.554C214.693 181.205 213.65 180.855 212.537 180.512C210.338 179.816 208.123 179.186 205.742 178.499C204.582 178.208 203.409 177.914 202.225 177.618C201.057 177.298 199.782 177.109 198.549 176.845C195.68 176.298 192.746 175.882 189.779 175.528C190.383 173.601 192.434 166.728 192.029 163.233C191.627 159.755 190.148 155.435 186.954 153.554C183.827 151.712 179.63 152.607 178.049 156.044C175.854 160.814 180.662 168.972 184.116 172.143C184.331 172.341 187.064 174.338 188.588 175.405C186.802 175.207 185.022 174.999 183.211 174.857C177.981 174.445 172.676 174.191 167.382 173.915C165.761 173.831 164.147 173.728 162.53 173.631C162.753 172.948 165.365 164.831 164.913 160.917C164.51 157.439 163.031 153.118 159.838 151.237C156.71 149.396 152.514 150.291 150.933 153.728C148.739 158.498 153.547 166.657 157 169.828C157.261 170.067 161.198 172.935 162.235 173.615C158.675 173.4 155.13 173.153 151.645 172.767C146.834 172.241 142.144 171.46 137.656 170.367C137.761 170.049 140.526 161.59 140.063 157.581C139.662 154.102 138.182 149.782 134.989 147.902C131.862 146.059 127.664 146.956 126.084 150.392C123.888 155.163 128.697 163.319 132.15 166.491C132.377 166.699 135.377 168.889 136.826 169.895C136.757 170.045 136.769 170.018 136.701 170.167C131.907 168.937 127.418 167.143 123.298 165.256C120.911 164.168 118.689 162.995 116.553 161.804C117.231 160.282 120.246 153.288 120.227 149.634C120.21 146.132 119.213 141.675 116.246 139.456C113.34 137.282 109.069 137.711 107.121 140.954C104.416 145.454 108.299 154.09 111.383 157.622C111.551 157.813 113.472 159.577 114.889 160.842C113.934 160.29 112.938 159.738 112.032 159.191C108.629 157.145 105.639 155.062 103.005 153.196C101.516 152.123 100.192 151.122 98.9613 150.175C98.8456 148.333 98.2868 140.921 96.6172 137.745C94.9883 134.646 92.0503 131.149 88.3941 130.547C84.8129 129.957 81.2212 132.305 80.985 136.08C80.6587 141.321 88.0839 147.197 92.4487 148.91C92.8263 149.058 98.9907 150.695 98.986 150.599C98.986 150.599 98.9812 150.509 98.9793 150.488C100.144 151.424 101.405 152.414 102.802 153.469C105.4 155.397 108.353 157.55 111.726 159.678C115.09 161.813 118.805 164.037 122.929 166.028C127.061 168.028 131.509 169.922 136.344 171.28C136.399 171.295 136.458 171.303 136.512 171.319C134.975 171.361 130.679 171.623 130.352 171.681C125.734 172.492 117.288 176.773 116.566 181.974C116.046 185.721 119.099 188.737 122.726 188.872C126.43 189.007 130.004 186.165 132.217 183.452C134.713 180.391 136.891 172.109 137.062 171.449C141.679 172.701 146.519 173.609 151.466 174.258C154.295 174.633 157.155 174.923 160.027 175.177C158.699 175.255 157.512 175.337 157.347 175.365C152.729 176.177 144.283 180.459 143.561 185.658C143.041 189.406 146.094 192.422 149.721 192.555C153.425 192.693 156.999 189.85 159.212 187.136C161.458 184.382 163.456 177.358 163.96 175.493C165.063 175.578 166.163 175.677 167.266 175.758C172.559 176.15 177.842 176.519 183.012 177.039C184.836 177.221 186.622 177.468 188.413 177.709C187.233 177.781 186.24 177.851 186.09 177.877C181.472 178.688 173.026 182.968 172.304 188.17C171.784 191.917 174.837 194.933 178.464 195.066C182.168 195.203 185.742 192.361 187.955 189.647C190.098 187.019 192.001 180.553 192.611 178.339C194.436 178.64 196.265 178.938 198.02 179.313C199.213 179.596 200.381 179.784 201.563 180.135C202.742 180.458 203.907 180.777 205.062 181.094C207.263 181.784 209.539 182.482 211.67 183.211C213.155 183.705 214.562 184.205 215.98 184.703C214.168 184.5 210.613 184.179 210.313 184.185C205.626 184.287 196.628 187.239 195.127 192.271C194.046 195.896 196.606 199.34 200.171 200.02C203.812 200.717 207.774 198.448 210.374 196.101C213.234 193.516 216.544 185.983 216.951 185.039C219.295 185.872 221.567 186.705 223.698 187.525C231.023 190.324 237.026 192.933 241.224 194.828L243.052 191.775C242.956 191.733 242.869 191.696 242.771 191.653C238.476 189.824 232.308 187.298 224.779 184.607C222.402 183.752 219.845 182.886 217.211 182.019C217.317 181.368 217.897 177.657 218.002 174.126C221.879 173.314 228.339 169.155 229.169 168.613C230.664 170.601 232.1 172.549 233.425 174.408C237.991 180.783 241.558 186.27 244.014 190.167L246.021 186.816C243.514 183.067 240.124 178.158 235.936 172.571C234.426 170.545 232.772 168.412 231.052 166.237C231.737 165.496 237.296 159.405 238.501 155.737C239.593 152.41 240.059 147.867 237.948 144.821C235.88 141.839 231.694 140.894 228.818 143.353C224.827 146.764 225.774 156.186 227.582 160.512C227.689 160.767 229.154 163.407 230.107 165.058C229.4 164.173 228.723 163.306 227.984 162.405C226.534 160.611 225.034 158.863 223.428 156.977C222.621 156.094 221.804 155.202 220.98 154.301C220.182 153.391 219.223 152.529 218.34 151.63C216.249 149.59 214.031 147.624 211.752 145.692C213.32 144.419 218.822 139.817 220.412 136.679C221.996 133.556 223.146 129.137 221.52 125.806C219.927 122.545 215.933 120.976 212.718 122.971C208.256 125.739 207.766 135.195 208.897 139.746C208.967 140.03 210.145 143.204 210.826 144.934C209.448 143.783 208.078 142.629 206.644 141.511C202.51 138.283 198.224 135.144 193.962 131.993C192.655 131.03 191.366 130.052 190.071 129.079C190.634 128.632 197.292 123.304 199.073 119.79C200.657 116.667 201.806 112.248 200.18 108.916C198.587 105.656 194.594 104.087 191.379 106.081C186.917 108.849 186.426 118.306 187.557 122.856C187.643 123.198 189.345 127.763 189.834 128.903C186.983 126.76 184.162 124.597 181.469 122.353C177.746 119.26 174.266 116.022 171.125 112.634C171.388 112.426 178.362 106.896 180.187 103.297C181.771 100.173 182.92 95.7543 181.294 92.4235C179.702 89.162 175.707 87.5939 172.492 89.588C168.03 92.3562 167.54 101.812 168.671 106.362C168.745 106.661 170.038 110.139 170.692 111.779C170.551 111.866 170.577 111.85 170.437 111.937C167.116 108.267 164.362 104.294 161.968 100.449C160.576 98.2237 159.371 96.0199 158.246 93.8484C159.65 92.9519 166.024 88.7825 168.024 85.725C169.942 82.7936 171.569 78.5284 170.319 75.0392C169.094 71.6221 165.296 69.6252 161.882 71.254C157.143 73.5147 155.618 82.861 156.241 87.5075C156.275 87.7608 156.904 90.2909 157.389 92.1275C156.896 91.14 156.37 90.1296 155.916 89.1743C154.206 85.5912 152.861 82.2045 151.694 79.1944C151.044 77.4773 150.491 75.9129 149.988 74.4434C150.907 72.844 154.529 66.3542 154.89 62.7834C155.241 59.2989 154.72 54.7634 152.002 52.2427C149.342 49.7705 145.05 49.7487 142.772 52.7674Z" fill="black"/>
</g>
<g opacity="0.2">
<path d="M339.968 31.6529C342.609 34.8034 350.954 38.7205 350.961 38.7233C351.047 38.7641 351.872 32.4393 351.879 32.0343C351.95 27.346 349.333 18.2454 344.36 16.5587C340.778 15.3444 337.241 17.7758 336.428 21.3124C335.598 24.925 337.717 28.9691 339.968 31.6529Z" fill="black"/>
<path d="M422.543 74.9587C422.592 75.0403 426.77 70.2201 426.999 69.8862C429.644 66.0156 432.481 56.9805 429.264 52.8311C426.946 49.8418 422.656 49.9187 420.027 52.4203C417.341 54.9751 416.878 59.5182 417.274 62.997C417.739 67.0829 422.539 74.953 422.543 74.9587Z" fill="black"/>
<path d="M462.04 57.2945C457.616 54.4684 448.876 58.1132 445.261 61.0996C444.949 61.3586 440.527 65.9558 440.615 65.9975C440.615 65.9975 440.695 66.0364 440.714 66.0459C439.33 66.6104 437.853 67.2327 436.253 67.9442C433.308 69.2818 429.992 70.8206 426.496 72.7378C422.999 74.6446 419.252 76.8152 415.511 79.4582C411.758 82.1021 407.946 85.0743 404.413 88.6451C404.374 88.6849 404.337 88.7323 404.297 88.7731C405.005 87.408 406.859 83.5242 406.968 83.2101C408.498 78.778 408.849 69.315 404.651 66.1626C401.625 63.8915 397.507 65.0992 395.632 68.206C393.716 71.3793 394.469 75.8826 395.77 79.1347C397.237 82.8013 403.424 88.7219 403.918 89.1915C400.586 92.6228 397.445 96.4146 394.477 100.428C392.778 102.719 391.138 105.082 389.523 107.47C390.098 106.27 390.603 105.193 390.657 105.034C392.187 100.602 392.537 91.1391 388.339 87.9867C385.314 85.7156 381.196 86.9232 379.32 90.0301C377.405 93.2034 378.158 97.7067 379.459 100.959C380.778 104.258 385.952 109.411 387.339 110.757C386.729 111.68 386.111 112.594 385.505 113.519C382.595 117.957 379.711 122.4 376.749 126.669C375.707 128.174 374.623 129.618 373.546 131.067C374.055 130 374.475 129.097 374.525 128.954C376.055 124.522 376.406 115.059 372.206 111.906C369.182 109.634 365.064 110.842 363.187 113.951C361.272 117.123 362.025 121.627 363.326 124.878C364.585 128.027 369.317 132.826 370.959 134.433C369.81 135.883 368.662 137.338 367.484 138.692C366.657 139.598 365.926 140.528 365.047 141.392C364.194 142.266 363.348 143.131 362.513 143.987C360.841 145.577 359.127 147.229 357.457 148.739C356.305 149.799 355.186 150.787 354.063 151.785C355.119 150.3 357.124 147.347 357.264 147.081C358.714 144.324 359.978 139.297 359.591 135.131C359.807 134.725 359.988 134.302 360.125 133.861C361.204 130.397 359.374 126.515 355.667 125.76C350.522 124.711 343.677 131.254 341.377 135.34C341.242 135.581 340.062 138.361 339.347 140.127C339.61 139.025 339.878 137.959 340.134 136.82C340.656 134.574 341.112 132.317 341.611 129.89C341.811 128.71 342.012 127.518 342.215 126.314C342.443 125.124 342.531 123.839 342.698 122.59C343.019 119.686 343.205 116.728 343.327 113.744C345.295 114.196 352.307 115.704 355.76 115.027C359.196 114.355 363.387 112.543 365.013 109.212C366.605 105.951 365.385 101.837 361.835 100.529C356.909 98.7133 349.151 104.143 346.259 107.835C346.079 108.064 344.301 110.946 343.355 112.548C343.414 110.753 343.481 108.962 343.482 107.145C343.484 101.899 343.323 96.5892 343.186 91.2909C343.143 89.6677 343.121 88.0512 343.091 86.4309C343.789 86.5997 352.086 88.5711 355.953 87.814C359.39 87.1414 363.581 85.3295 365.207 81.9987C366.799 78.7372 365.578 74.6228 362.029 73.3146C357.102 71.4989 349.344 76.93 346.453 80.6193C346.235 80.8973 343.684 85.0468 343.086 86.1339C343.022 82.5679 342.992 79.0142 343.105 75.5089C343.254 70.6726 343.666 65.9349 344.406 61.3756C344.732 61.4544 353.381 63.5509 357.342 62.7768C360.779 62.1042 364.97 60.2932 366.595 56.9615C368.187 53.7 366.967 49.5856 363.417 48.2774C358.489 46.4616 350.732 51.8928 347.841 55.5821C347.65 55.825 345.701 58.9859 344.812 60.5104C344.657 60.4535 344.685 60.464 344.531 60.4071C345.382 55.5309 346.821 50.9156 348.38 46.6609C349.279 44.1953 350.275 41.8891 351.296 39.6663C352.867 40.2223 360.074 42.6822 363.716 42.3786C367.206 42.0873 371.571 40.7469 373.552 37.6153C375.492 34.5483 374.732 30.3248 371.347 28.6352C366.649 26.2901 358.342 30.8352 355.062 34.1859C354.884 34.368 353.276 36.421 352.125 37.9322C352.601 36.937 353.073 35.9001 353.548 34.9553C355.321 31.4035 357.164 28.2596 358.82 25.4885C359.773 23.9204 360.667 22.5211 361.517 21.2205C363.343 20.9615 370.688 19.8259 373.725 17.9134C376.688 16.0474 379.944 12.8456 380.259 9.15342C380.568 5.53711 377.947 2.13993 374.164 2.19875C368.914 2.28223 363.636 10.1438 362.269 14.6291C362.151 15.0171 361 21.2907 361.095 21.2783C361.095 21.2783 361.185 21.266 361.205 21.2632C360.363 22.4974 359.473 23.8312 358.531 25.3083C356.812 28.048 354.896 31.1606 353.037 34.6887C351.172 38.2092 349.244 42.0864 347.583 46.3535C345.911 50.6291 344.37 55.2112 343.394 60.1386C343.383 60.1945 343.379 60.2534 343.368 60.3093C343.206 58.7801 342.61 54.5177 342.527 54.1952C341.358 49.6549 336.43 41.5684 331.19 41.2554C327.413 41.0296 324.645 44.3082 324.795 47.9359C324.948 51.6395 328.061 54.9797 330.939 56.9748C334.186 59.2241 342.613 60.7495 343.283 60.8681C342.396 65.5687 341.869 70.4648 341.607 75.4482C341.454 78.297 341.389 81.1724 341.359 84.0545C341.176 82.7368 341.004 81.5595 340.962 81.3973C339.792 76.856 334.864 68.7705 329.623 68.4574C325.847 68.2317 323.079 71.5102 323.228 75.137C323.381 78.8406 326.494 82.1809 329.373 84.1759C332.294 86.1994 339.452 87.6442 341.352 88.0009C341.353 89.1071 341.34 90.2113 341.345 91.3175C341.368 96.6243 341.412 101.92 341.298 107.116C341.258 108.947 341.152 110.748 341.052 112.551C340.889 111.381 340.741 110.396 340.703 110.248C339.534 105.708 334.607 97.6214 329.365 97.3083C325.59 97.0825 322.82 100.362 322.97 103.989C323.124 107.692 326.236 111.033 329.115 113.027C331.902 114.958 338.497 116.351 340.752 116.785C340.594 118.629 340.439 120.475 340.203 122.254C340.014 123.466 339.916 124.645 339.659 125.851C339.43 127.05 339.203 128.238 338.977 129.413C338.46 131.661 337.941 133.985 337.383 136.166C337.006 137.685 336.618 139.126 336.232 140.58C336.292 138.757 336.336 135.189 336.306 134.89C335.839 130.225 332.193 121.485 327.059 120.382C323.361 119.588 320.127 122.408 319.727 126.016C319.317 129.7 321.888 133.473 324.43 135.881C327.231 138.532 334.999 141.242 335.973 141.575C335.325 143.977 334.672 146.307 334.021 148.496C331.803 156.017 329.672 162.205 328.109 166.538L331.296 168.122C331.33 168.023 331.36 167.934 331.395 167.832C332.883 163.408 334.92 157.062 337.013 149.346C337.681 146.909 338.345 144.292 339.003 141.599C339.66 141.654 343.405 141.942 346.935 141.771C348.046 145.574 352.697 151.689 353.302 152.473C351.437 154.119 349.607 155.703 347.857 157.169C341.857 162.219 336.665 166.203 332.972 168.956L336.47 170.695C340.011 167.904 344.641 164.141 349.884 159.529C351.785 157.865 353.783 156.05 355.817 154.165C356.609 154.79 363.116 159.857 366.867 160.771C370.27 161.6 374.834 161.711 377.706 159.368C380.517 157.073 381.132 152.827 378.457 150.152C374.745 146.44 365.425 148.12 361.253 150.259C361.007 150.385 358.489 152.053 356.918 153.132C357.746 152.358 358.557 151.616 359.398 150.807C361.074 149.222 362.699 147.59 364.453 145.842C365.27 144.968 366.097 144.085 366.93 143.192C367.776 142.326 368.559 141.303 369.387 140.352C371.257 138.109 373.044 135.744 374.791 133.321C376.183 134.784 381.2 139.91 384.453 141.251C387.689 142.585 392.185 143.387 395.378 141.506C398.505 139.663 399.757 135.559 397.518 132.51C394.41 128.278 384.944 128.527 380.496 130.01C380.219 130.102 377.146 131.525 375.473 132.339C376.512 130.874 377.558 129.419 378.559 127.903C381.456 123.529 384.25 119.011 387.059 114.516C387.918 113.139 388.791 111.777 389.66 110.41C390.149 110.936 395.982 117.157 399.624 118.659C402.86 119.995 407.356 120.795 410.55 118.914C413.677 117.072 414.928 112.967 412.69 109.918C409.582 105.686 400.115 105.935 395.668 107.417C395.333 107.529 390.915 109.582 389.817 110.16C391.732 107.151 393.667 104.169 395.694 101.309C398.487 97.3567 401.444 93.6332 404.577 90.2379C404.804 90.4836 410.862 97.0038 414.593 98.5425C417.83 99.8773 422.325 100.679 425.519 98.7968C428.646 96.9554 429.897 92.8505 427.659 89.8005C424.551 85.5676 415.085 85.818 410.637 87.3008C410.344 87.3976 406.979 88.9591 405.394 89.7389C405.297 89.6051 405.315 89.6298 405.217 89.497C408.616 85.9006 412.361 82.8449 416.008 80.1573C418.118 78.5968 420.221 77.2231 422.298 75.932C423.301 77.262 427.956 83.2898 431.16 85.0458C434.232 86.7278 438.611 88.018 441.992 86.5001C445.303 85.0126 446.997 81.069 445.107 77.7933C442.483 73.2454 433.047 72.4542 428.463 73.4389C428.214 73.493 425.739 74.3174 423.946 74.9435C424.893 74.3752 425.859 73.7719 426.775 73.2454C430.214 71.2607 433.485 69.6556 436.395 68.2573C438.056 67.4756 439.572 66.802 440.999 66.1863C442.665 66.9775 449.418 70.0825 453.006 70.1631C456.507 70.2409 460.989 69.3672 463.29 66.4614C465.541 63.6116 465.228 59.3313 462.04 57.2945Z" fill="black"/>
</g>
<g opacity="0.2">
<path d="M255.333 344.25C252.762 341.041 244.506 336.94 244.499 336.937C244.413 336.895 243.449 343.2 243.433 343.605C243.258 348.29 245.672 357.447 250.606 359.243C254.161 360.537 257.751 358.185 258.642 354.666C259.551 351.073 257.522 346.983 255.333 344.25Z" fill="black"/>
<path d="M173.736 299.124C173.689 299.041 169.406 303.767 169.17 304.097C166.438 307.907 163.402 316.877 166.527 321.098C168.777 324.137 173.069 324.155 175.752 321.712C178.494 319.217 179.057 314.686 178.74 311.199C178.365 307.104 173.74 299.129 173.736 299.124Z" fill="black"/>
<path d="M133.857 315.907C138.218 318.83 147.036 315.38 150.716 312.474C151.033 312.223 155.556 307.724 155.469 307.681C155.469 307.681 155.39 307.64 155.37 307.63C156.766 307.096 158.258 306.508 159.873 305.832C162.847 304.56 166.196 303.096 169.734 301.255C173.273 299.426 177.068 297.339 180.865 294.781C184.676 292.221 188.553 289.334 192.164 285.842C192.205 285.803 192.243 285.756 192.283 285.717C191.545 287.066 189.605 290.907 189.49 291.219C187.862 295.617 187.301 305.069 191.429 308.314C194.403 310.652 198.546 309.536 200.49 306.471C202.475 303.341 201.822 298.822 200.595 295.543C199.21 291.845 193.155 285.787 192.671 285.307C196.079 281.951 199.303 278.229 202.36 274.284C204.109 272.03 205.802 269.705 207.469 267.353C206.867 268.54 206.339 269.606 206.281 269.763C204.653 274.161 204.092 283.613 208.22 286.858C211.194 289.196 215.338 288.08 217.282 285.016C219.267 281.886 218.615 277.367 217.386 274.087C216.14 270.759 211.082 265.492 209.725 264.116C210.355 263.207 210.994 262.306 211.62 261.394C214.627 257.022 217.609 252.645 220.665 248.442C221.74 246.96 222.855 245.541 223.965 244.116C223.433 245.171 222.992 246.064 222.94 246.207C221.312 250.604 220.751 260.057 224.879 263.302C227.852 265.641 231.996 264.525 233.94 261.459C235.925 258.329 235.272 253.81 234.045 250.53C232.856 247.355 228.23 242.451 226.625 240.808C227.806 239.384 228.985 237.956 230.194 236.628C231.04 235.741 231.792 234.828 232.691 233.984C233.563 233.129 234.427 232.283 235.282 231.445C236.988 229.892 238.739 228.279 240.441 226.806C241.618 225.772 242.757 224.809 243.903 223.836C242.815 225.298 240.744 228.206 240.599 228.468C239.087 231.193 237.713 236.189 238.007 240.364C237.781 240.765 237.592 241.184 237.445 241.621C236.289 245.061 238.033 248.983 241.721 249.82C246.841 250.982 253.831 244.592 256.221 240.559C256.362 240.321 257.602 237.568 258.357 235.818C258.07 236.914 257.778 237.975 257.498 239.106C256.925 241.34 256.42 243.587 255.868 246.002C255.642 247.178 255.414 248.365 255.185 249.564C254.93 250.748 254.814 252.032 254.619 253.277C254.233 256.172 253.981 259.125 253.794 262.107C251.836 261.611 244.859 259.949 241.392 260.547C237.942 261.143 233.712 262.862 232.012 266.156C230.348 269.381 231.477 273.521 234.996 274.907C239.882 276.832 247.758 271.574 250.731 267.949C250.917 267.723 252.757 264.882 253.738 263.301C253.639 265.095 253.532 266.883 253.491 268.7C253.373 273.944 253.416 279.257 253.435 284.557C253.443 286.181 253.43 287.798 253.424 289.418C252.73 289.234 244.478 287.079 240.596 287.749C237.145 288.345 232.915 290.064 231.215 293.358C229.551 296.583 230.68 300.723 234.2 302.11C239.086 304.035 246.962 298.777 249.935 295.153C250.159 294.879 252.802 290.787 253.423 289.714C253.407 293.28 253.359 296.835 253.169 300.336C252.913 305.168 252.396 309.895 251.554 314.437C251.231 314.351 242.63 312.063 238.653 312.749C235.203 313.345 230.972 315.063 229.273 318.358C227.609 321.583 228.738 325.723 232.257 327.11C237.143 329.035 245.019 323.778 247.992 320.153C248.187 319.915 250.206 316.797 251.13 315.294C251.283 315.354 251.255 315.343 251.408 315.404C250.449 320.26 248.908 324.842 247.255 329.061C246.301 331.506 245.255 333.79 244.185 335.989C242.627 335.398 235.476 332.78 231.829 333.002C228.333 333.215 223.939 334.458 221.888 337.546C219.881 340.569 220.548 344.809 223.895 346.572C228.539 349.022 236.945 344.661 240.298 341.385C240.48 341.207 242.134 339.19 243.318 337.704C242.82 338.689 242.325 339.714 241.829 340.649C239.978 344.161 238.065 347.263 236.349 349.997C235.36 351.544 234.436 352.923 233.558 354.203C231.726 354.422 224.357 355.394 221.279 357.239C218.276 359.039 214.949 362.167 214.551 365.852C214.162 369.461 216.709 372.915 220.491 372.94C225.742 372.973 231.193 365.23 232.66 360.776C232.786 360.391 234.076 354.144 233.98 354.154C233.98 354.154 233.891 354.164 233.87 354.167C234.74 352.952 235.658 351.638 236.634 350.183C238.412 347.481 240.398 344.412 242.334 340.927C244.277 337.449 246.291 333.615 248.047 329.386C249.813 325.149 251.455 320.602 252.54 315.698C252.552 315.642 252.558 315.583 252.57 315.528C252.697 317.061 253.199 321.335 253.275 321.659C254.343 326.224 259.09 334.418 264.323 334.848C268.093 335.157 270.934 331.94 270.865 328.311C270.794 324.606 267.756 321.197 264.923 319.139C261.728 316.817 253.336 315.106 252.668 314.973C253.658 310.293 254.295 305.411 254.667 300.434C254.883 297.589 255.012 294.716 255.105 291.835C255.259 293.157 255.406 294.338 255.443 294.501C256.511 299.067 261.259 307.26 266.491 307.689C270.262 307.999 273.101 304.782 273.032 301.153C272.962 297.446 269.923 294.038 267.089 291.979C264.214 289.891 257.09 288.288 255.199 287.89C255.223 286.784 255.26 285.68 255.28 284.574C255.374 279.268 255.447 273.973 255.678 268.782C255.759 266.952 255.905 265.153 256.044 263.352C256.182 264.527 256.307 265.514 256.342 265.662C257.41 270.227 262.156 278.421 267.39 278.851C271.16 279.16 274.001 275.943 273.931 272.314C273.86 268.609 270.823 265.2 267.989 263.142C265.245 261.149 258.682 259.611 256.438 259.126C256.637 257.288 256.833 255.444 257.109 253.671C257.324 252.465 257.448 251.287 257.732 250.088C257.988 248.894 258.241 247.713 258.493 246.542C259.059 244.305 259.629 241.994 260.237 239.826C260.648 238.315 261.067 236.884 261.486 235.44C261.384 237.26 261.262 240.827 261.286 241.127C261.649 245.801 265.1 254.619 270.208 255.837C273.888 256.714 277.182 253.965 277.663 250.367C278.155 246.693 275.668 242.863 273.18 240.399C270.439 237.688 262.732 234.805 261.767 234.451C262.469 232.064 263.172 229.749 263.873 227.575C266.257 220.105 268.526 213.966 270.183 209.668L267.032 208.014C266.996 208.112 266.963 208.201 266.926 208.302C265.34 212.693 263.163 218.992 260.898 226.66C260.178 229.081 259.455 231.682 258.737 234.361C258.081 234.292 254.344 233.92 250.811 234.013C249.784 230.187 245.271 223.97 244.682 223.173C246.583 221.568 248.448 220.026 250.231 218.598C256.341 213.682 261.619 209.814 265.372 207.144L261.915 205.328C258.311 208.04 253.6 211.7 248.257 216.193C246.319 217.814 244.282 219.586 242.206 221.425C241.428 220.783 235.035 215.573 231.305 214.575C227.922 213.671 223.361 213.458 220.438 215.737C217.576 217.968 216.867 222.201 219.482 224.934C223.111 228.728 232.465 227.255 236.684 225.208C236.932 225.087 239.486 223.476 241.081 222.433C240.237 223.188 239.409 223.912 238.55 224.701C236.84 226.248 235.179 227.844 233.386 229.553C232.55 230.409 231.704 231.274 230.851 232.147C229.986 232.994 229.18 234 228.332 234.932C226.413 237.134 224.573 239.458 222.773 241.842C221.414 240.348 216.511 235.112 213.29 233.7C210.083 232.294 205.606 231.393 202.372 233.203C199.205 234.975 197.862 239.051 200.034 242.15C203.047 246.45 212.517 246.41 216.996 245.027C217.275 244.941 220.378 243.587 222.069 242.81C220.998 244.251 219.921 245.683 218.885 247.177C215.893 251.485 212.998 255.94 210.091 260.372C209.201 261.73 208.298 263.072 207.399 264.419C206.922 263.883 201.229 257.533 197.621 255.951C194.414 254.544 189.937 253.644 186.702 255.454C183.536 257.226 182.193 261.302 184.364 264.4C187.377 268.7 196.846 268.661 201.326 267.277C201.664 267.173 206.125 265.217 207.236 264.665C205.255 267.631 203.255 270.569 201.165 273.385C198.286 277.274 195.246 280.931 192.04 284.255C191.818 284.004 185.906 277.351 182.21 275.731C179.003 274.324 174.527 273.423 171.292 275.233C168.125 277.006 166.783 281.082 168.954 284.179C171.967 288.48 181.436 288.44 185.916 287.057C186.21 286.967 189.61 285.48 191.211 284.736C191.305 284.872 191.288 284.847 191.383 284.982C187.905 288.502 184.093 291.474 180.387 294.08C178.243 295.594 176.11 296.92 174.004 298.165C173.03 296.813 168.511 290.683 165.347 288.856C162.313 287.106 157.963 285.719 154.55 287.163C151.207 288.576 149.425 292.481 151.243 295.799C153.766 300.404 163.182 301.404 167.787 300.521C168.037 300.473 170.529 299.703 172.336 299.117C171.377 299.664 170.399 300.246 169.47 300.753C165.987 302.66 162.681 304.192 159.742 305.526C158.064 306.271 156.533 306.911 155.094 307.495C153.446 306.667 146.763 303.413 143.178 303.253C139.68 303.098 135.18 303.872 132.815 306.726C130.498 309.514 130.716 313.801 133.857 315.907Z" fill="black"/>
</g>
<path d="M30.244 283.67C31.8624 284.377 35.8212 284.288 35.825 284.288C35.8658 284.287 34.974 281.696 34.8991 281.539C34.031 279.723 31.2837 276.722 29.0486 277.024C27.4387 277.241 26.5432 278.853 26.9065 280.369C27.2765 281.918 28.8655 283.068 30.244 283.67Z" fill="#263238"/>
<path d="M31.6105 295.138C33.2896 295.382 36.8225 294.358 37.1033 294.275C37.6611 296.253 38.3944 298.238 39.2463 300.204C39.732 301.33 40.2566 302.448 40.7964 303.563C40.4739 303.09 40.1826 302.671 40.1352 302.617C38.8175 301.093 35.3758 298.926 33.3001 299.807C31.804 300.442 31.3667 302.233 32.1171 303.599C32.8836 304.994 34.7202 305.684 36.2087 305.901C37.719 306.121 40.749 305.308 41.5478 305.082C41.7593 305.508 41.9661 305.935 42.1796 306.359C43.2023 308.397 44.2325 310.425 45.1812 312.446C45.5161 313.158 45.8196 313.871 46.126 314.584C45.8395 314.165 45.5948 313.815 45.5512 313.765C44.2335 312.242 40.7917 310.073 38.716 310.955C37.2209 311.589 36.7826 313.38 37.533 314.747C38.3005 316.142 40.1362 316.832 41.6246 317.049C43.0656 317.26 45.869 316.534 46.8195 316.27C47.1108 317.009 47.4048 317.749 47.6543 318.479C47.8137 318.98 48.0016 319.453 48.1325 319.966C48.2738 320.472 48.4133 320.972 48.5508 321.467C48.7823 322.431 49.0271 323.423 49.2282 324.369C49.3733 325.025 49.4995 325.654 49.6295 326.287C49.305 325.575 48.6391 324.193 48.5698 324.084C47.4988 322.379 44.4251 319.715 42.2394 320.272C40.6646 320.673 39.9607 322.377 40.4957 323.84C41.0421 325.336 42.7526 326.296 44.1908 326.736C45.775 327.22 49.2813 326.778 49.7196 326.72C49.9292 327.767 50.1237 328.789 50.2926 329.755C50.6683 331.888 50.9529 333.8 51.1682 335.418H52.6472C52.3891 333.744 52.0524 331.749 51.6065 329.51C51.3978 328.445 51.153 327.312 50.8902 326.149C51.154 326.045 52.6491 325.44 53.9744 324.699C55.1289 325.949 58.0868 327.412 58.4701 327.598C58.0679 328.589 57.6666 329.547 57.2738 330.446C56.4561 332.328 55.6791 333.998 54.9932 335.418H56.5917C57.1809 334.109 57.8297 332.618 58.5052 330.966C58.9179 329.962 59.34 328.882 59.7622 327.768C60.1862 327.857 63.6574 328.562 65.2758 328.197C66.7425 327.865 68.5203 327.035 69.1768 325.584C69.8199 324.164 69.2441 322.413 67.7035 321.896C65.5661 321.178 62.3018 323.605 61.1064 325.226C61.0353 325.322 60.3864 326.445 59.988 327.16C60.1578 326.704 60.3276 326.263 60.4974 325.792C60.8389 324.862 61.152 323.924 61.4926 322.915C61.6405 322.423 61.7885 321.925 61.9394 321.423C62.0987 320.928 62.205 320.384 62.3416 319.861C62.6328 318.64 62.8672 317.389 63.0768 316.123C63.8917 316.42 66.8022 317.432 68.3097 317.326C69.8105 317.221 71.6926 316.669 72.5616 315.335C73.4125 314.028 73.109 312.21 71.6651 311.465C69.6606 310.431 66.0661 312.337 64.6393 313.758C64.5501 313.846 63.6403 314.981 63.1527 315.614C63.2722 314.852 63.3956 314.092 63.4914 313.317C63.7693 311.081 63.98 308.808 64.201 306.542C64.2683 305.848 64.3433 305.157 64.4163 304.466C64.7057 304.575 68.138 305.853 69.8266 305.734C71.3274 305.629 73.2095 305.078 74.0785 303.743C74.9295 302.437 74.6259 300.618 73.1811 299.873C71.1765 298.839 67.583 300.745 66.1552 302.166C66.048 302.273 64.7408 303.908 64.4287 304.34C64.5899 302.816 64.7645 301.299 64.9969 299.811C65.3147 297.757 65.7416 295.759 66.2966 293.854C66.4313 293.905 70.0078 295.255 71.7372 295.134C73.238 295.028 75.1201 294.477 75.9891 293.143C76.8401 291.836 76.5365 290.018 75.0926 289.273C73.0881 288.239 69.4946 290.145 68.0668 291.566C67.9549 291.678 66.5499 293.437 66.3184 293.773C66.3516 293.66 66.3734 293.539 66.4085 293.427C67.028 291.401 67.8818 289.516 68.7679 287.791C69.2811 286.787 69.8275 285.857 70.3797 284.963C71.02 285.283 73.9628 286.712 75.5309 286.774C77.0336 286.834 78.966 286.493 79.9754 285.262C80.9649 284.057 80.8624 282.216 79.5096 281.317C77.6303 280.07 73.8499 281.57 72.2741 282.825C72.1888 282.893 71.3947 283.683 70.8246 284.268C71.0798 283.868 71.3359 283.451 71.5873 283.073C72.5303 281.652 73.4827 280.41 74.3337 279.315C74.8232 278.697 75.2776 278.148 75.7083 277.638C76.5005 277.624 79.6918 277.527 81.0873 276.872C82.4486 276.233 84.0063 275.04 84.3355 273.482C84.658 271.957 83.7189 270.37 82.1033 270.196C79.8606 269.954 77.1958 273.028 76.3762 274.867C76.306 275.027 75.4844 277.64 75.5252 277.64C75.5252 277.64 75.5641 277.64 75.5727 277.639C75.1477 278.121 74.6989 278.643 74.2189 279.223C73.3414 280.3 72.3605 281.526 71.3824 282.932C70.4015 284.334 69.375 285.886 68.4406 287.617C67.5024 289.352 66.604 291.224 65.9285 293.273C65.9209 293.296 65.9162 293.322 65.9076 293.345C65.919 292.683 65.8906 290.835 65.8716 290.694C65.6126 288.697 63.9392 284.989 61.7202 284.579C60.1227 284.284 58.7689 285.536 58.6418 287.089C58.5118 288.676 59.6626 290.264 60.7848 291.267C62.0504 292.397 65.5623 293.492 65.8422 293.578C65.2161 295.535 64.7332 297.594 64.3585 299.704C64.1431 300.911 63.9638 302.133 63.7997 303.361C63.7912 302.789 63.7798 302.278 63.7703 302.207C63.5113 300.209 61.8379 296.503 59.6189 296.092C58.0214 295.797 56.6676 297.049 56.5405 298.602C56.4105 300.189 57.5613 301.777 58.6826 302.779C59.821 303.796 62.797 304.789 63.5872 305.042C63.5293 305.513 63.4658 305.984 63.4098 306.455C63.1394 308.719 62.8795 310.978 62.556 313.187C62.4431 313.966 62.3027 314.728 62.1642 315.491C62.1566 314.984 62.1452 314.556 62.1367 314.491C61.8777 312.493 60.2043 308.787 57.9863 308.376C56.3878 308.081 55.035 309.332 54.9069 310.887C54.7769 312.474 55.9277 314.063 57.0499 315.064C58.1362 316.035 60.875 316.977 61.8132 317.28C61.6491 318.058 61.485 318.837 61.2905 319.583C61.1463 320.089 61.0419 320.586 60.8693 321.087C60.708 321.586 60.5486 322.081 60.3911 322.57C60.0525 323.502 59.7081 324.465 59.3552 325.365C59.1142 325.993 58.8723 326.587 58.6314 327.185C58.7528 326.412 58.9606 324.892 58.9634 324.763C58.9947 323.426 58.5194 321.251 57.5736 319.721C57.5793 319.524 57.5679 319.327 57.5366 319.131C57.289 317.593 55.8432 316.448 54.2732 316.867C52.0932 317.447 50.711 321.272 50.6085 323.284C50.6019 323.402 50.6796 324.697 50.7423 325.513C50.6322 325.039 50.5317 324.578 50.4121 324.091C50.1835 323.127 49.9274 322.172 49.6551 321.142C49.5061 320.65 49.3553 320.154 49.2035 319.651C49.0641 319.15 48.8516 318.639 48.677 318.127C48.2463 316.948 47.7521 315.775 47.2274 314.603C48.0718 314.401 51.0563 313.64 52.2554 312.72C53.4488 311.805 54.7143 310.306 54.7029 308.714C54.6916 307.154 53.4355 305.805 51.8199 305.981C49.5773 306.225 47.6316 309.796 47.2246 311.769C47.199 311.892 47.0662 313.34 47.0083 314.137C46.6877 313.435 46.3717 312.733 46.0245 312.034C45.0227 310.016 43.946 308.004 42.8797 305.992C42.5524 305.377 42.2346 304.758 41.914 304.141C42.2147 304.072 45.7836 303.245 47.1259 302.215C48.3194 301.299 49.5849 299.801 49.5735 298.208C49.5621 296.65 48.3061 295.3 46.6905 295.476C44.4479 295.72 42.5021 299.292 42.0952 301.264C42.0648 301.413 41.876 303.496 41.8542 304.028C41.1484 302.669 40.4568 301.308 39.8297 299.938C38.9627 298.049 38.2151 296.148 37.6279 294.252C37.7683 294.22 41.4956 293.373 42.8712 292.318C44.0646 291.403 45.3301 289.904 45.3187 288.312C45.3083 286.753 44.0513 285.404 42.4357 285.58C40.1931 285.824 38.2474 289.395 37.8404 291.368C37.8081 291.522 37.607 293.765 37.5994 294.174C37.5643 294.061 37.5159 293.948 37.4827 293.835C36.8822 291.803 36.554 289.76 36.3415 287.832C36.2153 286.712 36.1584 285.635 36.1261 284.585C36.8367 284.497 40.0792 284.067 41.4216 283.254C42.7089 282.475 44.131 281.124 44.2951 279.541C44.4554 277.989 43.355 276.51 41.7299 276.508C39.474 276.504 37.1479 279.84 36.5265 281.757C36.4923 281.861 36.2666 282.958 36.1129 283.759C36.1053 283.286 36.0892 282.796 36.091 282.342C36.0939 280.636 36.202 279.075 36.3083 277.693C36.3756 276.907 36.4515 276.197 36.5303 275.535C37.183 275.087 39.7918 273.245 40.5944 271.928C41.377 270.644 42.0174 268.79 41.433 267.309C40.8609 265.859 39.2027 265.053 37.7588 265.799C35.7552 266.835 35.2278 270.869 35.5588 272.855C35.5883 273.027 36.3443 275.66 36.3785 275.638C36.3785 275.638 36.4107 275.616 36.4174 275.61C36.3292 276.246 36.2428 276.93 36.1622 277.677C36.0246 279.06 35.8823 280.624 35.8425 282.336C35.7979 284.047 35.7979 285.908 35.9744 287.867C36.1489 289.831 36.4326 291.888 36.9989 293.97C37.0056 293.993 37.015 294.017 37.0217 294.04C36.6669 293.482 35.6224 291.958 35.5285 291.849C34.2108 290.325 30.769 288.157 28.6933 289.039C27.1982 289.674 26.759 291.464 27.5104 292.831C28.2864 294.231 30.122 294.92 31.6105 295.138Z" fill="#263238"/>
<path d="M70.287 284.541C70.3221 284.563 71.0071 281.909 71.0317 281.738C71.3088 279.744 70.6731 275.725 68.642 274.744C67.1792 274.037 65.5437 274.887 65.0106 276.353C64.466 277.849 65.1566 279.685 65.9734 280.948C66.9335 282.43 70.2842 284.539 70.287 284.541Z" fill="#263238"/>
<path d="M65.1582 369.751H43.5191L40.8145 332.787H67.8638L65.1582 369.751Z" fill="white" stroke="#263238" stroke-width="0.948667" stroke-miterlimit="10" stroke-linecap="round" stroke-linejoin="round"/>
<path d="M41.3125 337.189L41.5743 339.518H67.1086L67.3705 337.189H41.3125Z" fill="#263238"/>
<path d="M66.5312 344.641L66.7931 342.312H41.8887L42.1505 344.641H66.5312Z" fill="#263238"/>
<path d="M306.095 36.6892H292.902V63.0764H306.095V36.6892Z" fill="white" stroke="#263238" stroke-width="0.948667" stroke-miterlimit="10"/>
<path d="M306.095 36.6892H292.902V48.3777H306.095V36.6892Z" fill="#263238" stroke="#263238" stroke-width="0.948667" stroke-miterlimit="10"/>
<path d="M316.777 26.6372H282.223V45.4853H316.777V26.6372Z" fill="#407BFF" stroke="#263238" stroke-width="0.948667" stroke-miterlimit="10"/>
<path d="M286.975 27.5442V40.4366" stroke="#263238" stroke-width="0.948667" stroke-miterlimit="10"/>
<path d="M293.127 33.4041V39.2649" stroke="#263238" stroke-width="0.948667" stroke-miterlimit="10"/>
<path d="M298.402 44.5384V30.7666" stroke="#263238" stroke-width="0.948667" stroke-miterlimit="10"/>
<path d="M404.919 78.111L397.947 71.4209L384.568 85.3627L391.539 92.0528L404.919 78.111Z" fill="white" stroke="#263238" stroke-width="0.948667" stroke-miterlimit="10"/>
<path d="M404.919 78.1103L397.947 71.4202L392.02 77.5961L398.992 84.2862L404.919 78.1103Z" fill="#263238" stroke="#263238" stroke-width="0.948667" stroke-miterlimit="10"/>
<path d="M415.662 78.2141L397.404 60.6931L387.848 70.6514L406.105 88.1724L415.662 78.2141Z" fill="#407BFF" stroke="#263238" stroke-width="0.948667" stroke-miterlimit="10"/>
<path d="M399.463 63.5801L392.926 70.3925" stroke="#263238" stroke-width="0.948667" stroke-miterlimit="10"/>
<path d="M399.743 69.7969L396.771 72.8933" stroke="#263238" stroke-width="0.948667" stroke-miterlimit="10"/>
<path d="M396.883 78.3546L403.866 71.0774" stroke="#263238" stroke-width="0.948667" stroke-miterlimit="10"/>
<path d="M401.076 299.082C457.176 242.982 457.176 152.027 401.076 95.928C344.977 39.8286 254.022 39.8286 197.923 95.928C141.823 152.027 141.823 242.982 197.923 299.082C254.022 355.181 344.977 355.181 401.076 299.082Z" fill="#263238" stroke="#263238" stroke-width="0.948667" stroke-miterlimit="10"/>
<path d="M392.748 290.752C444.248 239.253 444.248 155.757 392.748 104.257C341.249 52.7581 257.753 52.7581 206.253 104.257C154.754 155.757 154.754 239.253 206.253 290.752C257.753 342.252 341.249 342.252 392.748 290.752Z" fill="white"/>
<path opacity="0.2" d="M424.362 239.584C433.281 213.582 433.602 186.711 426.845 162.058C393.397 158.708 349.494 164.868 301.683 197.504C250.577 232.389 198.294 219.911 168.121 207.024C172.1 257.857 205.536 303.94 256.836 321.536C325.728 345.166 400.731 308.476 424.362 239.584Z" fill="black"/>
<path d="M283.845 226.531C270.126 242.903 255.113 252.914 255.113 252.914C255.113 252.914 262.343 236.381 276.062 220.009C289.78 203.637 304.793 193.625 304.793 193.625C304.793 193.625 297.563 210.159 283.845 226.531Z" fill="#407BFF" stroke="#263238" stroke-width="0.948667" stroke-miterlimit="10"/>
<path d="M263.664 169.777C243.159 149.999 230.57 129.784 230.57 129.784C230.57 129.784 251.226 141.637 271.729 161.414C292.234 181.193 304.822 201.407 304.822 201.407C304.822 201.407 284.168 189.556 263.664 169.777Z" fill="#407BFF" stroke="#263238" stroke-width="0.948667" stroke-miterlimit="10"/>
<path d="M307.011 202.842C309.958 199.894 309.958 195.115 307.011 192.168C304.063 189.22 299.284 189.22 296.337 192.168C293.389 195.115 293.389 199.894 296.337 202.842C299.284 205.789 304.063 205.789 307.011 202.842Z" fill="#263238" stroke="#263238" stroke-width="0.948667" stroke-miterlimit="10"/>
<path d="M299.082 73.5012V94.758" stroke="#263238" stroke-width="0.948667" stroke-miterlimit="10"/>
<path d="M299.082 304.289V325.546" stroke="#263238" stroke-width="0.948667" stroke-miterlimit="10"/>
<path d="M425.102 199.523H403.846" stroke="#263238" stroke-width="0.948667" stroke-miterlimit="10"/>
<path d="M194.315 199.523H173.059" stroke="#263238" stroke-width="0.948667" stroke-miterlimit="10"/>
<path d="M407.583 135.42L389.281 146.233" stroke="#263238" stroke-width="0.948667" stroke-miterlimit="10"/>
<path d="M208.884 252.814L190.582 263.627" stroke="#263238" stroke-width="0.948667" stroke-miterlimit="10"/>
<path d="M357.869 88.053L347.953 106.855" stroke="#263238" stroke-width="0.948667" stroke-miterlimit="10"/>
<path d="M250.21 292.192L240.295 310.994" stroke="#263238" stroke-width="0.948667" stroke-miterlimit="10"/>
<path d="M190.582 135.42L208.884 146.233" stroke="#263238" stroke-width="0.948667" stroke-miterlimit="10"/>
<path d="M389.281 252.814L407.583 263.627" stroke="#263238" stroke-width="0.948667" stroke-miterlimit="10"/>
<path d="M240.295 88.053L250.21 106.855" stroke="#263238" stroke-width="0.948667" stroke-miterlimit="10"/>
<path d="M347.953 292.192L357.869 310.994" stroke="#263238" stroke-width="0.948667" stroke-miterlimit="10"/>
<path d="M401.852 351.604C401.935 352.315 383.408 352.474 383.135 353.225C382.862 353.977 383.696 354.961 383.696 354.961C383.696 354.961 392.826 360.748 394.747 361.787C396.667 362.826 400.815 362.887 402.756 364.103C404.697 365.319 407.349 366.453 408.1 366.727C408.851 367 408.893 367.356 410.957 364.957C413.02 362.557 412.917 356.989 412.814 356.1C412.711 355.211 401.852 351.604 401.852 351.604Z" fill="white" stroke="#263238" stroke-width="0.948667" stroke-miterlimit="10"/>
<path d="M447.592 248.946L442.74 255.268C442.74 255.268 411.966 286.706 411.468 290.184C410.97 293.662 401.852 351.603 401.852 351.603L412.602 357.383L429.715 303.199L458.333 278.879L459.993 279.227L477.598 319.99C477.598 319.99 479.415 320.14 479.928 319.901C480.44 319.662 539.264 303.12 539.264 303.12L537.452 295.227L489.471 298.094L483.215 261.215C483.215 261.215 483.112 250.965 480.815 245.109L447.592 248.946Z" fill="#263238" stroke="#263238" stroke-width="0.948667" stroke-miterlimit="10"/>
<path d="M460.501 183.001L455.512 185.018L453.982 192.037L456.777 189.733C456.777 189.733 451.257 201.173 449.543 206.592C447.828 212.011 445.179 234.282 444.913 241.334C444.647 248.386 444.935 250.874 450.189 251.167C455.444 251.46 471.831 249.928 475.364 249.34C478.897 248.752 481.405 248.643 482.532 244.371C483.659 240.1 483.474 238.5 483.645 236.86C483.816 235.22 487.892 205.043 487.147 197.027C486.401 189.011 484.727 185.423 481.528 181.112C478.329 176.8 476.802 175.769 476.802 175.769L460.501 183.001Z" fill="#407BFF" stroke="#263238" stroke-width="0.948667" stroke-miterlimit="10"/>
<path d="M457.713 137.915C457.713 137.915 452.65 145.04 452.55 147.014C452.451 148.987 452.339 152.27 450.751 154.089C449.163 155.907 445.619 157.789 446.917 159.11C448.214 160.432 449.958 161.375 449.958 161.375C449.958 161.375 449.656 174.327 451.325 174.625C452.995 174.923 462.223 172.712 462.223 172.712L462.907 181.463L476.802 175.77L476.292 169.942C476.292 169.942 486.947 157.429 486.854 152.371C486.76 147.313 485.897 142.671 480.013 138.445C474.129 134.22 475.643 136.007 467.824 132.005C460.004 128.002 456.107 131.068 455.883 133.384C455.658 135.699 457.713 137.915 457.713 137.915Z" fill="white" stroke="#263238" stroke-width="0.948667" stroke-miterlimit="10"/>
<path d="M480.01 138.446C474.127 134.221 475.641 136.007 467.821 132.006C460.001 128.003 456.104 131.069 455.88 133.385C455.657 135.7 457.711 137.915 457.711 137.915C457.711 137.915 461.85 136.946 463.036 137.3C464.222 137.654 467.262 139.919 466.871 140.782C466.481 141.644 463.346 142.824 464.898 144.934C466.45 147.044 469.361 148.18 468.977 150.513C468.592 152.847 466.302 154.256 467.742 155.398C469.182 156.539 469.754 155.82 470.684 155.386C471.615 154.951 475.45 154.181 474.246 157.918C473.043 161.654 470.337 162.294 470.337 162.294C470.337 162.294 472.193 168.456 475.495 168.729C476.037 168.773 476.701 168.705 477.423 168.569C480.162 165.184 486.925 156.409 486.85 152.374C486.757 147.313 485.894 142.672 480.01 138.446Z" fill="#263238" stroke="#263238" stroke-width="0.948667" stroke-miterlimit="10"/>
<path d="M456.411 153.43C456.278 154.373 455.867 155.095 455.494 155.042C455.12 154.989 454.924 154.182 455.057 153.239C455.19 152.296 455.601 151.574 455.975 151.626C456.348 151.678 456.544 152.486 456.411 153.43Z" fill="#263238"/>
<path d="M454.312 148.118C454.312 148.118 457.421 145.306 459.066 148.223" stroke="#263238" stroke-width="0.948667" stroke-miterlimit="10"/>
<path d="M462.221 172.712L468.439 171.339L462.45 176.12L462.221 172.712Z" fill="#263238" stroke="#263238" stroke-width="0.948667" stroke-miterlimit="10"/>
<path d="M476.373 172.346C475.861 172.585 458.996 182.455 458.996 182.455L459.325 189.979L480.009 177.327L476.373 172.346Z" fill="#407BFF" stroke="#263238" stroke-width="0.948667" stroke-miterlimit="10"/>
<path d="M399.588 191.836L437.862 186.515L441.719 215.236L446.517 214.682L450.19 251.166L409.674 258.906C409.674 258.906 405.1 228.648 405.187 221.616L401.948 221.63L399.588 191.836Z" fill="white" stroke="#263238" stroke-width="0.948667" stroke-miterlimit="10"/>
<path d="M408.941 190.216L451.5 184.58L451.366 174.98L408.277 178.23L408.941 190.216Z" fill="#263238" stroke="#263238" stroke-width="0.948667" stroke-miterlimit="10"/>
<path d="M435.804 178.126L411.818 180.896L412.577 187.47L436.564 184.7L435.804 178.126Z" fill="white" stroke="#263238" stroke-width="0.948667" stroke-miterlimit="10"/>
<path d="M446.652 180.009C446.782 181.137 445.973 182.158 444.845 182.288C443.716 182.418 442.696 181.61 442.566 180.481C442.436 179.353 443.245 178.332 444.374 178.202C445.502 178.072 446.522 178.881 446.652 180.009Z" stroke="#263238" stroke-width="0.948667" stroke-miterlimit="10"/>
<path d="M401.352 197.754L422.015 194.288" stroke="#263238" stroke-width="0.948667" stroke-miterlimit="10"/>
<path d="M411.631 199.447L429.965 196.07" stroke="#263238" stroke-width="0.948667" stroke-miterlimit="10"/>
<path d="M435.471 200.114L428.426 201.469" stroke="#263238" stroke-width="0.948667" stroke-miterlimit="10"/>
<path d="M402.242 211.695L425.059 208.159" stroke="#263238" stroke-width="0.948667" stroke-miterlimit="10"/>
<path d="M411.801 207.17L422.064 205.624" stroke="#263238" stroke-width="0.948667" stroke-miterlimit="10"/>
<path d="M426.793 207.598L429.97 207.052" stroke="#263238" stroke-width="0.948667" stroke-miterlimit="10"/>
<path d="M407.291 214.892L427.839 211.979" stroke="#263238" stroke-width="0.948667" stroke-miterlimit="10"/>
<path d="M437.344 213.221L424.039 214.938" stroke="#263238" stroke-width="0.948667" stroke-miterlimit="10"/>
<path d="M406.547 220.919L439.69 216.372" stroke="#263238" stroke-width="0.948667" stroke-miterlimit="10"/>
<path d="M416.572 223.542L430.923 221.525" stroke="#263238" stroke-width="0.948667" stroke-miterlimit="10"/>
<path d="M407.553 229.625L430.787 226.582" stroke="#263238" stroke-width="0.948667" stroke-miterlimit="10"/>
<path d="M433.293 226.472L437.359 225.822" stroke="#263238" stroke-width="0.948667" stroke-miterlimit="10"/>
<path d="M409.629 235.147L420.98 233.656" stroke="#263238" stroke-width="0.948667" stroke-miterlimit="10"/>
<path d="M418.297 238.467L429.449 236.818" stroke="#263238" stroke-width="0.948667" stroke-miterlimit="10"/>
<path d="M444.505 247.143L437.795 248.277" stroke="#263238" stroke-width="0.948667" stroke-miterlimit="10"/>
<path d="M410.576 248L416.972 247.261" stroke="#263238" stroke-width="0.948667" stroke-miterlimit="10"/>
<path d="M415.105 245.136L419.725 244.603" stroke="#263238" stroke-width="0.948667" stroke-miterlimit="10"/>
<path d="M440.748 228.672L418.726 251.56C418.726 251.56 413.642 254.307 413.253 255.612C412.864 256.918 410.678 262.931 410.76 263.642C410.843 264.352 412.325 264.721 413.548 264.4C414.771 264.078 416.151 263.559 416.151 263.559C416.151 263.559 418.052 264.42 420.204 264.351C422.357 264.283 425.015 262.355 425.602 261.208C426.189 260.06 428.895 255.426 428.895 255.426L430.582 252.891L448.444 236.064L440.748 228.672Z" fill="white" stroke="#263238" stroke-width="0.948667" stroke-miterlimit="10"/>
<path d="M459.969 225.191C459.969 225.191 474.503 224.773 478.289 223.255" stroke="#263238" stroke-width="0.948667" stroke-miterlimit="10"/>
<path d="M458.18 226.838C458.18 226.838 470.242 234.627 478.675 234.373" stroke="#263238" stroke-width="0.948667" stroke-miterlimit="10"/>
<path d="M473.087 189.109C473.087 189.109 470.422 189.416 466.548 193.285C462.673 197.153 442.162 226.889 442.162 226.889L448.443 236.065C448.443 236.065 482.226 210.558 482.827 207.968C483.428 205.379 483.264 203.957 482.081 199.953" fill="#407BFF"/>
<path d="M473.087 189.109C473.087 189.109 470.422 189.416 466.548 193.285C462.673 197.153 442.162 226.889 442.162 226.889L448.443 236.065C448.443 236.065 482.226 210.558 482.827 207.968C483.428 205.379 483.264 203.957 482.081 199.953" stroke="#263238" stroke-width="0.948667" stroke-miterlimit="10"/>
<path d="M482.826 207.969C482.826 207.969 459.648 219.287 452.76 220.443" stroke="#263238" stroke-width="0.948667" stroke-miterlimit="10"/>
<path d="M462.335 214.476L448.805 218.92" stroke="#263238" stroke-width="0.948667" stroke-miterlimit="10"/>
<path d="M439.463 228.459C439.463 228.459 446.954 238.757 447.466 238.518C447.978 238.279 452.522 233.973 452.522 233.973L444.867 222.254L439.463 228.459Z" fill="#407BFF" stroke="#263238" stroke-width="0.948667" stroke-miterlimit="10"/>
<path d="M537.453 295.228L547.32 293.368C547.32 293.368 548.331 294.332 548.756 296.443C549.18 298.555 552.222 312.426 552.324 313.315C552.427 314.203 552.789 315.782 552.256 315.843C551.723 315.905 550.596 315.495 549.605 314.71C548.613 313.924 541.123 303.626 541.123 303.626L539.264 303.121L537.453 295.228Z" fill="white" stroke="#263238" stroke-width="0.948667" stroke-miterlimit="10"/>
<path d="M137.213 133.672C137.213 133.672 125.399 128.684 117.26 133.409C109.121 138.134 106.102 146.667 104.789 153.756C103.476 160.844 106.889 170.952 106.889 173.184C106.889 175.415 106.365 176.728 106.365 176.728C106.365 176.728 107.939 178.172 115.029 178.304C122.117 178.434 128.025 178.304 131.962 177.647C135.9 176.991 141.677 175.022 141.677 175.022L136.689 160.976C136.689 160.976 144.303 156.775 148.372 152.968C152.441 149.161 152.966 142.204 149.028 136.822C145.089 131.44 138.92 131.703 137.213 133.672Z" fill="#263238" stroke="#263238" stroke-width="0.948667" stroke-miterlimit="10"/>
<path d="M129.206 172.003C129.206 172.003 130.65 177.385 130.65 178.829C130.65 180.273 130.781 180.799 130.519 181.717C130.256 182.636 130.125 182.898 125.399 182.636C120.674 182.373 121.461 191.037 121.461 191.037L121.986 232.256C121.986 232.256 131.307 235.407 141.152 235.013C150.997 234.619 153.754 232.256 153.754 232.256L152.967 203.114L148.372 181.06C148.372 181.06 145.091 181.191 143.909 180.667C142.728 180.141 142.465 180.273 142.334 179.354C142.203 178.434 141.677 175.022 141.677 175.022L129.206 172.003Z" fill="white" stroke="#263238" stroke-width="0.948667" stroke-miterlimit="10"/>
<path d="M152.967 203.114L150.924 193.312C142.459 194.64 128.155 194.912 121.512 194.964L121.987 232.256C121.987 232.256 131.307 235.407 141.153 235.013C150.998 234.619 153.755 232.256 153.755 232.256L152.967 203.114Z" stroke="#263238" stroke-width="0.948667" stroke-miterlimit="10"/>
<path d="M105.691 286.522L102.753 301.029C102.753 301.029 96.877 311.312 95.0404 319.575C93.2038 327.838 88.9803 355.75 88.9803 355.75C88.9803 355.75 84.0226 364.564 83.6554 368.787C83.2883 373.011 84.5737 373.378 87.1446 372.092C89.7155 370.807 92.8376 365.115 93.5718 360.707C94.3061 356.3 94.6732 354.831 94.8573 354.28C95.0413 353.729 113.771 313.698 115.24 310.026C116.71 306.354 125.156 287.807 125.156 287.807L105.691 286.522Z" fill="white" stroke="#263238" stroke-width="0.948667" stroke-miterlimit="10"/>
<path d="M86.0442 364.931L87.5137 359.606L86.9445 359.669C85.5301 362.566 83.8642 366.406 83.6574 368.787C83.2903 373.011 84.5757 373.378 87.1466 372.093C89.7175 370.807 92.8395 365.115 93.5738 360.708L89.7175 366.401L86.0442 364.931Z" fill="white" stroke="#263238" stroke-width="0.948667" stroke-miterlimit="10"/>
<path d="M164.084 288.542C164.084 288.542 165.002 295.519 164.635 300.294C164.268 305.068 156.372 361.075 156.372 361.075C156.372 361.075 158.025 363.83 162.248 366.032C166.472 368.236 169.961 369.889 169.226 370.256C168.491 370.623 163.35 371.174 158.208 370.807C153.066 370.44 149.027 369.889 149.027 369.889C149.027 369.889 147.558 369.522 147.925 367.685C148.292 365.848 149.211 359.972 149.395 358.504C149.579 357.035 149.028 348.037 148.844 338.855C148.66 329.674 145.906 320.86 146.089 314.433C146.273 308.005 147.19 301.028 147.19 301.028L144.619 289.459L164.084 288.542Z" fill="white" stroke="#263238" stroke-width="0.948667" stroke-miterlimit="10"/>
<path d="M162.249 366.034L160.045 367.503C160.045 367.503 157.474 368.237 152.884 366.585C151.061 365.929 149.564 365.362 148.413 364.914C148.222 366.07 148.045 367.091 147.926 367.687C147.559 369.524 149.028 369.891 149.028 369.891C149.028 369.891 153.067 370.442 158.209 370.809C163.35 371.176 168.492 370.625 169.227 370.258C169.961 369.889 166.473 368.236 162.249 366.034Z" fill="white" stroke="#263238" stroke-width="0.948667" stroke-miterlimit="10"/>
<path d="M118.727 231.066C118.727 231.066 110.831 247.225 109.179 256.774C107.526 266.322 104.955 288.357 104.955 288.357C104.955 288.357 128.643 290.928 141.865 291.111C155.086 291.295 164.268 290.01 164.268 290.01C164.268 290.01 159.677 254.386 158.392 245.939C157.106 237.492 154.535 230.513 154.535 230.513L118.177 229.228L118.727 231.066Z" fill="#263238" stroke="#263238" stroke-width="0.948667" stroke-miterlimit="10"/>
<path d="M140.148 145.982C140.148 145.982 140.564 149.732 134.522 155.566C128.48 161.4 120.562 162.026 120.562 162.026C120.562 162.026 127.022 171.819 128.064 173.069C129.105 174.319 137.648 177.653 143.066 175.986C148.484 174.319 148.275 165.985 148.483 160.567C148.691 155.151 142.648 145.774 142.648 145.774L140.148 145.982Z" fill="white" stroke="#263238" stroke-width="0.948667" stroke-miterlimit="10"/>
<path d="M139.107 154.317C139.107 154.317 139.107 157.234 139.733 158.275C140.358 159.317 143.483 159.942 143.483 159.942L142.441 162.859" stroke="#263238" stroke-width="0.948667" stroke-miterlimit="10"/>
<path d="M120.564 162.026C120.344 161.743 118.565 163.929 118.471 164.177C117.663 166.308 119.093 169.191 121.524 169.191C124.232 169.191 124.557 168.408 124.557 168.408C124.557 168.408 120.579 162.049 120.564 162.026Z" fill="white" stroke="#263238" stroke-width="0.948667" stroke-miterlimit="10"/>
<path d="M140.621 169.214C141.472 169.214 142.161 168.363 142.161 167.314C142.161 166.264 141.472 165.413 140.621 165.413C139.77 165.413 139.08 166.264 139.08 167.314C139.08 168.363 139.77 169.214 140.621 169.214Z" fill="#263238"/>
<path d="M143.355 155.183C143.583 155.944 143.373 156.679 142.884 156.826C142.396 156.973 141.813 156.476 141.585 155.715C141.356 154.954 141.566 154.219 142.055 154.072C142.544 153.925 143.126 154.422 143.355 155.183Z" fill="#263238"/>
<path d="M134.419 157.647C134.648 158.408 134.437 159.143 133.949 159.29C133.46 159.438 132.878 158.94 132.649 158.18C132.42 157.419 132.631 156.684 133.12 156.536C133.608 156.389 134.19 156.887 134.419 157.647Z" fill="#263238"/>
<path d="M139.801 152.367C139.801 152.367 141.958 150.312 143.705 150.724" stroke="#263238" stroke-width="0.948667" stroke-miterlimit="10"/>
<path d="M37.3814 165.143C37.3814 165.143 33.342 166.979 33.7091 167.897C34.0763 168.815 35.5458 172.855 36.6472 172.671C37.7486 172.488 40.5035 170.835 41.4218 169.549C42.3392 168.264 37.3814 165.143 37.3814 165.143Z" fill="white" stroke="#263238" stroke-width="0.948667" stroke-miterlimit="10"/>
<path d="M52.0711 169.549C52.0711 169.549 44.3584 165.877 43.073 165.142C41.7875 164.407 32.4223 159.449 32.4223 159.449C32.4223 159.449 30.5857 160.367 30.9528 161.468C31.32 162.57 37.7472 166.61 38.4814 167.344C39.2157 168.079 39.3997 169.181 39.2157 170.098C39.0317 171.017 34.0739 173.588 33.1556 173.771C32.2373 173.955 31.1359 174.689 32.7885 175.79C34.4411 176.892 38.1134 175.607 39.5828 175.423C41.0523 175.239 42.3368 175.79 44.1734 175.79C46.0101 175.79 48.9481 174.505 48.9481 174.505L50.2335 174.689L52.0711 169.549Z" fill="white" stroke="#263238" stroke-width="0.948667" stroke-miterlimit="10"/>
<path d="M143.91 180.667C143.91 180.667 149.03 203.245 148.898 209.809C148.766 216.372 149.555 246.696 149.161 251.816C148.767 256.936 148.374 262.186 154.806 263.892C161.238 265.599 166.751 262.448 166.751 262.448C166.751 262.448 157.824 232.387 157.037 227.268C156.249 222.149 155.462 217.554 155.987 214.929C156.511 212.303 158.218 209.678 158.481 206.658C158.744 203.638 158.35 200.883 158.35 200.883L174.627 212.959C174.627 212.959 177.253 215.322 180.665 214.535C184.079 213.747 184.735 204.427 182.766 200.489C180.796 196.551 164.519 186.968 161.631 185.13C158.744 183.292 152.704 180.667 151.13 180.667C149.555 180.667 143.91 180.667 143.91 180.667Z" fill="#407BFF" stroke="#263238" stroke-width="0.948667" stroke-miterlimit="10"/>
<path d="M149.077 193.496L152.798 191.016L146.724 180.667C145.204 180.667 143.91 180.667 143.91 180.667C143.91 180.667 149.03 203.245 148.898 209.809C148.856 211.947 148.911 216.612 148.99 222.1L154.039 196.225L149.077 193.496Z" fill="#407BFF" stroke="#263238" stroke-width="0.948667" stroke-miterlimit="10"/>
<path d="M153.492 172.659L155.33 186.836C155.33 186.836 160.055 187.755 160.843 187.361C161.631 186.968 161.631 185.13 161.631 185.13L159.661 172.922L153.492 172.659Z" fill="#263238" stroke="#263238" stroke-width="0.948667" stroke-miterlimit="10"/>
<path d="M174.25 178.03L174.084 153.267C159.293 161.743 147.16 162.74 147.16 162.74C145.324 162.74 143.836 165.195 143.836 168.224C143.836 171.253 145.324 173.708 147.16 173.708C147.296 173.708 147.429 173.691 147.559 173.665C160.572 172.173 174.25 178.03 174.25 178.03Z" fill="white" stroke="#263238" stroke-width="0.948667" stroke-miterlimit="10"/>
<path d="M175.616 180.855C181.837 180.855 186.881 174.084 186.881 165.731C186.881 157.379 181.837 150.607 175.616 150.607C169.395 150.607 164.352 157.379 164.352 165.731C164.352 174.084 169.395 180.855 175.616 180.855Z" fill="white" stroke="#263238" stroke-width="0.948667" stroke-miterlimit="10"/>
<path d="M175.616 178.438C180.843 178.438 185.08 172.749 185.08 165.731C185.08 158.714 180.843 153.025 175.616 153.025C170.389 153.025 166.152 158.714 166.152 165.731C166.152 172.749 170.389 178.438 175.616 178.438Z" fill="white" stroke="#263238" stroke-width="0.948667" stroke-miterlimit="10"/>
<path d="M166.767 161.257C166.376 162.651 166.152 164.153 166.152 165.731C166.152 167.726 166.504 169.606 167.114 171.286L173.508 169.627V161.836L166.937 161.078L166.767 161.257Z" fill="white" stroke="#263238" stroke-width="0.948667" stroke-miterlimit="10"/>
<path d="M173.507 169.627C175.11 169.627 176.409 167.883 176.409 165.731C176.409 163.579 175.11 161.835 173.507 161.835C171.905 161.835 170.605 163.579 170.605 165.731C170.605 167.883 171.905 169.627 173.507 169.627Z" fill="#407BFF" stroke="#263238" stroke-width="0.948667" stroke-miterlimit="10"/>
<path d="M153.5 161.583C149.553 162.542 147.162 162.74 147.162 162.74C145.326 162.74 143.838 165.195 143.838 168.224C143.838 171.253 145.326 173.708 147.162 173.708C147.298 173.708 147.43 173.691 147.561 173.665C149.637 173.427 151.729 173.376 153.78 173.459C149.745 169.022 152.515 163.293 153.5 161.583Z" fill="#407BFF" stroke="#263238" stroke-width="0.948667" stroke-miterlimit="10"/>
<path d="M151.497 175.964L149.717 177.334L150.538 181.99L152.73 182.401L153.141 176.786L151.497 175.964Z" fill="white" stroke="#263238" stroke-width="0.948667" stroke-miterlimit="10"/>
<path d="M164.256 182.636L159.164 174.185L151.496 175.964L151.359 177.882L152.318 178.429L153.139 185.413L158.617 186.371C158.617 186.371 160.397 188.288 161.355 188.425C162.314 188.562 163.546 188.288 163.546 188.288L165.463 189.795L168.887 185.413L164.256 182.636Z" fill="white" stroke="#263238" stroke-width="0.948667" stroke-miterlimit="10"/>
<path d="M166.284 183.085L162.039 189.795C162.039 189.795 172.394 211.778 175.282 213.747C178.169 215.716 182.896 216.11 186.177 212.434C189.458 208.759 188.54 203.245 186.702 200.751C184.865 198.257 166.284 183.085 166.284 183.085Z" fill="#407BFF" stroke="#263238" stroke-width="0.948667" stroke-miterlimit="10"/>
<path d="M152.318 178.43L158.48 177.608" stroke="#263238" stroke-width="0.948667" stroke-miterlimit="10"/>
<path d="M153.141 181.168L157.933 180.895" stroke="#263238" stroke-width="0.948667" stroke-miterlimit="10"/>
<path d="M153.004 183.359L157.66 183.907" stroke="#263238" stroke-width="0.948667" stroke-miterlimit="10"/>
<path d="M130.65 178.829C130.65 178.829 128.156 180.01 127.762 180.273C127.368 180.536 115.029 178.304 115.029 178.304C115.029 178.304 110.068 179.108 106.655 179.108C103.242 179.108 91.0068 177.516 91.0068 177.516L50.9693 168.327L49.3945 176.992L92.5826 194.188L112.667 202.327C112.667 202.327 113.454 211.647 113.717 218.867C113.98 226.087 109.385 237.113 108.597 239.476C107.81 241.84 98.6208 257.986 98.6208 257.986C98.6208 257.986 112.01 263.893 117.787 265.074C123.889 266.322 132.08 263.479 134.465 257.369C135.609 254.438 135.718 251.22 135.811 248.074C136.278 232.397 136.372 215.849 133.145 200.358C132.356 196.813 130.65 178.829 130.65 178.829Z" fill="#407BFF" stroke="#263238" stroke-width="0.948667" stroke-miterlimit="10"/>
<path d="M128.484 194.489L124.515 197.713L135.917 225.81C135.64 217.22 134.869 208.637 133.143 200.356C132.356 196.812 130.649 178.828 130.649 178.828C130.649 178.828 128.155 180.009 127.762 180.272L123.771 192.256L128.484 194.489Z" fill="#407BFF" stroke="#263238" stroke-width="0.948667" stroke-miterlimit="10"/>
</g>
<defs>
<clipPath id="clip0_172_11542">
<rect width="678" height="397" fill="white"/>
</clipPath>
</defs>
</svg>
