<svg width="47" height="67" viewBox="0 0 47 67" fill="none" xmlns="http://www.w3.org/2000/svg">
<path d="M23.5971 67C25.844 67 27.6681 65.284 27.6681 63.1644C27.6681 61.0475 27.6681 59.3315 27.6681 59.3315C38.7824 58.3134 46.1399 52.4429 46.1399 42.8928V42.7367C46.1399 33.0305 39.878 28.5695 27.4331 25.6744V16.5949C29.2247 17.0327 31.0801 17.6532 32.8934 18.458C35.8116 19.7515 39.3579 18.9407 41.1297 16.0441C42.9028 13.1493 41.945 9.08289 38.6601 7.60815C35.3891 6.14137 31.7993 5.13089 27.8228 4.6962V2.34725C27.8228 1.05229 26.0016 0 23.7533 0C21.5051 0 19.6824 0.999665 19.6824 2.22805C19.6824 3.46127 19.6824 4.45923 19.6824 4.45923C7.70464 5.32121 0.973829 11.7394 0.973829 20.9753V21.1332C0.973829 30.838 7.39199 35.1456 19.9948 38.039V47.4329C16.9713 46.9455 14.0113 45.9413 10.9986 44.4031C7.78941 42.766 3.85789 43.3449 1.9129 46.2196C-0.0335172 49.0928 0.752502 53.1748 3.9879 54.7622C8.74128 57.0972 14.1134 58.6226 19.5245 59.1768V63.0898C19.5262 65.2485 21.3489 67 23.5971 67ZM27.3526 39.2925C31.4252 40.4654 32.5978 41.6414 32.5978 43.7534V43.9113C32.5978 46.1811 30.9547 47.5102 27.3526 47.9034V39.2925ZM14.7495 19.9572V19.801C14.7495 17.7664 16.2379 16.2003 20.0721 15.888V24.3424C15.8468 23.1678 14.7495 21.9918 14.7495 19.9572Z" fill="#9D9D9D"/>
</svg>
