<svg width="45" height="45" viewBox="0 0 45 45" fill="none" xmlns="http://www.w3.org/2000/svg">
<path fill-rule="evenodd" clip-rule="evenodd" d="M7.992 24.75C7.91465 24.0107 7.875 23.2598 7.875 22.5C7.875 21.7402 7.91465 20.9893 7.992 20.25H5.625C3.76103 20.25 2.25 18.7389 2.25 16.875C2.25 15.011 3.76103 13.5 5.625 13.5H9.85646C13.2537 6.19193 20.6602 1.125 29.25 1.125C33.2134 1.125 37.0258 2.20853 40.343 4.22566C41.9355 5.19415 42.4415 7.27031 41.4729 8.86293C40.5045 10.4555 38.4282 10.9615 36.8356 9.99299C34.5683 8.61415 31.9676 7.875 29.25 7.875C24.5671 7.875 20.3981 10.076 17.7214 13.5H24.75C26.6139 13.5 28.125 15.011 28.125 16.875C28.125 18.7389 26.6139 20.25 24.75 20.25H14.797C14.6837 20.9835 14.625 21.7348 14.625 22.5C14.625 23.2652 14.6837 24.0165 14.797 24.75H24.75C26.6139 24.75 28.125 26.2611 28.125 28.125C28.125 29.9889 26.6139 31.5 24.75 31.5H17.7214C20.3981 34.9241 24.5671 37.125 29.25 37.125C31.9676 37.125 34.5683 36.3859 36.8356 35.0071C38.4282 34.0384 40.5045 34.5445 41.4729 36.137C42.4415 37.7296 41.9355 39.8059 40.343 40.7743C37.0258 42.7914 33.2134 43.875 29.25 43.875C20.6602 43.875 13.2537 38.808 9.85646 31.5H5.625C3.76103 31.5 2.25 29.9889 2.25 28.125C2.25 26.2611 3.76103 24.75 5.625 24.75H7.992Z" fill="#9D9D9D"/>
</svg>
