<svg width="10" height="10" viewBox="0 0 10 10" fill="none" xmlns="http://www.w3.org/2000/svg">
<path d="M0 10V0H5V2.14286H10V10H0ZM0.9375 8.92857H1.875V7.85714H0.9375V8.92857ZM0.9375 6.66667H1.875V5.59524H0.9375V6.66667ZM0.9375 4.40476H1.875V3.33333H0.9375V4.40476ZM0.9375 2.14286H1.875V1.07143H0.9375V2.14286ZM3.125 8.92857H4.0625V7.85714H3.125V8.92857ZM3.125 6.66667H4.0625V5.59524H3.125V6.66667ZM3.125 4.40476H4.0625V3.33333H3.125V4.40476ZM3.125 2.14286H4.0625V1.07143H3.125V2.14286ZM5 8.92857H9.0625V3.21429H5V4.40476H5.9375V5.47619H5V6.66667H5.9375V7.7381H5V8.92857ZM7.1875 5.47619V4.40476H8.125V5.47619H7.1875ZM7.1875 7.7381V6.66667H8.125V7.7381H7.1875Z" fill="#9D9D9D"/>
</svg>
