<svg width="27" height="33" viewBox="0 0 27 33" fill="none" xmlns="http://www.w3.org/2000/svg">
<path d="M16.7031 20.9844C19.4216 20.9844 22.0287 19.9045 23.951 17.9822C25.8732 16.06 26.9531 13.4528 26.9531 10.7344C26.9531 8.01591 25.8732 5.40878 23.951 3.48653C22.0287 1.56428 19.4216 0.484375 16.7031 0.484375H7.09375C6.58404 0.4844 6.09522 0.686891 5.73481 1.04731C5.37439 1.40772 5.1719 1.89654 5.17188 2.40625V17.1406H1.96875C1.45904 17.1406 0.9702 17.3431 0.609779 17.7035C0.249357 18.064 0.046875 18.5528 0.046875 19.0625C0.046875 19.5722 0.249357 20.061 0.609779 20.4215C0.9702 20.7819 1.45904 20.9844 1.96875 20.9844H5.17188V23.5469H1.96875C1.45904 23.5469 0.9702 23.7494 0.609779 24.1098C0.249357 24.4702 0.046875 24.959 0.046875 25.4688C0.046875 25.9785 0.249357 26.4673 0.609779 26.8277C0.9702 27.1881 1.45904 27.3906 1.96875 27.3906H5.17188V30.5938C5.17188 31.1035 5.37436 31.5923 5.73478 31.9527C6.0952 32.3131 6.58404 32.5156 7.09375 32.5156C7.60346 32.5156 8.0923 32.3131 8.45272 31.9527C8.81314 31.5923 9.01562 31.1035 9.01562 30.5938V27.3906H16.0625C16.5722 27.3906 17.061 27.1881 17.4215 26.8277C17.7819 26.4673 17.9844 25.9785 17.9844 25.4688C17.9844 24.959 17.7819 24.4702 17.4215 24.1098C17.061 23.7494 16.5722 23.5469 16.0625 23.5469H9.01562V20.9844H16.7031ZM9.01562 4.32812H16.7031C18.4022 4.32813 20.0316 5.00307 21.233 6.20447C22.4344 7.40588 23.1094 9.03533 23.1094 10.7344C23.1094 12.4334 22.4344 14.0629 21.233 15.2643C20.0316 16.4657 18.4022 17.1406 16.7031 17.1406H9.01562V4.32812Z" fill="#9D9D9D"/>
</svg>
