<svg width="17" height="17" viewBox="0 0 17 17" fill="none" xmlns="http://www.w3.org/2000/svg">
<path fill-rule="evenodd" clip-rule="evenodd" d="M7 14C10.866 14 14 10.866 14 7C14 3.13401 10.866 0 7 0C3.13401 0 0 3.13401 0 7C0 10.866 3.13401 14 7 14ZM7 2C6.34339 2 5.69321 2.12933 5.08658 2.3806C4.47995 2.63188 3.92876 3.00017 3.46447 3.46447C3.00017 3.92876 2.63188 4.47996 2.3806 5.08658C2.12933 5.69321 2 6.34339 2 7C2 7.55229 2.44772 8 3 8C3.55228 8 4 7.55229 4 7C4 6.60603 4.0776 6.21593 4.22836 5.85195C4.37913 5.48797 4.6001 5.15726 4.87868 4.87868C5.15726 4.6001 5.48797 4.37913 5.85195 4.22836C6.21593 4.0776 6.60603 4 7 4C7.55228 4 8 3.55228 8 3C8 2.44772 7.55228 2 7 2Z" fill="#9D9D9D"/>
<path d="M16 16L14 14" stroke="#9D9D9D" stroke-width="2" stroke-linecap="round"/>
</svg>
