<svg width="10" height="10" viewBox="0 0 10 10" fill="none" xmlns="http://www.w3.org/2000/svg">
<path d="M2.15 4.375L4.7 0L7.25 4.375H2.15ZM7.4 10C6.81667 10 6.32083 9.78733 5.9125 9.36198C5.50417 8.93663 5.3 8.42014 5.3 7.8125C5.3 7.21354 5.50417 6.69922 5.9125 6.26953C6.32083 5.83984 6.81667 5.625 7.4 5.625C7.975 5.625 8.46875 5.83984 8.88125 6.26953C9.29375 6.69922 9.5 7.21354 9.5 7.8125C9.5 8.42014 9.29375 8.93663 8.88125 9.36198C8.46875 9.78733 7.975 10 7.4 10ZM0.5 9.6875V5.9375H4.1V9.6875H0.5Z" fill="#9D9D9D"/>
</svg>
