<svg width="19" height="29" viewBox="0 0 19 29" fill="none" xmlns="http://www.w3.org/2000/svg">
<path d="M0.75 18.4H5.4C5.58 19 5.87 19.53 6.27 19.99C7.15 21.03 8.46 21.55 10.2 21.55C12.8 21.55 14.1 20.75 14.1 19.15C14.1 18.75 13.96 18.39 13.68 18.07C13.42 17.75 13 17.47 12.42 17.23C11.86 16.99 11.31 16.8 10.77 16.66C10.25 16.5 9.57 16.31 8.73 16.09C8.61 16.07 8.51 16.05 8.43 16.03C8.37 16.01 8.28 15.99 8.16 15.97C8.06 15.93 7.97 15.9 7.89 15.88C3.73 14.88 1.65 12.87 1.65 9.85C1.65 8.29 2.23 6.92 3.39 5.74C4.55 4.54 6.12 3.8 8.1 3.52V0.699998H12.3V3.67C14.56 4.21 16.27 5.39 17.43 7.21C17.91 7.99 18.25 8.87 18.45 9.85H13.8C13.68 9.43 13.45 9.03 13.11 8.65C12.35 7.85 11.23 7.45 9.75 7.45C8.61 7.45 7.75 7.67 7.17 8.11C6.59 8.53 6.3 9.06 6.3 9.7C6.3 10.86 7.62 11.74 10.26 12.34C10.94 12.5 11.36 12.6 11.52 12.64C11.7 12.68 12.11 12.79 12.75 12.97C13.41 13.15 13.85 13.3 14.07 13.42C14.31 13.52 14.7 13.69 15.24 13.93C15.8 14.15 16.19 14.36 16.41 14.56C16.65 14.76 16.95 15.03 17.31 15.37C17.69 15.69 17.96 16.02 18.12 16.36C18.28 16.7 18.42 17.1 18.54 17.56C18.68 18 18.75 18.48 18.75 19C18.75 20.58 18.18 21.98 17.04 23.2C15.9 24.4 14.32 25.15 12.3 25.45V28.3H8.1V25.42C5.44 24.94 3.42 23.64 2.04 21.52C1.42 20.58 0.99 19.54 0.75 18.4Z" fill="#9D9D9D"/>
</svg>
