<svg width="17" height="15" viewBox="0 0 17 15" fill="none" xmlns="http://www.w3.org/2000/svg">
<path d="M10.0427 4.83435V2.97485H14.2949V0.141602H2.71595V2.97485H6.9687V4.83285C3.51245 4.9916 0.913696 5.6761 0.913696 6.4961C0.913696 7.3161 3.5137 8.0006 6.9687 8.16035V14.1166H10.0437V8.15985C13.4937 8.0006 16.0872 7.3166 16.0872 6.49735C16.0872 5.6781 13.4937 4.9941 10.0437 4.83485M10.0437 7.65535V7.65385C9.95695 7.65935 9.5112 7.6861 8.5187 7.6861C7.7252 7.6861 7.16695 7.6636 6.9702 7.65335V7.65585C3.9167 7.5206 1.63745 6.98885 1.63745 6.3526C1.63745 5.71635 3.91695 5.18535 6.9702 5.04985V7.1261C7.1702 7.13985 7.7422 7.1736 8.5317 7.1736C9.47995 7.1736 9.9567 7.1341 10.0442 7.1261V5.04985C13.0917 5.1856 15.3657 5.71785 15.3657 6.35185C15.3657 6.98585 13.0907 7.51835 10.0442 7.6541" fill="#9D9D9D"/>
</svg>
