<svg width="20" height="18" viewBox="0 0 20 18" fill="none" xmlns="http://www.w3.org/2000/svg">
<path fill-rule="evenodd" clip-rule="evenodd" d="M0.87868 0.87868C0 1.75736 0 3.17157 0 6V12C0 14.8284 0 16.2426 0.87868 17.1213C1.75736 18 3.17157 18 6 18H16C16.93 18 17.395 18 17.7765 17.8978C18.8117 17.6204 19.6204 16.8117 19.8978 15.7765C20 15.395 20 14.93 20 14H14C12.3431 14 11 12.6569 11 11C11 9.34315 12.3431 8 14 8H20V6C20 3.17157 20 1.75736 19.1213 0.87868C18.2426 0 16.8284 0 14 0H6C3.17157 0 1.75736 0 0.87868 0.87868ZM5 4C4.44772 4 4 4.44772 4 5C4 5.55228 4.44772 6 5 6H8C8.55228 6 9 5.55228 9 5C9 4.44772 8.55228 4 8 4H5Z" fill="#9D9D9D"/>
<path d="M15 11H14" stroke="#9D9D9D" stroke-width="2" stroke-linecap="round"/>
</svg>
