<svg width="16" height="14" viewBox="0 0 16 14" fill="none" xmlns="http://www.w3.org/2000/svg">
<path d="M5.31034 2.01318C3.6432 2.01318 2.28906 3.36732 2.28906 5.03446H15.3824C15.3824 3.36732 14.0282 2.01318 12.3611 2.01318H5.31034ZM2.28906 10.0688V6.03936H15.3824V10.0688C15.3824 11.736 14.0282 13.0901 12.3611 13.0901H5.31034C3.6432 13.0901 2.28906 11.736 2.28906 10.0688ZM4.80624 10.0688C4.52949 10.0688 4.30215 10.2929 4.30215 10.5729C4.30215 10.853 4.52619 11.077 4.80624 11.077H6.81933C7.09609 11.077 7.32342 10.853 7.32342 10.5729C7.32342 10.2929 7.09938 10.0688 6.81933 10.0688H4.80624Z" fill="#407BFF"/>
<path fill-rule="evenodd" clip-rule="evenodd" d="M0.276001 3.02128C0.276001 1.35414 1.63014 0 3.29728 0H10.348C11.3727 0 12.2754 0.50739 12.8224 1.28824C12.6708 1.26848 12.5193 1.26189 12.3611 1.26189H5.31036C3.22479 1.26189 1.53459 2.95209 1.53459 5.03766V10.072C1.53459 10.2269 1.54447 10.3817 1.56095 10.5333C0.78339 9.98636 0.272705 9.0836 0.272705 8.05893V3.02457L0.276001 3.02128Z" fill="#407BFF"/>
</svg>
